<?xml version="1.0" encoding="UTF-8" standalone="no"?>
<!DOCTYPE svg PUBLIC "-//W3C//DTD SVG 1.1//EN" "http://www.w3.org/Graphics/SVG/1.1/DTD/svg11.dtd">
<svg width="100%" height="100%" viewBox="0 0 496 496" version="1.1" xmlns="http://www.w3.org/2000/svg" xmlns:xlink="http://www.w3.org/1999/xlink" xml:space="preserve" xmlns:serif="http://www.serif.com/" style="fill-rule:evenodd;clip-rule:evenodd;stroke-linejoin:round;stroke-miterlimit:2;">
    <g transform="matrix(2.899409,0,0,2.899409,-480.048098,-480.075921)">
        <rect x="181" y="201" width="143" height="105" style="fill:rgb(239,239,239);"/>
    </g>
    <g transform="matrix(2.899409,0,0,2.899409,-480.048098,-480.075921)">
        <path d="M178.275,178.269C186.075,170.935 195.18,168.095 205.368,167.617C231.855,166.373 258.35,167.244 284.84,167.068C291.315,167.025 297.82,167.289 304.221,168.558C321.738,172.033 333.365,184.603 334.168,202.351C335.637,234.814 335.729,267.316 334.167,299.776C333.24,319.041 319.056,333.214 299.736,334.179C267.281,335.799 234.78,335.836 202.326,334.176C182.259,333.15 168.51,317.944 167.608,297.786C166.385,270.463 167.176,243.138 167.116,215.815C167.103,209.701 167.342,203.522 168.515,197.425C169.909,190.178 172.894,183.837 178.275,178.269M290.234,211.184C278.094,211.136 270.837,216.199 266.906,227.567C264.457,234.648 262.094,241.759 259.723,248.868C257.265,256.238 256.294,256.713 249.505,253.483C241.835,249.834 234.284,245.919 226.501,242.533C223.006,241.012 221.724,238.767 221.737,235.251C221.759,229.086 221.815,222.918 221.648,216.757C221.514,211.804 219.264,209.929 214.296,210.284C205.382,210.92 197.954,213.79 193.514,222.446C190.848,227.645 190.444,230.34 194.605,234.533C212.441,252.502 230.324,270.426 248.344,288.21C253.688,293.483 259.191,293.221 264.63,287.868C277.81,274.895 291.031,261.96 303.972,248.75C310.257,242.334 312.521,234.47 309.186,225.759C306.024,217.499 300.069,212.413 290.234,211.184Z" style="fill:rgb(255,55,99);fill-rule:nonzero;"/>
    </g>
</svg>
