<?xml version="1.0" encoding="UTF-8" standalone="no"?>
<!DOCTYPE svg PUBLIC "-//W3C//DTD SVG 1.1//EN" "http://www.w3.org/Graphics/SVG/1.1/DTD/svg11.dtd">
<svg width="100%" height="100%" viewBox="0 0 1443 899" version="1.1" xmlns="http://www.w3.org/2000/svg" xmlns:xlink="http://www.w3.org/1999/xlink" xml:space="preserve" xmlns:serif="http://www.serif.com/" style="fill-rule:evenodd;clip-rule:evenodd;stroke-linejoin:round;stroke-miterlimit:2;">
    <g transform="matrix(1,0,0,1,-26.837,-90.67409)">
        <g transform="matrix(-1,0,0,1,971,77.25)">
            <g transform="matrix(1.237713,0,0,1.237713,-103.144243,-293.528288)">
                <path d="M774.453,314.192C776.47,305.966 787.966,297.431 793.538,307.387C797.211,315.034 797.545,324.048 796.451,332.402C796.758,353.082 788.581,372.63 780.151,391.138C778.532,443.476 731.171,500.52 675.433,491.814C647.8,489.064 624.693,474.262 601.782,459.585C593.848,454.502 585.937,449.434 577.871,444.888C573.857,465.023 571.949,488.131 571.205,499.275L702.414,894.326L773.231,965.761L672,965.761L518.778,586.299L515.44,582.588L508.384,590.435L355,965.761L245.939,965.761L322.214,894.326L452.711,512.892L453.036,511.951L456.057,503.108L457.115,503.108C457.632,493.993 458.738,465.102 453.543,444.888C445.483,449.432 437.579,454.496 429.651,459.575C406.739,474.255 383.626,489.064 355.98,491.814C300.243,500.52 252.89,443.476 251.262,391.138C250.397,389.238 249.524,387.35 248.654,385.471C241.058,369.044 233.739,353.22 234.007,334.663C234.212,320.451 234.228,316.503 235.409,312.941C235.947,311.319 236.726,309.778 237.875,307.387C243.447,297.431 254.944,305.966 256.961,314.192C257.232,301.088 270.673,296.743 275.287,310.228C285.734,290.96 296.398,312.129 293.694,325.008C309.177,331.094 306.746,346.341 304.252,361.987C302.429,373.423 300.572,385.071 305.652,393.509C324.425,454.831 390.549,416.055 427.093,394.626L427.438,394.423C465.736,371.463 494.391,365.779 515.711,368.911C537.031,365.779 565.687,371.463 603.975,394.423L604.343,394.639C640.9,416.071 706.992,454.818 725.762,393.509C730.842,385.071 728.985,373.423 727.161,361.987C724.667,346.341 722.236,331.094 737.72,325.008C735.015,312.129 745.679,290.96 756.127,310.228C760.74,296.743 774.181,301.088 774.453,314.192Z" style="fill:rgb(255,156,138);"/>
            </g>
        </g>
        <g transform="matrix(-1,0,0,1,971,77.25)">
            <g transform="matrix(1.237713,0,0,1.237713,-103.144243,-293.528288)">
                <path d="M275.259,310.307C275.201,309.81 274.778,309.424 274.265,309.424C273.713,309.424 273.265,309.872 273.265,310.424L273.265,319.714L273.272,319.831C273.33,320.328 273.753,320.714 274.265,320.714C274.818,320.714 275.265,320.266 275.265,319.714L275.265,310.424L275.259,310.307ZM255.987,313.122C256.5,313.122 256.923,313.509 256.981,314.006L256.987,314.122L256.987,323.413C256.987,323.965 256.54,324.413 255.987,324.413C255.474,324.413 255.052,324.027 254.994,323.529L254.987,323.413L254.987,314.122C254.987,313.57 255.435,313.122 255.987,313.122Z" style="fill:rgb(48,48,48);"/>
            </g>
        </g>
        <g transform="matrix(-1,0,0,1,971,77.25)">
            <g transform="matrix(1.237713,0,0,1.237713,-103.144243,-293.528288)">
                <path d="M672,781.964L601.675,804.25L514.408,604.358L426.229,811L355,791.061L454.483,508L514.399,510.383L574.315,508L672,781.964Z" style="fill:rgb(48,48,48);fill-rule:nonzero;"/>
            </g>
        </g>
        <g transform="matrix(-1,0,0,1,971,77.25)">
            <g transform="matrix(1.237713,0,0,1.237713,-103.144243,-293.528288)">
                <path d="M222.263,956.579C222.263,960.525 226.46,973.804 226.46,973.804L246.193,973.826L254.224,971.239L260.632,973.842L276.898,973.86C276.898,973.86 281.569,971.978 283.88,971.981C286.192,971.983 289.561,973.874 289.561,973.874L305.42,973.892C305.42,973.892 309.799,971.236 312.263,971.239C314.726,971.242 317.568,973.905 317.568,973.905L331.287,973.92C331.287,973.92 336.245,971.978 338.724,971.981C341.203,971.984 345.335,973.936 345.335,973.936L357.795,973.95L367.797,971.981L374.221,973.968L385.763,973.981L385.198,945.981L223.124,946.281C222.95,947.222 222.263,952.632 222.263,956.579Z" style="fill:rgb(235,235,235);fill-rule:nonzero;"/>
            </g>
        </g>
        <g transform="matrix(-1,0,0,1,971,77.25)">
            <g transform="matrix(1.237713,0,0,1.237713,-103.144243,-293.528288)">
                <path d="M313.706,873.261C320.882,874.142 326.474,900.988 326.474,900.988C326.474,900.988 324.634,919.129 317.948,925.204C311.262,931.279 287.137,937.657 287.137,937.657L225.71,940.055L277.707,915.886C277.707,915.886 292.731,899.824 296.109,897.259C305.697,889.983 306.53,872.38 313.706,873.261Z" style="fill:rgb(250,250,250);"/>
            </g>
        </g>
        <g transform="matrix(-1,0,0,1,971,77.25)">
            <g transform="matrix(1.237713,0,0,1.237713,-103.144243,-293.528288)">
                <path d="M222,949.319L385.763,952.012L388.193,920.481L385.763,890.849L324.158,890.849C324.158,890.849 316.583,907.957 312.263,916.47C307.943,924.984 282.544,930.309 282.544,930.309L285.013,936.289L225.71,940.055C225.507,940.353 225.312,940.659 225.12,940.972C223.734,943.261 222.658,945.922 222.053,949.029C222.034,949.127 222.015,949.221 222,949.319Z" style="fill:rgb(254,223,82);"/>
            </g>
        </g>
        <g transform="matrix(-1,0,0,1,971,77.25)">
            <g transform="matrix(1.237713,0,0,1.237713,-103.144243,-293.528288)">
                <path d="M322.76,912.981C322.76,912.981 317.562,933.127 336.177,927.098C354.793,921.07 373.559,912.981 373.559,912.981C373.559,912.981 346.168,933.308 339.023,936.648C331.877,939.989 313.455,943.033 312.103,934.117C310.752,925.202 322.76,912.981 322.76,912.981Z" style="fill:rgb(250,250,250);"/>
            </g>
        </g>
        <g transform="matrix(-1,0,0,1,971,77.25)">
            <g transform="matrix(1.237713,0,0,1.237713,-103.144243,-293.528288)">
                <path d="M290.751,903.24L290.647,903.187C290.19,902.984 289.642,903.153 289.382,903.595C289.102,904.071 289.261,904.684 289.737,904.964L304.833,913.843L304.937,913.896C305.394,914.098 305.942,913.93 306.202,913.488C306.482,913.012 306.323,912.399 305.847,912.119L290.751,903.24ZM284.33,909.818L284.433,909.872L296.854,917.33C297.328,917.614 297.481,918.229 297.197,918.702C296.933,919.142 296.384,919.306 295.928,919.099L295.825,919.045L283.404,911.587C282.93,911.303 282.777,910.688 283.061,910.215C283.305,909.809 283.791,909.638 284.223,909.777L284.33,909.818ZM278.366,914.99L278.467,915.048L289.544,922.255C290.007,922.556 290.138,923.175 289.837,923.638C289.557,924.068 289.003,924.212 288.555,923.989L288.453,923.931L277.377,916.725C276.914,916.423 276.783,915.804 277.084,915.341C277.363,914.911 277.918,914.767 278.366,914.99Z" style="fill:rgb(48,48,48);"/>
                <circle cx="252.769" cy="931.551" r="1" style="fill:rgb(48,48,48);"/>
                <circle cx="243.204" cy="935.664" r="1" style="fill:rgb(48,48,48);"/>
                <circle cx="263.238" cy="932.551" r="1" style="fill:rgb(48,48,48);"/>
                <circle cx="265.939" cy="925.093" r="1" style="fill:rgb(48,48,48);"/>
                <circle cx="275.922" cy="931.551" r="1" style="fill:rgb(48,48,48);"/>
            </g>
        </g>
        <g transform="matrix(-1,0,0,1,971,77.25)">
            <g transform="matrix(1.237713,0,0,1.237713,-103.144243,-293.528288)">
                <path d="M803.737,956.579C803.737,960.525 799.54,973.804 799.54,973.804L779.807,973.826L771.776,971.239L765.368,973.842L749.102,973.86C749.102,973.86 744.431,971.978 742.12,971.981C739.808,971.983 736.439,973.874 736.439,973.874L720.58,973.892C720.58,973.892 716.201,971.236 713.737,971.239C711.274,971.242 708.432,973.905 708.432,973.905L694.713,973.92C694.713,973.92 689.755,971.978 687.276,971.981C684.797,971.984 680.665,973.936 680.665,973.936L668.205,973.95L658.203,971.981L651.779,973.968L640.237,973.981L640.802,945.981L802.876,946.281C803.05,947.222 803.737,952.632 803.737,956.579Z" style="fill:rgb(235,235,235);fill-rule:nonzero;"/>
            </g>
        </g>
        <g transform="matrix(-1,0,0,1,971,77.25)">
            <g transform="matrix(1.237713,0,0,1.237713,-103.144243,-293.528288)">
                <path d="M712.294,873.261C705.118,874.142 699.526,900.988 699.526,900.988C699.526,900.988 701.366,919.129 708.052,925.204C714.738,931.279 738.863,937.657 738.863,937.657L800.29,940.055L748.293,915.886C748.293,915.886 733.269,899.824 729.891,897.259C720.303,889.983 719.47,872.38 712.294,873.261Z" style="fill:rgb(250,250,250);"/>
            </g>
        </g>
        <g transform="matrix(-1,0,0,1,971,77.25)">
            <g transform="matrix(1.237713,0,0,1.237713,-103.144243,-293.528288)">
                <path d="M804,949.319L640.237,952.012L637.807,920.481L640.237,890.849L701.842,890.849C701.842,890.849 709.417,907.957 713.737,916.47C718.057,924.984 743.456,930.309 743.456,930.309L740.987,936.289L800.29,940.055C800.493,940.353 800.688,940.659 800.88,940.972C802.266,943.261 803.342,945.922 803.947,949.029C803.966,949.127 803.985,949.221 804,949.319Z" style="fill:rgb(254,223,82);"/>
            </g>
        </g>
        <g transform="matrix(-1,0,0,1,971,77.25)">
            <g transform="matrix(1.237713,0,0,1.237713,-103.144243,-293.528288)">
                <path d="M703.24,912.981C703.24,912.981 708.438,933.127 689.823,927.098C671.207,921.07 652.441,912.981 652.441,912.981C652.441,912.981 679.832,933.308 686.977,936.648C694.123,939.989 712.545,943.033 713.897,934.117C715.248,925.202 703.24,912.981 703.24,912.981Z" style="fill:rgb(250,250,250);"/>
            </g>
        </g>
        <g transform="matrix(-1,0,0,1,971,77.25)">
            <g transform="matrix(1.237713,0,0,1.237713,-103.144243,-293.528288)">
                <path d="M735.249,903.24L735.353,903.187C735.81,902.984 736.358,903.153 736.618,903.595C736.898,904.071 736.739,904.684 736.263,904.964L721.167,913.843L721.063,913.896C720.606,914.098 720.058,913.93 719.798,913.488C719.518,913.012 719.677,912.399 720.153,912.119L735.249,903.24ZM741.67,909.818L741.567,909.872L729.146,917.33C728.672,917.614 728.519,918.229 728.803,918.702C729.067,919.142 729.616,919.306 730.072,919.099L730.175,919.045L742.596,911.587C743.07,911.303 743.223,910.688 742.939,910.215C742.695,909.809 742.209,909.638 741.777,909.777L741.67,909.818ZM747.634,914.99L747.533,915.048L736.456,922.255C735.993,922.556 735.862,923.175 736.163,923.638C736.443,924.068 736.997,924.212 737.445,923.989L737.547,923.931L748.623,916.725C749.086,916.423 749.217,915.804 748.916,915.341C748.637,914.911 748.082,914.767 747.634,914.99Z" style="fill:rgb(48,48,48);"/>
            </g>
        </g>
        <g transform="matrix(-1,0,0,1,971,77.25)">
            <g transform="matrix(-1.237713,0,0,1.237713,853.89409,859.464822)">
                <circle cx="0" cy="0" r="1" style="fill:rgb(48,48,48);"/>
            </g>
        </g>
        <g transform="matrix(-1,0,0,1,971,77.25)">
            <g transform="matrix(-1.237713,0,0,1.237713,865.732818,864.555537)">
                <circle cx="0" cy="0" r="1" style="fill:rgb(48,48,48);"/>
            </g>
        </g>
        <g transform="matrix(-1,0,0,1,971,77.25)">
            <g transform="matrix(-1.237713,0,0,1.237713,840.936469,860.702536)">
                <circle cx="0" cy="0" r="1" style="fill:rgb(48,48,48);"/>
            </g>
        </g>
        <g transform="matrix(-1,0,0,1,971,77.25)">
            <g transform="matrix(-1.237713,0,0,1.237713,837.593405,851.47167)">
                <circle cx="0" cy="0" r="1" style="fill:rgb(48,48,48);"/>
            </g>
        </g>
        <g transform="matrix(-1,0,0,1,971,77.25)">
            <g transform="matrix(-1.237713,0,0,1.237713,825.237313,859.464822)">
                <circle cx="0" cy="0" r="1" style="fill:rgb(48,48,48);"/>
            </g>
        </g>
        <g transform="matrix(-1,0,0,1,971,77.25)">
            <g transform="matrix(1.237713,0,0,1.237713,-103.144243,-293.528288)">
                <path d="M582.578,515.674L444.584,521.914C444.584,521.914 444.584,378.343 466.577,373.705C488.571,369.066 468.452,431.803 511.048,431.803C553.645,431.803 539.673,368.93 555.313,373.209C571.769,377.696 582.578,515.674 582.578,515.674Z" style="fill:rgb(232,232,232);"/>
            </g>
        </g>
        <g transform="matrix(-1,0,0,1,971,77.25)">
            <g transform="matrix(1.237713,0,0,1.237713,-103.144243,-293.528288)">
                <path d="M753.147,361.025L810.655,361.025L810.655,383.125L846.163,383.125L846.163,314.37L810.655,314.37L810.655,336.47L776.375,336.47C776.375,336.47 774.248,344.829 770.973,344.829C763.934,344.829 755.856,342.728 755.856,342.728C755.856,342.728 758.063,346.118 757.318,351.145C756.574,356.172 753.147,361.025 753.147,361.025Z" style="fill:rgb(194,165,249);"/>
            </g>
        </g>
        <g transform="matrix(-1,0,0,1,971,77.25)">
            <g transform="matrix(-1.237713,0,0,1.237713,938.063549,95.550617)">
                <rect x="0" y="0" width="6.265" height="69" style="fill:rgb(232,232,232);"/>
            </g>
        </g>
        <g transform="matrix(-1,0,0,1,971,77.25)">
            <g transform="matrix(-1.237713,0,0,1.237713,914.591553,95.550617)">
                <rect x="0" y="0" width="6.265" height="69" style="fill:rgb(232,232,232);"/>
            </g>
        </g>
        <g transform="matrix(-1,0,0,1,971,77.25)">
            <g transform="matrix(1.237713,0,0,1.237713,-103.144243,-293.528288)">
                <path d="M727.819,361.271L709.671,361.271L709.671,383.37L674.163,383.37L674.163,314.616L709.671,314.616L709.671,336.715L727.819,336.715C727.819,336.715 726.359,346.03 726.571,348.993C727.448,361.22 727.819,361.271 727.819,361.271Z" style="fill:rgb(194,165,249);"/>
            </g>
        </g>
        <g transform="matrix(-1,0,0,1,971,77.25)">
            <g transform="matrix(-1.237713,0,0,1.237713,768.167588,95.550617)">
                <rect x="0" y="0" width="6.265" height="69" style="fill:rgb(232,232,232);"/>
            </g>
        </g>
        <g transform="matrix(-1,0,0,1,971,77.25)">
            <g transform="matrix(-1.237713,0,0,1.237713,744.694354,95.550617)">
                <rect x="0" y="0" width="6.265" height="69" style="fill:rgb(232,232,232);"/>
            </g>
        </g>
        <g transform="matrix(-1,0,0,1,971,77.25)">
            <g transform="matrix(1.237713,0,0,1.237713,-103.144243,-293.528288)">
                <path d="M276.016,359.412L218.508,359.412L218.508,381.512L183,381.512L183,312.757L218.508,312.757L218.508,334.857L252.788,334.857C252.788,334.857 254.915,343.216 258.19,343.216C265.229,343.216 273.307,341.115 273.307,341.115C273.307,341.115 271.1,344.505 271.845,349.532C272.589,354.559 276.016,359.412 276.016,359.412Z" style="fill:rgb(194,165,249);"/>
            </g>
        </g>
        <g transform="matrix(-1,0,0,1,971,77.25)">
            <g transform="matrix(1.237713,0,0,1.237713,-103.144243,-293.528288)">
                <rect x="187.928" y="312.74" width="6.265" height="69" style="fill:rgb(232,232,232);"/>
            </g>
        </g>
        <g transform="matrix(-1,0,0,1,971,77.25)">
            <g transform="matrix(1.237713,0,0,1.237713,-103.144243,-293.528288)">
                <rect x="206.893" y="312.74" width="6.265" height="69" style="fill:rgb(232,232,232);"/>
            </g>
        </g>
        <g transform="matrix(-1,0,0,1,971,77.25)">
            <g transform="matrix(1.237713,0,0,1.237713,-103.144243,-293.528288)">
                <path d="M301.344,359.658L319.492,359.658L319.492,381.757L355,381.757L355,313.003L319.492,313.003L319.492,335.102L301.344,335.102C301.344,335.102 302.804,344.417 302.592,347.38C301.715,359.607 301.344,359.658 301.344,359.658Z" style="fill:rgb(194,165,249);"/>
            </g>
        </g>
        <g transform="matrix(-1,0,0,1,971,77.25)">
            <g transform="matrix(1.237713,0,0,1.237713,-103.144243,-293.528288)">
                <rect x="325.195" y="312.74" width="6.265" height="69" style="fill:rgb(232,232,232);"/>
            </g>
        </g>
        <g transform="matrix(-1,0,0,1,971,77.25)">
            <g transform="matrix(1.237713,0,0,1.237713,-103.144243,-293.528288)">
                <rect x="344.159" y="312.74" width="6.265" height="69" style="fill:rgb(232,232,232);"/>
            </g>
        </g>
        <g transform="matrix(-1,0,0,1,971,77.25)">
            <g transform="matrix(1.237713,0,0,1.237713,441.449632,18.375476)">
                <path d="M37.5,63.044C37.55,56.654 42.03,49.784 48.07,52.424C48.48,52.334 48.89,52.274 49.3,52.254C49.3,6.053 111.85,15.544 112.21,61.904C112.21,100.243 80.16,120.073 59.56,97.674C53.12,90.344 51.84,81.464 49.44,72.754C42.7,73.004 38.09,69.213 37.5,63.044Z" style="fill:rgb(255,156,138);fill-rule:nonzero;"/>
                <g>
                    <path d="M45.925,57.954C45.728,57.494 45.212,57.245 44.721,57.391C44.192,57.549 43.89,58.106 44.048,58.635L45.143,62.311C44.632,62.111 44.07,61.968 43.46,61.882L43.344,61.873C42.843,61.861 42.402,62.226 42.331,62.734C42.255,63.281 42.636,63.786 43.183,63.863C44.674,64.072 45.635,64.685 46.174,65.721C46.281,65.939 46.463,66.105 46.677,66.197C46.812,66.254 46.96,66.283 47.111,66.276C47.223,66.272 47.335,66.248 47.444,66.205C47.552,66.161 47.649,66.1 47.733,66.027C47.846,65.927 47.933,65.804 47.99,65.669C48.048,65.534 48.076,65.387 48.07,65.236C48.066,65.148 48.051,65.06 48.023,64.974L45.965,58.064L45.925,57.954Z" style="fill:rgb(48,48,48);"/>
                    <path d="M-63,-3.903L-63,40.705L-53.854,44.017L-63,44.017L-63,75.392C-63,75.392 -32.637,74.116 -27.634,60.017C-22.63,45.917 0.95,67.417 0.95,75.392C0.95,83.367 39.588,84.731 39.588,67.059C39.588,60.397 33.591,60.332 48.07,54.473C53.249,52.378 74.855,64.075 83.973,38.513C84.725,36.407 105.307,61.359 112.21,54C114.527,51.529 117.809,34.45 103.15,22C88.49,9.55 74.966,2.339 42.17,13.022C9.374,23.705 17.192,-2.988 -1.778,-3.903C-20.748,-4.817 -26.601,0.784 -33.947,9.354C-41.292,17.924 -63,-3.903 -63,-3.903Z"/>
                </g>
            </g>
        </g>
        <g transform="matrix(-1,0,0,1,971,77.25)">
            <g transform="matrix(1.237713,0,0,1.237713,500.859873,71.597151)">
                <path d="M41.65,41.764C41.689,41.758 41.689,41.758 41.625,41.761C41.523,41.77 41.43,41.793 41.352,41.806C41.171,41.828 41.005,41.84 40.828,41.837C40.662,41.848 40.471,41.856 40.294,41.854C40.166,41.859 39.796,41.8 39.699,41.848C39.788,41.849 39.862,41.861 39.95,41.862C39.837,41.857 39.71,41.862 39.586,41.843L39.561,41.839L39.522,41.845C39.321,41.839 39.119,41.832 38.907,41.811C38.519,41.788 38.134,41.739 37.734,41.701C36.131,41.511 34.555,41.147 32.987,40.734C32.525,40.61 31.91,40.817 31.538,41.087C31.152,41.368 30.819,41.872 30.755,42.356C30.701,42.854 30.781,43.386 31.108,43.805C31.212,43.948 31.352,44.021 31.474,44.129C33.364,47.151 37.408,48.956 40.76,47.221C41.877,46.65 42.968,45.836 43.656,44.767C44.095,44.077 44.264,43.166 43.706,42.457C43.192,41.781 42.449,41.6 41.65,41.765L41.65,41.764Z" style="fill:rgb(48,48,48);fill-rule:nonzero;"/>
                <path d="M47.073,34.35C46.953,33.85 46.783,33.37 46.663,32.87C46.543,32.37 46.413,31.87 46.273,31.37C46.003,30.41 45.713,29.46 45.433,28.5C44.863,26.57 44.303,24.62 44.083,22.62C44.023,22.1 43.673,21.65 43.113,21.65C42.633,21.65 42.083,22.1 42.143,22.62C42.563,26.39 43.993,29.91 44.853,33.58C44.033,33.58 43.223,33.56 42.403,33.53C41.303,33.5 40.013,33.42 38.993,33.88C38.293,34.2 38.473,35.38 39.213,35.54C39.753,35.65 40.313,35.62 40.853,35.66C41.443,35.7 42.023,35.73 42.613,35.76C43.853,35.82 45.103,35.83 46.343,35.65C46.913,35.56 47.193,34.84 47.073,34.35Z" style="fill:rgb(48,48,48);fill-rule:nonzero;"/>
            </g>
        </g>
        <g transform="matrix(-1,0,0,1,1561,77.25)">
            <g id="Master-Character-Standing" serif:id="Master/Character/Standing" transform="matrix(1.237713,0,0,1.237713,-243.395121,-293.528288)">
                <g id="Full-Body" serif:id="Full Body">
                    <g id="Full-Body-Jogging-1" serif:id="Full Body/Jogging 1">
                        <path id="Path" d="M692.718,411.413C690.408,402.356 669.611,388.024 663.145,388.658C652.497,388.783 645.023,408.317 637.791,414.947C618.554,431.964 588.339,444.27 571.074,463.429C563.609,282.806 367.472,431.75 333.887,516.623C324.852,541.145 321.811,568.684 307.953,591.261C298.794,608.082 281.359,624.983 284.204,645.454C285.229,649.184 289.581,649.496 292.569,648.069C290.054,655.921 293.478,662.971 301.594,656.689C301.442,666.674 311.386,671.618 318.583,664.203C324.96,662.337 328.322,654.012 333.057,649.461C362.041,636.869 372.984,570.272 377.764,540.788C403.27,515.659 423.692,485.738 451.865,463.349C456.253,556.592 436.838,706.046 436.838,706.046L299.578,889.766L384.328,967L369.657,880.093C369.657,880.093 461.202,795.844 490.382,758.99C505.641,739.714 515.005,720.314 529.863,664.229C545.399,675.536 569.415,679.159 588.027,684.7C557.893,732.701 512.669,797.254 486.173,841.248L547.392,897.506L545.309,831.369C545.309,831.369 662.949,706.974 659.801,670.967C657.018,648.256 609.645,609.483 584.442,580.32C581.241,572.69 582.32,562.776 582.32,554.7C588.09,551.854 584.077,537.04 585.031,531.062C600.45,514.374 622.906,482.865 654.022,460.27C673.365,446.242 695.072,425.022 692.718,411.413Z" style="fill:rgb(159,232,235);"/>
                        <path id="Path1" serif:id="Path" d="M545.683,690L631.894,620.771L591.419,589.272L584.998,567.109L444.798,563C444.798,563 437.201,594.508 466.045,626.061C494.89,657.614 545.683,690 545.683,690Z" style="fill:rgb(40,92,223);fill-rule:nonzero;"/>
                        <path id="Path_2" d="M585.894,568.927L447.411,560L426.894,683.853L524.939,708L556.173,627.992L585.894,568.927Z" style="fill:rgb(45,103,248);fill-rule:nonzero;"/>
                        <path id="Tshirt" d="M381.894,437.918L426.305,490.074L448.87,473.525L443.817,559.793L585.894,567L579.287,456.291C579.287,456.291 578.04,390.602 543.124,379.677C526.501,374.481 503.739,371.073 473.518,377.541C441.726,384.357 381.894,437.918 381.894,437.918Z" style="fill:rgb(232,232,232);fill-rule:nonzero;"/>
                        <path id="Combined-Shape" serif:id="Combined Shape" d="M685.871,416.816C686.176,415.878 686.497,414.888 687.122,414.173C687.756,413.45 688.882,414.065 688.891,414.895C688.923,415.583 688.66,416.327 688.426,416.99C688.395,417.076 688.366,417.16 688.337,417.243C688.096,417.948 687.837,418.653 687.577,419.358C687.023,420.831 686.416,422.294 685.71,423.704C684.048,427.007 681.358,430.309 677.686,431.46C676.426,431.853 674.871,431.764 674.192,430.452C673.665,429.443 673.88,428.238 674.3,427.105C673.889,427.39 673.478,427.667 673.049,427.917C672.003,428.533 670.779,429.095 669.537,429.086C665.838,429.05 665.74,424.427 665.963,421.768C666.017,421.098 666.481,420.527 667.196,420.518C665.838,419.795 664.569,418.84 663.479,417.769C663.367,417.865 663.255,417.961 663.144,418.057C660.781,420.089 658.41,422.128 655.321,422.964C653.766,423.383 653.114,420.982 654.66,420.563C657.313,419.849 659.364,418.06 661.39,416.294C661.821,415.918 662.25,415.544 662.684,415.181C663.184,414.77 663.979,414.646 664.453,415.181C666.258,417.189 668.501,418.929 671.235,419.376C674.371,419.893 677.481,418.144 678.026,415.029C678.133,414.44 678.07,413.503 677.865,412.771C677.615,411.87 677.168,411.04 676.587,410.263C675.111,408.291 673.086,407.168 671.013,406.018C670.563,405.768 670.111,405.517 669.662,405.257C668.501,404.578 669.287,402.633 670.591,403.061C672.584,403.712 674.487,404.953 676.113,406.256C677.364,407.265 678.49,408.469 679.303,409.853C681.564,413.708 680.644,418.715 676.56,420.911C673.799,422.392 670.851,422.151 668.197,421C668.376,421.214 668.492,421.482 668.465,421.768C668.384,422.785 668.331,423.829 668.456,424.847C668.46,424.862 668.469,424.919 668.481,424.987C668.497,425.082 668.517,425.198 668.527,425.239C668.563,425.4 668.599,425.561 668.652,425.721C668.661,425.744 668.668,425.764 668.675,425.784C668.682,425.804 668.688,425.824 668.697,425.846C668.67,425.784 668.688,425.864 668.715,425.918C668.715,425.918 668.718,425.921 668.72,425.925C668.722,425.928 668.724,425.932 668.724,425.936C668.728,425.944 668.733,425.952 668.738,425.961C668.765,426.011 668.794,426.063 668.822,426.114C668.856,426.174 668.889,426.235 668.921,426.293C668.925,426.301 668.929,426.307 668.932,426.313C668.936,426.319 668.938,426.323 668.938,426.328C668.946,426.332 668.951,426.337 668.957,426.343C668.966,426.352 668.976,426.362 668.992,426.373C669.033,426.414 669.085,426.445 669.119,426.465C669.129,426.471 669.138,426.476 669.144,426.48C669.117,426.462 669.081,426.444 669.01,426.409C669.064,426.435 669.144,426.48 669.198,426.525C669.224,426.534 669.251,426.551 669.269,426.551L669.296,426.556C669.338,426.563 669.373,426.569 669.403,426.569C669.379,426.569 669.362,426.569 669.327,426.576C669.374,426.568 669.427,426.574 669.479,426.58C669.511,426.583 669.543,426.587 669.573,426.587C669.655,426.587 669.729,426.58 669.81,426.571L669.832,426.569C669.853,426.569 669.88,426.564 669.912,426.557C669.921,426.555 669.93,426.553 669.939,426.551C670.18,426.489 670.422,426.418 670.654,426.337C670.708,426.319 670.752,426.301 670.797,426.284C670.904,426.239 671.011,426.194 671.11,426.141C671.637,425.882 672.137,425.579 672.629,425.248C672.897,425.07 673.165,424.882 673.424,424.695C673.549,424.606 673.674,424.517 673.799,424.418L673.808,424.409C673.817,424.409 673.826,424.4 673.835,424.392C673.889,424.356 673.942,424.311 673.996,424.267C674.487,423.874 674.961,423.481 675.425,423.071C675.653,422.872 675.879,422.659 676.107,422.444C676.738,421.849 677.387,421.238 678.142,420.857C679.071,420.393 680.188,421.366 679.616,422.33C679.053,423.285 678.151,424.07 677.275,424.793C677.606,425.15 677.758,425.677 677.472,426.23C676.989,427.149 676.694,427.908 676.426,428.916C676.421,428.922 676.419,428.924 676.418,428.926C676.417,428.928 676.417,428.931 676.417,428.934L676.417,428.952C676.417,428.988 676.415,429.021 676.413,429.055C676.411,429.088 676.408,429.122 676.408,429.157C676.408,429.161 676.41,429.166 676.412,429.173C676.414,429.181 676.417,429.192 676.417,429.202L676.533,429.202C676.551,429.202 676.56,429.202 676.578,429.193C676.837,429.131 677.096,429.05 677.355,428.961C677.4,428.952 677.427,428.943 677.445,428.934C677.45,428.929 677.463,428.923 677.48,428.916C677.49,428.911 677.503,428.905 677.516,428.899C677.576,428.867 677.636,428.838 677.695,428.81C677.768,428.776 677.84,428.742 677.909,428.702C678.472,428.408 679.196,427.935 679.58,427.631C679.482,427.712 679.741,427.506 679.768,427.48C679.848,427.417 679.92,427.355 679.991,427.292C680.125,427.176 680.259,427.06 680.385,426.944C680.662,426.694 680.921,426.426 681.171,426.159C681.305,426.016 681.43,425.873 681.555,425.721C681.586,425.686 681.615,425.648 681.644,425.61C681.673,425.572 681.703,425.534 681.734,425.498L681.752,425.48C681.761,425.463 681.77,425.454 681.787,425.436C682.1,425.007 682.395,424.57 682.672,424.115C683.297,423.089 683.834,422 684.316,420.902C684.799,419.813 685.219,418.689 685.621,417.564C685.707,417.323 685.788,417.071 685.871,416.816ZM375.385,529.347L375.385,529.346C375.185,528.926 374.985,528.505 374.789,528.081C374.64,527.759 374.509,527.408 374.376,527.052C374.077,526.253 373.769,525.425 373.225,524.833C372.733,524.288 371.563,524.511 371.447,525.306C371.287,526.405 371.761,527.439 372.214,528.429L372.214,528.43C372.269,528.55 372.323,528.668 372.376,528.786C372.66,529.424 372.961,530.055 373.262,530.688L373.262,530.689L373.263,530.69C373.463,531.11 373.663,531.531 373.859,531.955C374.235,532.767 374.592,533.606 374.869,534.463C374.467,534.159 374.065,533.874 373.636,533.597C373.367,533.421 373.095,533.248 372.824,533.075C371.639,532.319 370.456,531.565 369.445,530.563C368.301,529.429 366.541,531.196 367.676,532.33C368.897,533.541 370.336,534.458 371.774,535.375L371.911,535.462C373.252,536.319 374.583,537.238 375.503,538.568C376.227,539.621 377.71,539.184 377.827,537.934C378.059,535.596 377.192,533.338 376.272,531.25C375.987,530.612 375.687,529.98 375.385,529.347ZM301.902,629.975C302.339,629.387 302.705,628.893 303.413,628.612C304.039,628.362 304.807,628.987 304.763,629.638C304.706,630.383 304.326,630.893 303.902,631.461C303.859,631.519 303.815,631.578 303.771,631.637C303.351,632.2 302.94,632.762 302.529,633.324C301.698,634.458 300.885,635.582 300.072,636.725C298.427,639.036 296.819,641.374 295.255,643.74C294.38,645.078 292.217,643.829 293.102,642.481C294.693,640.071 296.328,637.706 297.999,635.359C298.83,634.181 299.678,633.012 300.527,631.852L301.841,630.058L301.902,629.975ZM307.537,645.542C308.544,643.887 309.581,642.181 310.865,640.75C311.553,639.973 313.108,640.794 312.697,641.803C312.114,643.193 311.272,644.455 310.432,645.714C310.075,646.249 309.718,646.784 309.382,647.327C308.274,649.121 307.238,650.969 306.505,652.941C306.273,653.575 305.665,654.003 304.968,653.816C304.352,653.646 303.86,652.914 304.092,652.281C304.87,650.157 305.933,648.166 307.113,646.239C307.253,646.009 307.394,645.777 307.536,645.545L307.537,645.542ZM333.427,637.224C333.026,638.903 332.499,640.549 331.972,642.195C331.325,644.216 330.678,646.237 330.264,648.318C330.13,648.978 330.452,649.657 331.131,649.844C331.747,650.014 332.525,649.639 332.659,648.978C333.077,646.9 333.725,644.884 334.374,642.866C334.904,641.218 335.434,639.57 335.84,637.885C336.215,636.323 333.802,635.662 333.427,637.224ZM319.322,648.128C319.828,647.055 320.498,645.634 321.668,645.275C322.294,645.078 323.008,645.605 322.982,646.265C322.951,646.887 322.663,647.342 322.352,647.831C322.297,647.918 322.241,648.005 322.186,648.095C321.856,648.639 321.552,649.211 321.284,649.791C320.775,650.906 320.373,652.084 320.006,653.254C319.75,654.071 319.51,654.894 319.27,655.717C318.767,657.446 318.263,659.176 317.603,660.858C317.352,661.491 316.772,661.929 316.066,661.732C315.458,661.563 314.94,660.822 315.19,660.197C315.85,658.526 316.353,656.802 316.855,655.077C317.129,654.14 317.402,653.202 317.701,652.272C318.13,650.933 318.612,649.612 319.22,648.345L319.256,648.268L319.322,648.128ZM601.652,675.817C602.516,675.396 603.46,674.935 604.381,675.075C605.319,675.209 605.355,676.387 604.899,676.967C604.609,677.32 604.179,677.484 603.759,677.643C603.649,677.684 603.54,677.726 603.434,677.77C602.996,677.949 602.567,678.145 602.147,678.341C601.307,678.734 600.494,679.154 599.69,679.609C598.064,680.528 596.509,681.563 595.044,682.715C594.507,683.134 593.802,683.241 593.274,682.715C592.837,682.277 592.747,681.367 593.274,680.948C594.91,679.662 596.607,678.484 598.421,677.458C599.297,676.958 600.199,676.494 601.111,676.075C601.287,675.995 601.467,675.906 601.652,675.817ZM454.68,714.475L454.68,714.474C454.37,714.383 454.061,714.292 453.759,714.175L453.747,714.17C453.74,714.166 453.738,714.166 453.732,714.166L453.727,714.166C453.727,714.166 453.727,714.165 453.726,714.165C453.725,714.164 453.723,714.162 453.714,714.157C453.634,714.122 453.544,714.086 453.464,714.041C453.339,713.982 453.213,713.918 453.091,713.856L453.089,713.855C453.028,713.824 452.969,713.794 452.91,713.765C452.517,713.55 452.132,713.327 451.766,713.086C450.238,712.087 448.826,710.801 447.611,709.275C447.191,708.749 446.289,708.838 445.842,709.275C445.324,709.793 445.422,710.507 445.842,711.042C447.164,712.694 448.782,714.122 450.551,715.273C451.355,715.79 452.195,716.228 453.089,716.585C453.839,716.879 454.742,717.156 455.528,716.897C455.948,716.754 456.269,716.424 456.332,715.969C456.377,715.567 456.198,715.023 455.796,714.853C455.433,714.697 455.057,714.586 454.68,714.475Z" style="fill:rgb(48,48,48);"/>
                        <g id="Shoe">
                            <path id="Path-" serif:id="Path " d="M325.246,845C325.246,845 345.936,876.907 364.598,876.907C383.26,876.907 396.982,864.9 396.982,864.9L387.809,898.959L396.982,919.735L443.216,944.833L443.216,961.833L336.915,961.833L277.754,898.959L325.246,845Z" style="fill:rgb(250,250,250);"/>
                            <path id="Path-_2" serif:id="Path _2" d="M295.055,882.476C295.055,882.476 330.59,931.345 344.962,934.151C354.262,935.968 365.135,934.936 370.031,925.421C374.927,915.906 364.649,898.848 364.649,898.848C364.649,898.848 364.703,923.432 341.189,915.906C317.674,908.38 295.055,882.476 295.055,882.476Z" style="fill:rgb(45,103,248);"/>
                            <path id="Path-_3" serif:id="Path _3" d="M277.754,898.959L336.915,961.833L443.216,961.833C443.216,961.833 426.903,973.203 413.854,973.203L333.333,973.203L270.894,908.684L277.754,898.959Z" style="fill:rgb(237,239,242);"/>
                            <path id="Path-_4" serif:id="Path _4" d="M385.923,894.07C386.285,893.653 386.917,893.609 387.334,893.971C387.719,894.306 387.786,894.869 387.509,895.282L387.433,895.382L378.447,905.724L386.678,905.724C387.321,905.724 387.786,906.317 387.657,906.927L387.626,907.042L383.321,919.875L393.085,913.586C393.795,913.129 394.698,913.702 394.623,914.511L394.608,914.618L391.493,930.563L405.199,921.428C405.626,921.143 406.192,921.23 406.516,921.612L406.586,921.705C406.87,922.132 406.784,922.698 406.402,923.022L406.309,923.092L390.606,933.558C389.897,934.031 388.98,933.458 389.055,932.642L389.07,932.534L392.194,916.538L382.007,923.101C381.245,923.592 380.297,922.898 380.488,922.049L380.518,921.942L385.287,907.724L376.254,907.724C375.434,907.724 374.977,906.801 375.431,906.154L375.499,906.068L385.923,894.07Z" style="fill:rgb(48,48,48);fill-rule:nonzero;"/>
                        </g>
                        <g id="Shoe_2">
                            <path id="Path_3" d="M512.654,795.473C512.654,795.473 520.558,819.679 534.641,821.408C548.725,823.138 560.193,815.348 560.193,815.348L550.114,840.201L555.112,856.73L572.934,904.231C572.934,904.231 573.449,922.085 555.001,919.82C548.029,918.964 531.1,903.519 513.846,883.825C500.663,868.777 469.217,828.612 469.217,828.612C469.217,828.612 474.455,822.316 476.448,820.77C481.961,816.495 494.092,811.641 495.685,810.224C498.727,807.518 501.97,801.495 504.892,798.958C507.619,796.589 512.654,795.473 512.654,795.473Z" style="fill:rgb(250,250,250);"/>
                            <path id="Path-_5" serif:id="Path _5" d="M489.774,813.162C489.774,813.162 509.93,854.445 520.321,858.445C527.045,861.033 535.323,861.696 540.245,855.217C545.167,848.739 539.724,834.609 539.724,834.609C539.724,834.609 536.518,853.024 519.905,844.284C503.291,835.545 489.774,813.162 489.774,813.162Z" style="fill:rgb(45,103,248);"/>
                            <path id="Path-_6" serif:id="Path _6" d="M476.448,820.77C476.448,820.77 524.236,883.039 539.965,898.996C555.693,914.952 571.978,913.737 571.978,913.737C571.978,913.737 557.703,925.248 542.899,915.402C528.095,905.556 467.385,827.851 467.385,827.851L476.448,820.77Z" style="fill:rgb(237,239,242);"/>
                            <path id="Path_4" d="M559.616,869.325C560.035,869.31 560.364,868.958 560.349,868.539C560.336,868.151 560.035,867.842 559.658,867.808L559.563,867.805L549.152,868.166L553.091,863.303C553.399,862.923 553.27,862.364 552.848,862.148L552.766,862.112L543.123,858.515L551.511,855.755C552.121,855.554 552.214,854.746 551.7,854.403L551.629,854.361L540.718,848.572L552.674,844.844C553.046,844.728 553.266,844.352 553.195,843.978L553.173,843.892C553.057,843.52 552.682,843.301 552.307,843.371L552.221,843.393L538.523,847.663C537.905,847.856 537.804,848.672 538.322,849.018L538.393,849.061L549.34,854.869L540.588,857.748C539.933,857.963 539.889,858.856 540.483,859.149L540.56,859.182L551.244,863.168L546.921,868.505C546.529,868.99 546.856,869.701 547.455,869.742L547.538,869.743L559.616,869.325Z" style="fill:rgb(48,48,48);fill-rule:nonzero;"/>
                        </g>
                    </g>
                </g>
                <g id="Head" transform="matrix(1,0,0,1,440,252)">
                    <g id="Head-Bald-2" serif:id="Head/Bald 2">
                        <path id="Path2" serif:id="Path" d="M37.5,63.044C37.55,56.654 42.03,49.783 48.07,52.423C48.48,52.334 48.89,52.273 49.3,52.254C49.3,6.053 111.85,15.543 112.21,61.904C112.21,100.243 80.16,120.073 59.56,97.674C53.12,90.344 51.84,81.463 49.44,72.754C42.7,73.004 38.09,69.213 37.5,63.044Z" style="fill:rgb(159,232,235);fill-rule:nonzero;"/>
                        <circle id="Oval" cx="56" cy="48" r="1" style="fill:rgb(48,48,48);"/>
                        <circle id="Oval-" serif:id="Oval " cx="56.627" cy="38.621" r="1" style="fill:rgb(48,48,48);"/>
                        <circle id="Oval--" serif:id="Oval  " cx="62.17" cy="44.066" r="1" style="fill:rgb(48,48,48);"/>
                        <circle id="Oval--_2" serif:id="Oval  _2" cx="66.824" cy="36.621" r="1" style="fill:rgb(48,48,48);"/>
                        <circle id="Oval--_3" serif:id="Oval  _3" cx="71.752" cy="44.733" r="1" style="fill:rgb(48,48,48);"/>
                        <circle id="Oval--_4" serif:id="Oval  _4" cx="64.824" cy="53" r="1" style="fill:rgb(48,48,48);"/>
                        <path id="hear" d="M45.925,57.954C45.728,57.494 45.212,57.245 44.721,57.391C44.191,57.549 43.89,58.106 44.048,58.635L45.143,62.311C44.632,62.111 44.07,61.968 43.46,61.882L43.344,61.873C42.843,61.861 42.402,62.226 42.331,62.734C42.255,63.281 42.636,63.786 43.183,63.863C44.674,64.072 45.635,64.685 46.174,65.721C46.281,65.939 46.463,66.105 46.677,66.197C46.812,66.254 46.96,66.283 47.111,66.276C47.223,66.272 47.335,66.249 47.444,66.205C47.552,66.161 47.649,66.1 47.733,66.027C47.846,65.927 47.933,65.804 47.99,65.669C48.048,65.534 48.076,65.387 48.069,65.236C48.066,65.148 48.051,65.061 48.023,64.975L45.965,58.064L45.925,57.954Z" style="fill:rgb(48,48,48);"/>
                    </g>
                </g>
                <g id="Expression" transform="matrix(1,0,0,1,488,295)">
                    <g id="Expression-Big-Smile" serif:id="Expression/Big Smile">
                        <path id="Nose" d="M47.073,34.35C46.953,33.85 46.783,33.37 46.663,32.87C46.543,32.37 46.413,31.87 46.273,31.37C46.003,30.41 45.713,29.46 45.433,28.5C44.863,26.57 44.303,24.62 44.083,22.62C44.023,22.1 43.673,21.65 43.113,21.65C42.633,21.65 42.083,22.1 42.143,22.62C42.563,26.39 43.993,29.91 44.853,33.58C44.033,33.58 43.223,33.56 42.403,33.53C41.303,33.5 40.013,33.42 38.993,33.88C38.293,34.2 38.473,35.38 39.213,35.54C39.753,35.65 40.313,35.62 40.853,35.66C41.443,35.7 42.023,35.73 42.613,35.76C43.853,35.82 45.103,35.83 46.343,35.65C46.913,35.56 47.193,34.84 47.073,34.35Z" style="fill:rgb(48,48,48);fill-rule:nonzero;"/>
                        <path id="Mouth" d="M43.806,41.346C41.42,41.986 38.904,42.144 36.442,41.883C36.429,41.883 36.415,41.876 36.401,41.876C34.428,41.092 32.537,39.958 30.42,39.676C30.255,39.538 30.09,39.407 29.932,39.256C29.451,38.789 28.55,38.995 28.337,39.6C28.117,39.744 27.965,39.999 28.007,40.363C28.426,44.413 30.942,48.441 35.239,49.081C37.377,49.397 39.488,48.895 41.186,47.547C42.781,46.282 43.874,44.495 44.878,42.749C45.311,42.034 44.617,41.133 43.806,41.346Z" style="fill:rgb(48,48,48);fill-rule:nonzero;"/>
                        <path id="Teeth" d="M30.42,39.676C30.344,40.631 30.613,41.546 31.334,42.357C32.324,43.471 33.871,44.089 35.274,44.481C36.601,44.852 38.079,45.004 39.406,44.523C40.031,44.296 40.581,43.945 41.069,43.526C41.881,43.134 42.431,42.453 42.699,41.608" style="fill:rgb(250,250,250);fill-rule:nonzero;"/>
                        <path id="Drop" d="M48.12,4.238C48.01,3.988 47.9,3.748 47.76,3.518C47.69,3.398 47.6,3.268 47.52,3.148C47.48,2.868 47.38,2.598 47.16,2.398C46.6,1.888 45.74,1.848 45.18,2.398C44.22,3.358 43.47,4.538 43.31,5.908C43.24,6.548 43.39,7.248 43.74,7.788C44.24,8.558 44.97,8.998 45.81,9.318C46.28,9.498 46.82,9.278 47.17,8.958C48.02,8.188 48.55,7.028 48.49,5.868C48.47,5.298 48.34,4.768 48.12,4.238Z" style="fill:rgb(242,242,242);fill-rule:nonzero;"/>
                        <path id="Drop_2" d="M60.03,16.288C59.79,15.328 59.44,14.398 59.03,13.498C58.76,12.888 58.44,12.138 57.91,11.718C57.84,11.658 57.76,11.628 57.69,11.578C57.53,11.148 57.16,10.768 56.73,10.678C55.94,10.498 55.29,10.918 55.01,11.658C54.57,12.818 54.32,14.078 54.15,15.308C53.91,16.988 53.73,18.908 54.57,20.458C55.49,22.168 57.96,22.578 59.38,21.238C60.69,19.998 60.43,17.858 60.03,16.288Z" style="fill:rgb(242,242,242);fill-rule:nonzero;"/>
                    </g>
                </g>
            </g>
        </g>
    </g>
</svg>
