<?xml version="1.0" encoding="UTF-8" standalone="no"?>
<!DOCTYPE svg PUBLIC "-//W3C//DTD SVG 1.1//EN" "http://www.w3.org/Graphics/SVG/1.1/DTD/svg11.dtd">
<svg width="100%" height="100%" viewBox="0 0 1482 1369" version="1.1" xmlns="http://www.w3.org/2000/svg" xmlns:xlink="http://www.w3.org/1999/xlink" xml:space="preserve" xmlns:serif="http://www.serif.com/" style="fill-rule:evenodd;clip-rule:evenodd;stroke-linejoin:round;stroke-miterlimit:2;">
    <g id="Master-Hero-Image-Health-App" serif:id="Master/Hero Image/Health App" transform="matrix(1,0,0,1,-37.5,-150)">
        <g id="Object" transform="matrix(1,0,0,1,110,4)">
            <path id="Rectangle" d="M972.791,290.814L972.791,1498.004C972.791,1498.556 972.343,1499.004 971.791,1499.004L40.076,1499.004C39.524,1499.004 39.076,1498.556 39.076,1498.004L39.076,290.814C39.076,290.262 39.524,289.814 40.076,289.814L971.791,289.814C972.343,289.814 972.791,290.262 972.791,290.814Z" style="fill:rgb(237,242,255);"/>
            <path id="Rectangle-" serif:id="Rectangle " d="M884.05,405.737L884.05,1383.077C884.05,1383.629 883.602,1384.077 883.05,1384.077L128.818,1384.077C128.266,1384.077 127.818,1383.629 127.818,1383.077L127.818,405.737C127.818,405.185 128.266,404.737 128.818,404.737L883.05,404.737C883.602,404.737 884.05,405.185 884.05,405.737Z" style="fill:white;"/>
            <path id="Combined-Shape" serif:id="Combined Shape" d="M598.372,252.34C598.372,265.68 595.546,278.36 590.46,289.814L533.417,289.814C544.93,281.357 552.403,267.721 552.403,252.34C552.403,226.676 531.598,205.871 505.934,205.871C480.27,205.871 459.466,226.676 459.466,252.34C459.466,267.721 466.939,281.357 478.452,289.814L421.408,289.814C416.323,278.36 413.497,265.68 413.497,252.34C413.497,201.288 454.882,159.902 505.934,159.902C556.986,159.902 598.372,201.288 598.372,252.34ZM421.408,289.814C435.785,322.195 468.223,344.777 505.934,344.777C543.646,344.777 576.083,322.195 590.46,289.814L693.308,289.814L693.308,474.69L318.561,474.69L318.561,289.814L421.408,289.814ZM478.452,289.814L533.417,289.814C525.72,295.468 516.217,298.808 505.934,298.808C495.652,298.808 486.149,295.468 478.452,289.814Z" style="fill:rgb(237,242,255);"/>
            <rect id="Path-9" serif:id="Path 9" x="211.684" y="616.798" width="535.23" height="19.987" style="fill:rgb(237,242,255);fill-rule:nonzero;"/>
            <rect id="Path-9-" serif:id="Path 9 " x="211.684" y="703.536" width="535.23" height="19.986" style="fill:rgb(237,242,255);fill-rule:nonzero;"/>
            <rect id="Path-9--" serif:id="Path 9  " x="211.684" y="799.471" width="364.961" height="19.987" style="fill:rgb(237,242,255);fill-rule:nonzero;"/>
            <rect id="Path-9--_2" serif:id="Path 9  _2" x="211.684" y="895.406" width="498.217" height="19.987" style="fill:rgb(237,242,255);fill-rule:nonzero;"/>
            <rect id="Path-9--_3" serif:id="Path 9  _3" x="211.684" y="982.144" width="590.214" height="19.986" style="fill:rgb(237,242,255);fill-rule:nonzero;"/>
        </g>
        <g id="Arrow" transform="matrix(1,0,0,1,110,4)">
            <path id="Path-9_3" serif:id="Path 9_3" d="M206.723,622.418C207.278,621.765 208.257,621.686 208.91,622.241C209.53,622.768 209.633,623.678 209.165,624.327L209.087,624.428L169.836,670.601C169.297,671.234 168.362,671.326 167.713,670.83L167.613,670.747L145.857,651.083C145.221,650.508 145.172,649.527 145.746,648.891C146.291,648.289 147.2,648.213 147.834,648.695L147.938,648.781L167.713,653.134L206.723,622.418Z" style="fill:rgb(48,48,48);fill-rule:nonzero;"/>
        </g>
        <g id="Arrow_2" transform="matrix(1,0,0,1,110,4)">
            <path id="Path-9_4" serif:id="Path 9_4" d="M206.723,701.175C207.278,700.522 208.257,700.443 208.91,700.998C209.53,701.525 209.633,702.435 209.165,703.085L209.087,703.185L169.836,749.358C169.297,749.992 168.362,750.083 167.713,749.587L167.613,749.504L145.857,729.84C145.221,729.265 145.172,728.284 145.746,727.649C146.291,727.046 147.2,726.97 147.834,727.452L147.938,727.538L167.713,731.892L206.723,701.175Z" style="fill:rgb(48,48,48);fill-rule:nonzero;"/>
        </g>
        <g id="Arrow_3" transform="matrix(1,0,0,1,110,4)">
            <path id="Path-9_5" serif:id="Path 9_5" d="M206.723,780.437C207.278,779.784 208.257,779.705 208.91,780.26C209.53,780.787 209.633,781.697 209.165,782.347L209.087,782.447L169.836,828.62C169.297,829.254 168.362,829.345 167.713,828.85L167.613,828.766L145.857,809.102C145.221,808.528 145.172,807.546 145.746,806.911C146.291,806.309 147.2,806.232 147.834,806.715L147.938,806.8L167.713,811.154L206.723,780.437Z" style="fill:rgb(48,48,48);fill-rule:nonzero;"/>
        </g>
        <g id="Master-Character-Standing" serif:id="Master/Character/Standing" transform="matrix(1.175002,0,0,1.175002,370.875024,359.374492)">
            <g id="Master-Character-Standing1" serif:id="Master/Character/Standing">
                <g id="Full-Body" serif:id="Full Body">
                    <g id="Full-Body-Small-Weights-1" serif:id="Full Body/Small Weights 1">
                        <path id="Leggins" d="M572.468,518L581.3,561.404L701.031,706.699L680.14,899.761L713.284,956.746L627.345,956.746L627.345,739.827L506.667,619.872L333.843,811.627L217.726,974L124.742,956.746L202.728,903.862L438.316,532.459" style="fill:rgb(217,197,255);fill-rule:nonzero;"/>
                        <path id="Body-Copy" serif:id="Body Copy" d="M792.532,304.387C786.95,294.431 775.433,302.966 773.413,311.192C773.141,298.088 759.675,293.743 755.054,307.228C744.588,287.96 733.905,309.129 736.614,322.008C709.765,332.542 736.687,370.526 724.635,390.509C705.769,452.024 639.177,412.809 602.633,391.423C564.276,368.463 535.569,362.779 514.212,365.911C492.854,362.779 464.147,368.463 425.781,391.423C389.246,412.809 322.645,452.024 303.779,390.509C291.727,370.526 318.649,332.542 291.8,322.008C294.509,309.129 283.826,287.96 273.36,307.228C268.739,293.743 255.273,298.088 255.002,311.192C252.981,302.966 241.464,294.431 235.882,304.387C232.203,312.034 232.306,310.983 232.007,331.663C231.708,352.343 240.848,369.63 249.293,388.138C250.924,440.476 298.36,497.52 354.197,488.814C391.475,485.112 420.526,459.563 451.933,441.888C458.185,466.171 455.327,502.977 455.327,502.977C455.327,502.977 502.676,502.262 514.212,502.977C525.747,502.262 569.408,502.977 569.408,502.977C569.408,502.977 570.945,469.614 576.481,441.888C607.897,459.563 636.948,485.112 674.217,488.814C730.054,497.52 777.499,440.476 779.121,388.138C787.566,369.63 795.758,350.082 795.45,329.402C796.546,321.048 796.211,312.034 792.532,304.387Z" style="fill:rgb(217,197,255);"/>
                        <g id="Weight">
                            <path id="Rectangle1" serif:id="Rectangle" d="M300.319,328.546C299.918,327.856 300.412,326.958 301.21,326.958L727.229,326.958C727.969,326.958 728.46,327.733 728.154,328.406C727.022,330.899 724.867,335.978 724.867,338.547L724.867,347.764C724.867,348.315 724.421,348.759 723.87,348.761L304.291,350.132C303.738,350.134 303.288,349.689 303.288,349.135L303.288,336.5C303.288,334.06 301.486,330.559 300.319,328.546Z" style="fill:rgb(48,48,48);"/>
                            <path id="Rectangle--" serif:id="Rectangle  " d="M100.713,349.136C100.713,349.688 101.161,350.135 101.713,350.135L274.961,350.135C275.619,350.135 276.098,349.511 275.927,348.876L273.401,339.472C273.401,339.472 260.813,341.975 256.557,338.603L254.561,334.757C254.487,334.615 254.448,334.457 254.448,334.297L254.448,328.336L101.722,326.967C101.166,326.962 100.713,327.408 100.713,327.964L100.713,349.136Z" style="fill:rgb(48,48,48);"/>
                            <path id="Rectangle--_2" serif:id="Rectangle  _2" d="M929.275,349.136C929.275,349.688 928.828,350.135 928.275,350.135L755.027,350.135C754.369,350.135 753.891,349.511 754.061,348.876L756.587,339.472C756.587,339.472 769.175,341.975 773.432,338.603L775.428,334.757C775.502,334.615 775.54,334.457 775.54,334.297L775.54,328.336L928.266,326.967C928.822,326.962 929.275,327.408 929.275,327.964L929.275,349.136Z" style="fill:rgb(48,48,48);"/>
                            <g id="Group-" serif:id="Group ">
                                <path id="Rectangle_2" d="M147.571,298.956L147.571,377.848C147.571,378.318 147.189,378.699 146.72,378.699L126.675,378.699C126.205,378.699 125.824,378.318 125.824,377.848L125.824,298.956C125.824,298.486 126.205,298.105 126.675,298.105L146.72,298.105C147.189,298.105 147.571,298.486 147.571,298.956Z" style="fill:rgb(255,220,62);"/>
                                <path id="Rectangle-1" serif:id="Rectangle " d="M169.318,273.023L169.318,401.721C169.318,402.191 168.936,402.572 168.467,402.572L148.422,402.572C147.952,402.572 147.571,402.191 147.571,401.721L147.571,273.023C147.571,272.553 147.952,272.172 148.422,272.172L168.467,272.172C168.936,272.172 169.318,272.553 169.318,273.023Z" style="fill:rgb(255,220,62);"/>
                                <path id="Rectangle--_3" serif:id="Rectangle  _3" d="M199.349,258.987L199.349,416.663C199.349,417.133 198.968,417.514 198.498,417.514L167.58,417.514C167.11,417.514 166.729,417.133 166.729,416.663L166.729,258.987C166.729,258.517 167.11,258.136 167.58,258.136L198.498,258.136C198.968,258.136 199.349,258.517 199.349,258.987Z" style="fill:rgb(255,220,62);"/>
                            </g>
                            <g id="Group--" serif:id="Group  ">
                                <g id="Rectangle_3" transform="matrix(-1,0,0,1,892.396,294.969)">
                                    <path d="M21.747,0.851L21.747,79.743C21.747,80.213 21.365,80.594 20.896,80.594L0.851,80.594C0.381,80.594 0,80.213 0,79.743L0,0.851C0,0.381 0.381,0 0.851,0L20.896,0C21.365,0 21.747,0.381 21.747,0.851Z" style="fill:rgb(255,220,62);"/>
                                </g>
                                <g id="Rectangle-_2" serif:id="Rectangle _2" transform="matrix(-1,0,0,1,870.648,269.036)">
                                    <path d="M21.747,0.851L21.747,129.549C21.747,130.019 21.365,130.4 20.896,130.4L0.851,130.4C0.381,130.4 0,130.019 0,129.549L0,0.851C0,0.381 0.381,0 0.851,0L20.896,0C21.365,0 21.747,0.381 21.747,0.851Z" style="fill:rgb(255,220,62);"/>
                                </g>
                                <g id="Rectangle--_4" serif:id="Rectangle  _4" transform="matrix(-1,0,0,1,851.49,255)">
                                    <path d="M32.62,0.851L32.62,158.527C32.62,158.997 32.239,159.378 31.769,159.378L0.851,159.378C0.381,159.378 0,158.997 0,158.527L0,0.851C0,0.381 0.381,0 0.851,0L31.769,0C32.239,0 32.62,0.381 32.62,0.851Z" style="fill:rgb(255,220,62);"/>
                                </g>
                            </g>
                        </g>
                        <path id="Lines" d="M272.759,306.883C272.701,306.386 272.278,306 271.766,306C271.213,306 270.766,306.448 270.766,307L270.766,316.29L270.772,316.407C270.824,316.854 271.171,317.211 271.613,317.279C267.398,318.065 263.034,319.309 259.435,321.713C256.11,323.931 253.655,327.331 253.927,331.495C254.072,333.759 254.769,336.077 256.418,337.704C257.877,339.15 259.834,339.822 261.836,340.068C265.668,340.531 269.536,339.595 273.26,338.577C272.182,342.631 273.169,347.022 274.863,350.841C276.856,355.322 280.208,360.05 284.557,362.504C285.961,363.277 287.111,361.241 285.807,360.359C282.083,357.831 279.248,354.177 277.327,350.122C275.497,346.25 274.347,341.322 276.43,337.313C276.929,336.35 276.104,335.15 274.999,335.45C274.62,335.553 274.212,335.669 273.778,335.792C267.978,337.434 257.767,340.325 256.545,332.213C255.322,324.041 265.749,321.013 271.846,319.813C275.796,319.041 279.882,318.65 283.913,318.813C285.544,318.877 285.535,316.341 283.913,316.277C280.026,316.117 276.086,316.489 272.256,317.162C272.56,316.991 272.766,316.664 272.766,316.29L272.766,307L272.759,306.883ZM754.185,307.175C754.243,306.678 754.666,306.292 755.178,306.292C755.731,306.292 756.178,306.739 756.178,307.292L756.178,316.582L756.172,316.698C756.166,316.748 756.156,316.796 756.144,316.843C756.886,316.952 757.625,317.072 758.359,317.204C762.699,317.986 767.229,319.231 770.943,321.713C774.268,323.931 776.723,327.331 776.451,331.495C776.306,333.759 775.609,336.077 773.96,337.704C772.501,339.15 770.544,339.822 768.542,340.068C764.71,340.531 760.842,339.595 757.118,338.577C758.196,342.631 757.209,347.022 755.515,350.841C753.522,355.322 750.17,360.05 745.821,362.504C744.417,363.277 743.267,361.241 744.571,360.359C748.294,357.831 751.13,354.177 753.051,350.122C754.881,346.25 756.031,341.322 753.948,337.313C753.449,336.35 754.274,335.15 755.379,335.45C755.755,335.553 756.161,335.667 756.591,335.789L756.6,335.792C762.4,337.434 772.611,340.325 773.833,332.213C775.056,324.041 764.629,321.013 758.532,319.813C754.582,319.041 750.496,318.65 746.464,318.813C744.834,318.877 744.843,316.341 746.464,316.277C749.029,316.171 751.615,316.297 754.178,316.588L754.178,307.292L754.185,307.175ZM784.052,333.477C782.675,334.677 781.135,334.768 779.404,334.75C778.027,334.731 777.692,336.913 779.069,337.195C781.479,337.668 784.016,336.904 785.837,335.277C789.18,332.286 790.058,327.177 790.52,322.941C790.967,318.919 790.896,314.881 790.826,310.843L790.826,310.841C790.821,310.535 790.815,310.229 790.81,309.922C790.792,308.286 788.255,308.286 788.283,309.922C788.291,310.543 788.303,311.164 788.315,311.785C788.341,313.183 788.368,314.58 788.355,315.977C788.328,320.322 788.129,324.822 786.743,328.977C786.19,330.641 785.384,332.313 784.052,333.477ZM773.454,309.827C772.941,309.827 772.518,310.213 772.46,310.71L772.454,310.827L772.454,320.117C772.454,320.67 772.901,321.117 773.454,321.117C773.966,321.117 774.389,320.731 774.447,320.234L774.454,320.117L774.454,310.827C774.454,310.275 774.006,309.827 773.454,309.827ZM246.326,333.477C247.703,334.677 249.243,334.768 250.973,334.75C252.35,334.731 252.686,336.913 251.309,337.195C248.899,337.668 246.362,336.904 244.541,335.277C241.198,332.286 240.32,327.177 239.858,322.941C239.411,318.918 239.482,314.88 239.552,310.841C239.557,310.535 239.563,310.229 239.568,309.922C239.586,308.286 242.122,308.286 242.095,309.922C242.087,310.543 242.075,311.164 242.063,311.785C242.037,313.183 242.01,314.58 242.023,315.977C242.05,320.322 242.249,324.822 243.635,328.977C244.188,330.641 244.994,332.313 246.326,333.477ZM253.488,309.699C254,309.699 254.423,310.085 254.481,310.582L254.488,310.699L254.488,319.989C254.488,320.541 254.04,320.989 253.488,320.989C252.975,320.989 252.552,320.603 252.494,320.105L252.488,319.989L252.488,310.699C252.488,310.146 252.935,309.699 253.488,309.699Z" style="fill:rgb(48,48,48);"/>
                        <g id="shoe">
                            <path id="Path-" serif:id="Path " d="M274.924,889.045C274.924,889.045 244.31,902.623 230.225,890.379C216.141,878.136 218.028,874.871 210.053,875.224C202.079,875.577 198.24,891.795 198.24,891.795L177.687,901.456L115.575,925.84C115.575,925.84 97.671,941.049 116.12,957.088C123.093,963.149 153.087,966.102 187.521,965.634C213.83,965.277 281.3,963.997 281.3,963.997C281.3,963.997 279.715,941.963 278.922,932.528C278.628,929.023 275.458,921.416 275.44,918.612C275.407,913.257 278.44,904.787 278.349,899.699C278.264,894.948 274.924,889.045 274.924,889.045Z" style="fill:rgb(250,250,250);"/>
                            <path id="Path-_2" serif:id="Path _2" d="M203.401,888.718C203.221,888.196 202.652,887.918 202.13,888.098C201.648,888.263 201.374,888.761 201.476,889.247L201.51,889.369L205.967,902.323L198.335,899.24C197.739,898.999 197.086,899.375 196.977,899.989L196.963,900.107L196.147,913.618L189.45,904.13C188.963,903.44 187.911,903.633 187.677,904.412L187.651,904.517L184.566,920.466L175.28,906.862C174.991,906.439 174.434,906.307 173.99,906.54L173.89,906.6C173.467,906.889 173.335,907.446 173.568,907.89L173.628,907.99L184.266,923.576C184.746,924.28 185.812,924.093 186.048,923.308L186.074,923.202L189.17,907.2L196.156,917.101C196.68,917.842 197.819,917.554 197.959,916.695L197.972,916.585L198.876,901.615L207.251,904.999C208.012,905.307 208.78,904.622 208.602,903.852L208.571,903.747L203.401,888.718Z" style="fill:rgb(48,48,48);fill-rule:nonzero;"/>
                            <path id="Combined-Shape1" serif:id="Combined Shape" d="M205.115,914.538L200.575,919.055L207.54,927.039C204.893,927.728 202.445,928.528 200.261,929.454C198.518,930.194 196.703,931.038 194.836,931.968L185.639,922.707L181.186,927.001L188.619,935.261C165.493,948.176 137.956,970.219 137.956,970.219L165.24,969.743C165.24,969.743 179.326,954.576 195.332,942.721L201.157,949.193C185.491,960.341 170.989,972.572 170.989,972.572L193.145,972.185C193.145,972.185 199.014,964.331 207.078,955.773L221.313,971.592L233.968,971.371L212.763,950.018C215.472,947.415 218.309,944.895 221.17,942.662L241.535,966.005L254.444,965.78L227.795,938.098C228.478,937.696 229.157,937.321 229.832,936.974C246.678,928.318 284.679,925.148 284.679,925.148C284.679,925.148 282.159,925.141 278.083,925.273C279.855,924.859 281.22,924.41 281.22,924.41C281.22,924.41 242.648,920.861 215.539,925.367L205.115,914.538ZM207.543,944.763L201.334,938.511C204.013,936.742 206.704,935.126 209.351,933.742C210.254,933.27 211.211,932.825 212.222,932.405L217.487,938.441C214.291,940.326 210.932,942.477 207.543,944.763ZM265.528,925.955C247.008,926.071 231.376,927.045 219.92,929.917L224.471,934.645C225.54,934.123 226.573,933.653 227.562,933.24C237.963,928.901 253.346,926.889 265.528,925.955Z" style="fill:rgb(255,194,223);"/>
                            <path id="Path-_3" serif:id="Path _3" d="M280.429,952.929C280.429,952.929 174.433,956.679 144.911,955.294C115.388,953.909 106.7,940.366 106.7,940.366C106.7,940.366 107.064,961.192 127.021,968.004C146.979,974.816 282.069,973.126 282.069,973.126L280.429,952.929Z" style="fill:rgb(235,235,235);"/>
                        </g>
                        <g id="shoe_2">
                            <path id="Path-_4" serif:id="Path _4" d="M624.076,889.045C624.076,889.045 654.69,902.623 668.775,890.379C682.859,878.136 680.972,874.871 688.947,875.224C696.921,875.577 700.76,891.795 700.76,891.795L721.313,901.456L783.425,925.84C783.425,925.84 801.329,941.049 782.88,957.088C775.907,963.149 745.913,966.102 711.479,965.634C685.17,965.277 617.7,963.997 617.7,963.997C617.7,963.997 619.285,941.963 620.078,932.528C620.372,929.023 623.542,921.416 623.56,918.612C623.593,913.257 620.56,904.787 620.651,899.699C620.736,894.948 624.076,889.045 624.076,889.045Z" style="fill:rgb(250,250,250);"/>
                            <path id="Path-_5" serif:id="Path _5" d="M695.599,888.718C695.779,888.196 696.348,887.918 696.87,888.098C697.352,888.263 697.626,888.761 697.524,889.247L697.49,889.369L693.033,902.323L700.665,899.24C701.261,898.999 701.914,899.375 702.023,899.989L702.037,900.107L702.853,913.618L709.55,904.13C710.037,903.44 711.089,903.633 711.323,904.412L711.349,904.517L714.434,920.466L723.72,906.862C724.009,906.439 724.566,906.307 725.01,906.54L725.11,906.6C725.533,906.889 725.665,907.446 725.432,907.89L725.372,907.99L714.734,923.576C714.254,924.28 713.188,924.093 712.952,923.308L712.926,923.202L709.83,907.2L702.844,917.101C702.32,917.842 701.181,917.554 701.041,916.695L701.028,916.585L700.124,901.615L691.749,904.999C690.988,905.307 690.22,904.622 690.398,903.852L690.429,903.747L695.599,888.718Z" style="fill:rgb(48,48,48);fill-rule:nonzero;"/>
                            <path id="Combined-Shape_2" serif:id="Combined Shape_2" d="M693.885,914.538L698.425,919.055L691.46,927.039C694.107,927.728 696.555,928.528 698.739,929.454C700.482,930.194 702.297,931.038 704.164,931.968L713.361,922.707L717.814,927.001L710.381,935.261C733.507,948.176 761.044,970.219 761.044,970.219L733.76,969.743C733.76,969.743 719.674,954.576 703.668,942.721L697.843,949.193C713.509,960.341 728.011,972.572 728.011,972.572L705.855,972.185C705.855,972.185 699.986,964.331 691.922,955.773L677.687,971.592L665.032,971.371L686.237,950.018C683.528,947.415 680.691,944.895 677.83,942.662L657.465,966.005L644.556,965.78L671.205,938.098C670.522,937.696 669.843,937.321 669.168,936.974C652.322,928.318 614.321,925.148 614.321,925.148C614.321,925.148 616.841,925.141 620.917,925.273C619.145,924.859 617.78,924.41 617.78,924.41C617.78,924.41 656.352,920.861 683.461,925.367L693.885,914.538ZM691.457,944.763L697.666,938.511C694.987,936.742 692.296,935.126 689.649,933.742C688.746,933.27 687.789,932.825 686.778,932.405L681.513,938.441C684.709,940.326 688.068,942.477 691.457,944.763ZM633.472,925.955C651.992,926.071 667.624,927.045 679.08,929.917L674.529,934.645C673.46,934.123 672.427,933.653 671.438,933.24C661.037,928.901 645.654,926.889 633.472,925.955Z" style="fill:rgb(255,194,223);"/>
                            <path id="Path-_6" serif:id="Path _6" d="M618.571,952.929C618.571,952.929 724.567,956.679 754.089,955.294C783.612,953.909 792.3,940.366 792.3,940.366C792.3,940.366 791.936,961.192 771.979,968.004C752.021,974.816 616.931,973.126 616.931,973.126L618.571,952.929Z" style="fill:rgb(235,235,235);"/>
                        </g>
                        <path id="Shorts" d="M308.478,715.621L400.434,754.003L500.826,642.273L603.132,746L698.502,680.607L565.468,541.222L438.316,532.459L308.478,715.621Z" style="fill:rgb(255,95,105);"/>
                        <path id="Small-Top-Copy" serif:id="Small Top Copy" d="M588,567.216L413.652,567.216C413.652,567.216 451.464,369.273 467.446,366.49C483.429,363.708 469.34,406.937 512.376,406.937C555.413,406.937 541.297,363.167 557.098,366.145C573.724,369.269 588,567.216 588,567.216Z" style="fill:rgb(232,232,232);fill-rule:nonzero;"/>
                    </g>
                </g>
                <g id="Head" transform="matrix(1,0,0,1,440,252)">
                    <g id="Head-Ponytail" serif:id="Head/Ponytail">
                        <path id="Path" d="M37.5,63.044C37.55,56.654 42.03,49.783 48.07,52.423C48.48,52.334 48.89,52.273 49.3,52.254C49.3,6.053 111.85,15.543 112.21,61.904C112.21,100.243 80.16,120.073 59.56,97.674C53.12,90.344 51.84,81.463 49.44,72.754C42.7,73.004 38.09,69.213 37.5,63.044Z" style="fill:rgb(217,197,255);fill-rule:nonzero;"/>
                        <path id="hear" d="M45.925,57.954C45.728,57.494 45.212,57.245 44.721,57.391C44.191,57.549 43.89,58.106 44.048,58.635L45.143,62.311C44.632,62.111 44.07,61.968 43.46,61.882L43.344,61.873C42.843,61.861 42.402,62.226 42.331,62.734C42.255,63.281 42.636,63.786 43.183,63.863C44.674,64.072 45.635,64.685 46.174,65.721C46.281,65.939 46.463,66.105 46.677,66.197C46.812,66.254 46.96,66.283 47.111,66.276C47.223,66.272 47.335,66.249 47.444,66.205C47.552,66.161 47.649,66.1 47.733,66.027C47.846,65.927 47.933,65.804 47.99,65.669C48.048,65.534 48.076,65.387 48.069,65.236C48.066,65.148 48.051,65.061 48.023,64.975L45.965,58.064L45.925,57.954Z" style="fill:rgb(48,48,48);"/>
                        <path id="Combined-Shape2" serif:id="Combined Shape" d="M112.21,38.513C101.948,3.579 42.321,29.029 42.321,29.029C42.321,29.029 41.5,29.631 40.536,30.727C37.938,25.649 32.771,22.188 26.821,22.188C19.735,22.188 13.759,27.097 11.911,33.8C9.275,28.853 4.177,25.5 -1.679,25.5C-10.239,25.5 -17.179,32.663 -17.179,41.5C-17.179,42.45 -17.099,43.38 -16.945,44.284C-18.214,43.716 -19.614,43.401 -21.086,43.401C-26.837,43.401 -31.5,48.214 -31.5,54.151C-31.5,60.088 -26.837,64.901 -21.086,64.901C-15.457,64.901 -10.871,60.291 -10.678,54.529C-8.141,56.399 -5.034,57.5 -1.679,57.5C5.407,57.5 11.383,52.591 13.231,45.889C15.867,50.836 20.965,54.188 26.821,54.188C32.424,54.188 37.333,51.12 40.056,46.521C42.572,50.951 47.032,55.372 53.819,57.349C65.317,60.698 83.099,43.636 83.099,43.636C83.099,43.636 122.472,73.446 112.21,38.513Z"/>
                    </g>
                </g>
                <g id="Expression" transform="matrix(1,0,0,1,488,295)">
                    <g id="Expression-Smile-" serif:id="Expression/Smile ">
                        <path id="Mouth" d="M41.65,41.764C41.689,41.758 41.689,41.758 41.625,41.761C41.523,41.77 41.43,41.793 41.352,41.806C41.171,41.828 41.005,41.84 40.828,41.837C40.662,41.849 40.471,41.856 40.294,41.854C40.166,41.859 39.796,41.8 39.699,41.848C39.788,41.849 39.862,41.861 39.95,41.862C39.837,41.857 39.71,41.862 39.586,41.843L39.562,41.839L39.523,41.845C39.321,41.839 39.119,41.832 38.907,41.811C38.519,41.788 38.134,41.739 37.734,41.702C36.131,41.511 34.555,41.147 32.987,40.734C32.525,40.611 31.91,40.817 31.538,41.087C31.152,41.368 30.819,41.872 30.755,42.356C30.701,42.854 30.782,43.386 31.108,43.805C31.212,43.948 31.352,44.021 31.474,44.129C33.364,47.151 37.408,48.956 40.761,47.221C41.877,46.65 42.968,45.836 43.657,44.767C44.095,44.077 44.264,43.166 43.706,42.457C43.192,41.781 42.449,41.6 41.65,41.764Z" style="fill:rgb(48,48,48);fill-rule:nonzero;"/>
                        <path id="Nose" d="M47.073,34.35C46.953,33.85 46.783,33.37 46.663,32.87C46.543,32.37 46.413,31.87 46.273,31.37C46.003,30.41 45.713,29.46 45.433,28.5C44.863,26.57 44.303,24.62 44.083,22.62C44.023,22.1 43.673,21.65 43.113,21.65C42.633,21.65 42.083,22.1 42.143,22.62C42.563,26.39 43.993,29.91 44.853,33.58C44.033,33.58 43.223,33.56 42.403,33.53C41.303,33.5 40.013,33.42 38.993,33.88C38.293,34.2 38.473,35.38 39.213,35.54C39.753,35.65 40.313,35.62 40.853,35.66C41.443,35.7 42.023,35.73 42.613,35.76C43.853,35.82 45.103,35.83 46.343,35.65C46.913,35.56 47.193,34.84 47.073,34.35Z" style="fill:rgb(48,48,48);fill-rule:nonzero;"/>
                    </g>
                </g>
                <g id="Beard">
                </g>
            </g>
        </g>
    </g>
</svg>
