<?xml version="1.0" encoding="UTF-8" standalone="no"?>
<!DOCTYPE svg PUBLIC "-//W3C//DTD SVG 1.1//EN" "http://www.w3.org/Graphics/SVG/1.1/DTD/svg11.dtd">
<svg width="100%" height="100%" viewBox="0 0 800 1050" version="1.1" xmlns="http://www.w3.org/2000/svg" xmlns:xlink="http://www.w3.org/1999/xlink" xml:space="preserve" xmlns:serif="http://www.serif.com/" style="fill-rule:evenodd;clip-rule:evenodd;stroke-linejoin:round;stroke-miterlimit:2;">
    <g id="Background" transform="matrix(0.521359,0,0,0.533742,-433.961734,-99.436521)">
        <g>
            <g id="Fill-1" serif:id="Fill 1" transform="matrix(3.929099,0,0,3.504312,559.096512,109.136656)">
                <path d="M156.595,119.987C155.938,120.876 155.02,121.412 154.064,121.919C152.908,122.53 151.655,123.06 150.356,123.472C150.941,122.45 151.705,121.525 152.678,120.751C153.399,120.177 154.254,119.707 155.133,119.43C155.552,119.299 155.999,119.158 156.439,119.138C156.508,119.134 156.744,119.12 156.874,119.118C156.941,119.108 156.998,119.115 157.052,119.127C157.032,119.172 157.017,119.21 157.016,119.211C156.929,119.475 156.768,119.755 156.595,119.987M157.069,118.858C157.131,118.865 157.111,118.967 157.078,119.059C157.073,119.056 157.071,119.054 157.068,119.049C157.057,119.054 157.065,118.858 157.069,118.858M141.688,104.289C143.103,103.722 145.103,103.613 146.007,105.105C146.828,106.461 145.174,107.485 144.029,108.061C141.981,109.092 139.445,109.537 137.178,109.713C136.636,109.754 136.097,109.767 135.558,109.773C135.788,109.415 136.028,109.066 136.285,108.737C137.663,106.971 139.58,105.135 141.688,104.289M160.548,115.58C159.037,114.184 156.993,114.004 155.053,114.35C149.756,115.297 146.23,119.47 144.718,124.334C143.16,124.297 141.622,124.006 140.179,123.378C136.774,121.901 133.866,118.562 133.92,114.706C135.01,114.762 136.101,114.755 137.178,114.67C140.485,114.412 144.051,113.76 146.974,112.103C149.693,110.561 151.799,107.671 151.017,104.407C150.248,101.2 147.039,99.035 143.848,98.927C140.383,98.811 137.24,100.848 134.788,103.107C132.954,104.795 131.356,106.84 130.298,109.123C130.055,109.058 129.81,109.013 129.569,108.936C125.231,107.575 121.346,104.135 120.202,99.628C119.114,95.336 120.988,90.727 124.858,88.607C127.651,87.076 125.159,82.794 122.362,84.326C116.858,87.341 114.231,93.655 115.196,99.763C116.177,105.97 121.121,110.883 126.749,113.173C127.491,113.476 128.257,113.726 129.033,113.937C128.699,119.228 131.788,124.239 136.386,126.976C138.726,128.368 141.288,129.055 143.899,129.206C143.873,129.968 143.883,130.728 143.954,131.476C144.564,137.886 148.494,146.515 156.188,145.976C157.521,145.882 158.66,144.903 158.66,143.497C158.66,142.228 157.527,140.924 156.188,141.018C152.198,141.298 149.982,136.793 149.227,133.414C148.9,131.954 148.76,130.412 148.844,128.891C151.329,128.447 153.763,127.603 155.993,126.492C158.789,125.098 161.666,122.781 161.979,119.431C162.112,118.011 161.605,116.555 160.548,115.58" style="fill:rgb(237,99,137);"/>
            </g>
            <g id="Fill-5" serif:id="Fill 5" transform="matrix(3.929099,0,0,3.504312,-474.930687,-123.948899)">
                <path d="M593.85,131.537C595.564,127.925 598.643,124.644 602.896,124.713C604.246,124.734 606.763,125.303 607.018,126.96C607.251,128.466 605.789,130.548 604.852,131.616C602.669,134.104 599.428,135.753 596.205,136.004C594.913,136.105 593.654,136.008 592.451,135.723C592.765,134.267 593.227,132.851 593.85,131.537M609.231,154.071C605.974,155.696 602.021,155.151 598.929,153.395C595.439,151.413 593.291,147.986 592.422,144.093C592.18,143.008 592.045,141.887 592.002,140.756C592.947,140.945 593.923,141.049 594.925,141.057C599.71,141.096 604.591,139.1 607.931,135.628C609.657,133.833 611.131,131.515 611.727,129.063C612.53,125.759 611.048,122.717 608.133,121.071C602.884,118.108 596.207,120.26 592.438,124.624C590.268,127.135 588.777,130.216 587.917,133.465C587.544,133.16 587.184,132.833 586.84,132.475C584.472,129.996 583.07,126.539 582.966,123.117C582.708,114.56 591.261,107.789 599.513,109.056C600.836,109.259 602.181,108.719 602.566,107.308C602.888,106.123 602.166,104.432 600.832,104.227C590.387,102.624 579.403,109.661 578.121,120.626C577.266,127.936 581.008,135.322 587.084,138.878C587.059,139.421 587.035,139.963 587.045,140.503C587.155,146.847 589.777,153.025 594.961,156.777C599.817,160.293 606.348,161.085 611.737,158.395C614.6,156.965 612.088,152.644 609.231,154.071" style="fill:rgb(237,99,137);"/>
            </g>
            <g id="Fill-7" serif:id="Fill 7" transform="matrix(3.929099,0,0,3.504312,559.096512,109.136656)">
                <path d="M223.617,135.025C221.392,131.628 217.537,130.421 213.67,131.253C205.34,133.045 200.827,142.453 201.596,150.411C201.974,154.32 203.173,158.142 203.465,162.047C201.876,161.551 200.367,160.756 198.908,159.966C196.467,158.646 194.021,157.237 191.346,156.453C188.57,155.642 185.273,155.476 182.814,157.254C180.475,158.947 179.576,161.738 179.853,164.559C180.114,167.209 181.005,169.684 181.677,172.24C182.279,174.529 182.298,176.888 181.727,179.186C180.615,183.66 177.469,187.719 173.054,189.221C167.938,190.96 162.053,189.684 158.231,185.801C155.978,183.515 152.473,187.053 154.726,189.341C158.651,193.327 164.391,195.428 169.942,194.927C175.593,194.416 180.484,191.543 183.703,186.822C186.792,182.293 187.871,176.402 186.5,171.077C185.869,168.63 184.757,166.121 184.755,163.558C184.754,162.805 184.851,162.143 185.328,161.628C186.094,160.803 187.365,160.774 188.402,160.904C191.41,161.283 194.121,163.064 196.739,164.468C199.659,166.037 202.633,167.337 205.975,167.542C207.383,167.628 208.359,166.322 208.453,165.04C208.79,160.434 207.366,156.023 206.692,151.52C206.096,147.54 206.636,143.665 208.962,140.326C210.759,137.748 214.221,135.165 217.514,136.178C218.478,136.474 219.37,137.356 219.764,138.284C220.225,139.37 220.214,140.365 219.691,140.981C218.821,142.007 218.693,143.514 219.691,144.52C220.581,145.421 222.321,145.552 223.196,144.52C225.493,141.813 225.556,137.986 223.617,135.025" style="fill:rgb(224,191,219);"/>
            </g>
            <g id="Fill-9" serif:id="Fill 9" transform="matrix(3.929099,0,0,3.504312,559.096512,109.136656)">
                <path d="M380.572,119.867C378.499,121.84 376.062,123.63 373.639,125.153C369.694,127.636 363.454,129.797 359.476,126.097C355.814,122.69 356.761,116.203 358.102,111.94C358.618,110.297 359.839,107.906 361.72,109.483C364.299,111.647 362.426,115.829 361.48,118.319C361.203,119.046 361.43,119.838 361.898,120.448C361.657,120.661 361.414,120.869 361.178,121.09C358.815,123.302 362.379,126.835 364.737,124.628C368.904,120.727 374.661,117.471 380.444,116.835C381.166,116.757 381.859,116.608 381.963,117.418C382.086,118.36 381.213,119.256 380.572,119.867M385.881,114.046C382.94,110.016 376.503,112.314 372.731,113.806C370.872,114.541 369.095,115.422 367.399,116.43C368.221,113.366 368.418,110.133 366.498,107.392C364.112,103.985 359.605,102.732 356.239,105.568C353.598,107.792 352.813,111.636 352.339,114.871C351.78,118.702 351.77,122.599 353.418,126.183C354.984,129.588 358.31,131.983 361.973,132.698C365.857,133.457 369.662,132.735 373.217,131.098C376.9,129.4 380.171,126.751 383.261,124.172C386.171,121.744 388.454,117.571 385.881,114.046" style="fill:rgb(224,191,219);"/>
            </g>
            <g id="Fill-13" serif:id="Fill 13" transform="matrix(3.929099,0,0,3.504312,559.096512,109.136656)">
                <path d="M224.916,49.746C225.147,50.143 225.357,50.548 225.543,50.97C225.339,50.506 225.59,51.114 225.625,51.217C225.698,51.433 225.765,51.65 225.825,51.868C225.945,52.308 226.033,52.752 226.109,53.202C226.014,52.642 226.123,53.367 226.129,53.435C226.147,53.663 226.16,53.89 226.167,54.119C226.179,54.577 226.168,55.036 226.135,55.492C226.132,55.547 226.051,56.299 226.125,55.736C226.095,55.965 226.056,56.192 226.013,56.417C225.844,57.326 225.589,58.219 225.252,59.075C225.412,58.669 225.186,59.211 225.135,59.32C225.039,59.529 224.937,59.735 224.831,59.939C224.619,60.346 224.388,60.741 224.14,61.124C224.015,61.316 223.887,61.505 223.754,61.688C224.005,61.343 223.651,61.807 223.578,61.895C223.291,62.242 222.986,62.574 222.665,62.887C222.505,63.043 222.336,63.189 222.174,63.342C221.8,63.694 222.426,63.185 221.973,63.507C221.641,63.745 221.311,63.977 220.961,64.184C220.769,64.297 220.573,64.396 220.38,64.504C220.281,64.554 220.182,64.602 220.082,64.649C220.29,64.561 220.314,64.551 220.153,64.617C219.702,64.797 219.244,64.941 218.775,65.061C217.502,65.387 216.741,66.876 217.081,68.163C217.437,69.509 218.788,70.249 220.063,69.924C229.109,67.612 233.908,55.475 229.103,47.202C227.492,44.427 223.298,46.958 224.916,49.746" style="fill:rgb(224,191,219);"/>
            </g>
            <g id="Fill-15" serif:id="Fill 15" transform="matrix(3.929099,0,0,3.504312,559.096512,109.136656)">
                <path d="M95.051,157.687C88.055,164.336 88.333,177.137 95.843,183.306C96.864,184.146 98.294,184.313 99.292,183.306C100.15,182.441 100.318,180.672 99.292,179.828C93.718,175.249 93.306,166.103 98.501,161.166C100.789,158.99 97.336,155.517 95.051,157.687" style="fill:rgb(255,204,55);"/>
            </g>
            <g id="Fill-17" serif:id="Fill 17" transform="matrix(3.929099,0,0,3.504312,559.096512,109.136656)">
                <path d="M341.609,166.927C343.49,171.403 343.832,177.612 340.234,181.379C338.714,182.972 336.618,183.641 334.718,182.448C332.863,181.28 331.798,178.951 331.818,176.794C331.852,173.468 333.931,170.457 336.129,168.12C337.411,166.756 338.803,165.503 340.281,164.358C340.79,165.181 341.237,166.042 341.609,166.927M319.919,167.661C320.007,170.001 319.789,172.481 318.887,174.627C318.062,176.588 316.702,178.154 314.528,178.195C311.937,178.245 309.842,175.939 309.222,173.605C307.775,168.154 311.605,162.336 315.988,159.402C316.772,158.878 317.595,158.408 318.447,158.001C319.272,161.161 319.797,164.395 319.919,167.661M360.96,156.108C358.135,152.727 353.23,152.687 349.331,153.896C346.512,154.771 343.79,156.108 341.252,157.693C340.103,156.519 338.837,155.459 337.457,154.553C332.723,151.443 327.052,150.664 321.665,151.778C321.134,150.355 320.547,148.952 319.899,147.576C318.17,143.904 315.503,140.271 311.087,140.012C309.134,139.898 307.173,140.595 305.83,142.027C303.656,144.345 307.148,147.844 309.329,145.518C311.147,143.581 313.62,146.39 314.53,147.942C315.512,149.616 316.3,151.416 316.974,153.256C316.943,153.269 316.912,153.281 316.883,153.293C309.955,156.316 304.455,162.996 304.021,170.686C303.779,174.997 305.626,179.189 309.3,181.558C312.651,183.719 316.963,183.603 320.091,181.131C326.074,176.405 325.235,166.988 324.048,160.394C323.81,159.071 323.509,157.761 323.162,156.464C325.559,156.024 328.037,156.071 330.425,156.727C332.96,157.424 335.255,158.781 337.169,160.563C334.041,163.003 331.085,165.827 329.093,169.279C327.101,172.729 326.121,177.021 327.588,180.852C328.885,184.235 331.59,187.254 335.317,187.866C343.701,189.242 348.203,179.749 347.899,172.757C347.727,168.793 346.454,164.95 344.355,161.621C344.563,161.499 344.762,161.361 344.971,161.243C347.856,159.607 351.773,157.428 355.219,158.205C356.499,158.495 357.373,159.166 357.879,160.375C358.213,161.175 358.228,161.919 357.732,162.448C355.559,164.767 359.05,168.264 361.231,165.938C363.902,163.088 363.333,158.95 360.96,156.108" style="fill:rgb(255,204,55);"/>
            </g>
            <g id="Fill-19" serif:id="Fill 19" transform="matrix(3.929099,0,0,3.504312,559.096512,109.136656)">
                <path d="M397.901,49.406C392.239,53.011 391.128,61.378 396.445,65.841C399.184,68.14 402.376,68.743 405.847,68.15C407.008,67.952 408.654,67.313 409.828,67.726C410.966,68.125 410.926,69.733 410.907,70.734C410.836,74.345 409.927,77.771 411.5,81.218C412.851,84.175 415.759,85.893 419.011,85.527C420.306,85.382 421.53,85.038 422.768,84.638C423.923,84.265 425.261,83.78 426.169,83.811C426.764,83.83 425.986,83.644 426.517,83.882C426.114,83.7 426.762,84.151 426.539,83.897C426.812,84.209 426.88,84.362 426.929,84.801C427.104,86.372 426.563,87.975 426.618,89.553C426.746,93.241 429.225,96.556 432.787,97.651C436.509,98.794 440.49,97.021 442.576,93.885C444.367,91.189 440.014,88.679 438.233,91.358C437.145,92.993 434.777,93.509 433.174,92.329C431.102,90.806 431.723,88.43 431.91,86.231C432.164,83.26 431.118,80.233 428.094,79.14C425.835,78.325 423.443,79.164 421.276,79.859C419.673,80.374 417.679,81.297 416.5,79.867C414.701,77.685 415.725,74.188 415.892,71.674C416.099,68.539 415.453,65.034 412.429,63.403C409.538,61.843 406.613,63.265 403.622,63.425C401.275,63.551 398.937,62.062 398.19,59.813C397.454,57.602 398.478,54.977 400.44,53.729C403.157,51.999 400.638,47.662 397.901,49.406" style="fill:rgb(255,204,55);"/>
            </g>
            <g id="Fill-21" serif:id="Fill 21" transform="matrix(3.929099,0,0,3.504312,-699.916824,211.250328)">
                <path d="M525.755,76.217C524.924,75.825 524.114,75.393 523.328,74.916C522.926,74.672 522.529,74.416 522.141,74.149C521.956,74.023 521.775,73.894 521.594,73.763C521.493,73.691 521.394,73.616 521.294,73.543C520.93,73.28 521.65,73.826 521.402,73.628C519.939,72.472 518.6,71.186 517.407,69.752C517.009,69.273 516.182,69 515.583,69C514.95,69 514.194,69.28 513.759,69.752C513.306,70.242 512.971,70.885 513.002,71.57C513.035,72.288 513.299,72.837 513.759,73.388C516.295,76.439 519.555,78.96 523.15,80.655C523.789,80.956 524.435,81.107 525.139,80.914C525.737,80.75 526.386,80.29 526.681,79.734C527.287,78.59 527.058,76.832 525.755,76.217" style="fill:rgb(255,204,55);"/>
            </g>
            <g id="Fill-23" serif:id="Fill 23" transform="matrix(3.929099,0,0,3.504312,559.096512,109.136656)">
                <path d="M271.799,38.452C271.707,37.13 270.658,36 269.172,36C267.821,36 266.451,37.124 266.544,38.452C266.945,44.164 266.767,49.895 266.013,55.576C265.855,56.769 267.134,57.855 268.292,57.984C269.462,58.114 270.972,57.447 271.174,56.228C271.246,55.801 271.317,55.373 271.387,54.946C271.428,54.698 271.432,54.451 271.415,54.206C272.023,48.974 272.167,43.706 271.799,38.452" style="fill:rgb(255,204,55);"/>
            </g>
            <g id="Fill-25" serif:id="Fill 25" transform="matrix(3.929099,0,0,3.504312,559.096512,109.136656)">
                <path d="M297.291,104.184C294.494,100.821 288.999,100.233 285.5,102.846C283.846,104.08 282.878,106.212 281.111,107.246C279.892,107.958 278.162,107.807 277.011,106.902C275.806,105.957 275.405,104.059 274.776,102.753C273.89,100.907 272.373,99.307 270.269,98.877C267.784,98.371 265.413,99.567 263.709,101.28C262.156,102.843 261.326,104.822 260.016,106.547C259.087,107.768 257.889,108.698 256.48,107.576C254.441,105.95 254.921,102.683 255.13,100.447C255.252,99.13 253.897,98 252.637,98C251.187,98 250.268,99.126 250.145,100.447C249.889,103.196 249.849,106.005 251.085,108.555C252.075,110.599 254.069,112.361 256.351,112.852C258.762,113.37 261.11,112.492 262.831,110.814C264.449,109.238 265.253,107.17 266.615,105.427C267.414,104.404 268.955,102.9 269.927,104.195C270.835,105.405 271.222,107.374 272.152,108.775C274.625,112.506 280.237,113.83 284.037,111.21C285.179,110.423 286.028,109.425 286.907,108.377C287.528,107.636 288.181,106.764 289.103,106.37C290.771,105.658 292.628,106.277 293.766,107.644C294.618,108.669 296.407,108.513 297.291,107.644C298.323,106.632 298.145,105.211 297.291,104.184" style="fill:rgb(0,175,169);"/>
            </g>
            <g id="Fill-29" serif:id="Fill 29" transform="matrix(2.529062,0,0,2.255637,445.160097,760.527811)">
                <path d="M596.99,54.31C596.896,56.015 596.695,57.709 596.39,59.39C595.798,62.647 594.885,65.871 593.615,68.929C592.889,70.676 591.577,73.659 589.446,74.006C587.426,74.334 586.004,71.736 585.19,70.26C583.643,67.461 582.327,64.532 581.232,61.529C580.658,59.953 580.142,58.356 579.686,56.743C579.382,55.669 578.985,54.62 578.975,53.618C579.208,53.75 579.447,53.874 579.672,54.01C580.922,54.767 582.074,55.643 583.139,56.644C584.834,58.239 586.22,60.069 587.328,62.081C587.175,63.29 587.101,64.509 587.122,65.728C587.177,68.931 592.163,68.941 592.108,65.728C592.103,65.477 592.109,65.228 592.113,64.977C593.111,64.193 593.201,62.918 592.716,61.779C592.645,61.614 592.564,61.453 592.49,61.288C592.748,59.948 593.137,58.632 593.67,57.358C594.226,56.033 594.96,54.763 595.776,53.585C596.005,53.256 596.618,52.727 596.903,52.319C596.95,52.482 596.985,52.614 596.98,52.588C597.074,53.145 597.022,53.752 596.99,54.31M578.426,53.293C578.255,53.329 578.195,53.185 578.426,53.293ZM579.094,52.839C579.092,52.844 579.087,52.846 579.084,52.851C579.085,52.847 579.086,52.839 579.085,52.838C579.136,52.665 579.139,52.665 579.094,52.839M601.008,49.264C599.745,47.162 597.167,46.399 594.968,47.507C592.966,48.516 591.564,50.752 590.48,52.636C589.92,53.607 589.432,54.616 589.009,55.651C588.161,54.607 587.236,53.626 586.239,52.731C583.78,50.524 578.949,46.392 575.671,49.29C572.777,51.849 574.324,56.295 575.265,59.384C576.549,63.595 578.234,67.702 580.264,71.609C581.993,74.937 584.352,78.516 588.419,78.96C592.268,79.379 595.283,76.443 597.021,73.32C599.075,69.631 600.322,65.296 601.113,61.169C601.546,58.908 601.845,56.609 601.976,54.31C602.072,52.607 601.907,50.759 601.008,49.264" style="fill:rgb(0,175,169);"/>
            </g>
            <g id="Fill-31" serif:id="Fill 31" transform="matrix(3.929099,0,0,3.504312,559.096512,109.136656)">
                <path d="M97.758,215.949C97.521,216.186 97.278,216.415 97.016,216.629C97.015,216.631 96.522,216.997 96.789,216.811C97.058,216.622 96.593,216.932 96.54,216.965C96.256,217.142 95.961,217.306 95.659,217.456C95.477,217.546 95.288,217.622 95.106,217.71C95.298,217.617 95.383,217.611 95.133,217.697C94.485,217.92 93.829,218.102 93.149,218.22C93.045,218.238 92.385,218.292 92.993,218.251C92.856,218.261 92.718,218.278 92.58,218.288C92.2,218.315 91.82,218.325 91.439,218.32C91.094,218.313 90.748,218.265 90.404,218.26C90.034,218.254 90.984,218.364 90.348,218.252C90.178,218.222 90.008,218.195 89.84,218.16C89.502,218.094 89.168,218.011 88.839,217.916C88.675,217.869 88.512,217.817 88.351,217.763C88.288,217.741 87.759,217.536 88.074,217.667C88.391,217.799 87.812,217.544 87.812,217.544C87.659,217.473 87.508,217.398 87.358,217.319C87.058,217.162 86.773,216.988 86.49,216.806C86.295,216.682 86.163,216.555 86.423,216.765C86.292,216.66 86.161,216.557 86.035,216.448C85.753,216.206 85.493,215.948 85.243,215.678C84.357,214.723 82.619,214.827 81.713,215.678C80.703,216.626 80.824,218.037 81.713,218.994C86.588,224.25 96.24,224.328 101.289,219.265C102.21,218.341 102.264,216.866 101.289,215.949C100.357,215.074 98.683,215.023 97.758,215.949" style="fill:rgb(0,175,169);"/>
            </g>
            <g id="Fill-33" serif:id="Fill 33" transform="matrix(3.929099,0,0,3.504312,654.545177,122.455831)">
                <path d="M90.868,37.863C88.457,32.032 80.528,31.367 76.761,36.289C74.849,38.789 74.341,42.048 75.002,45.075C75.271,46.308 75.759,47.507 75.94,48.759C76.064,49.626 76.204,49.987 75.408,50.158C74.239,50.408 72.849,49.985 71.634,50.122C70,50.306 68.521,51.007 67.406,52.225C65.271,54.559 64.868,57.782 65.429,60.771C65.72,62.322 66.287,63.803 66.77,65.303C66.908,65.736 67.022,66.987 67.339,67.324C67.423,67.415 66.972,68.198 67.557,67.087C67.622,67.032 67.698,67.002 67.783,67C67.604,67.065 67.421,67.115 67.236,67.151C66.481,67.296 65.088,67.158 64.098,67.228C62.51,67.339 60.999,67.833 59.705,68.764C56.867,70.808 55.272,74.413 56.327,77.838C57.395,81.303 60.354,83.528 63.906,83.986C65.253,84.16 66.417,82.72 66.417,81.501C66.417,80.015 65.257,79.192 63.906,79.017C62.333,78.814 60.959,77.042 61.02,75.52C61.084,73.899 62.487,72.429 64.098,72.197C66.38,71.868 68.685,72.523 70.664,70.969C73.24,68.949 72.207,65.768 71.34,63.162C70.659,61.115 69.638,58.686 70.489,56.573C71.374,54.373 73.35,55.21 75.369,55.115C78.226,54.982 80.57,53.218 80.938,50.339C81.251,47.897 80.118,45.764 79.773,43.413C79.496,41.525 80.167,39.069 82.035,38.177C83.248,37.598 85.523,37.966 86.026,39.184C86.538,40.425 87.695,41.304 89.114,40.919C90.302,40.596 91.384,39.112 90.868,37.863" style="fill:rgb(255,204,55);"/>
            </g>
            <g id="Fill-35" serif:id="Fill 35" transform="matrix(3.929099,0,0,3.504312,-256.762311,-363.694042)">
                <path d="M647.808,172.74C644.439,177.042 641.071,181.343 637.701,185.645C636.89,186.682 636.65,188.26 637.701,189.26C638.603,190.116 640.323,190.369 641.192,189.26C644.56,184.958 647.929,180.656 651.299,176.355C652.11,175.318 652.35,173.74 651.299,172.74C650.397,171.884 648.677,171.631 647.808,172.74" style="fill:rgb(240,102,71);"/>
            </g>
            <g id="Group-39" serif:id="Group 39" transform="matrix(3.929099,0,0,3.504312,859.078029,-150.587249)">
                <path id="Fill-37" serif:id="Fill 37" d="M67.294,265.146C61.09,260.704 54.887,256.262 48.683,251.82C47.604,251.048 45.959,251.628 45.333,252.706C44.614,253.943 45.13,255.309 46.211,256.083C52.415,260.525 58.618,264.967 64.822,269.409C65.901,270.182 67.547,269.602 68.173,268.523C68.891,267.285 68.376,265.919 67.294,265.146" style="fill:rgb(240,102,71);"/>
            </g>
            <g id="Fill-40" serif:id="Fill 40" transform="matrix(3.929099,0,0,3.504312,559.096512,109.136656)">
                <path d="M185.625,214.079C183.769,213.805 182.089,214.231 180.76,215.59C179.646,216.729 178.985,218.371 179,219.952C179.018,221.794 179.993,223.401 181.595,224.325C182.315,224.741 183.148,224.99 183.952,225.195C184.326,225.292 184.703,225.374 185.074,225.483C185.495,225.609 185.52,225.578 185.732,225.76C185.773,225.795 185.552,225.603 185.597,225.6C185.643,225.677 185.691,225.754 185.738,225.831C185.717,225.787 185.696,225.744 185.675,225.699C185.876,225.664 185.304,225.179 185.66,225.725C185.59,225.617 185.839,225.256 185.609,225.742C185.769,225.402 185.388,226.064 185.325,226.157C185.245,226.27 184.94,226.628 184.703,226.884C183.569,228.113 182.244,229.259 181.399,230.716C179.472,234.039 180.496,238.468 183.617,240.7C187.18,243.247 192.427,241.855 194.625,238.241C196.296,235.493 191.943,232.993 190.275,235.735C189.72,236.648 188.684,237.112 187.566,237.03C186.71,236.969 185.887,236.29 185.587,235.319C185.243,234.206 185.487,233.405 186.329,232.435C187.461,231.131 188.802,230.007 189.752,228.551C190.771,226.988 191.054,224.987 190.087,223.325C189.104,221.632 187.4,220.936 185.574,220.476C185.199,220.383 184.814,220.302 184.449,220.173C184.361,220.141 183.909,219.888 184.107,220.059C183.902,219.848 183.889,219.845 184.068,220.051C183.93,219.798 183.926,219.798 184.058,220.051C183.993,219.765 183.987,219.769 184.039,220.063C184.032,219.914 184.034,219.766 184.048,219.616C183.82,220.33 184.352,218.933 184.073,219.549C184.119,219.446 184.618,218.724 184.322,219.102C184.537,218.908 184.536,218.891 184.318,219.048C184.438,218.963 184.564,218.888 184.696,218.822C184.432,218.933 184.438,218.946 184.716,218.864C184.573,218.924 184.429,218.926 184.286,218.868C185.629,219.066 186.993,218.535 187.384,217.133C187.711,215.961 186.978,214.278 185.625,214.079" style="fill:rgb(65,175,228);"/>
            </g>
            <g id="Group-44" serif:id="Group 44" transform="matrix(3.929099,0,0,3.504312,559.096512,109.136656)">
                <path id="Fill-42" serif:id="Fill 42" d="M165.864,55.961C169.15,56.825 172.767,55.401 174.533,52.389C176.301,49.375 175.638,45.2 173.186,42.788C170.675,40.316 167.233,40.373 163.998,40.637C162.569,40.754 161.062,40.937 159.753,40.5C158.792,40.179 158.123,39.416 157.83,38.481C157.034,35.932 159.128,33.475 161.81,33.367C164.952,33.241 164.968,28.215 161.81,28.343C158.505,28.476 155.185,30.276 153.662,33.387C152.131,36.514 152.598,40.252 154.775,42.928C156.976,45.635 160.478,45.937 163.672,45.688C165.067,45.578 166.665,45.335 167.994,45.567C169.068,45.757 169.918,46.254 170.383,47.291C171.337,49.42 169.387,51.701 167.166,51.117C164.111,50.314 162.808,55.158 165.864,55.961" style="fill:rgb(65,175,228);"/>
            </g>
            <g id="Fill-45" serif:id="Fill 45" transform="matrix(3.929099,0,0,3.504312,381.834707,446.555747)">
                <path d="M461.745,61.242C461.461,61.149 461.8,61.265 461.86,61.314C461.587,61.097 461.903,61.394 461.931,61.428C461.754,61.208 462.261,61.958 462.307,62.038C462.685,62.703 462.994,63.407 463.413,64.05C464.596,65.865 466.389,67.132 468.646,66.989C470.946,66.842 472.909,65.309 474.127,63.442C475.44,61.433 475.494,59.012 475.924,56.734C476.139,55.595 476.731,53.186 478.326,53.256C478.087,53.245 478.512,53.486 478.531,53.511C478.995,54.127 479.289,54.879 479.619,55.571C480.355,57.11 481.358,58.57 483.064,59.126C485.584,59.946 487.765,58.342 489.225,56.455C492.461,52.275 493.582,46.992 492.72,41.831C492.497,40.493 490.832,39.746 489.616,40.079C488.189,40.469 487.629,41.823 487.853,43.165C488.441,46.688 487.464,50.503 485.304,53.349C485.133,53.573 484.436,54.111 484.387,54.334C484.341,54.535 484.318,54.225 484.343,54.356C484.332,54.298 484.609,54.351 484.624,54.354C485.155,54.453 484.617,54.337 484.616,54.337C484.766,54.342 484.879,54.695 484.622,54.281C484.842,54.634 484.382,53.844 484.335,53.759C483.649,52.483 483.169,51.145 482.174,50.054C479.218,46.817 474.588,48.534 472.426,51.724C471.266,53.435 471.032,55.525 470.733,57.511C470.503,59.042 470.304,61.01 468.771,61.834C468.33,62.07 468.254,62.031 468.062,61.875C467.751,61.619 467.375,60.842 467.071,60.263C466.144,58.504 465.053,57.053 463.086,56.403C459.997,55.381 458.673,60.227 461.745,61.242" style="fill:rgb(65,175,228);"/>
            </g>
            <g id="Fill-47" serif:id="Fill 47" transform="matrix(3.929099,0,0,3.504312,-249.944549,9.242847)">
                <path d="M639.697,238.337C641.11,239.575 642.424,240.933 643.617,242.406C643.899,242.754 644.173,243.11 644.444,243.469C644.758,243.885 644.2,243.125 644.377,243.377C644.45,243.48 644.524,243.58 644.595,243.683C644.725,243.866 644.853,244.052 644.98,244.239C645.526,245.048 646.037,245.883 646.515,246.74C647.155,247.885 648.716,248.395 649.812,247.65C650.906,246.907 651.361,245.399 650.676,244.175C648.688,240.615 646.119,237.385 643.105,234.745C642.601,234.303 642.078,234 641.401,234C640.81,234 640.104,234.277 639.697,234.745C638.88,235.682 638.662,237.43 639.697,238.337" style="fill:rgb(65,175,228);"/>
            </g>
            <g id="Fill-49" serif:id="Fill 49" transform="matrix(3.929099,0,0,3.504312,-947.628835,462.094784)">
                <path d="M641.955,69.945C640.523,69.121 639.433,67.747 639.152,66.221C641.96,66.615 644.583,68.107 646.219,70.419C644.807,70.802 643.315,70.726 641.955,69.945M656.146,50.846C655.663,49.578 654.441,48.708 653.039,49.092C651.816,49.425 650.789,50.906 651.275,52.181C653.131,57.057 654.047,63.561 650.418,67.7C647.428,63.375 642.12,60.691 636.801,61.127C635.66,61.22 634.704,61.845 634.365,62.971C633.124,67.103 635.176,71.265 638.543,73.717C641.308,75.729 644.73,76.082 647.89,75.148C648.089,78.366 646.646,81.624 644.158,83.732C643.119,84.613 643.247,86.378 644.158,87.285C645.188,88.308 646.689,88.167 647.73,87.285C651.9,83.751 653.748,77.874 652.573,72.599C654.886,70.64 656.576,67.914 657.366,65.033C658.652,60.343 657.85,55.321 656.146,50.846" style="fill:rgb(65,175,228);"/>
            </g>
            <g id="Fill-51" serif:id="Fill 51" transform="matrix(3.929099,0,0,3.504312,559.096512,109.136656)">
                <path d="M393.872,187.467C393.86,187.848 393.841,188.229 393.811,188.609C393.796,188.778 393.781,188.946 393.762,189.115C393.758,189.158 393.701,189.629 393.73,189.418C393.761,189.188 393.656,189.86 393.659,189.844C393.63,190.01 393.598,190.178 393.565,190.343C393.498,190.677 393.424,191.008 393.341,191.336C393.166,192.036 392.954,192.728 392.709,193.408C392.579,193.768 392.44,194.125 392.292,194.478C392.393,194.236 392.286,194.497 392.241,194.593C392.15,194.786 392.059,194.978 391.964,195.168C391.317,196.471 390.54,197.704 389.652,198.865C389.391,199.204 389.841,198.641 389.569,198.971C389.46,199.103 389.348,199.234 389.235,199.363C388.981,199.656 388.719,199.942 388.45,200.222C387.909,200.781 387.337,201.307 386.742,201.811C385.701,202.69 385.806,204.398 386.742,205.296C387.774,206.29 389.323,206.178 390.366,205.296C395.666,200.82 398.785,194.226 398.999,187.467C399.04,186.177 397.791,184.944 396.436,185.002C395.011,185.063 393.916,186.085 393.872,187.467" style="fill:rgb(65,175,228);"/>
            </g>
        </g>
    </g>
    <g id="Master-Spot-Illustrations-Stretching" serif:id="Master/Spot Illustrations/Stretching" transform="matrix(1,0,0,1,-350,-356.25)">
        <g transform="matrix(0.763342,0,0,0.763342,147.286088,227.456016)">
            <g id="Full-Body" serif:id="Full Body" transform="matrix(0.634908,0,0,0.634908,284.200879,423.740867)">
                <path id="Leggins" d="M833.194,860.668L845.55,921.39L1013.05,1124.65L983.826,1394.74L1030.19,1474.46L909.966,1474.46L909.966,1171L741.141,1003.18L499.364,1271.44L336.92,1498.6L206.838,1474.46L315.938,1400.48L645.52,880.896" style="fill:rgb(217,197,255);fill-rule:nonzero;"/>
                <path id="Body-Copy" serif:id="Body Copy" d="M1141.06,561.829C1133.25,547.901 1117.14,559.841 1114.31,571.35C1113.93,553.016 1095.09,546.939 1088.63,565.804C1073.98,538.849 1059.04,568.463 1062.83,586.48C1025.27,601.217 1062.93,654.356 1046.07,682.312C1019.68,768.37 926.517,713.509 875.392,683.591C821.732,651.47 781.572,643.518 751.693,647.899C721.815,643.518 681.655,651.47 627.982,683.591C576.87,713.509 483.696,768.37 457.304,682.312C440.444,654.356 478.106,601.217 440.545,586.48C444.335,568.463 429.39,538.849 414.748,565.804C408.283,546.939 389.446,553.016 389.065,571.35C386.238,559.841 370.126,547.901 362.318,561.829C357.171,572.527 357.315,571.057 356.897,599.988C356.478,628.919 369.264,653.103 381.079,678.995C383.361,752.214 449.723,832.017 527.837,819.837C579.988,814.659 620.63,778.917 664.567,754.189C673.314,788.162 669.315,839.652 669.315,839.652C669.315,839.652 735.556,838.652 751.693,839.652C767.831,838.652 828.912,839.652 828.912,839.652C828.912,839.652 831.062,792.977 838.807,754.189C882.757,778.917 923.399,814.659 975.538,819.837C1053.65,832.017 1120.03,752.214 1122.3,678.995C1134.11,653.103 1145.57,625.755 1145.14,596.824C1146.67,585.138 1146.2,572.527 1141.06,561.829Z" style="fill:rgb(217,197,255);"/>
                <g id="Weight">
                    <path id="Rectangle" d="M452.086,594.985C451.677,594.3 452.169,593.406 452.967,593.406L1050.34,593.406C1051.08,593.406 1051.57,594.183 1051.26,594.855C1049.78,598.069 1046.4,605.813 1046.4,609.618L1046.4,622.91C1046.4,623.461 1045.95,623.904 1045.4,623.906L457.621,625.827C457.068,625.829 456.618,625.385 456.618,624.831L456.618,606.755C456.618,603.064 453.672,597.639 452.086,594.985Z" style="fill:rgb(48,48,48);"/>
                    <path id="Rectangle--" serif:id="Rectangle  " d="M173.221,624.834C173.221,625.386 173.668,625.831 174.221,625.831L417.51,625.831C418.168,625.831 418.646,625.206 418.476,624.571L414.807,610.913C414.807,610.913 397.197,614.415 391.242,609.697L388.405,604.23C388.331,604.088 388.292,603.93 388.292,603.77L388.292,595.334L174.23,593.415C173.674,593.41 173.221,593.855 173.221,594.41L173.221,624.834Z" style="fill:rgb(48,48,48);"/>
                    <path id="Rectangle--_2" serif:id="Rectangle  _2" d="M1332.36,624.834C1332.36,625.386 1331.91,625.831 1331.36,625.831L1088.07,625.831C1087.41,625.831 1086.93,625.206 1087.1,624.571L1090.77,610.913C1090.77,610.913 1108.38,614.415 1114.34,609.697L1117.17,604.23C1117.25,604.088 1117.29,603.93 1117.29,603.77L1117.29,595.334L1331.35,593.415C1331.9,593.41 1332.36,593.855 1332.36,594.41L1332.36,624.834Z" style="fill:rgb(48,48,48);"/>
                    <g id="Group-" serif:id="Group ">
                        <path id="Rectangle_2" d="M238.773,554.5L238.773,664.334C238.773,665.139 238.12,665.792 237.315,665.792L209.808,665.792C209.003,665.792 208.35,665.139 208.35,664.334L208.35,554.5C208.35,553.695 209.003,553.042 209.808,553.042L237.315,553.042C238.12,553.042 238.773,553.695 238.773,554.5Z" style="fill:rgb(255,220,62);"/>
                        <path id="Rectangle-" serif:id="Rectangle " d="M269.196,518.22L269.196,697.73C269.196,698.535 268.543,699.188 267.738,699.188L240.231,699.188C239.426,699.188 238.773,698.535 238.773,697.73L238.773,518.22C238.773,517.415 239.426,516.762 240.231,516.762L267.738,516.762C268.543,516.762 269.196,517.415 269.196,518.22Z" style="fill:rgb(255,220,62);"/>
                        <path id="Rectangle--_3" serif:id="Rectangle  _3" d="M311.209,498.583L311.209,718.632C311.209,719.437 310.555,720.09 309.751,720.09L267.032,720.09C266.227,720.09 265.574,719.437 265.574,718.632L265.574,498.583C265.574,497.778 266.227,497.125 267.032,497.125L309.751,497.125C310.555,497.125 311.209,497.778 311.209,498.583Z" style="fill:rgb(255,220,62);"/>
                    </g>
                    <g id="Group--" serif:id="Group  ">
                        <g id="Rectangle_3" transform="matrix(-1,0,0,1,1280.77,548.655)">
                            <path d="M30.423,1.458L30.423,111.292C30.423,112.097 29.77,112.75 28.965,112.75L1.458,112.75C0.653,112.75 0,112.097 0,111.292L0,1.458C0,0.653 0.653,0 1.458,0L28.965,0C29.77,0 30.423,0.653 30.423,1.458Z" style="fill:rgb(255,220,62);"/>
                        </g>
                        <g id="Rectangle-_2" serif:id="Rectangle _2" transform="matrix(-1,0,0,1,1250.34,512.375)">
                            <path d="M30.423,1.458L30.423,180.968C30.423,181.773 29.77,182.426 28.965,182.426L1.458,182.426C0.653,182.426 0,181.773 0,180.968L0,1.458C0,0.653 0.653,0 1.458,0L28.965,0C29.77,0 30.423,0.653 30.423,1.458Z" style="fill:rgb(255,220,62);"/>
                        </g>
                        <g id="Rectangle--_4" serif:id="Rectangle  _4" transform="matrix(-1,0,0,1,1223.54,492.738)">
                            <path d="M45.635,1.458L45.635,221.507C45.635,222.312 44.981,222.965 44.177,222.965L1.458,222.965C0.653,222.965 0,222.312 0,221.507L0,1.458C0,0.653 0.653,0 1.458,0L44.177,0C44.981,0 45.635,0.653 45.635,1.458Z" style="fill:rgb(255,220,62);"/>
                        </g>
                    </g>
                </g>
                <path id="Lines" d="M413.908,565.322C413.827,564.626 413.236,564.086 412.518,564.086C411.746,564.086 411.119,564.712 411.119,565.485L411.119,578.482L411.129,578.645C411.21,579.341 411.801,579.881 412.518,579.881C413.291,579.881 413.917,579.254 413.917,578.482L413.917,565.485L413.908,565.322ZM386.948,569.26C387.665,569.26 388.257,569.8 388.337,570.496L388.347,570.659L388.347,583.656C388.347,584.428 387.72,585.055 386.948,585.055C386.23,585.055 385.639,584.515 385.558,583.819L385.549,583.656L385.549,570.659C385.549,569.886 386.175,569.26 386.948,569.26Z" style="fill:rgb(48,48,48);"/>
                <g id="shoe">
                    <path id="Path-" serif:id="Path " d="M416.937,1379.75C416.937,1379.75 374.108,1398.75 354.405,1381.62C334.701,1364.49 337.34,1359.92 326.184,1360.41C315.028,1360.91 309.659,1383.6 309.659,1383.6L280.905,1397.11L194.012,1431.23C194.012,1431.23 168.964,1452.5 194.775,1474.94C204.529,1483.42 246.491,1487.55 294.662,1486.9C331.469,1486.4 425.856,1484.61 425.856,1484.61C425.856,1484.61 423.64,1453.78 422.531,1440.58C422.119,1435.68 417.684,1425.04 417.659,1421.11C417.613,1413.62 421.856,1401.77 421.729,1394.65C421.61,1388.01 416.937,1379.75 416.937,1379.75Z" style="fill:rgb(250,250,250);"/>
                    <path id="Path-_2" serif:id="Path _2" d="M316.879,1379.29C316.627,1378.56 315.831,1378.17 315.101,1378.43C314.426,1378.66 314.043,1379.35 314.186,1380.03L314.233,1380.2L320.469,1398.33L309.792,1394.01C308.958,1393.68 308.044,1394.2 307.891,1395.06L307.872,1395.23L306.731,1414.13L297.362,1400.85C296.68,1399.89 295.209,1400.16 294.881,1401.25L294.845,1401.39L290.529,1423.71L277.538,1404.68C277.134,1404.08 276.354,1403.9 275.734,1404.23L275.594,1404.31C275.001,1404.71 274.817,1405.49 275.143,1406.11L275.227,1406.25L290.11,1428.06C290.781,1429.04 292.272,1428.78 292.602,1427.68L292.639,1427.54L296.97,1405.15L306.744,1419C307.476,1420.04 309.069,1419.63 309.266,1418.43L309.283,1418.28L310.548,1397.34L322.265,1402.07C323.329,1402.5 324.404,1401.54 324.154,1400.47L324.112,1400.32L316.879,1379.29Z" style="fill:rgb(48,48,48);fill-rule:nonzero;"/>
                    <path id="Combined-Shape" serif:id="Combined Shape" d="M319.275,1415.42L312.924,1421.73L322.669,1432.9C318.965,1433.87 315.54,1434.99 312.486,1436.28C310.047,1437.32 307.508,1438.5 304.896,1439.8L292.029,1426.84L285.799,1432.85L296.199,1444.41C263.845,1462.47 225.323,1493.31 225.323,1493.31L263.492,1492.65C263.492,1492.65 283.197,1471.43 305.59,1454.84L313.738,1463.9C291.823,1479.49 271.535,1496.6 271.535,1496.6L302.53,1496.06C302.53,1496.06 310.74,1485.07 322.022,1473.1L341.937,1495.23L359.641,1494.92L329.975,1465.05C333.764,1461.41 337.734,1457.88 341.737,1454.76L370.226,1487.42L388.286,1487.1L351.005,1448.37C351.96,1447.81 352.91,1447.29 353.854,1446.8C377.421,1434.69 430.584,1430.26 430.584,1430.26C430.584,1430.26 427.059,1430.25 421.357,1430.43C423.835,1429.85 425.744,1429.23 425.744,1429.23C425.744,1429.23 371.784,1424.26 333.859,1430.56L319.275,1415.42ZM322.672,1457.7L313.986,1448.95C317.734,1446.48 321.498,1444.22 325.202,1442.28C326.465,1441.62 327.805,1441 329.218,1440.41L336.584,1448.85C332.113,1451.49 327.413,1454.5 322.672,1457.7ZM403.792,1431.39C377.883,1431.55 356.014,1432.91 339.987,1436.93L346.354,1443.54C347.85,1442.81 349.295,1442.16 350.678,1441.58C365.229,1435.51 386.75,1432.69 403.792,1431.39Z" style="fill:rgb(255,194,223);"/>
                    <path id="Path-_3" serif:id="Path _3" d="M424.64,1469.12C424.64,1469.12 276.355,1474.37 235.053,1472.43C193.752,1470.49 181.598,1451.55 181.598,1451.55C181.598,1451.55 182.106,1480.68 210.027,1490.21C237.947,1499.74 426.935,1497.38 426.935,1497.38L424.64,1469.12Z" style="fill:rgb(235,235,235);"/>
                </g>
                <g id="shoe_2">
                    <path id="Path-_4" serif:id="Path _4" d="M905.391,1379.75C905.391,1379.75 948.22,1398.75 967.923,1381.62C987.627,1364.49 984.988,1359.92 996.144,1360.41C1007.3,1360.91 1012.67,1383.6 1012.67,1383.6L1041.42,1397.11L1128.32,1431.23C1128.32,1431.23 1153.36,1452.5 1127.55,1474.94C1117.8,1483.42 1075.84,1487.55 1027.67,1486.9C990.859,1486.4 896.472,1484.61 896.472,1484.61C896.472,1484.61 898.688,1453.78 899.797,1440.58C900.209,1435.68 904.645,1425.04 904.669,1421.11C904.715,1413.62 900.472,1401.77 900.599,1394.65C900.718,1388.01 905.391,1379.75 905.391,1379.75Z" style="fill:rgb(250,250,250);"/>
                    <path id="Path-_5" serif:id="Path _5" d="M1005.45,1379.29C1005.7,1378.56 1006.5,1378.17 1007.23,1378.43C1007.9,1378.66 1008.28,1379.35 1008.14,1380.03L1008.1,1380.2L1001.86,1398.33L1012.54,1394.01C1013.37,1393.68 1014.28,1394.2 1014.44,1395.06L1014.46,1395.23L1015.6,1414.13L1024.97,1400.85C1025.65,1399.89 1027.12,1400.16 1027.45,1401.25L1027.48,1401.39L1031.8,1423.71L1044.79,1404.68C1045.19,1404.08 1045.97,1403.9 1046.59,1404.23L1046.73,1404.31C1047.33,1404.71 1047.51,1405.49 1047.19,1406.11L1047.1,1406.25L1032.22,1428.06C1031.55,1429.04 1030.06,1428.78 1029.73,1427.68L1029.69,1427.54L1025.36,1405.15L1015.58,1419C1014.85,1420.04 1013.26,1419.63 1013.06,1418.43L1013.04,1418.28L1011.78,1397.34L1000.06,1402.07C998.999,1402.5 997.924,1401.54 998.174,1400.47L998.216,1400.32L1005.45,1379.29Z" style="fill:rgb(48,48,48);fill-rule:nonzero;"/>
                    <path id="Combined-Shape_2" serif:id="Combined Shape_2" d="M1003.05,1415.42L1009.4,1421.73L999.66,1432.9C1003.36,1433.87 1006.79,1434.99 1009.84,1436.28C1012.28,1437.32 1014.82,1438.5 1017.43,1439.8L1030.3,1426.84L1036.53,1432.85L1026.13,1444.41C1058.48,1462.47 1097.01,1493.31 1097.01,1493.31L1058.84,1492.65C1058.84,1492.65 1039.13,1471.43 1016.74,1454.84L1008.59,1463.9C1030.51,1479.49 1050.79,1496.6 1050.79,1496.6L1019.8,1496.06C1019.8,1496.06 1011.59,1485.07 1000.31,1473.1L980.391,1495.23L962.688,1494.92L992.353,1465.05C988.564,1461.41 984.594,1457.88 980.592,1454.76L952.102,1487.42L934.042,1487.1L971.323,1448.37C970.368,1447.81 969.418,1447.29 968.474,1446.8C944.907,1434.69 891.744,1430.26 891.744,1430.26C891.744,1430.26 895.27,1430.25 900.971,1430.43C898.493,1429.85 896.584,1429.23 896.584,1429.23C896.584,1429.23 950.544,1424.26 988.469,1430.56L1003.05,1415.42ZM999.656,1457.7L1008.34,1448.95C1004.59,1446.48 1000.83,1444.22 997.126,1442.28C995.863,1441.62 994.524,1441 993.11,1440.41L985.744,1448.85C990.216,1451.49 994.915,1454.5 999.656,1457.7ZM918.536,1431.39C944.445,1431.55 966.314,1432.91 982.341,1436.93L975.974,1443.54C974.478,1442.81 973.033,1442.16 971.65,1441.58C957.099,1435.51 935.578,1432.69 918.536,1431.39Z" style="fill:rgb(255,194,223);"/>
                    <path id="Path-_6" serif:id="Path _6" d="M897.689,1469.12C897.689,1469.12 1045.97,1474.37 1087.27,1472.43C1128.58,1470.49 1140.73,1451.55 1140.73,1451.55C1140.73,1451.55 1140.22,1480.68 1112.3,1490.21C1084.38,1499.74 895.393,1497.38 895.393,1497.38L897.689,1469.12Z" style="fill:rgb(235,235,235);"/>
                </g>
                <path id="Shorts" d="M463.879,1137.14L592.524,1190.83L732.97,1034.52L876.093,1179.63L1009.51,1088.15L823.402,893.155L645.519,880.896L463.879,1137.14Z" style="fill:rgb(255,95,105);"/>
                <path id="Small-Top-Copy" serif:id="Small Top Copy" d="M854.923,929.52L611.016,929.52C611.016,929.52 663.913,652.603 686.272,648.711C708.631,644.818 688.921,705.295 749.128,705.295C809.335,705.295 789.587,644.061 811.693,648.228C834.952,652.598 854.923,929.52 854.923,929.52Z" style="fill:rgb(255,194,223);fill-rule:nonzero;"/>
            </g>
            <g id="Head" transform="matrix(0.634908,0,0,0.634908,284.200879,423.740867)">
                <path id="Path" d="M700.336,576.738C700.406,567.798 706.673,558.187 715.123,561.881C715.697,561.755 716.27,561.671 716.844,561.643C716.844,497.01 804.35,510.286 804.853,575.143C804.853,628.779 760.016,656.521 731.197,625.184C722.188,614.93 720.397,602.507 717.04,590.322C707.611,590.671 701.161,585.369 700.336,576.738Z" style="fill:rgb(217,197,255);fill-rule:nonzero;"/>
                <path id="Path-_7" serif:id="Path _7" d="M717.04,590.322C717.04,590.322 719.654,597.622 719.84,602.32C720.078,608.309 709.8,593.982 707.834,593.264C697.052,589.325 694.882,572.363 695.275,553.962C695.303,552.609 663.874,530.999 666.018,514.581C669.049,491.379 695.717,511.942 702.763,505.53C713.065,496.154 720.092,484.234 733.127,481.961C747.501,479.454 753.659,494.344 765.347,505.53C771.636,511.549 778.939,488.541 792.349,505.53C805.759,522.518 800.676,551.495 800.676,551.495C800.676,551.495 731.719,559.55 717.928,562.439C714.431,563.171 711.332,561.12 708.985,562.439C701.7,566.531 698.484,578.152 702.763,583.999C705.301,587.466 717.04,590.322 717.04,590.322Z"/>
                <g id="Accesories">
                    <path id="Hair-band" serif:id="Hair band" d="M801.062,553.05C801.062,553.05 695.115,571.156 695.115,567.132C695.115,563.108 691.922,555.151 692.901,551.388C693.881,547.625 797.733,530.273 801.062,529.112C803.636,531.84 801.062,553.05 801.062,553.05Z" style="fill:rgb(45,103,248);fill-rule:nonzero;"/>
                </g>
                <path id="hear" d="M712.121,569.618C711.845,568.974 711.124,568.625 710.437,568.83C709.696,569.051 709.275,569.83 709.496,570.57L711.028,575.713C710.312,575.433 709.526,575.232 708.673,575.113L708.51,575.1C707.81,575.083 707.193,575.594 707.094,576.304C706.987,577.07 707.52,577.777 708.285,577.884C710.371,578.176 711.715,579.034 712.47,580.483C712.62,580.788 712.874,581.02 713.174,581.149C713.362,581.23 713.57,581.269 713.781,581.26C713.937,581.254 714.094,581.221 714.246,581.16C714.397,581.099 714.533,581.014 714.65,580.911C714.809,580.771 714.93,580.599 715.011,580.411C715.091,580.222 715.131,580.016 715.122,579.805C715.117,579.682 715.096,579.559 715.057,579.439L712.177,569.771L712.121,569.618Z" style="fill:rgb(48,48,48);"/>
            </g>
            <g id="Expression" transform="matrix(0.634908,0,0,0.634908,284.200879,423.740867)">
                <g id="Group">
                    <path id="Path_2" d="M780.879,596.752C780.711,596.053 780.473,595.381 780.305,594.682C780.137,593.982 779.955,593.283 779.76,592.583C779.382,591.24 778.976,589.911 778.584,588.568C777.787,585.868 777.004,583.14 776.696,580.342C776.612,579.615 776.122,578.985 775.339,578.985C774.667,578.985 773.898,579.615 773.982,580.342C774.569,585.616 776.57,590.541 777.773,595.675C776.626,595.675 775.493,595.647 774.345,595.605C772.807,595.563 771.002,595.451 769.575,596.095C768.596,596.542 768.848,598.193 769.883,598.417C770.638,598.571 771.422,598.529 772.177,598.585C773.002,598.641 773.814,598.683 774.639,598.725C776.374,598.809 778.123,598.823 779.857,598.571C780.655,598.445 781.047,597.438 780.879,596.752Z" style="fill:rgb(48,48,48);fill-rule:nonzero;"/>
                    <path id="Path_3" d="M775.241,611.371C774.555,611.288 773.884,611.651 773.38,612.071C773.282,612.155 773.198,612.225 773.101,612.309C772.933,612.435 772.751,612.561 772.569,612.687C771.883,613.148 771.17,613.54 770.415,613.876C770.303,613.932 770.177,613.974 770.065,614.03C770.233,613.96 770.219,613.96 770.009,614.044C769.827,614.113 769.659,614.169 769.477,614.239C769.072,614.379 768.652,614.491 768.218,614.589C768.036,614.631 767.854,614.673 767.673,614.701C767.575,614.715 767.477,614.729 767.379,614.743C767.351,614.743 767.323,614.743 767.281,614.757C766.889,614.799 766.497,614.827 766.106,614.841C764.637,614.883 763.546,614.589 762.231,613.764C761.881,613.54 761.181,612.826 760.902,612.407C760.356,611.595 760.048,610.868 759.796,609.959C759.167,607.762 755.753,608.699 756.369,610.896C756.97,613.036 758.09,615.023 759.852,616.422C761.573,617.793 763.574,618.45 765.756,618.618C767.826,618.772 769.897,618.268 771.8,617.471C772.751,617.065 773.66,616.576 774.486,615.96C775.479,615.233 776.906,614.281 776.752,612.868C776.654,611.987 776.122,611.469 775.241,611.371Z" style="fill:rgb(48,48,48);fill-rule:nonzero;"/>
                </g>
            </g>
        </g>
    </g>
    <g id="Weight1" serif:id="Weight" transform="matrix(0.185413,0,0,0.185413,653.890319,744.730248)">
        <path id="Path1" serif:id="Path" d="M403.346,825.792C403.346,831.113 403.451,836.399 403.663,841.65L403.346,841.65L403.346,825.792Z" style="fill:rgb(83,214,136);fill-rule:nonzero;"/>
        <g id="Shape" transform="matrix(0.904433,0,0,0.904433,-652.570232,-406.15556)">
            <path d="M862.697,1181.54C961.369,1153.45 1043.51,1081.88 1090.24,987.12C1097.04,987.613 1103.91,987.86 1110.82,987.86C1264.33,987.86 1389.22,866.141 1389.22,716.513C1389.22,574.743 1277.08,457.994 1134.68,446.188C1134.29,446.118 1133.87,446.083 1133.44,446.083L1132.28,445.977L1132.28,370L406.342,370L406.342,445.237L406.341,445.237C405.954,445.237 405.602,445.237 405.214,445.272C403.945,445.272 402.641,445.307 401.373,445.378C252.097,450.03 132.141,569.88 132.141,716.513C132.141,866.141 257.031,987.86 410.535,987.86C423.081,987.86 435.414,987.049 447.537,985.463C494.124,1081.07 576.691,1153.31 675.926,1181.54L675.926,1293.81C540.958,1322 443.343,1403.65 443.343,1500L1116.42,1500C1116.42,1398.69 1008.52,1313.65 862.697,1289.9L862.697,1181.54ZM1132.28,805.212L1132.28,616.291C1146.06,618.864 1158.89,623.868 1170.27,630.845C1200.22,649.064 1220.06,680.674 1220.06,716.513C1220.06,766.06 1182.22,807.467 1132.11,816.735C1132.21,812.894 1132.28,809.053 1132.28,805.212ZM372.758,620.661C331.105,635.039 301.292,672.569 301.292,716.513C301.292,771.628 348.161,816.7 406.588,818.603C406.412,814.127 406.342,809.687 406.342,805.212L406.342,614.423L406.236,614.423C394.501,614.846 383.26,616.996 372.758,620.661Z" style="fill:rgb(237,242,255);"/>
        </g>
    </g>
</svg>
