<?xml version="1.0" encoding="UTF-8" standalone="no"?>
<!DOCTYPE svg PUBLIC "-//W3C//DTD SVG 1.1//EN" "http://www.w3.org/Graphics/SVG/1.1/DTD/svg11.dtd">
<svg width="100%" height="100%" viewBox="0 0 1758 464" version="1.1" xmlns="http://www.w3.org/2000/svg" xmlns:xlink="http://www.w3.org/1999/xlink" xml:space="preserve" xmlns:serif="http://www.serif.com/" style="fill-rule:evenodd;clip-rule:evenodd;stroke-linejoin:round;stroke-miterlimit:2;">
    <g transform="matrix(1,0,0,1,-104.000269,-64.483179)">
        <g transform="matrix(1,0,0,1,487,-436.184211)">
            <g transform="matrix(1.244211,0,0,1.244211,614.967235,-240.057788)">
                <g opacity="0.48">
                    <g id="Stretching-On-Floor" serif:id="Stretching On Floor" transform="matrix(0.444961,0,0,0.444961,-483.475459,716.744128)">
                        <g id="Stretching-On-Floor-Stretching-Shorts" serif:id="Stretching On Floor/Stretching Shorts">
                            <path id="Shape" d="M735.433,488.252C707.01,461.721 667.804,417.187 632.922,392.56C599.982,368.192 555.593,320.967 513.789,318.839C487.193,319.608 459.43,317.221 434.349,307.719C408.919,250.682 401.453,181.5 401.453,181.5C401.453,181.5 444.3,127.198 494.775,117.004C511.267,112.007 529.096,111.479 545.641,106.688C550.132,105.025 553.642,99.689 549.66,95.514C544.545,91.357 536.642,92.305 530.557,90.588C540.964,84.832 551.522,78.744 558.195,68.509C562.187,62.278 554.382,57.666 548.296,59.471C561.412,49.621 551.744,39.993 539.048,48.289C538.79,48.181 538.522,48.101 538.255,48.029C577.253,-4.953 330.683,116.557 338.167,181.258C337.606,197.357 371.989,337.039 379.063,360.46C384.525,388.609 384.861,448.796 386.617,477.24C388.824,486.184 548.822,486.996 548.323,479.55C548.118,467.223 549.374,406.094 548.323,393.749C572.157,407.247 611.972,459.09 639.41,468.648C666.848,478.206 737.553,488.341 735.433,488.252ZM676.5,458.593C676.553,458.513 676.616,458.432 676.66,458.352C677.275,458.584 677.899,458.817 678.513,459.058C677.845,458.906 677.177,458.754 676.5,458.593Z" style="fill:rgb(255,216,234);"/>
                            <path id="Path" d="M913,559L18.044,551.351L14.081,476.548C14.081,476.548 12.859,474.253 29.988,485.824C47.117,497.396 48.058,504.946 65.759,505.187C107.47,499.937 178.834,488.183 178.834,488.183C178.834,488.183 257.634,475.339 333.479,459.4C341.53,457.709 375.074,449.525 383.626,451.233C418.937,449.757 429.8,458.165 465.264,457.825C500.923,455.84 534.165,456.841 569.619,459.543C631.356,465.056 696.152,479.672 756.844,493.364C798.162,502.685 838.389,507.082 879.551,514.921C899.001,504.295 897.747,485.527 909.512,467.915L913,559Z" style="fill:rgb(255,216,234);"/>
                            <path id="Combined-Shape" serif:id="Combined Shape" d="M539.155,47.594C538.915,47.097 538.317,46.889 537.82,47.129L506.046,62.475L501.104,55.243L499.453,56.371L519.64,85.915L521.291,84.787L515.815,76.772L547.641,61.401L547.743,61.344C548.166,61.076 548.33,60.527 548.107,60.065C547.867,59.568 547.269,59.359 546.772,59.6L514.674,75.102L507.187,64.145L538.69,48.93L538.792,48.873C539.215,48.605 539.378,48.056 539.155,47.594ZM491.464,79.113C499.505,79.113 505.811,82.529 510.282,89.297L510.471,89.588L530.557,89.588C531.07,89.588 531.492,89.975 531.55,90.472L531.557,90.588C531.557,91.101 531.171,91.524 530.673,91.582L530.557,91.588L509.363,91.588L509.07,91.114C504.936,84.423 499.104,81.113 491.464,81.113C483.771,81.113 476.88,84.477 470.741,91.259C470.371,91.669 469.738,91.701 469.329,91.33C468.92,90.959 468.888,90.327 469.259,89.917C475.76,82.733 483.178,79.113 491.464,79.113Z" style="fill:rgb(48,48,48);"/>
                            <path id="Shorts" d="M305.172,459.152L317.706,559L613.325,559L613.325,459.726L548.207,459.152L381.254,451L305.172,459.152Z" style="fill:rgb(48,48,48);"/>
                            <path id="Path-" serif:id="Path " d="M346.094,278.903L424.813,255.866C424.813,255.866 431.772,290.522 448.927,304.583C466.082,318.644 499.452,317.045 499.452,317.045C499.452,317.045 525.549,315.239 555.715,328.146C585.881,341.052 606.042,362.65 606.042,362.65L569.315,422.5L555.715,413.392L548.206,459.726L381.253,451L370.988,375.271L346.094,278.903Z" style="fill:rgb(124,180,255);"/>
                            <g id="Shoe">
                                <g id="shoe">
                                    <path id="shoe_2" d="M84.562,500.012L82.504,553.874C82.504,553.874 44.349,556.846 24.804,558.41C5.26,559.973 4.865,553.874 4.865,553.874L4.865,432.073C4.865,432.073 32.039,432.816 37.682,438.87C43.325,444.923 51.209,481.324 51.209,481.324C51.209,481.324 59.214,491.122 64.737,493.081C70.261,495.04 84.562,500.012 84.562,500.012Z" style="fill:rgb(232,232,232);"/>
                                    <path id="shoe_3" d="M26.48,433.991L26.48,558.41L0.945,558.41L0.945,432.072C0.945,432.072 15.422,431.73 19.971,432.072C24.52,432.414 26.48,433.991 26.48,433.991Z" style="fill:rgb(235,235,235);"/>
                                    <path id="Rectangle" d="M19.973,432.072L19.973,558.41L15.3,558.41L15.813,432.072L19.973,432.072Z" style="fill:rgb(71,71,71);"/>
                                    <path id="Path1" serif:id="Path" d="M39.615,469.81C39.615,469.81 35.747,488.376 39.615,504.598C43.484,520.821 50.566,517.781 52.892,528.771C55.218,539.76 42.562,556.96 42.562,556.96L63.864,555.245C63.864,555.245 65.853,539.136 63.213,528.771C59.218,513.087 51.753,515.64 48.936,507.315C46.12,498.99 45.101,478.468 45.101,478.468L39.615,469.81Z" style="fill:rgb(250,250,250);"/>
                                    <path id="Path-50" serif:id="Path 50" d="M77.129,526.018L75.126,526.018L75.127,505.822L74.323,506.498L63.844,515.315L62.235,495.241L50.209,498.846L50.209,480.796L52.212,482.669L52.212,496.023L63.844,492.662L65.632,511.194L77.129,502.187L77.129,526.018Z" style="fill:rgb(48,48,48);fill-rule:nonzero;"/>
                                </g>
                                <path id="Rectangle-" serif:id="Rectangle " d="M32.016,463.263L37.683,470.518L32.016,477.683L25.249,469.81L32.016,463.263Z" style="fill:rgb(71,71,71);"/>
                                <path id="Rectangle-_2" serif:id="Rectangle _2" d="M19.758,462.485L25.425,469.74L19.758,476.905L17.638,469.695L19.758,462.485Z" style="fill:rgb(71,71,71);"/>
                                <path id="Rectangle_2" d="M19.758,477.439L25.425,484.695L19.758,491.86L17.638,484.65L19.758,477.439Z" style="fill:rgb(71,71,71);"/>
                                <path id="Rectangle_3" d="M19.758,492.394L25.425,499.65L19.758,506.814L17.638,499.604L19.758,492.394Z" style="fill:rgb(71,71,71);"/>
                                <path id="Rectangle_4" d="M19.758,506.814L25.425,514.07L19.758,521.234L17.638,514.024L19.758,506.814Z" style="fill:rgb(71,71,71);"/>
                                <path id="Rectangle_5" d="M19.758,521.453L25.425,528.709L19.758,535.874L17.638,528.663L19.758,521.453Z" style="fill:rgb(71,71,71);"/>
                                <path id="Rectangle_6" d="M19.758,535.836L25.425,543.092L19.758,550.256L17.638,543.046L19.758,535.836Z" style="fill:rgb(71,71,71);"/>
                                <path id="Rectangle_7" d="M31.852,521.916L37.519,529.171L31.852,536.336L25.085,528.464L31.852,521.916Z" style="fill:rgb(71,71,71);"/>
                                <path id="Rectangle_8" d="M31.961,477.792L37.628,485.048L31.961,492.212L25.194,484.34L31.961,477.792Z" style="fill:rgb(71,71,71);"/>
                                <path id="Rectangle_9" d="M31.797,536.445L37.464,543.701L31.797,550.865L25.03,542.993L31.797,536.445Z" style="fill:rgb(71,71,71);"/>
                                <path id="Rectangle_10" d="M32.07,492.856L37.738,500.112L32.07,507.276L25.304,499.404L32.07,492.856Z" style="fill:rgb(71,71,71);"/>
                                <path id="Rectangle_11" d="M44.699,522.45L50.367,529.706L44.699,536.87L37.932,528.998L44.699,522.45Z" style="fill:rgb(71,71,71);"/>
                                <path id="Rectangle_12" d="M32.125,507.386L37.792,514.641L32.125,521.806L25.358,513.934L32.125,507.386Z" style="fill:rgb(71,71,71);"/>
                                <path id="Rectangle_13" d="M44.754,536.98L50.421,544.235L44.754,551.4L37.987,543.528L44.754,536.98Z" style="fill:rgb(71,71,71);"/>
                            </g>
                            <g id="Shoe-Copy" serif:id="Shoe Copy">
                                <g id="shoe_4">
                                    <path id="shoe_5" d="M856,506.61L858.059,560.473C858.059,560.473 896.214,563.445 915.758,565.008C935.302,566.572 935.697,560.473 935.697,560.473L935.697,438.671C935.697,438.671 908.524,439.415 902.881,445.468C897.238,451.522 889.353,487.923 889.353,487.923C889.353,487.923 881.349,497.72 875.825,499.679C870.302,501.639 856,506.61 856,506.61Z" style="fill:rgb(232,232,232);"/>
                                    <path id="shoe_6" d="M914.082,440.59L914.082,565.008L939.617,565.008L939.617,438.671C939.617,438.671 925.14,438.329 920.591,438.671C916.042,439.013 914.082,440.59 914.082,440.59Z" style="fill:rgb(235,235,235);"/>
                                    <path id="Rectangle_14" d="M920.59,438.671L920.59,565.008L925.262,565.008L924.749,438.671L920.59,438.671Z" style="fill:rgb(71,71,71);"/>
                                    <path id="Path_2" d="M900.947,476.409C900.947,476.409 904.816,494.974 900.947,511.197C897.079,527.419 889.997,524.38 887.671,535.369C885.344,546.359 898.001,563.558 898.001,563.558L876.698,561.844C876.698,561.844 874.709,545.734 877.35,535.369C881.345,519.685 888.81,522.238 891.626,513.914C894.443,505.589 895.461,485.067 895.461,485.067L900.947,476.409Z" style="fill:rgb(250,250,250);"/>
                                    <path id="Path-50_2" serif:id="Path 50_2" d="M863.434,532.617L865.436,532.617L865.436,512.42L866.239,513.097L876.718,521.914L878.328,501.84L890.354,505.444L890.354,487.394L888.35,489.268L888.35,502.622L876.718,499.26L874.931,517.793L863.434,508.785L863.434,532.617Z" style="fill:rgb(48,48,48);fill-rule:nonzero;"/>
                                </g>
                                <path id="Rectangle-_3" serif:id="Rectangle _3" d="M908.547,469.861L902.879,477.117L908.547,484.281L915.314,476.409L908.547,469.861Z" style="fill:rgb(71,71,71);"/>
                                <path id="Rectangle-_4" serif:id="Rectangle _4" d="M920.805,469.083L915.137,476.339L920.805,483.504L922.924,476.293L920.805,469.083Z" style="fill:rgb(71,71,71);"/>
                                <path id="Rectangle_15" d="M920.805,484.038L915.137,491.294L920.805,498.458L922.924,491.248L920.805,484.038Z" style="fill:rgb(71,71,71);"/>
                                <path id="Rectangle_16" d="M920.805,498.993L915.137,506.248L920.805,513.413L922.924,506.203L920.805,498.993Z" style="fill:rgb(71,71,71);"/>
                                <path id="Rectangle_17" d="M920.805,513.413L915.137,520.668L920.805,527.833L922.924,520.623L920.805,513.413Z" style="fill:rgb(71,71,71);"/>
                                <path id="Rectangle_18" d="M920.805,528.052L915.137,535.308L920.805,542.472L922.924,535.262L920.805,528.052Z" style="fill:rgb(71,71,71);"/>
                                <path id="Rectangle_19" d="M920.805,542.435L915.137,549.69L920.805,556.855L922.924,549.645L920.805,542.435Z" style="fill:rgb(71,71,71);"/>
                                <path id="Rectangle_20" d="M908.711,528.514L903.044,535.77L908.711,542.934L915.478,535.062L908.711,528.514Z" style="fill:rgb(71,71,71);"/>
                                <path id="Rectangle_21" d="M908.601,484.391L902.934,491.646L908.601,498.811L915.368,490.939L908.601,484.391Z" style="fill:rgb(71,71,71);"/>
                                <path id="Rectangle_22" d="M908.766,543.044L903.098,550.299L908.766,557.464L915.532,549.592L908.766,543.044Z" style="fill:rgb(71,71,71);"/>
                                <path id="Rectangle_23" d="M908.492,499.455L902.825,506.71L908.492,513.875L915.259,506.003L908.492,499.455Z" style="fill:rgb(71,71,71);"/>
                                <path id="Rectangle_24" d="M895.863,529.049L890.196,536.304L895.863,543.469L902.63,535.597L895.863,529.049Z" style="fill:rgb(71,71,71);"/>
                                <path id="Rectangle_25" d="M908.437,513.985L902.77,521.24L908.437,528.405L915.204,520.532L908.437,513.985Z" style="fill:rgb(71,71,71);"/>
                                <path id="Rectangle_26" d="M895.808,543.578L890.141,550.834L895.808,557.999L902.575,550.126L895.808,543.578Z" style="fill:rgb(71,71,71);"/>
                            </g>
                        </g>
                    </g>
                    <g id="Head" transform="matrix(0.444961,0,0,0.444961,-301.04165,807.071111)">
                        <g id="Head-Ponytail" serif:id="Head/Ponytail">
                            <path id="Path2" serif:id="Path" d="M37.5,63.044C37.55,56.654 42.03,49.783 48.07,52.423C48.48,52.334 48.89,52.273 49.3,52.254C49.3,6.053 111.85,15.543 112.21,61.904C112.21,100.243 80.16,120.073 59.56,97.674C53.12,90.344 51.84,81.463 49.44,72.754C42.7,73.004 38.09,69.213 37.5,63.044Z" style="fill:rgb(255,216,234);fill-rule:nonzero;"/>
                            <path id="hear" d="M45.925,57.954C45.728,57.494 45.212,57.245 44.721,57.391C44.191,57.549 43.89,58.106 44.048,58.635L45.143,62.311C44.632,62.111 44.07,61.968 43.46,61.882L43.344,61.873C42.843,61.861 42.402,62.226 42.331,62.734C42.255,63.281 42.636,63.786 43.183,63.863C44.674,64.072 45.635,64.685 46.174,65.721C46.281,65.939 46.463,66.105 46.677,66.197C46.812,66.254 46.96,66.283 47.111,66.276C47.223,66.272 47.335,66.249 47.444,66.205C47.552,66.161 47.649,66.1 47.733,66.027C47.846,65.927 47.933,65.804 47.99,65.669C48.048,65.534 48.076,65.387 48.069,65.236C48.066,65.148 48.051,65.061 48.023,64.975L45.965,58.064L45.925,57.954Z" style="fill:rgb(48,48,48);"/>
                            <path id="Combined-Shape1" serif:id="Combined Shape" d="M112.21,38.513C101.948,3.579 42.321,29.029 42.321,29.029C42.321,29.029 41.5,29.631 40.536,30.727C37.938,25.649 32.771,22.188 26.821,22.188C19.735,22.188 13.759,27.097 11.911,33.8C9.275,28.853 4.177,25.5 -1.679,25.5C-10.239,25.5 -17.179,32.663 -17.179,41.5C-17.179,42.45 -17.099,43.38 -16.945,44.284C-18.214,43.716 -19.614,43.401 -21.086,43.401C-26.837,43.401 -31.5,48.214 -31.5,54.151C-31.5,60.088 -26.837,64.901 -21.086,64.901C-15.457,64.901 -10.871,60.291 -10.678,54.529C-8.141,56.399 -5.034,57.5 -1.679,57.5C5.407,57.5 11.383,52.591 13.231,45.889C15.867,50.836 20.965,54.188 26.821,54.188C32.424,54.188 37.333,51.12 40.056,46.521C42.572,50.951 47.032,55.372 53.819,57.349C65.317,60.698 83.099,43.636 83.099,43.636C83.099,43.636 122.472,73.446 112.21,38.513Z"/>
                        </g>
                    </g>
                    <g id="Expression" transform="matrix(0.444961,0,0,0.444961,-279.683546,826.204413)">
                        <g id="Expression-Smile-" serif:id="Expression/Smile ">
                            <path id="Mouth" d="M41.65,41.764C41.689,41.758 41.689,41.758 41.625,41.761C41.523,41.77 41.43,41.793 41.352,41.806C41.171,41.828 41.005,41.84 40.828,41.837C40.662,41.849 40.471,41.856 40.294,41.854C40.166,41.859 39.796,41.8 39.699,41.848C39.788,41.849 39.862,41.861 39.95,41.862C39.837,41.857 39.71,41.862 39.586,41.843L39.562,41.839L39.523,41.845C39.321,41.839 39.119,41.832 38.907,41.811C38.519,41.788 38.134,41.739 37.734,41.702C36.131,41.511 34.555,41.147 32.987,40.734C32.525,40.611 31.91,40.817 31.538,41.087C31.152,41.368 30.819,41.872 30.755,42.356C30.701,42.854 30.782,43.386 31.108,43.805C31.212,43.948 31.352,44.021 31.474,44.129C33.364,47.151 37.408,48.956 40.761,47.221C41.877,46.65 42.968,45.836 43.657,44.767C44.095,44.077 44.264,43.166 43.706,42.457C43.192,41.781 42.449,41.6 41.65,41.764Z" style="fill:rgb(48,48,48);fill-rule:nonzero;"/>
                            <path id="Nose" d="M47.073,34.35C46.953,33.85 46.783,33.37 46.663,32.87C46.543,32.37 46.413,31.87 46.273,31.37C46.003,30.41 45.713,29.46 45.433,28.5C44.863,26.57 44.303,24.62 44.083,22.62C44.023,22.1 43.673,21.65 43.113,21.65C42.633,21.65 42.083,22.1 42.143,22.62C42.563,26.39 43.993,29.91 44.853,33.58C44.033,33.58 43.223,33.56 42.403,33.53C41.303,33.5 40.013,33.42 38.993,33.88C38.293,34.2 38.473,35.38 39.213,35.54C39.753,35.65 40.313,35.62 40.853,35.66C41.443,35.7 42.023,35.73 42.613,35.76C43.853,35.82 45.103,35.83 46.343,35.65C46.913,35.56 47.193,34.84 47.073,34.35Z" style="fill:rgb(48,48,48);fill-rule:nonzero;"/>
                        </g>
                    </g>
                </g>
            </g>
        </g>
        <g transform="matrix(1,0,0,1,487,-436.184211)">
            <g id="Master-Character-Standing" serif:id="Master/Character/Standing" transform="matrix(0.531719,0,0,0.531719,556.162004,446.773256)">
                <g opacity="0.48">
                    <g id="Master-Character-Standing1" serif:id="Master/Character/Standing">
                        <g id="Full-Body" serif:id="Full Body">
                            <g id="Full-Body-Small-Weights-1" serif:id="Full Body/Small Weights 1">
                                <path id="Leggins" d="M572.468,518L581.3,561.404L701.031,706.699L680.14,899.761L713.284,956.746L627.345,956.746L627.345,739.827L506.667,619.872L333.843,811.627L217.726,974L124.742,956.746L202.728,903.862L438.316,532.459" style="fill:rgb(217,197,255);fill-rule:nonzero;"/>
                                <path id="Body-Copy" serif:id="Body Copy" d="M792.532,304.387C786.95,294.431 775.433,302.966 773.413,311.192C773.141,298.088 759.675,293.743 755.054,307.228C744.588,287.96 733.905,309.129 736.614,322.008C709.765,332.542 736.687,370.526 724.635,390.509C705.769,452.024 639.177,412.809 602.633,391.423C564.276,368.463 535.569,362.779 514.212,365.911C492.854,362.779 464.147,368.463 425.781,391.423C389.246,412.809 322.645,452.024 303.779,390.509C291.727,370.526 318.649,332.542 291.8,322.008C294.509,309.129 283.826,287.96 273.36,307.228C268.739,293.743 255.273,298.088 255.002,311.192C252.981,302.966 241.464,294.431 235.882,304.387C232.203,312.034 232.306,310.983 232.007,331.663C231.708,352.343 240.848,369.63 249.293,388.138C250.924,440.476 298.36,497.52 354.197,488.814C391.475,485.112 420.526,459.563 451.933,441.888C458.185,466.171 455.327,502.977 455.327,502.977C455.327,502.977 502.676,502.262 514.212,502.977C525.747,502.262 569.408,502.977 569.408,502.977C569.408,502.977 570.945,469.614 576.481,441.888C607.897,459.563 636.948,485.112 674.217,488.814C730.054,497.52 777.499,440.476 779.121,388.138C787.566,369.63 795.758,350.082 795.45,329.402C796.546,321.048 796.211,312.034 792.532,304.387Z" style="fill:rgb(217,197,255);"/>
                                <g id="Weight">
                                    <path id="Rectangle1" serif:id="Rectangle" d="M300.319,328.546C299.918,327.856 300.412,326.958 301.21,326.958L727.229,326.958C727.969,326.958 728.46,327.733 728.154,328.406C727.022,330.899 724.867,335.978 724.867,338.547L724.867,347.764C724.867,348.315 724.421,348.759 723.87,348.761L304.291,350.132C303.738,350.134 303.288,349.689 303.288,349.135L303.288,336.5C303.288,334.06 301.486,330.559 300.319,328.546Z" style="fill:rgb(48,48,48);"/>
                                    <path id="Rectangle--" serif:id="Rectangle  " d="M100.713,349.136C100.713,349.688 101.161,350.135 101.713,350.135L274.961,350.135C275.619,350.135 276.098,349.511 275.927,348.876L273.401,339.472C273.401,339.472 260.813,341.975 256.557,338.603L254.561,334.757C254.487,334.615 254.448,334.457 254.448,334.297L254.448,328.336L101.722,326.967C101.166,326.962 100.713,327.408 100.713,327.964L100.713,349.136Z" style="fill:rgb(48,48,48);"/>
                                    <path id="Rectangle--_2" serif:id="Rectangle  _2" d="M929.275,349.136C929.275,349.688 928.828,350.135 928.275,350.135L755.027,350.135C754.369,350.135 753.891,349.511 754.061,348.876L756.587,339.472C756.587,339.472 769.175,341.975 773.432,338.603L775.428,334.757C775.502,334.615 775.54,334.457 775.54,334.297L775.54,328.336L928.266,326.967C928.822,326.962 929.275,327.408 929.275,327.964L929.275,349.136Z" style="fill:rgb(48,48,48);"/>
                                    <g id="Group-" serif:id="Group ">
                                        <path id="Rectangle_27" serif:id="Rectangle_2" d="M147.571,299.986L147.571,376.819C147.571,377.857 146.728,378.699 145.69,378.699L127.705,378.699C126.667,378.699 125.824,377.857 125.824,376.819L125.824,299.986C125.824,298.948 126.667,298.105 127.705,298.105L145.69,298.105C146.728,298.105 147.571,298.948 147.571,299.986Z" style="fill:rgb(255,220,62);"/>
                                        <path id="Rectangle-1" serif:id="Rectangle " d="M169.318,274.053L169.318,400.691C169.318,401.729 168.475,402.572 167.437,402.572L149.452,402.572C148.414,402.572 147.571,401.729 147.571,400.691L147.571,274.053C147.571,273.015 148.414,272.172 149.452,272.172L167.437,272.172C168.475,272.172 169.318,273.015 169.318,274.053Z" style="fill:rgb(255,220,62);"/>
                                        <path id="Rectangle--_3" serif:id="Rectangle  _3" d="M199.349,260.017L199.349,415.633C199.349,416.671 198.506,417.514 197.468,417.514L168.61,417.514C167.572,417.514 166.729,416.671 166.729,415.633L166.729,260.017C166.729,258.979 167.572,258.136 168.61,258.136L197.468,258.136C198.506,258.136 199.349,258.979 199.349,260.017Z" style="fill:rgb(255,220,62);"/>
                                    </g>
                                    <g id="Group--" serif:id="Group  ">
                                        <g id="Rectangle_31" serif:id="Rectangle_3" transform="matrix(-1,0,0,1,892.396,294.969)">
                                            <path d="M21.747,1.881L21.747,78.714C21.747,79.752 20.904,80.594 19.866,80.594L1.881,80.594C0.843,80.594 0,79.752 0,78.714L0,1.881C0,0.843 0.843,0 1.881,0L19.866,0C20.904,0 21.747,0.843 21.747,1.881Z" style="fill:rgb(255,220,62);"/>
                                        </g>
                                        <g id="Rectangle-_21" serif:id="Rectangle _2" transform="matrix(-1,0,0,1,870.648,269.036)">
                                            <path d="M21.747,1.881L21.747,128.519C21.747,129.557 20.904,130.4 19.866,130.4L1.881,130.4C0.843,130.4 0,129.557 0,128.519L0,1.881C0,0.843 0.843,0 1.881,0L19.866,0C20.904,0 21.747,0.843 21.747,1.881Z" style="fill:rgb(255,220,62);"/>
                                        </g>
                                        <g id="Rectangle--_4" serif:id="Rectangle  _4" transform="matrix(-1,0,0,1,851.49,255)">
                                            <path d="M32.62,1.881L32.62,157.497C32.62,158.535 31.777,159.378 30.739,159.378L1.881,159.378C0.843,159.378 0,158.535 0,157.497L0,1.881C0,0.843 0.843,0 1.881,0L30.739,0C31.777,0 32.62,0.843 32.62,1.881Z" style="fill:rgb(255,220,62);"/>
                                        </g>
                                    </g>
                                </g>
                                <path id="Lines" d="M272.759,306.883C272.701,306.386 272.278,306 271.766,306C271.213,306 270.766,306.448 270.766,307L270.766,316.29L270.772,316.407C270.824,316.854 271.171,317.211 271.613,317.279C267.398,318.065 263.034,319.309 259.435,321.713C256.11,323.931 253.655,327.331 253.927,331.495C254.072,333.759 254.769,336.077 256.418,337.704C257.877,339.15 259.834,339.822 261.836,340.068C265.668,340.531 269.536,339.595 273.26,338.577C272.182,342.631 273.169,347.022 274.863,350.841C276.856,355.322 280.208,360.05 284.557,362.504C285.961,363.277 287.111,361.241 285.807,360.359C282.083,357.831 279.248,354.177 277.327,350.122C275.497,346.25 274.347,341.322 276.43,337.313C276.929,336.35 276.104,335.15 274.999,335.45C274.62,335.553 274.212,335.669 273.778,335.792C267.978,337.434 257.767,340.325 256.545,332.213C255.322,324.041 265.749,321.013 271.846,319.813C275.796,319.041 279.882,318.65 283.913,318.813C285.544,318.877 285.535,316.341 283.913,316.277C280.026,316.117 276.086,316.489 272.256,317.162C272.56,316.991 272.766,316.664 272.766,316.29L272.766,307L272.759,306.883ZM754.185,307.175C754.243,306.678 754.666,306.292 755.178,306.292C755.731,306.292 756.178,306.739 756.178,307.292L756.178,316.582L756.172,316.698C756.166,316.748 756.156,316.796 756.144,316.843C756.886,316.952 757.625,317.072 758.359,317.204C762.699,317.986 767.229,319.231 770.943,321.713C774.268,323.931 776.723,327.331 776.451,331.495C776.306,333.759 775.609,336.077 773.96,337.704C772.501,339.15 770.544,339.822 768.542,340.068C764.71,340.531 760.842,339.595 757.118,338.577C758.196,342.631 757.209,347.022 755.515,350.841C753.522,355.322 750.17,360.05 745.821,362.504C744.417,363.277 743.267,361.241 744.571,360.359C748.294,357.831 751.13,354.177 753.051,350.122C754.881,346.25 756.031,341.322 753.948,337.313C753.449,336.35 754.274,335.15 755.379,335.45C755.755,335.553 756.161,335.667 756.591,335.789L756.6,335.792C762.4,337.434 772.611,340.325 773.833,332.213C775.056,324.041 764.629,321.013 758.532,319.813C754.582,319.041 750.496,318.65 746.464,318.813C744.834,318.877 744.843,316.341 746.464,316.277C749.029,316.171 751.615,316.297 754.178,316.588L754.178,307.292L754.185,307.175ZM784.052,333.477C782.675,334.677 781.135,334.768 779.404,334.75C778.027,334.731 777.692,336.913 779.069,337.195C781.479,337.668 784.016,336.904 785.837,335.277C789.18,332.286 790.058,327.177 790.52,322.941C790.967,318.919 790.896,314.881 790.826,310.843L790.826,310.841C790.821,310.535 790.815,310.229 790.81,309.922C790.792,308.286 788.255,308.286 788.283,309.922C788.291,310.543 788.303,311.164 788.315,311.785C788.341,313.183 788.368,314.58 788.355,315.977C788.328,320.322 788.129,324.822 786.743,328.977C786.19,330.641 785.384,332.313 784.052,333.477ZM773.454,309.827C772.941,309.827 772.518,310.213 772.46,310.71L772.454,310.827L772.454,320.117C772.454,320.67 772.901,321.117 773.454,321.117C773.966,321.117 774.389,320.731 774.447,320.234L774.454,320.117L774.454,310.827C774.454,310.275 774.006,309.827 773.454,309.827ZM246.326,333.477C247.703,334.677 249.243,334.768 250.973,334.75C252.35,334.731 252.686,336.913 251.309,337.195C248.899,337.668 246.362,336.904 244.541,335.277C241.198,332.286 240.32,327.177 239.858,322.941C239.411,318.918 239.482,314.88 239.552,310.841C239.557,310.535 239.563,310.229 239.568,309.922C239.586,308.286 242.122,308.286 242.095,309.922C242.087,310.543 242.075,311.164 242.063,311.785C242.037,313.183 242.01,314.58 242.023,315.977C242.05,320.322 242.249,324.822 243.635,328.977C244.188,330.641 244.994,332.313 246.326,333.477ZM253.488,309.699C254,309.699 254.423,310.085 254.481,310.582L254.488,310.699L254.488,319.989C254.488,320.541 254.04,320.989 253.488,320.989C252.975,320.989 252.552,320.603 252.494,320.105L252.488,319.989L252.488,310.699C252.488,310.146 252.935,309.699 253.488,309.699Z" style="fill:rgb(48,48,48);"/>
                                <g id="shoe1" serif:id="shoe">
                                    <path id="Path-1" serif:id="Path " d="M274.924,889.045C274.924,889.045 244.31,902.623 230.225,890.379C216.141,878.136 218.028,874.871 210.053,875.224C202.079,875.577 198.24,891.795 198.24,891.795L177.687,901.456L115.575,925.84C115.575,925.84 97.671,941.049 116.12,957.088C123.093,963.149 153.087,966.102 187.521,965.634C213.83,965.277 281.3,963.997 281.3,963.997C281.3,963.997 279.715,941.963 278.922,932.528C278.628,929.023 275.458,921.416 275.44,918.612C275.407,913.257 278.44,904.787 278.349,899.699C278.264,894.948 274.924,889.045 274.924,889.045Z" style="fill:rgb(250,250,250);"/>
                                    <path id="Path-_2" serif:id="Path _2" d="M203.401,888.718C203.221,888.196 202.652,887.918 202.13,888.098C201.648,888.263 201.374,888.761 201.476,889.247L201.51,889.369L205.967,902.323L198.335,899.24C197.739,898.999 197.086,899.375 196.977,899.989L196.963,900.107L196.147,913.618L189.45,904.13C188.963,903.44 187.911,903.633 187.677,904.412L187.651,904.517L184.566,920.466L175.28,906.862C174.991,906.439 174.434,906.307 173.99,906.54L173.89,906.6C173.467,906.889 173.335,907.446 173.568,907.89L173.628,907.99L184.266,923.576C184.746,924.28 185.812,924.093 186.048,923.308L186.074,923.202L189.17,907.2L196.156,917.101C196.68,917.842 197.819,917.554 197.959,916.695L197.972,916.585L198.876,901.615L207.251,904.999C208.012,905.307 208.78,904.622 208.602,903.852L208.571,903.747L203.401,888.718Z" style="fill:rgb(48,48,48);fill-rule:nonzero;"/>
                                    <path id="Combined-Shape2" serif:id="Combined Shape" d="M205.115,914.538L200.575,919.055L207.54,927.039C204.893,927.728 202.445,928.528 200.261,929.454C198.518,930.194 196.703,931.038 194.836,931.968L185.639,922.707L181.186,927.001L188.619,935.261C165.493,948.176 137.956,970.219 137.956,970.219L165.24,969.743C165.24,969.743 179.326,954.576 195.332,942.721L201.157,949.193C185.491,960.341 170.989,972.572 170.989,972.572L193.145,972.185C193.145,972.185 199.014,964.331 207.078,955.773L221.313,971.592L233.968,971.371L212.763,950.018C215.472,947.415 218.309,944.895 221.17,942.662L241.535,966.005L254.444,965.78L227.795,938.098C228.478,937.696 229.157,937.321 229.832,936.974C246.678,928.318 284.679,925.148 284.679,925.148C284.679,925.148 282.159,925.141 278.083,925.273C279.855,924.859 281.22,924.41 281.22,924.41C281.22,924.41 242.648,920.861 215.539,925.367L205.115,914.538ZM207.543,944.763L201.334,938.511C204.013,936.742 206.704,935.126 209.351,933.742C210.254,933.27 211.211,932.825 212.222,932.405L217.487,938.441C214.291,940.326 210.932,942.477 207.543,944.763ZM265.528,925.955C247.008,926.071 231.376,927.045 219.92,929.917L224.471,934.645C225.54,934.123 226.573,933.653 227.562,933.24C237.963,928.901 253.346,926.889 265.528,925.955Z" style="fill:rgb(255,194,223);"/>
                                    <path id="Path-_3" serif:id="Path _3" d="M280.429,952.929C280.429,952.929 174.433,956.679 144.911,955.294C115.388,953.909 106.7,940.366 106.7,940.366C106.7,940.366 107.064,961.192 127.021,968.004C146.979,974.816 282.069,973.126 282.069,973.126L280.429,952.929Z" style="fill:rgb(235,235,235);"/>
                                </g>
                                <g id="shoe_21" serif:id="shoe_2">
                                    <path id="Path-_4" serif:id="Path _4" d="M624.076,889.045C624.076,889.045 654.69,902.623 668.775,890.379C682.859,878.136 680.972,874.871 688.947,875.224C696.921,875.577 700.76,891.795 700.76,891.795L721.313,901.456L783.425,925.84C783.425,925.84 801.329,941.049 782.88,957.088C775.907,963.149 745.913,966.102 711.479,965.634C685.17,965.277 617.7,963.997 617.7,963.997C617.7,963.997 619.285,941.963 620.078,932.528C620.372,929.023 623.542,921.416 623.56,918.612C623.593,913.257 620.56,904.787 620.651,899.699C620.736,894.948 624.076,889.045 624.076,889.045Z" style="fill:rgb(250,250,250);"/>
                                    <path id="Path-_5" serif:id="Path _5" d="M695.599,888.718C695.779,888.196 696.348,887.918 696.87,888.098C697.352,888.263 697.626,888.761 697.524,889.247L697.49,889.369L693.033,902.323L700.665,899.24C701.261,898.999 701.914,899.375 702.023,899.989L702.037,900.107L702.853,913.618L709.55,904.13C710.037,903.44 711.089,903.633 711.323,904.412L711.349,904.517L714.434,920.466L723.72,906.862C724.009,906.439 724.566,906.307 725.01,906.54L725.11,906.6C725.533,906.889 725.665,907.446 725.432,907.89L725.372,907.99L714.734,923.576C714.254,924.28 713.188,924.093 712.952,923.308L712.926,923.202L709.83,907.2L702.844,917.101C702.32,917.842 701.181,917.554 701.041,916.695L701.028,916.585L700.124,901.615L691.749,904.999C690.988,905.307 690.22,904.622 690.398,903.852L690.429,903.747L695.599,888.718Z" style="fill:rgb(48,48,48);fill-rule:nonzero;"/>
                                    <path id="Combined-Shape_2" serif:id="Combined Shape_2" d="M693.885,914.538L698.425,919.055L691.46,927.039C694.107,927.728 696.555,928.528 698.739,929.454C700.482,930.194 702.297,931.038 704.164,931.968L713.361,922.707L717.814,927.001L710.381,935.261C733.507,948.176 761.044,970.219 761.044,970.219L733.76,969.743C733.76,969.743 719.674,954.576 703.668,942.721L697.843,949.193C713.509,960.341 728.011,972.572 728.011,972.572L705.855,972.185C705.855,972.185 699.986,964.331 691.922,955.773L677.687,971.592L665.032,971.371L686.237,950.018C683.528,947.415 680.691,944.895 677.83,942.662L657.465,966.005L644.556,965.78L671.205,938.098C670.522,937.696 669.843,937.321 669.168,936.974C652.322,928.318 614.321,925.148 614.321,925.148C614.321,925.148 616.841,925.141 620.917,925.273C619.145,924.859 617.78,924.41 617.78,924.41C617.78,924.41 656.352,920.861 683.461,925.367L693.885,914.538ZM691.457,944.763L697.666,938.511C694.987,936.742 692.296,935.126 689.649,933.742C688.746,933.27 687.789,932.825 686.778,932.405L681.513,938.441C684.709,940.326 688.068,942.477 691.457,944.763ZM633.472,925.955C651.992,926.071 667.624,927.045 679.08,929.917L674.529,934.645C673.46,934.123 672.427,933.653 671.438,933.24C661.037,928.901 645.654,926.889 633.472,925.955Z" style="fill:rgb(255,194,223);"/>
                                    <path id="Path-_6" serif:id="Path _6" d="M618.571,952.929C618.571,952.929 724.567,956.679 754.089,955.294C783.612,953.909 792.3,940.366 792.3,940.366C792.3,940.366 791.936,961.192 771.979,968.004C752.021,974.816 616.931,973.126 616.931,973.126L618.571,952.929Z" style="fill:rgb(235,235,235);"/>
                                </g>
                                <path id="Shorts1" serif:id="Shorts" d="M308.478,715.621L400.434,754.003L500.826,642.273L603.132,746L698.502,680.607L565.468,541.222L438.316,532.459L308.478,715.621Z" style="fill:rgb(255,95,105);"/>
                                <path id="Small-Top-Copy" serif:id="Small Top Copy" d="M588,567.216L413.652,567.216C413.652,567.216 451.464,369.273 467.446,366.49C483.429,363.708 469.34,406.937 512.376,406.937C555.413,406.937 541.297,363.167 557.098,366.145C573.724,369.269 588,567.216 588,567.216Z" style="fill:rgb(232,232,232);fill-rule:nonzero;"/>
                            </g>
                        </g>
                        <g id="Head1" serif:id="Head" transform="matrix(1,0,0,1,440,252)">
                            <g id="Head-Ponytail1" serif:id="Head/Ponytail">
                                <path id="Path3" serif:id="Path" d="M37.5,63.044C37.55,56.654 42.03,49.783 48.07,52.423C48.48,52.334 48.89,52.273 49.3,52.254C49.3,6.053 111.85,15.543 112.21,61.904C112.21,100.243 80.16,120.073 59.56,97.674C53.12,90.344 51.84,81.463 49.44,72.754C42.7,73.004 38.09,69.213 37.5,63.044Z" style="fill:rgb(217,197,255);fill-rule:nonzero;"/>
                                <path id="hear1" serif:id="hear" d="M45.925,57.954C45.728,57.494 45.212,57.245 44.721,57.391C44.191,57.549 43.89,58.106 44.048,58.635L45.143,62.311C44.632,62.111 44.07,61.968 43.46,61.882L43.344,61.873C42.843,61.861 42.402,62.226 42.331,62.734C42.255,63.281 42.636,63.786 43.183,63.863C44.674,64.072 45.635,64.685 46.174,65.721C46.281,65.939 46.463,66.105 46.677,66.197C46.812,66.254 46.96,66.283 47.111,66.276C47.223,66.272 47.335,66.249 47.444,66.205C47.552,66.161 47.649,66.1 47.733,66.027C47.846,65.927 47.933,65.804 47.99,65.669C48.048,65.534 48.076,65.387 48.069,65.236C48.066,65.148 48.051,65.061 48.023,64.975L45.965,58.064L45.925,57.954Z" style="fill:rgb(48,48,48);"/>
                                <path id="Combined-Shape3" serif:id="Combined Shape" d="M112.21,38.513C101.948,3.579 42.321,29.029 42.321,29.029C42.321,29.029 41.5,29.631 40.536,30.727C37.938,25.649 32.771,22.188 26.821,22.188C19.735,22.188 13.759,27.097 11.911,33.8C9.275,28.853 4.177,25.5 -1.679,25.5C-10.239,25.5 -17.179,32.663 -17.179,41.5C-17.179,42.45 -17.099,43.38 -16.945,44.284C-18.214,43.716 -19.614,43.401 -21.086,43.401C-26.837,43.401 -31.5,48.214 -31.5,54.151C-31.5,60.088 -26.837,64.901 -21.086,64.901C-15.457,64.901 -10.871,60.291 -10.678,54.529C-8.141,56.399 -5.034,57.5 -1.679,57.5C5.407,57.5 11.383,52.591 13.231,45.889C15.867,50.836 20.965,54.188 26.821,54.188C32.424,54.188 37.333,51.12 40.056,46.521C42.572,50.951 47.032,55.372 53.819,57.349C65.317,60.698 83.099,43.636 83.099,43.636C83.099,43.636 122.472,73.446 112.21,38.513Z"/>
                            </g>
                        </g>
                        <g id="Expression1" serif:id="Expression" transform="matrix(1,0,0,1,488,295)">
                            <g id="Expression-Smile-1" serif:id="Expression/Smile ">
                                <path id="Mouth1" serif:id="Mouth" d="M41.65,41.764C41.689,41.758 41.689,41.758 41.625,41.761C41.523,41.77 41.43,41.793 41.352,41.806C41.171,41.828 41.005,41.84 40.828,41.837C40.662,41.849 40.471,41.856 40.294,41.854C40.166,41.859 39.796,41.8 39.699,41.848C39.788,41.849 39.862,41.861 39.95,41.862C39.837,41.857 39.71,41.862 39.586,41.843L39.562,41.839L39.523,41.845C39.321,41.839 39.119,41.832 38.907,41.811C38.519,41.788 38.134,41.739 37.734,41.702C36.131,41.511 34.555,41.147 32.987,40.734C32.525,40.611 31.91,40.817 31.538,41.087C31.152,41.368 30.819,41.872 30.755,42.356C30.701,42.854 30.782,43.386 31.108,43.805C31.212,43.948 31.352,44.021 31.474,44.129C33.364,47.151 37.408,48.956 40.761,47.221C41.877,46.65 42.968,45.836 43.657,44.767C44.095,44.077 44.264,43.166 43.706,42.457C43.192,41.781 42.449,41.6 41.65,41.764Z" style="fill:rgb(48,48,48);fill-rule:nonzero;"/>
                                <path id="Nose1" serif:id="Nose" d="M47.073,34.35C46.953,33.85 46.783,33.37 46.663,32.87C46.543,32.37 46.413,31.87 46.273,31.37C46.003,30.41 45.713,29.46 45.433,28.5C44.863,26.57 44.303,24.62 44.083,22.62C44.023,22.1 43.673,21.65 43.113,21.65C42.633,21.65 42.083,22.1 42.143,22.62C42.563,26.39 43.993,29.91 44.853,33.58C44.033,33.58 43.223,33.56 42.403,33.53C41.303,33.5 40.013,33.42 38.993,33.88C38.293,34.2 38.473,35.38 39.213,35.54C39.753,35.65 40.313,35.62 40.853,35.66C41.443,35.7 42.023,35.73 42.613,35.76C43.853,35.82 45.103,35.83 46.343,35.65C46.913,35.56 47.193,34.84 47.073,34.35Z" style="fill:rgb(48,48,48);fill-rule:nonzero;"/>
                            </g>
                        </g>
                        <g id="Beard">
                        </g>
                    </g>
                </g>
            </g>
        </g>
        <g transform="matrix(1,0,0,1,487,-436.184211)">
            <g id="Master-Character-Standing2" serif:id="Master/Character/Standing" transform="matrix(0.501622,0,0,0.501622,-456.236621,476.087923)">
                <g opacity="0.48">
                    <g id="Master-Character-Standing3" serif:id="Master/Character/Standing">
                        <g id="Full-Body1" serif:id="Full Body">
                            <g id="Full-Body-Rope-Jumping" serif:id="Full Body/Rope Jumping">
                                <path id="Body" d="M769.533,317.137C771.543,308.948 782.998,300.452 788.55,310.362C792.21,317.975 792.543,326.949 791.453,335.264C791.759,355.851 783.611,375.312 775.211,393.736C773.598,445.838 726.405,502.625 670.865,493.957C643.33,491.22 620.305,476.484 597.476,461.874C589.57,456.814 581.687,451.769 573.649,447.243C569.65,467.287 567.749,490.292 567.007,501.385L697.75,894.654L769.183,974L670.487,974L514.766,588.016L511.44,584.322L504.41,592.134L352.015,974L244.312,974L318.9,894.654L448.934,514.94L449.258,514.003L452.268,505.201L453.323,505.201C453.837,496.127 454.94,467.366 449.763,447.243C441.732,451.767 433.856,456.808 425.956,461.864C403.125,476.478 380.095,491.22 352.547,493.957C297.007,502.625 249.823,445.838 248.201,393.736C247.338,391.844 246.468,389.965 245.602,388.094C238.033,371.742 230.74,355.989 231.007,337.516C231.212,323.369 231.227,319.438 232.404,315.892C232.94,314.278 233.717,312.744 234.861,310.362C240.413,300.452 251.869,308.948 253.879,317.137C254.15,304.092 267.543,299.767 272.14,313.191C282.55,294.01 293.177,315.083 290.482,327.904C305.91,333.962 303.488,349.141 301.002,364.716C299.186,376.1 297.335,387.696 302.397,396.096C321.104,457.141 386.993,418.54 423.407,397.208L423.751,397.006C461.913,374.149 490.466,368.491 511.71,371.609C532.954,368.491 561.508,374.149 599.661,397.006L600.027,397.221C636.454,418.556 702.312,457.129 721.015,396.096C726.077,387.696 724.226,376.1 722.409,364.716C719.924,349.141 717.501,333.962 732.93,327.904C730.235,315.083 740.862,294.01 751.272,313.191C755.869,299.767 769.262,304.092 769.533,317.137Z" style="fill:rgb(255,216,234);"/>
                                <g id="Lines1" serif:id="Lines">
                                    <path id="Tumb" d="M274.4,315.929C274.382,316.508 274.363,317.088 274.363,317.669L274.363,317.782C274.364,318.232 274.365,318.682 274.273,319.116C274.426,319.568 274.291,319.965 274.003,320.336C273.732,320.68 273.083,321.059 272.642,321.041C272.065,321.023 271.623,320.662 271.434,320.119C271.299,319.73 271.497,319.143 271.768,318.79C271.772,318.781 271.774,318.772 271.777,318.763C271.779,318.754 271.781,318.745 271.786,318.736C271.794,318.716 271.802,318.667 271.81,318.614C271.821,318.547 271.834,318.473 271.849,318.438L271.849,318.257C271.849,318.171 271.846,318.083 271.844,317.995C271.842,317.906 271.84,317.818 271.84,317.732C271.836,317.111 271.856,316.491 271.875,315.871C271.903,315.003 271.93,314.136 271.894,313.266C271.867,312.552 272.498,312.028 273.156,312.001C273.859,311.974 274.39,312.607 274.417,313.266C274.456,314.153 274.428,315.04 274.4,315.929ZM256.22,322.678C256.157,321.873 256.049,321.068 255.931,320.264C255.852,319.729 255.765,319.194 255.677,318.658C255.525,317.728 255.373,316.796 255.264,315.861C255.183,315.183 254.742,314.595 254.003,314.595C253.39,314.595 252.66,315.174 252.741,315.861C252.876,316.995 253.056,318.12 253.237,319.245C253.31,319.699 253.383,320.153 253.453,320.607C253.561,321.294 253.642,321.981 253.705,322.678C253.719,322.816 253.73,322.957 253.742,323.099C253.8,323.814 253.861,324.565 254.192,325.191C254.534,325.842 255.544,325.824 255.886,325.191C256.292,324.449 256.283,323.5 256.22,322.678ZM244.791,340.74C246.161,341.934 247.693,342.024 249.415,342.006C250.785,341.988 251.118,344.158 249.748,344.438C247.351,344.908 244.827,344.149 243.016,342.53C239.69,339.556 238.815,334.475 238.356,330.262C237.912,326.262 237.982,322.247 238.052,318.23C238.057,317.926 238.062,317.621 238.067,317.317C238.085,315.689 240.609,315.689 240.582,317.317C240.574,317.934 240.562,318.552 240.55,319.169C240.524,320.559 240.497,321.948 240.51,323.338C240.537,327.659 240.735,332.134 242.114,336.265C242.664,337.92 243.466,339.583 244.791,340.74ZM275.634,357.293C277.545,361.325 280.366,364.96 284.07,367.473C285.368,368.35 284.224,370.375 282.827,369.606C278.5,367.165 275.165,362.464 273.183,358.007C271.497,354.21 270.515,349.844 271.587,345.812C267.883,346.824 264.034,347.756 260.222,347.295C258.23,347.05 256.283,346.381 254.832,344.944C253.191,343.326 252.497,341.021 252.353,338.769C252.083,334.629 254.525,331.248 257.833,329.042C261.529,326.574 266.035,325.335 270.352,324.558C274.237,323.862 278.239,323.473 282.187,323.636C283.8,323.699 283.809,326.221 282.187,326.158C278.176,325.995 274.111,326.384 270.181,327.153C264.115,328.346 253.741,331.356 254.958,339.484C256.174,347.551 266.333,344.675 272.103,343.042C272.534,342.92 272.941,342.805 273.318,342.702C274.417,342.404 275.238,343.597 274.742,344.555C272.669,348.542 273.814,353.442 275.634,357.293Z" style="fill:rgb(48,48,48);"/>
                                    <path id="Tumb_2" d="M749.277,315.929C749.295,316.508 749.313,317.088 749.313,317.669L749.313,317.782C749.313,318.232 749.312,318.682 749.404,319.116C749.25,319.568 749.386,319.965 749.674,320.336C749.944,320.68 750.593,321.059 751.035,321.041C751.612,321.023 752.053,320.662 752.243,320.119C752.378,319.73 752.18,319.143 751.909,318.79C751.905,318.781 751.902,318.772 751.9,318.763C751.898,318.754 751.896,318.745 751.891,318.736C751.883,318.716 751.875,318.667 751.866,318.614C751.855,318.547 751.843,318.473 751.828,318.438L751.828,318.257C751.828,318.171 751.83,318.083 751.833,317.995C751.835,317.906 751.837,317.818 751.837,317.732C751.841,317.111 751.821,316.491 751.801,315.871C751.774,315.003 751.746,314.136 751.783,313.266C751.81,312.552 751.179,312.028 750.521,312.001C749.818,311.974 749.286,312.607 749.259,313.266C749.221,314.153 749.249,315.04 749.277,315.929ZM767.457,322.678C767.52,321.873 767.628,321.068 767.745,320.264C767.824,319.729 767.912,319.194 767.999,318.658C768.151,317.728 768.304,316.796 768.412,315.861C768.493,315.183 768.935,314.595 769.674,314.595C770.287,314.595 771.017,315.174 770.936,315.861C770.801,316.995 770.62,318.12 770.44,319.245C770.367,319.699 770.294,320.153 770.224,320.607C770.116,321.294 770.035,321.981 769.972,322.678C769.958,322.816 769.947,322.957 769.935,323.099C769.877,323.814 769.816,324.565 769.485,325.191C769.142,325.842 768.133,325.824 767.79,325.191C767.385,324.449 767.394,323.5 767.457,322.678ZM778.886,340.74C777.516,341.934 775.983,342.024 774.262,342.006C772.892,341.988 772.558,344.158 773.928,344.438C776.326,344.908 778.85,344.149 780.661,342.53C783.987,339.556 784.861,334.475 785.321,330.262C785.765,326.262 785.695,322.247 785.625,318.23C785.62,317.926 785.615,317.621 785.609,317.317C785.591,315.689 783.068,315.689 783.095,317.317C783.103,317.934 783.115,318.552 783.127,319.169C783.153,320.559 783.179,321.948 783.167,323.338C783.14,327.659 782.942,332.134 781.563,336.265C781.013,337.92 780.211,339.583 778.886,340.74ZM748.043,357.293C746.132,361.325 743.311,364.96 739.606,367.473C738.308,368.35 739.453,370.375 740.85,369.606C745.176,367.165 748.511,362.464 750.494,358.007C752.18,354.21 753.162,349.844 752.09,345.812C755.794,346.824 759.643,347.756 763.455,347.295C765.447,347.05 767.394,346.381 768.845,344.944C770.485,343.326 771.179,341.021 771.324,338.769C771.594,334.629 769.151,331.248 765.844,329.042C762.148,326.574 757.642,325.335 753.324,324.558C749.44,323.862 745.438,323.473 741.49,323.636C739.877,323.699 739.868,326.221 741.49,326.158C745.501,325.995 749.566,326.384 753.496,327.153C759.561,328.346 769.936,331.356 768.719,339.484C767.503,347.551 757.344,344.675 751.574,343.042C751.142,342.92 750.736,342.805 750.359,342.702C749.259,342.404 748.439,343.597 748.935,344.555C751.008,348.542 749.863,353.442 748.043,357.293Z" style="fill:rgb(48,48,48);"/>
                                </g>
                                <path id="Rope" d="M484.737,52.171C645.557,40.707 753.755,60.299 809.351,111.435C864.748,162.388 867.29,243.789 817.69,355.093L817.399,355.741L817.399,362C817.399,362.552 816.951,363 816.399,363L747.356,363C747.356,363 748.585,361.184 748.967,360.49C749.017,360.4 749.108,360.259 749.229,360.073C750.109,358.713 752.583,354.891 752.51,349.82C752.484,348.013 752.51,344.865 752.51,344.865C752.51,344.865 756.088,345.739 762.796,345.739C766.49,345.739 768.189,344.68 769.716,343.729C770.962,342.952 772.094,342.247 774.101,342.247L814.935,342.247C858.873,238.599 854.988,163.541 803.929,116.578C750.331,67.28 644.124,48.048 485.325,59.368C326.464,70.693 224.658,101.241 180.006,150.514C137.922,196.953 146.316,260.889 206.096,342.941C206.225,342.538 206.599,342.247 207.044,342.247L249.347,342.247C251.354,342.247 252.485,342.952 253.731,343.729C255.259,344.68 256.958,345.739 260.652,345.739C267.36,345.739 270.938,344.865 270.938,344.865C270.938,344.865 270.964,348.013 270.938,349.82C270.865,354.891 273.339,358.713 274.219,360.073C274.34,360.259 274.43,360.4 274.48,360.49C274.863,361.184 276.091,363 276.091,363L207.049,363C206.497,363 206.049,362.552 206.049,362L206.049,355.522C138.827,267.019 127.845,196.901 174.107,145.851C220.47,94.69 323.98,63.63 484.737,52.171ZM316.964,363C317.517,363 317.964,362.552 317.964,362L317.964,343.247C317.964,342.695 317.517,342.247 316.964,342.247L300.858,342.247C300.858,342.247 300.943,349.124 300.858,352.624C300.774,356.123 300.357,363 300.357,363L316.964,363ZM704.467,360.195C704.467,360.748 704.914,361.195 705.467,361.195L722.074,361.195C722.074,361.195 721.657,354.319 721.573,350.819C721.488,347.319 721.573,340.443 721.573,340.443L705.467,340.443C704.914,340.443 704.467,340.89 704.467,341.443L704.467,360.195Z" style="fill:rgb(194,165,249);"/>
                                <path id="short" d="M444.108,518.964L331.613,841.431L404.571,857.028L507.26,593.954L612.101,857.028L679.874,826.815L584.108,518.964L444.108,518.964Z" style="fill:rgb(255,220,62);"/>
                                <path id="Path4" serif:id="Path" d="M611.046,476.817L589.525,462.057L622.538,609.446L408.726,618.435L426.475,462.057L404.954,476.817L359,417.051C359,417.051 363.649,407.504 414.629,382.013C429.998,374.333 446.547,369.371 462.528,366.257C478.888,363.063 494.645,361.816 507.896,361.565L508.104,361.565C520.869,361.807 535.959,362.973 551.67,365.916C568.201,369.003 585.426,374.046 601.371,382.013C652.351,407.504 657,417.051 657,417.051L611.046,476.817Z" style="fill:rgb(45,103,248);fill-rule:nonzero;"/>
                                <g id="shoe2" serif:id="shoe">
                                    <path id="Path-2" serif:id="Path 2" d="M383.687,883.146L325.547,881.031L304.542,905.735L249.23,928.452L225.767,939.867L221.237,949.629L390.431,956.598L387.247,909.128L383.687,883.146Z" style="fill:rgb(250,250,250);"/>
                                    <g id="Shoe1" serif:id="Shoe">
                                        <path id="Path_21" serif:id="Path_2" d="M220.265,957.991C220.265,961.622 224.493,973.837 224.493,973.837L395.917,973.837L390.375,948.242L221.133,948.518C220.957,949.384 220.265,954.361 220.265,957.991Z" style="fill:rgb(235,235,235);fill-rule:nonzero;"/>
                                        <path id="Combined" d="M364.512,883.163C356.466,890.166 357.757,899.596 360.79,903.905C367.321,913.191 378.925,911.192 378.925,911.192C379.069,911.464 387.023,908.932 387.023,908.932L387.247,908.852L385.376,881.609C385.354,881.284 385.085,881.027 384.755,881.031C382.503,881.039 374.022,881.163 365.034,882.392C364.831,882.422 364.78,882.586 364.724,882.767C364.68,882.907 364.634,883.057 364.512,883.163ZM221.237,949.339L334.172,948.332L328.261,941.697C321.3,932.742 300.861,938.013 300.861,938.013L293.149,926.283L281.781,930.328L284.251,936.308L224.947,940.074C224.744,940.372 224.549,940.678 224.358,940.991L224.358,940.995C222.972,943.28 221.896,945.941 221.291,949.049C221.272,949.147 221.252,949.241 221.237,949.339ZM358.049,948.518L357.86,947.369C357.353,940.685 369.17,931.918 378.709,924.841C382.363,922.13 385.682,919.668 387.846,917.665L389.791,945.918L390.431,948.243L358.049,948.518Z" style="fill:rgb(253,120,95);"/>
                                        <path id="Path_3" d="M387.165,907.694C387.165,907.694 359.772,920.217 338.324,923.256C328.897,924.59 314.798,923.498 311.526,922.22C311.526,922.22 316.6,930.97 329.325,935.173C343.605,939.89 388.008,920.011 388.008,920.011L387.165,907.694Z" style="fill:rgb(45,103,248);"/>
                                        <path id="Combined-Shape4" serif:id="Combined Shape" d="M252.07,930.188C253.244,930.188 253.248,932.013 252.07,932.013C250.897,932.009 250.893,930.188 252.07,930.188ZM244.358,931.401C245.532,931.401 245.536,933.226 244.358,933.226C243.185,933.226 243.181,931.401 244.358,931.401ZM249.231,934.239C250.405,934.239 250.408,936.061 249.231,936.061C248.054,936.061 248.054,934.239 249.231,934.239ZM237.051,934.644C238.225,934.644 238.229,936.469 237.051,936.469C235.878,936.469 235.874,934.644 237.051,934.644Z" style="fill:rgb(48,48,48);"/>
                                        <path id="Combined-Shape_21" serif:id="Combined Shape_2" d="M333.653,908.143C333.55,907.947 333.322,907.858 333.118,907.922L333.042,907.953L332.068,908.46L331.023,908.998L330.085,909.477C328.647,910.208 327.119,910.973 325.525,911.759C319.466,914.747 313.402,917.575 307.533,920.136C305.596,920.981 303.702,921.788 301.853,922.554L301.109,922.859L293.917,910.934C293.829,910.788 293.67,910.708 293.508,910.715L293.428,910.726L293.348,910.752L292.648,911.054C292.421,911.152 292.319,911.41 292.404,911.631L292.439,911.704L299.553,923.495L299.06,923.694L298.086,924.084L297.122,924.465L296.167,924.838C294.852,925.349 293.567,925.835 292.309,926.297L291.371,926.64L289.931,927.155L288.995,927.482L282.044,915.95C281.957,915.806 281.801,915.725 281.64,915.731L281.56,915.74L281.481,915.765L280.77,916.06C280.539,916.155 280.434,916.415 280.519,916.639L280.555,916.712L287.387,928.027L286.808,928.22C283.468,929.326 280.418,930.209 277.671,930.865L277.087,931.002L276.791,931.069L270.508,920.659C270.422,920.517 270.269,920.437 270.111,920.44L270.032,920.448L269.954,920.471L269.238,920.75C269.003,920.843 268.893,921.105 268.979,921.332L269.015,921.406L275.068,931.436L274.83,931.484C269.147,932.59 265.069,932.529 262.73,931.308L262.549,931.209L262.379,931.107L257.574,925.034C257.453,924.881 257.254,924.827 257.079,924.884L257.006,924.914L256.937,924.959L256.343,925.428C256.168,925.565 256.122,925.806 256.223,925.995L256.268,926.064L261.197,932.295L261.304,932.393L261.355,932.426C264.133,934.249 268.985,934.402 275.896,932.969C274.968,933.641 274.364,934.733 274.364,935.965C274.364,938.008 276.023,939.665 278.07,939.665C280.116,939.665 281.776,938.008 281.776,935.965C281.776,934.144 280.458,932.63 278.722,932.323C281.119,931.729 283.73,930.971 286.554,930.053L287.329,929.798L288.108,929.538C288.559,929.388 289.021,929.231 289.5,929.066L290.483,928.722L291.276,928.44C293.045,927.807 294.877,927.122 296.77,926.387C300.384,924.983 304.2,923.404 308.2,921.658C313.203,919.475 318.347,917.099 323.511,914.594L325.234,913.754L326.262,913.248L327.839,912.467C328.357,912.209 328.867,911.954 329.368,911.702L330.841,910.957L332.505,910.105L333.815,909.424C334.014,909.321 334.104,909.092 334.039,908.887L334.007,908.811L333.653,908.143ZM278.07,933.927C279.197,933.927 280.111,934.84 280.111,935.965C280.111,937.091 279.197,938.003 278.07,938.003C276.942,938.003 276.028,937.091 276.028,935.965C276.028,934.84 276.942,933.927 278.07,933.927ZM289.954,929.397C287.907,929.397 286.248,931.053 286.248,933.097C286.248,935.14 287.907,936.796 289.954,936.796C292.001,936.796 293.66,935.14 293.66,933.097C293.66,931.053 292.001,929.397 289.954,929.397ZM289.954,931.059C291.082,931.059 291.996,931.971 291.996,933.097C291.996,934.222 291.082,935.134 289.954,935.134C288.827,935.134 287.913,934.222 287.913,933.097C287.913,931.971 288.827,931.059 289.954,931.059ZM302.501,924.752C300.454,924.752 298.795,926.408 298.795,928.452C298.795,930.495 300.454,932.151 302.501,932.151C304.548,932.151 306.207,930.495 306.207,928.452C306.207,926.408 304.548,924.752 302.501,924.752ZM302.501,926.414C303.628,926.414 304.542,927.326 304.542,928.452C304.542,929.577 303.628,930.489 302.501,930.489C301.374,930.489 300.46,929.577 300.46,928.452C300.46,927.326 301.374,926.414 302.501,926.414ZM301.615,878.597L301.354,878.61L301.233,878.619C297.219,878.976 295.173,884.669 296.176,891.599C296.359,892.86 296.908,894.694 297.807,897.088L298.097,897.85L298.363,898.529L298.578,899.069L298.801,899.619L299.109,900.365L299.563,901.442C299.64,901.624 299.718,901.806 299.797,901.989C298.882,900.768 297.895,899.602 296.845,898.511C295.426,897.036 293.937,895.748 292.385,894.662L291.243,893.869C290.728,893.516 290.375,893.284 289.995,893.046L289.604,892.806L289.074,892.489C287.17,891.373 285.439,890.629 283.821,890.258C280.019,889.385 277.121,890.669 275.421,894.155C273.562,897.971 277.732,902.69 284.666,905.228C285.994,905.714 288.135,906.144 291.058,906.528L291.898,906.634L292.618,906.72C294.306,906.914 296.147,907.088 298.086,907.239L299.537,907.346L300.518,907.412L301.37,907.465L302.302,907.514L302.348,907.611C302.485,907.902 302.865,907.954 303.079,907.737L303.133,907.671L303.509,907.117L303.699,906.826L303.825,906.624L304.052,906.251L304.355,905.733C305.01,904.587 305.63,903.352 306.192,902.061C307.329,899.446 308.123,896.843 308.54,894.29L308.63,893.701L308.707,893.1L308.809,892.231L308.879,891.585C309.07,889.688 309.114,888.128 309.001,886.638C308.604,881.389 306.242,878.542 301.871,878.591L301.615,878.597ZM283.448,891.877C284.95,892.222 286.61,892.95 288.467,894.062L288.986,894.377C289.228,894.526 289.45,894.669 289.687,894.825L290.191,895.163L290.444,895.337L291.43,896.023C292.891,897.045 294.299,898.263 295.645,899.662C297.141,901.217 298.507,902.936 299.712,904.751C299.868,904.986 300.018,905.218 300.161,905.445L300.342,905.735L299.045,905.645C296.82,905.482 294.714,905.289 292.809,905.069L291.973,904.969C289.252,904.633 287.173,904.26 285.826,903.86L285.63,903.8L285.444,903.739L285.239,903.668C279.442,901.546 275.86,897.805 276.799,895.164L276.854,895.023L276.916,894.886L276.983,894.752C278.337,892.083 280.434,891.185 283.448,891.877ZM307.341,886.763C307.432,887.958 307.413,889.216 307.29,890.693L307.245,891.193L307.189,891.744L307.118,892.367L307.014,893.235C306.666,895.891 305.867,898.634 304.665,901.399C304.217,902.428 303.731,903.42 303.219,904.355L302.915,904.899L302.655,904.333C302.058,903.019 301.487,901.722 300.958,900.472L300.475,899.315L300.147,898.51L299.825,897.7L299.541,896.967C298.582,894.46 297.997,892.559 297.824,891.361C296.948,885.31 298.628,880.438 301.461,880.268C305.141,880.047 306.994,882.171 307.341,886.763Z" style="fill:rgb(48,48,48);"/>
                                    </g>
                                </g>
                                <g id="shoe_22" serif:id="shoe_2">
                                    <path id="Path-2_2" serif:id="Path 2_2" d="M636.313,883.146L694.453,881.031L715.458,905.735L770.77,928.452L794.233,939.867L798.763,949.629L629.569,956.598L632.753,909.128L636.313,883.146Z" style="fill:rgb(250,250,250);"/>
                                    <g id="Shoe_2">
                                        <path id="Path_4" d="M799.735,957.991C799.735,961.622 795.507,973.837 795.507,973.837L624.083,973.837L629.625,948.242L798.867,948.518C799.043,949.384 799.735,954.361 799.735,957.991Z" style="fill:rgb(235,235,235);fill-rule:nonzero;"/>
                                        <path id="Combined_2" d="M655.488,883.163C663.534,890.166 662.243,899.596 659.21,903.905C652.679,913.191 641.075,911.192 641.075,911.192C640.931,911.464 632.977,908.932 632.977,908.932L632.753,908.852L634.624,881.609C634.646,881.284 634.915,881.027 635.245,881.031C637.497,881.039 645.978,881.163 654.966,882.392C655.169,882.422 655.22,882.586 655.276,882.767C655.32,882.907 655.366,883.057 655.488,883.163ZM798.763,949.339L685.828,948.332L691.739,941.697C698.7,932.742 719.139,938.013 719.139,938.013L726.851,926.283L738.219,930.328L735.749,936.308L795.053,940.074C795.256,940.372 795.451,940.678 795.642,940.991L795.642,940.995C797.028,943.28 798.104,945.941 798.709,949.049C798.728,949.147 798.748,949.241 798.763,949.339ZM661.951,948.518L662.14,947.369C662.647,940.685 650.83,931.918 641.291,924.841C637.637,922.13 634.318,919.668 632.154,917.665L630.209,945.918L629.569,948.243L661.951,948.518Z" style="fill:rgb(253,120,95);"/>
                                        <path id="Path_5" d="M632.835,907.694C632.835,907.694 660.228,920.217 681.676,923.256C691.103,924.59 705.202,923.498 708.474,922.22C708.474,922.22 703.4,930.97 690.675,935.173C676.395,939.89 631.992,920.011 631.992,920.011L632.835,907.694Z" style="fill:rgb(45,103,248);"/>
                                        <path id="Combined-Shape_3" serif:id="Combined Shape_3" d="M767.93,930.188C766.756,930.188 766.752,932.013 767.93,932.013C769.103,932.009 769.107,930.188 767.93,930.188ZM775.642,931.401C774.468,931.401 774.464,933.226 775.642,933.226C776.815,933.226 776.819,931.401 775.642,931.401ZM770.769,934.239C769.595,934.239 769.592,936.061 770.769,936.061C771.946,936.061 771.946,934.239 770.769,934.239ZM782.949,934.644C781.775,934.644 781.771,936.469 782.949,936.469C784.122,936.469 784.126,934.644 782.949,934.644Z" style="fill:rgb(48,48,48);"/>
                                        <path id="Combined-Shape_4" serif:id="Combined Shape_4" d="M686.347,908.143C686.45,907.947 686.678,907.858 686.882,907.922L686.958,907.953L687.932,908.46L688.977,908.998L689.915,909.477C691.353,910.208 692.881,910.973 694.475,911.759C700.534,914.747 706.598,917.575 712.467,920.136C714.404,920.981 716.298,921.788 718.147,922.554L718.891,922.859L726.083,910.934C726.171,910.788 726.33,910.708 726.492,910.715L726.572,910.726L726.652,910.752L727.352,911.054C727.579,911.152 727.681,911.41 727.596,911.631L727.561,911.704L720.447,923.495L720.94,923.694L721.914,924.084L722.878,924.465L723.833,924.838C725.148,925.349 726.433,925.835 727.691,926.297L728.629,926.64L730.069,927.155L731.005,927.482L737.956,915.95C738.043,915.806 738.199,915.725 738.36,915.731L738.44,915.74L738.519,915.765L739.23,916.06C739.461,916.155 739.566,916.415 739.481,916.639L739.445,916.712L732.613,928.027L733.192,928.22C736.532,929.326 739.582,930.209 742.329,930.865L742.913,931.002L743.209,931.069L749.492,920.659C749.578,920.517 749.731,920.437 749.889,920.44L749.968,920.448L750.046,920.471L750.762,920.75C750.997,920.843 751.107,921.105 751.021,921.332L750.985,921.406L744.932,931.436L745.17,931.484C750.853,932.59 754.931,932.529 757.27,931.308L757.451,931.209L757.621,931.107L762.426,925.034C762.547,924.881 762.746,924.827 762.921,924.884L762.994,924.914L763.063,924.959L763.657,925.428C763.832,925.565 763.878,925.806 763.777,925.995L763.732,926.064L758.803,932.295L758.696,932.393L758.645,932.426C755.867,934.249 751.015,934.402 744.104,932.969C745.032,933.641 745.636,934.733 745.636,935.965C745.636,938.008 743.977,939.665 741.93,939.665C739.884,939.665 738.224,938.008 738.224,935.965C738.224,934.144 739.542,932.63 741.278,932.323C738.881,931.729 736.27,930.971 733.446,930.053L732.671,929.798L731.892,929.538C731.441,929.388 730.979,929.231 730.5,929.066L729.517,928.722L728.724,928.44C726.955,927.807 725.123,927.122 723.23,926.387C719.616,924.983 715.8,923.404 711.8,921.658C706.797,919.475 701.653,917.099 696.489,914.594L694.766,913.754L693.738,913.248L692.161,912.467C691.643,912.209 691.133,911.954 690.632,911.702L689.159,910.957L687.495,910.105L686.185,909.424C685.986,909.321 685.896,909.092 685.961,908.887L685.993,908.811L686.347,908.143ZM741.93,933.927C740.803,933.927 739.889,934.84 739.889,935.965C739.889,937.091 740.803,938.003 741.93,938.003C743.058,938.003 743.972,937.091 743.972,935.965C743.972,934.84 743.058,933.927 741.93,933.927ZM730.046,929.397C732.093,929.397 733.752,931.053 733.752,933.097C733.752,935.14 732.093,936.796 730.046,936.796C727.999,936.796 726.34,935.14 726.34,933.097C726.34,931.053 727.999,929.397 730.046,929.397ZM730.046,931.059C728.918,931.059 728.004,931.971 728.004,933.097C728.004,934.222 728.918,935.134 730.046,935.134C731.173,935.134 732.087,934.222 732.087,933.097C732.087,931.971 731.173,931.059 730.046,931.059ZM717.499,924.752C719.546,924.752 721.205,926.408 721.205,928.452C721.205,930.495 719.546,932.151 717.499,932.151C715.452,932.151 713.793,930.495 713.793,928.452C713.793,926.408 715.452,924.752 717.499,924.752ZM717.499,926.414C716.372,926.414 715.458,927.326 715.458,928.452C715.458,929.577 716.372,930.489 717.499,930.489C718.626,930.489 719.54,929.577 719.54,928.452C719.54,927.326 718.626,926.414 717.499,926.414ZM718.385,878.597L718.646,878.61L718.767,878.619C722.781,878.976 724.827,884.669 723.824,891.599C723.641,892.86 723.092,894.694 722.193,897.088L721.903,897.85L721.637,898.529L721.422,899.069L721.199,899.619L720.891,900.365L720.437,901.442C720.36,901.624 720.282,901.806 720.203,901.989C721.118,900.768 722.105,899.602 723.155,898.511C724.574,897.036 726.063,895.748 727.615,894.662L728.757,893.869C729.272,893.516 729.625,893.284 730.005,893.046L730.396,892.806L730.926,892.489C732.83,891.373 734.561,890.629 736.179,890.258C739.981,889.385 742.879,890.669 744.579,894.155C746.438,897.971 742.268,902.69 735.334,905.228C734.006,905.714 731.865,906.144 728.942,906.528L728.102,906.634L727.382,906.72C725.694,906.914 723.853,907.088 721.914,907.239L720.463,907.346L719.482,907.412L718.63,907.465L717.698,907.514L717.652,907.611C717.515,907.902 717.135,907.954 716.921,907.737L716.867,907.671L716.491,907.117L716.301,906.826L716.175,906.624L715.948,906.251L715.645,905.733C714.99,904.587 714.37,903.352 713.808,902.061C712.671,899.446 711.877,896.843 711.46,894.29L711.37,893.701L711.293,893.1L711.191,892.231L711.121,891.585C710.93,889.688 710.886,888.128 710.999,886.638C711.396,881.389 713.758,878.542 718.129,878.591L718.385,878.597ZM736.552,891.877C735.05,892.222 733.39,892.95 731.533,894.062L731.014,894.377C730.772,894.526 730.55,894.669 730.313,894.825L729.809,895.163L729.556,895.337L728.57,896.023C727.109,897.045 725.701,898.263 724.355,899.662C722.859,901.217 721.493,902.936 720.288,904.751C720.132,904.986 719.982,905.218 719.839,905.445L719.658,905.735L720.955,905.645C723.18,905.482 725.286,905.289 727.191,905.069L728.027,904.969C730.748,904.633 732.827,904.26 734.174,903.86L734.37,903.8L734.556,903.739L734.761,903.668C740.558,901.546 744.14,897.805 743.201,895.164L743.146,895.023L743.084,894.886L743.017,894.752C741.663,892.083 739.566,891.185 736.552,891.877ZM712.659,886.763C712.568,887.958 712.587,889.216 712.71,890.693L712.755,891.193L712.811,891.744L712.882,892.367L712.986,893.235C713.334,895.891 714.133,898.634 715.335,901.399C715.783,902.428 716.269,903.42 716.781,904.355L717.085,904.899L717.345,904.333C717.942,903.019 718.513,901.722 719.042,900.472L719.525,899.315L719.853,898.51L720.175,897.7L720.459,896.967C721.418,894.46 722.003,892.559 722.176,891.361C723.052,885.31 721.372,880.438 718.539,880.268C714.859,880.047 713.006,882.171 712.659,886.763Z" style="fill:rgb(48,48,48);"/>
                                    </g>
                                </g>
                            </g>
                        </g>
                        <g id="Head2" serif:id="Head" transform="matrix(1,0,0,1,440,252)">
                            <g id="Head-Cap-1" serif:id="Head/Cap 1">
                                <path id="Path5" serif:id="Path" d="M37.5,63.044C37.55,56.654 42.03,49.783 48.07,52.423C48.48,52.334 48.89,52.273 49.3,52.254C49.3,6.053 111.85,15.543 112.21,61.904C112.21,100.243 80.16,120.073 59.56,97.674C53.12,90.344 51.84,81.463 49.44,72.754C42.7,73.004 38.09,69.213 37.5,63.044Z" style="fill:rgb(255,216,234);fill-rule:nonzero;"/>
                                <path id="hear2" serif:id="hear" d="M45.925,57.954C45.728,57.494 45.212,57.245 44.721,57.391C44.191,57.549 43.89,58.106 44.048,58.635L45.143,62.311C44.632,62.111 44.07,61.968 43.46,61.882L43.344,61.873C42.843,61.861 42.402,62.226 42.331,62.734C42.255,63.281 42.636,63.786 43.183,63.863C44.674,64.072 45.635,64.685 46.174,65.721C46.281,65.939 46.463,66.105 46.677,66.197C46.812,66.254 46.96,66.283 47.111,66.276C47.223,66.272 47.335,66.249 47.444,66.205C47.552,66.161 47.649,66.1 47.733,66.026C47.846,65.927 47.933,65.804 47.99,65.669C48.048,65.534 48.076,65.387 48.069,65.236C48.066,65.148 48.051,65.061 48.023,64.974L45.965,58.064L45.925,57.954Z" style="fill:rgb(48,48,48);"/>
                                <path id="Path-3" serif:id="Path " d="M49.3,52.254L51.326,66.277L62.365,66.277L55.833,49.663L110.207,49.663C110.207,49.663 108.589,39.652 98.562,30.826C88.534,22 67.659,15.307 55.833,30.826C44.006,46.345 49.3,52.254 49.3,52.254Z"/>
                                <path id="Combined-Shape5" serif:id="Combined Shape" d="M60.436,20.375C73.686,13.375 98.419,16.486 105.017,27.756C111.614,39.026 109.812,44.17 110.862,44.304C122.841,45.828 139.605,43.904 142.124,42.679C144.643,41.455 148.994,42.116 147.508,45.134C144.87,50.493 58.663,48.634 48.607,48.398C48.061,48.386 47.657,47.939 47.664,47.393C47.686,45.954 47.737,43.316 47.844,42.125C47.929,41.177 59.578,44.897 59.578,41.233C59.578,37.569 48.485,37.569 48.678,36.714C50.419,29.044 54.338,23.597 60.436,20.375Z" style="fill:rgb(124,180,255);"/>
                            </g>
                        </g>
                        <g id="Expression2" serif:id="Expression" transform="matrix(1,0,0,1,488,295)">
                            <g id="Expression-Big-Smile" serif:id="Expression/Big Smile">
                                <path id="Nose2" serif:id="Nose" d="M47.073,34.35C46.953,33.85 46.783,33.37 46.663,32.87C46.543,32.37 46.413,31.87 46.273,31.37C46.003,30.41 45.713,29.46 45.433,28.5C44.863,26.57 44.303,24.62 44.083,22.62C44.023,22.1 43.673,21.65 43.113,21.65C42.633,21.65 42.083,22.1 42.143,22.62C42.563,26.39 43.993,29.91 44.853,33.58C44.033,33.58 43.223,33.56 42.403,33.53C41.303,33.5 40.013,33.42 38.993,33.88C38.293,34.2 38.473,35.38 39.213,35.54C39.753,35.65 40.313,35.62 40.853,35.66C41.443,35.7 42.023,35.73 42.613,35.76C43.853,35.82 45.103,35.83 46.343,35.65C46.913,35.56 47.193,34.84 47.073,34.35Z" style="fill:rgb(48,48,48);fill-rule:nonzero;"/>
                                <path id="Mouth2" serif:id="Mouth" d="M43.806,41.346C41.42,41.986 38.904,42.144 36.442,41.883C36.429,41.883 36.415,41.876 36.401,41.876C34.428,41.092 32.537,39.958 30.42,39.676C30.255,39.538 30.09,39.407 29.932,39.256C29.451,38.789 28.55,38.995 28.337,39.6C28.117,39.744 27.965,39.999 28.007,40.363C28.426,44.413 30.942,48.441 35.239,49.081C37.377,49.397 39.488,48.895 41.186,47.547C42.781,46.282 43.874,44.495 44.878,42.749C45.311,42.034 44.617,41.133 43.806,41.346Z" style="fill:rgb(48,48,48);fill-rule:nonzero;"/>
                                <path id="Teeth" d="M30.42,39.676C30.344,40.631 30.613,41.546 31.334,42.357C32.324,43.471 33.871,44.089 35.274,44.481C36.601,44.852 38.079,45.004 39.406,44.523C40.031,44.296 40.581,43.945 41.069,43.526C41.881,43.134 42.431,42.453 42.699,41.608" style="fill:rgb(250,250,250);fill-rule:nonzero;"/>
                                <path id="Drop" d="M48.12,4.238C48.01,3.988 47.9,3.748 47.76,3.518C47.69,3.398 47.6,3.268 47.52,3.148C47.48,2.868 47.38,2.598 47.16,2.398C46.6,1.888 45.74,1.848 45.18,2.398C44.22,3.358 43.47,4.538 43.31,5.908C43.24,6.548 43.39,7.248 43.74,7.788C44.24,8.558 44.97,8.998 45.81,9.318C46.28,9.498 46.82,9.278 47.17,8.958C48.02,8.188 48.55,7.028 48.49,5.868C48.47,5.298 48.34,4.768 48.12,4.238Z" style="fill:rgb(242,242,242);fill-rule:nonzero;"/>
                                <path id="Drop_2" d="M60.03,16.288C59.79,15.328 59.44,14.398 59.03,13.498C58.76,12.888 58.44,12.138 57.91,11.718C57.84,11.658 57.76,11.628 57.69,11.578C57.53,11.148 57.16,10.768 56.73,10.678C55.94,10.498 55.29,10.918 55.01,11.658C54.57,12.818 54.32,14.078 54.15,15.308C53.91,16.988 53.73,18.908 54.57,20.458C55.49,22.168 57.96,22.578 59.38,21.238C60.69,19.998 60.43,17.858 60.03,16.288Z" style="fill:rgb(242,242,242);fill-rule:nonzero;"/>
                            </g>
                        </g>
                        <g id="Beard1" serif:id="Beard">
                        </g>
                    </g>
                </g>
            </g>
        </g>
        <g transform="matrix(1,0,0,1,487,-436.184211)">
            <g id="Master-Character-Standing4" serif:id="Master/Character/Standing" transform="matrix(0.544344,0,0,0.544344,972.761123,433.946367)">
                <g opacity="0.48">
                    <g id="Master-Character-Standing5" serif:id="Master/Character/Standing">
                        <g id="Full-Body2" serif:id="Full Body">
                            <g id="Full-Body-Two-Weights-Down" serif:id="Full Body/Two Weights Down">
                                <g id="Upperbody">
                                    <path id="Body1" serif:id="Body" d="M418.242,515.845L418.243,515.845C418.474,515.913 418.705,515.981 418.937,516.047C419.085,515.724 419.231,515.399 419.377,515.076L419.378,515.075C419.569,514.65 419.76,514.227 419.954,513.809C421.008,510.548 422.16,507.322 423.43,504.133C428.057,492.545 433.834,481.467 440.625,471.041C440.626,471.206 440.628,471.371 440.63,471.536C442.097,491.096 441.53,526.972 441.53,526.972C440.066,541.364 441.53,566.242 441.53,566.242L581.008,560.625C580.862,550.082 580.049,536.779 579.206,523.007C578.52,511.795 577.815,500.272 577.436,489.672C579.802,494.393 581.972,499.217 583.935,504.133C585.204,507.322 586.357,510.548 587.411,513.809C587.605,514.227 587.796,514.651 587.988,515.076L587.999,515.102C588.142,515.417 588.284,515.733 588.428,516.047C588.659,515.981 588.89,515.913 589.122,515.845C589.584,515.709 590.046,515.573 590.508,515.454C615.056,572.139 628.725,650.351 611.103,685.149C611.85,692.256 621.837,689.596 626.186,687.485C627.226,689.835 628.244,693.781 629.398,698.253C633.371,713.65 638.954,735.283 652.562,719.471C657.334,724.098 665.439,722.544 667.159,715.859C713.693,732.44 652.216,523.925 642.003,489.281L642.002,489.281C641.585,487.864 641.253,486.737 641.017,485.93C617.961,406.786 560.845,367.221 503.682,372.461C446.52,367.221 389.404,406.786 366.347,485.93C366.112,486.736 365.781,487.86 365.364,489.274L365.362,489.281C355.149,523.923 293.672,732.44 340.206,715.859C341.926,722.544 350.03,724.098 354.803,719.471C368.411,735.283 373.993,713.65 377.967,698.253C379.121,693.781 380.139,689.835 381.179,687.485C385.528,689.596 395.515,692.256 396.262,685.149C378.639,650.351 392.309,572.139 416.856,515.454C417.318,515.573 417.78,515.709 418.242,515.845ZM426.366,480.485C426.361,480.503 426.357,480.518 426.352,480.534C426.348,480.55 426.343,480.566 426.339,480.584C425.96,480.53 425.573,480.521 425.177,480.548L425.177,479.874C425.573,480.071 425.969,480.278 426.365,480.485L426.366,480.485ZM581.022,480.534L581.021,480.532C581.017,480.517 581.012,480.502 581.008,480.485C581.395,480.278 581.792,480.072 582.197,479.874L582.197,480.548C581.801,480.521 581.413,480.53 581.035,480.584C581.032,480.573 581.03,480.563 581.027,480.553L581.022,480.534Z" style="fill:rgb(255,156,138);"/>
                                </g>
                                <path id="Legs" d="M530.349,867L593,864.945L582.982,550L438.211,558.778L413,859.313L474.393,859.313L506.375,618.665L515.341,618.017" style="fill:rgb(194,165,249);"/>
                                <g id="Socks">
                                    <path id="Sock" d="M481.246,819.313L411.081,820.157L401.329,945.461L381.27,965.241L467.29,965.241L481.246,819.313Z" style="fill:rgb(250,250,250);fill-rule:nonzero;"/>
                                </g>
                                <path id="Tshirt" d="M588.638,524.11L582.92,507.789L583.299,554.858C544.163,555.47 465.418,558.4 426.381,561L432,507.789L421.647,521.383L364,469.726C376.469,419.094 440.544,382.757 440.544,382.757C440.544,382.757 471.468,369 504,369C536.532,369 550.002,376.502 569.125,385.065C588.249,393.628 632.63,437.63 643,469.726L588.638,524.11Z" style="fill:rgb(48,48,48);fill-rule:nonzero;"/>
                                <g id="Socks_2">
                                    <path id="Sock_3" d="M522.623,819.313L592.788,820.157L597.039,945.568L618.979,963.815L534.991,963.815L522.623,819.313Z" style="fill:rgb(250,250,250);fill-rule:nonzero;"/>
                                </g>
                                <path id="Combined-Shape6" serif:id="Combined Shape" d="M342.435,682.364C342.946,682.405 343.336,682.824 343.353,683.324L343.351,683.441L341.203,709.94C341.159,710.49 340.676,710.9 340.126,710.856C339.615,710.814 339.224,710.395 339.207,709.895L339.21,709.778L341.357,683.28C341.399,682.768 341.817,682.378 342.318,682.361L342.435,682.364ZM664.037,683.324C664.054,682.824 664.444,682.405 664.955,682.364L665.072,682.361C665.572,682.378 665.991,682.768 666.033,683.28L668.18,709.778L668.183,709.895C668.165,710.395 667.775,710.814 667.264,710.856C666.714,710.9 666.231,710.49 666.187,709.94L664.039,683.441L664.037,683.324ZM649.143,686.263C649.161,685.763 649.551,685.344 650.062,685.303L650.179,685.3C650.679,685.317 651.098,685.708 651.139,686.219L653.287,712.717L653.289,712.834C653.272,713.334 652.882,713.753 652.371,713.795C651.82,713.839 651.338,713.429 651.293,712.879L649.146,686.38L649.143,686.263ZM358.247,686.263C358.229,685.763 357.839,685.344 357.328,685.303L357.211,685.3C356.711,685.317 356.292,685.708 356.251,686.219L354.103,712.717L354.1,712.834C354.118,713.334 354.508,713.753 355.019,713.795C355.57,713.839 356.052,713.429 356.097,712.879L358.244,686.38L358.247,686.263Z" style="fill:rgb(48,48,48);"/>
                                <g id="Weight1" serif:id="Weight">
                                    <path id="Rectangle2" serif:id="Rectangle" d="M379.903,681.541L425.907,681C425.907,681 426.073,686.183 426.073,689C426.073,691.817 426.38,697 426.38,697L376.275,697C376.275,697 377.6,693.14 377.704,689C377.809,684.86 379.903,681.541 379.903,681.541Z" style="fill:rgb(43,43,43);fill-rule:nonzero;"/>
                                    <path id="Rectangle-2" serif:id="Rectangle " d="M276,681L323.395,681C323.395,681 323.406,686.675 323.616,689.553C323.826,692.43 324.565,697 324.565,697L276,697L276,681Z" style="fill:rgb(43,43,43);fill-rule:nonzero;"/>
                                    <path id="Rectangle_28" serif:id="Rectangle_2" d="M431.959,658.674L431.959,721.326C431.959,723.354 430.313,725 428.285,725L405.555,725C403.527,725 401.881,723.354 401.881,721.326L401.881,658.674C401.881,656.646 403.527,655 405.555,655L428.285,655C430.313,655 431.959,656.646 431.959,658.674Z" style="fill:rgb(45,103,248);"/>
                                    <path id="Rectangle--1" serif:id="Rectangle  " d="M306.078,658.674L306.078,721.326C306.078,723.354 304.432,725 302.404,725L279.674,725C277.646,725 276,723.354 276,721.326L276,658.674C276,656.646 277.646,655 279.674,655L302.404,655C304.432,655 306.078,656.646 306.078,658.674Z" style="fill:rgb(45,103,248);"/>
                                </g>
                                <g id="Weight-" serif:id="Weight ">
                                    <path id="Rectangle_32" serif:id="Rectangle_3" d="M684.364,681L731.907,681C731.907,681 732.073,686.183 732.073,689C732.073,691.817 732.38,697 732.38,697L682.275,697C682.275,697 683.6,693.14 683.704,689C683.809,684.86 684.364,681 684.364,681Z" style="fill:rgb(43,43,43);fill-rule:nonzero;"/>
                                    <path id="Rectangle-_22" serif:id="Rectangle _2" d="M582,681L629.395,681C629.395,681 629.406,686.675 629.616,689.553C629.826,692.43 630.565,697 630.565,697L582,697L582,681Z" style="fill:rgb(43,43,43);fill-rule:nonzero;"/>
                                    <path id="Rectangle_41" serif:id="Rectangle_4" d="M737.959,658.674L737.959,721.326C737.959,723.354 736.313,725 734.285,725L711.555,725C709.527,725 707.881,723.354 707.881,721.326L707.881,658.674C707.881,656.646 709.527,655 711.555,655L734.285,655C736.313,655 737.959,656.646 737.959,658.674Z" style="fill:rgb(45,103,248);"/>
                                    <path id="Rectangle--_21" serif:id="Rectangle  _2" d="M612.078,658.674L612.078,721.326C612.078,723.354 610.432,725 608.404,725L585.674,725C583.646,725 582,723.354 582,721.326L582,658.674C582,656.646 583.646,655 585.674,655L608.404,655C610.432,655 612.078,656.646 612.078,658.674Z" style="fill:rgb(45,103,248);"/>
                                </g>
                                <g id="Shoe2" serif:id="Shoe">
                                    <path id="Path--2" serif:id="Path  2" d="M475.323,900.838C475.323,900.838 443.836,912.248 430.64,899.052C417.444,885.856 404.085,870.32 404.085,870.32L398.634,898.233L377.457,906.436L313.795,926.429C313.795,926.429 304.256,929.251 304.718,935.116C305.085,939.782 307.054,952.532 312.16,957.638C318.692,964.171 348.408,969.209 382.79,971.144C409.06,972.623 477.997,973.974 477.997,973.974C477.997,973.974 476.411,953.962 476.278,944.494C476.229,940.978 473.597,933.168 473.775,930.37C474.116,925.026 477.732,916.788 477.997,911.705C478.243,906.961 475.323,900.838 475.323,900.838Z" style="fill:rgb(250,250,250);"/>
                                    <path id="Path-4" serif:id="Path " d="M475.517,938.874C475.517,938.874 416.409,951.413 403.851,943.883C395.723,939.009 388.334,930.967 391.062,920.62C393.791,910.273 412.843,904.473 412.843,904.473C412.843,904.473 396.353,922.706 418.863,932.848C441.374,942.989 475.517,938.874 475.517,938.874Z" style="fill:rgb(253,120,95);"/>
                                    <path id="Path-_21" serif:id="Path _2" d="M478.422,958.847C478.422,958.847 375.19,959.739 345.917,956.359C316.644,952.979 304.717,935.116 304.717,935.116C304.717,935.116 304.345,959.232 326.537,966.603C348.729,973.974 478.422,973.974 478.422,973.974L478.422,958.847Z" style="fill:rgb(237,239,242);"/>
                                    <path id="Path6" serif:id="Path" d="M360.756,911.967C360.432,911.521 360.53,910.895 360.977,910.571C361.39,910.271 361.954,910.332 362.294,910.694L362.374,910.791L370.429,921.873L372.281,913.853C372.426,913.227 373.109,912.907 373.674,913.17L373.779,913.226L385.314,920.307L381.383,909.379C381.097,908.585 381.859,907.834 382.631,908.089L382.731,908.128L397.566,914.749L391.749,899.339C391.568,898.859 391.78,898.328 392.224,898.098L392.331,898.05C392.811,897.869 393.343,898.081 393.572,898.526L393.62,898.633L400.286,916.287C400.586,917.084 399.823,917.849 399.044,917.593L398.943,917.554L384.058,910.911L388.162,922.313C388.469,923.167 387.579,923.934 386.795,923.557L386.698,923.504L373.917,915.658L371.885,924.46C371.7,925.259 370.699,925.496 370.171,924.908L370.102,924.823L360.756,911.967Z" style="fill:rgb(48,48,48);fill-rule:nonzero;"/>
                                </g>
                                <g id="Shoe_21" serif:id="Shoe_2">
                                    <path id="Path--2_2" serif:id="Path  2_2" d="M528.545,901.838C528.545,901.838 560.032,913.248 573.228,900.052C586.424,886.856 599.783,871.32 599.783,871.32L605.234,899.233L626.411,907.436L690.073,927.429C690.073,927.429 699.612,930.251 699.151,936.116C698.783,940.782 696.814,953.532 691.708,958.638C685.176,965.171 655.46,970.209 621.078,972.144C594.808,973.623 525.872,974.974 525.872,974.974C525.872,974.974 527.457,954.962 527.59,945.494C527.639,941.978 530.271,934.168 530.093,931.37C529.752,926.026 526.136,917.788 525.872,912.705C525.625,907.961 528.545,901.838 528.545,901.838Z" style="fill:rgb(250,250,250);"/>
                                    <path id="Path-_31" serif:id="Path _3" d="M528.352,939.874C528.352,939.874 587.459,952.413 600.018,944.883C608.145,940.009 615.534,931.967 612.806,921.62C610.077,911.273 591.026,905.473 591.026,905.473C591.026,905.473 607.516,923.706 585.005,933.848C562.495,943.989 528.352,939.874 528.352,939.874Z" style="fill:rgb(253,120,95);"/>
                                    <path id="Path-_41" serif:id="Path _4" d="M525.446,959.847C525.446,959.847 628.678,960.739 657.951,957.359C687.225,953.979 699.151,936.116 699.151,936.116C699.151,936.116 699.523,960.232 677.331,967.603C655.139,974.974 525.446,974.974 525.446,974.974L525.446,959.847Z" style="fill:rgb(237,239,242);"/>
                                    <path id="Path_22" serif:id="Path_2" d="M643.112,912.967C643.437,912.521 643.338,911.895 642.891,911.571C642.479,911.271 641.914,911.332 641.574,911.694L641.494,911.791L633.439,922.873L631.587,914.853C631.442,914.227 630.759,913.907 630.194,914.17L630.09,914.226L618.554,921.307L622.485,910.379C622.771,909.585 622.01,908.834 621.237,909.089L621.137,909.128L606.302,915.749L612.119,900.339C612.3,899.859 612.089,899.328 611.644,899.098L611.537,899.05C611.057,898.869 610.525,899.081 610.296,899.526L610.248,899.633L603.583,917.287C603.282,918.084 604.046,918.849 604.824,918.593L604.926,918.554L619.81,911.911L615.706,923.313C615.399,924.167 616.289,924.934 617.073,924.557L617.171,924.504L629.952,916.658L631.983,925.46C632.168,926.259 633.17,926.496 633.698,925.908L633.767,925.823L643.112,912.967Z" style="fill:rgb(48,48,48);fill-rule:nonzero;"/>
                                </g>
                            </g>
                        </g>
                        <g id="Head3" serif:id="Head" transform="matrix(1,0,0,1,440,252)">
                            <g id="Head-Bob-1" serif:id="Head/Bob 1">
                                <path id="Path7" serif:id="Path" d="M37.5,63.044C37.55,56.654 42.03,49.783 48.07,52.423C48.48,52.334 48.89,52.273 49.3,52.254C49.3,6.053 111.85,15.543 112.21,61.904C112.21,100.243 80.16,120.073 59.56,97.674C53.12,90.344 51.84,81.463 49.44,72.754C42.7,73.004 38.09,69.213 37.5,63.044Z" style="fill:rgb(255,156,138);fill-rule:nonzero;"/>
                                <path id="Path8" serif:id="Path" d="M105.963,29.634C92.383,9.535 66.003,8.655 62.013,8.515C57.283,8.355 52.573,9.535 48.173,11.175C43.943,12.755 39.893,14.915 36.553,17.985C34.903,19.505 33.343,21.285 32.253,23.265C31.413,24.785 30.863,26.424 30.233,28.035C28.263,28.825 26.103,29.035 24.003,29.145C18.813,29.424 13.303,29.404 8.783,32.385C2.283,36.664 2.283,45.654 -1.187,51.904C-1.917,53.224 -2.917,54.525 -4.247,55.054C-6.117,55.804 -8.227,55.154 -10.017,54.434C-11.687,53.764 -12.407,56.465 -10.757,57.124C-7.197,58.565 -3.157,58.705 -0.407,55.645C2.103,52.855 3.133,48.965 4.263,45.484C5.403,41.995 6.563,37.995 9.373,35.444C13.213,31.954 19.193,32.205 24.013,31.934C25.543,31.855 27.073,31.704 28.563,31.395C27.703,32.645 26.593,33.694 25.093,34.205C23.013,34.925 20.753,34.565 18.603,34.675C15.033,34.855 11.093,36.114 9.713,39.734C8.573,42.724 9.393,46.105 9.593,49.184C9.843,53.065 9.133,57.105 5.473,59.175C2.083,61.094 -2.117,61.044 -5.887,61.285C-6.817,61.344 -7.547,62.344 -6.997,63.215C-2.577,70.264 52.383,92.424 52.523,92.544C53.063,92.975 54.783,93.044 55.323,92.544C56.413,91.544 53.153,84.654 52.563,82.975C51.313,79.415 50.033,75.814 50.403,71.984C50.473,71.284 49.703,70.514 49.013,70.594C46.913,70.814 44.773,70.504 43.183,69.055C41.723,67.725 40.913,65.874 40.513,63.944C40.103,61.984 40.153,59.885 40.613,57.965C40.843,56.995 41.133,56.184 41.603,55.364C41.953,54.755 42.493,54.075 42.883,53.775C43.633,53.205 44.173,53.054 44.983,53.084C45.813,53.114 46.923,53.645 47.783,54.224C48.703,54.844 49.833,54.014 49.883,53.025C49.943,51.645 50.033,50.264 50.163,48.885C50.273,48.755 50.373,48.594 50.443,48.404C51.443,45.565 52.483,42.124 54.633,39.834C54.873,40.525 58.493,44.974 59.743,46.065C62.143,48.154 64.913,47.705 67.273,45.794C69.443,44.044 74.623,38.554 75.593,38.255C75.713,38.584 75.843,38.904 75.953,39.234C76.593,41.094 81.043,47.724 83.153,47.184C84.293,46.895 85.013,46.075 85.523,45.065C85.933,44.255 88.883,42.145 89.513,41.205C90.473,40.614 91.563,40.145 92.383,40.444C93.563,40.885 98.923,50.264 102.683,51.914C105.423,53.114 108.183,52.455 109.103,49.404C109.613,47.734 108.573,38.984 108.333,38.285C109.733,41.005 110.753,43.904 111.043,46.925C111.213,48.694 114.003,48.715 113.833,46.925C113.193,40.434 109.465,34.818 105.963,29.634Z" style="fill-rule:nonzero;"/>
                                <path id="Path_23" serif:id="Path_2" d="M73.707,-17.194C69.717,-20.484 64.607,-22.904 59.387,-23.184C55.327,-23.394 51.747,-21.834 49.547,-18.764C47.657,-17.044 46.447,-14.724 46.467,-11.774C46.487,-9.604 47.077,-7.494 48.017,-5.504C48.417,-4.124 48.957,-2.804 49.607,-1.604C51.887,2.656 55.907,5.566 60.487,6.746C63.037,7.906 65.797,8.556 68.697,8.496C74.837,8.356 80.087,4.596 80.777,-1.734C81.397,-7.584 78.117,-13.554 73.707,-17.194Z" style="fill-rule:nonzero;"/>
                                <path id="hear3" serif:id="hear" d="M45.925,57.954C45.728,57.494 45.212,57.245 44.721,57.391C44.191,57.549 43.89,58.106 44.048,58.635L45.143,62.311C44.632,62.111 44.07,61.968 43.46,61.882L43.344,61.873C42.843,61.861 42.402,62.226 42.331,62.734C42.255,63.281 42.636,63.786 43.183,63.863C44.674,64.072 45.635,64.685 46.174,65.721C46.281,65.939 46.463,66.105 46.677,66.197C46.812,66.254 46.96,66.283 47.111,66.276C47.223,66.272 47.335,66.249 47.444,66.205C47.552,66.161 47.649,66.1 47.733,66.027C47.846,65.927 47.933,65.804 47.99,65.669C48.048,65.534 48.076,65.387 48.069,65.236C48.066,65.148 48.051,65.061 48.023,64.975L45.965,58.064L45.925,57.954Z" style="fill:rgb(48,48,48);"/>
                            </g>
                        </g>
                        <g id="Expression3" serif:id="Expression" transform="matrix(1,0,0,1,488,295)">
                            <g id="Expression-Smile-2" serif:id="Expression/Smile ">
                                <path id="Mouth3" serif:id="Mouth" d="M41.65,41.764C41.689,41.758 41.689,41.758 41.625,41.761C41.523,41.77 41.43,41.793 41.352,41.806C41.171,41.828 41.005,41.84 40.828,41.837C40.662,41.849 40.471,41.856 40.294,41.854C40.166,41.859 39.796,41.8 39.699,41.848C39.788,41.849 39.862,41.861 39.95,41.862C39.837,41.857 39.71,41.862 39.586,41.843L39.562,41.839L39.523,41.845C39.321,41.839 39.119,41.832 38.907,41.811C38.519,41.788 38.134,41.739 37.734,41.702C36.131,41.511 34.555,41.147 32.987,40.734C32.525,40.611 31.91,40.817 31.538,41.087C31.152,41.368 30.819,41.872 30.755,42.356C30.701,42.854 30.782,43.386 31.108,43.805C31.212,43.948 31.352,44.021 31.474,44.129C33.364,47.151 37.408,48.956 40.761,47.221C41.877,46.65 42.968,45.836 43.657,44.767C44.095,44.077 44.264,43.166 43.706,42.457C43.192,41.781 42.449,41.6 41.65,41.764Z" style="fill:rgb(48,48,48);fill-rule:nonzero;"/>
                                <path id="Nose3" serif:id="Nose" d="M47.073,34.35C46.953,33.85 46.783,33.37 46.663,32.87C46.543,32.37 46.413,31.87 46.273,31.37C46.003,30.41 45.713,29.46 45.433,28.5C44.863,26.57 44.303,24.62 44.083,22.62C44.023,22.1 43.673,21.65 43.113,21.65C42.633,21.65 42.083,22.1 42.143,22.62C42.563,26.39 43.993,29.91 44.853,33.58C44.033,33.58 43.223,33.56 42.403,33.53C41.303,33.5 40.013,33.42 38.993,33.88C38.293,34.2 38.473,35.38 39.213,35.54C39.753,35.65 40.313,35.62 40.853,35.66C41.443,35.7 42.023,35.73 42.613,35.76C43.853,35.82 45.103,35.83 46.343,35.65C46.913,35.56 47.193,34.84 47.073,34.35Z" style="fill:rgb(48,48,48);fill-rule:nonzero;"/>
                            </g>
                        </g>
                        <g id="Beard2" serif:id="Beard">
                        </g>
                    </g>
                </g>
            </g>
        </g>
    </g>
</svg>
