<?xml version="1.0" encoding="UTF-8" standalone="no"?>
<!DOCTYPE svg PUBLIC "-//W3C//DTD SVG 1.1//EN" "http://www.w3.org/Graphics/SVG/1.1/DTD/svg11.dtd">
<svg width="100%" height="100%" viewBox="0 0 295 288" version="1.1" xmlns="http://www.w3.org/2000/svg" xmlns:xlink="http://www.w3.org/1999/xlink" xml:space="preserve" xmlns:serif="http://www.serif.com/" style="fill-rule:evenodd;clip-rule:evenodd;stroke-linejoin:round;stroke-miterlimit:2;">
    <g transform="matrix(1,0,0,1,-18.387279,-15.659142)">
        <g transform="matrix(1,0,0,1,-37.955686,-42.90346)">
            <g id="coin6" transform="matrix(1,0,0,1,36,41)">
                <path d="M50.071,75.19C59.953,60.267 83.51,17.723 151.499,17.563C216.014,17.411 266.074,60.818 286.107,89.778C350.853,183.374 286.249,245.43 284.618,247.586C284.154,247.403 283.964,246.776 283.5,246.593C280.631,245.462 257.813,283.847 184.555,275.058C143.246,270.103 108.881,244.136 103.225,239.861C101.478,238.541 101.438,238.689 100.618,238.151C93.939,231.375 45.187,195.147 40.93,127.486C40.304,117.536 41.572,97.205 48.915,81.627C49.677,80.012 49.748,80.125 50.519,78.508C51.327,76.815 50.878,76.775 50.071,75.19Z" style="fill:rgb(251,232,104);"/>
                <path d="M82.313,69.362C83.135,69.715 82.736,70.119 83.5,70.448C83.554,70.471 83.911,70.624 84.17,70.16C84.325,69.884 83.963,69.428 84.193,69.21C84.802,68.633 85.024,69.161 85.579,68.585C97.156,56.584 110.242,51.85 112.674,50.971C196.237,20.742 293.816,102.677 289.379,180.497C288.415,197.414 286.205,196.959 286.174,198.415C286.126,200.695 285.498,200.463 284.683,202.552C282.849,207.253 284.533,207.116 284.826,207.676C271.866,232.641 251.576,241.731 246.304,244.043C149.548,286.458 16.548,160.107 82.313,69.362Z" style="fill:rgb(241,194,13);"/>
                <path d="M100.618,238.151C101.438,238.689 101.478,238.541 103.225,239.861C108.881,244.136 143.246,270.103 184.555,275.058C257.813,283.847 280.631,245.462 283.5,246.593C283.964,246.776 284.154,247.403 284.618,247.586C267.497,265.887 235.343,309.74 173.525,305.093C114.883,300.684 80.537,267.249 74.441,262.567C74.655,262.494 74.806,262.996 75.021,262.922C76.073,262.563 81.302,257.335 81.819,256.818C82.579,256.058 82.617,256.129 91.386,247.386C99.916,238.881 99.877,238.887 100.618,238.151Z" style="fill:rgb(209,123,25);"/>
                <path d="M50.071,75.19C50.878,76.775 51.327,76.815 50.519,78.508C49.748,80.125 49.677,80.012 48.915,81.627C41.572,97.205 40.304,117.536 40.93,127.486C45.187,195.147 93.939,231.375 100.618,238.151C99.877,238.887 99.916,238.881 91.386,247.386C82.617,256.129 82.579,256.058 81.819,256.818C81.302,257.335 76.073,262.563 75.021,262.922C74.806,262.996 74.655,262.494 74.441,262.567C72.187,260.597 58.006,248.197 48.911,235.2C17.418,190.195 4.293,149.035 50.071,75.19Z" style="fill:rgb(237,173,13);"/>
                <path d="M82.313,69.362C109.529,36.706 154.139,38.343 168.506,40.452C260.594,53.973 313.923,149.215 284.826,207.676C284.533,207.116 282.849,207.253 284.683,202.552C285.498,200.463 286.126,200.695 286.174,198.415C286.205,196.959 288.415,197.414 289.379,180.497C293.816,102.677 196.237,20.742 112.674,50.971C110.242,51.85 97.156,56.584 85.579,68.585C85.024,69.161 84.802,68.633 84.193,69.21C83.963,69.428 84.325,69.884 84.17,70.16C83.911,70.624 83.554,70.471 83.5,70.448C82.736,70.119 83.135,69.715 82.313,69.362Z" style="fill:rgb(204,127,16);"/>
                <path d="M166.32,101.305C165.899,101.917 129.957,146.199 126.51,147.523C122.467,149.077 113.961,145.077 111.885,138.289C111.708,131.623 114.593,130.799 130.191,112.215C151.511,86.815 154.666,80.112 164.896,89.065C170.045,93.572 169.079,97.411 166.32,101.305Z" style="fill:rgb(250,230,101);"/>
                <path d="M242.265,159.209C241.836,159.794 205.777,204.121 202.497,205.493C194.304,208.921 188.545,198.416 187.9,197.24C187.173,190.606 189.345,191.18 197.882,179.823C198.015,179.638 197.925,179.667 199.398,177.419C200.378,176.106 213.708,161.795 224.972,147.888C234.575,136.031 246.583,151.344 244.189,156.382C244.071,156.629 243.688,157.436 242.265,159.209Z" style="fill:rgb(250,230,103);"/>
                <path d="M147.556,133.412C148.08,129.523 155.259,119.706 158.639,121.173C158.907,121.289 191.043,145.532 192.387,146.64C203.343,155.666 208.052,155.989 207.43,160.438C203.788,165.313 199.914,173.349 195.79,170.117C188.914,164.728 152.331,137.198 147.556,133.412Z" style="fill:rgb(251,232,104);"/>
                <path d="M230.177,179.228C230.48,179.123 231.345,180.198 232.5,178.423C234.688,175.061 235.472,175.746 237.5,172.334C245.051,159.626 262.19,171.104 254.182,181.064C252.272,183.403 238.624,200.12 230.041,210.076C224.876,216.068 217.241,212.058 213.996,205.112C212.927,199.918 217.43,197.188 217.5,196.63C217.568,196.085 216.332,195.95 216.4,195.405C217.541,194.145 226.624,184.118 230.177,179.228Z" style="fill:rgb(250,229,100);"/>
                <path d="M140.292,92.265C138.643,94.724 115.554,122.437 113.598,123.642C109.449,126.199 102.761,123.585 99.99,117.116C99.631,112.843 99.567,112.599 104.555,106.575C128.121,79.277 130.012,73.19 138.922,81.037C143.458,85.033 143.522,87.744 140.292,92.265Z" style="fill:rgb(250,230,100);"/>
                <path d="M147.556,133.412C152.331,137.198 188.914,164.728 195.79,170.117C199.914,173.349 203.788,165.313 207.43,160.438C209.615,165.942 206.527,165.506 203.755,170.716C202.017,173.983 198.445,173.949 199.398,177.419C197.925,179.667 198.015,179.638 197.882,179.823C197.255,179.387 160.45,151.366 157.197,148.889C146.116,140.452 141.457,139.069 147.556,133.412Z" style="fill:rgb(205,129,16);"/>
                <path d="M242.265,159.209C242.604,159.948 244.673,160.251 241.305,165.355C235.162,174.665 232.508,175.155 230.177,179.228C226.624,184.118 217.541,194.145 216.4,195.405C209.596,202.645 210.028,202.943 203.164,210.194C195.063,218.751 181.203,203.444 185.86,197.7C186.299,197.158 187.461,197.781 187.9,197.24C188.545,198.416 194.304,208.921 202.497,205.493C205.777,204.121 241.836,159.794 242.265,159.209Z" style="fill:rgb(198,129,11);"/>
                <path d="M166.32,101.305C166.604,101.833 167.429,101.914 167.712,102.442C168.72,104.32 160.973,111.385 153.792,121.75C152.648,123.401 148.487,126.655 131.067,148.141C129.838,149.658 124.049,159.433 113.887,151.027C113.094,150.371 106.804,145.169 109.995,138.769C110.285,138.187 111.595,138.871 111.885,138.289C113.961,145.077 122.467,149.077 126.51,147.523C129.957,146.199 165.899,101.917 166.32,101.305Z" style="fill:rgb(201,130,11);"/>
                <path d="M140.292,92.265C141.974,95.377 141.617,95.723 139.386,98.418C137.505,100.69 122.056,119.348 115.526,126.523C104.001,139.186 96.7,123.952 97.348,120.472C97.984,117.059 99.016,117.775 99.99,117.116C102.761,123.585 109.449,126.199 113.598,123.642C115.554,122.437 138.643,94.724 140.292,92.265Z" style="fill:rgb(198,127,10);"/>
                <path d="M254.182,181.064C254.405,181.642 255.119,181.937 255.342,182.515C255.872,183.891 250.042,190.816 249.491,191.471C247.56,193.116 247.638,193.123 246.045,195.154C241.545,200.891 238.931,201.063 241.567,204.013C240.88,204.14 240.192,204.267 239.504,204.393C239.119,204.662 238.527,203.771 238.141,204.04C235.741,205.711 224.944,229.579 212.731,214.332C209.457,210.244 212.183,205.674 212.486,205.472C212.916,205.185 213.565,205.399 213.996,205.112C217.241,212.058 224.876,216.068 230.041,210.076C238.624,200.12 252.272,183.403 254.182,181.064Z" style="fill:rgb(202,133,13);"/>
                <path d="M249.139,198.123C249.353,198.669 250.045,198.934 250.259,199.48C250.875,201.047 242.105,214.92 237.981,210.103C237.674,209.744 237.608,209.667 239.504,204.393C240.192,204.267 240.88,204.14 241.567,204.013C244.652,203.371 245.269,203.865 249.139,198.123Z" style="fill:rgb(200,128,11);"/>
                <path d="M104.92,97.035C105.254,94.126 104.923,93.847 108.726,89.699C108.968,89.434 110.689,87.558 112.461,87.211C118.083,86.111 112.887,92.27 112.609,92.6C109.524,96.257 107.294,101.084 104.92,97.035Z" style="fill:rgb(252,230,101);"/>
                <path d="M249.491,191.471C250.539,194.86 250.571,194.923 249.139,198.123C245.269,203.865 244.652,203.371 241.567,204.013C238.931,201.063 241.545,200.891 246.045,195.154C247.638,193.123 247.56,193.116 249.491,191.471Z" style="fill:rgb(253,225,102);"/>
            </g>
        </g>
    </g>
</svg>
