<?xml version="1.0" encoding="UTF-8" standalone="no"?>
<!DOCTYPE svg PUBLIC "-//W3C//DTD SVG 1.1//EN" "http://www.w3.org/Graphics/SVG/1.1/DTD/svg11.dtd">
<svg width="100%" height="100%" viewBox="0 0 100 100" version="1.1" xmlns="http://www.w3.org/2000/svg" xmlns:xlink="http://www.w3.org/1999/xlink" xml:space="preserve" xmlns:serif="http://www.serif.com/" style="fill-rule:evenodd;clip-rule:evenodd;stroke-linejoin:round;stroke-miterlimit:2;">
    <g transform="matrix(1.624189,0,0,1.624189,-30.397356,-23.088505)">
        <ellipse cx="49.5" cy="45" rx="24.5" ry="25" style="fill:rgb(185,185,185);"/>
    </g>
    <g transform="matrix(1.204189,0,0,1.204189,-13.527355,-0.188505)">
        <g transform="matrix(1.109276,0,0,1.109276,-2.153835,-8.239136)">
            <ellipse cx="49.5" cy="45" rx="24.5" ry="25" style="fill:rgb(114,114,114);"/>
        </g>
        <g transform="matrix(0.830434,0,0,0.830434,7.08141,1.81741)">
            <path d="M75,46L75,50C75,51.104 74.104,52 73,52L37,52C35.896,52 35,51.104 35,50L35,46C35,44.896 35.896,44 37,44L73,44C74.104,44 75,44.896 75,46Z" style="fill:white;"/>
        </g>
    </g>
</svg>
