<?xml version="1.0" encoding="UTF-8" standalone="no"?>
<!DOCTYPE svg PUBLIC "-//W3C//DTD SVG 1.1//EN" "http://www.w3.org/Graphics/SVG/1.1/DTD/svg11.dtd">
<svg width="100%" height="100%" viewBox="0 0 100 100" version="1.1" xmlns="http://www.w3.org/2000/svg" xmlns:xlink="http://www.w3.org/1999/xlink" xml:space="preserve" xmlns:serif="http://www.serif.com/" style="fill-rule:evenodd;clip-rule:evenodd;stroke-linejoin:round;stroke-miterlimit:2;">
    <g transform="matrix(1.624189,0,0,1.624189,-30.397356,-23.088505)">
        <ellipse cx="49.5" cy="45" rx="24.5" ry="25" style="fill:rgb(255,67,58);"/>
    </g>
    <g transform="matrix(1.204189,0,0,1.204189,-13.527355,-0.188505)">
        <g transform="matrix(1.109276,0,0,1.109276,-2.153835,-8.239136)">
            <ellipse cx="49.5" cy="45" rx="24.5" ry="25" style="fill:rgb(218,33,24);"/>
        </g>
        <g transform="matrix(0.784376,-0.784376,0.784376,0.784376,-19.799499,56.973599)">
            <path d="M73,34.75L73,38.25C73,39.216 72.216,40 71.25,40L40.75,40C39.784,40 39,39.216 39,38.25L39,34.75C39,33.784 39.784,33 40.75,33L71.25,33C72.216,33 73,33.784 73,34.75Z" style="fill:white;"/>
        </g>
        <g transform="matrix(-0.784376,-0.784376,-0.784376,0.784376,125.310104,56.973599)">
            <path d="M73,34.75L73,38.25C73,39.216 72.216,40 71.25,40L40.75,40C39.784,40 39,39.216 39,38.25L39,34.75C39,33.784 39.784,33 40.75,33L71.25,33C72.216,33 73,33.784 73,34.75Z" style="fill:white;"/>
        </g>
    </g>
</svg>
