<?xml version="1.0" encoding="UTF-8" standalone="no"?>
<!DOCTYPE svg PUBLIC "-//W3C//DTD SVG 1.1//EN" "http://www.w3.org/Graphics/SVG/1.1/DTD/svg11.dtd">
<svg width="100%" height="100%" viewBox="0 0 100 100" version="1.1" xmlns="http://www.w3.org/2000/svg" xmlns:xlink="http://www.w3.org/1999/xlink" xml:space="preserve" xmlns:serif="http://www.serif.com/" style="fill-rule:evenodd;clip-rule:evenodd;stroke-linejoin:round;stroke-miterlimit:2;">
    <g id="Master-Pau-Barbaro-Happy-Flame" serif:id="Master/Pau Barbaro/Happy Flame" transform="matrix(0.147273,0,0,0.14339,-29.172111,-18.328215)">
        <g id="Vector_3" transform="matrix(1.023792,0,0,1.023792,-21.176278,-18.135359)">
            <path d="M760.713,583.4C756.913,552 742.413,523.1 728.113,494.9C721.113,504.1 712.513,512 702.713,518.1C704.913,449.4 683.413,380.1 642.613,324.8C635.113,341.1 623.313,355.3 608.613,365.6C609.313,297 584.513,228.4 540.113,176C545.913,182.8 535.213,219.1 533.213,227.5C529.013,245.4 522.913,262.9 515.113,279.6C510.513,289.3 465.413,366.2 456.113,357.8C453.513,355.4 453.312,351.5 452.912,347.9C451.412,336.2 444.613,326.6 437.813,317.4C436.813,316.1 416.913,294.8 416.513,298.2C414.113,322.8 396.113,342.6 382.313,363.1C363.913,390.5 351.813,422.1 347.213,454.8C346.113,462.9 350.413,487.8 337.313,485.3C330.213,483.9 325.612,470 326.612,463.9C317.212,516.8 315.013,572.8 331.013,623.7C333.613,632.1 336.813,640.4 340.513,648.4C355.213,680.7 380.513,708.3 410.813,727C467.613,762 555.813,763.3 582.213,761.9C633.413,759.2 686.812,736.6 721.912,698.7C750.412,668 765.713,624.9 760.713,583.4Z" style="fill:rgb(36,77,190);fill-rule:nonzero;"/>
        </g>
        <g id="Vector_4" transform="matrix(1.023792,0,0,1.023792,-21.176278,-18.135359)">
            <path d="M708.112,574.3C692.312,580.5 689.612,593.1 679.912,604.2C673.612,597.4 681.212,586.9 682.312,579C688.012,539.1 670.312,499.6 649.112,465.3C640.012,450.6 628.012,429.5 635.512,411.5C625.612,411.4 619.312,421.7 613.412,428.2C604.112,438.4 594.412,446.8 581.312,451.9C553.912,462.5 563.012,442.2 563.412,424.5C563.912,401.9 551.612,373.9 530.312,363.8C525.112,391.3 516.912,409.9 498.112,430.5C481.012,449.1 460.712,474.9 455.412,500C452.312,493.5 449.912,486.3 448.912,479.2C447.012,466.8 446.712,454 445.012,441.5C439.012,475.8 404.712,501.6 403.812,536.5C403.512,550.7 410.312,567.5 408.012,580.9C391.312,575.5 387.212,552.6 368.412,548.5C370.412,563.1 372.412,577.6 374.412,592.2C376.612,608.4 379.012,625.2 385.712,640.2C401.812,676.1 426.612,708.5 461.812,726.8C510.312,752 562.912,760 613.712,738.2C644.112,725.2 667.812,699.3 682.812,669.8C697.812,640.3 704.812,607.2 708.112,574.3ZM371.612,548.8C371.712,549 371.812,549.2 371.612,548.8Z" style="fill:rgb(84,163,247);fill-rule:nonzero;"/>
        </g>
    </g>
</svg>
