<?xml version="1.0" encoding="UTF-8" standalone="no"?>
<!DOCTYPE svg PUBLIC "-//W3C//DTD SVG 1.1//EN" "http://www.w3.org/Graphics/SVG/1.1/DTD/svg11.dtd">
<svg width="100%" height="100%" viewBox="0 0 100 100" version="1.1" xmlns="http://www.w3.org/2000/svg" xmlns:xlink="http://www.w3.org/1999/xlink" xml:space="preserve" xmlns:serif="http://www.serif.com/" style="fill-rule:evenodd;clip-rule:evenodd;stroke-linejoin:round;stroke-miterlimit:2;">
    <g transform="matrix(0.534645,0,0,0.534645,-25.432855,-26.700316)">
        <path d="M151.96,232C132.214,234.772 114.904,229.503 99.782,217.831C86.163,207.319 77.341,193.293 74.066,176.193C73.269,172.029 73.063,167.702 73.045,163.448C72.95,140.624 73.156,117.796 72.893,94.974C72.826,89.105 75.822,85.687 80.14,83.039C84.657,80.27 89.51,80.894 93.902,83.496C98.358,86.136 102.562,89.204 107.129,92.255C115.386,81.349 123.475,70.563 131.679,59.865C137.533,52.232 149.001,52.681 154.808,60.374C168.562,78.597 182.115,96.991 196.449,114.752C209.898,131.416 215.44,150.22 212.847,171.058C209.178,200.54 186.726,225.789 157.179,231.045C155.584,231.329 154.001,231.68 151.96,232M171.556,165.26C170.277,162.376 169.464,159.148 167.633,156.672C161.413,148.259 154.96,140.008 148.341,131.903C144.572,127.288 140.274,127.791 136.551,132.699C130.827,140.243 125.114,147.797 119.274,155.251C110.711,166.181 111.015,182.679 120.078,192.583C131.329,204.877 146.247,207.306 159.023,198.546C170.497,190.68 174.891,179.776 171.556,165.26Z" style="fill:rgb(255,67,58);fill-rule:nonzero;"/>
    </g>
    <g transform="matrix(1.204189,0,0,1.204189,-8.883829,5.474898)">
        <ellipse cx="49.5" cy="45" rx="24.5" ry="25" style="fill:rgb(218,33,24);"/>
        <g transform="matrix(0.707107,-0.707107,0.707107,0.707107,-15.907377,58.788582)">
            <path d="M73,34.75L73,38.25C73,39.216 72.216,40 71.25,40L40.75,40C39.784,40 39,39.216 39,38.25L39,34.75C39,33.784 39.784,33 40.75,33L71.25,33C72.216,33 73,33.784 73,34.75Z" style="fill:white;"/>
        </g>
        <g transform="matrix(-0.707107,-0.707107,-0.707107,0.707107,114.907377,58.788582)">
            <path d="M73,34.75L73,38.25C73,39.216 72.216,40 71.25,40L40.75,40C39.784,40 39,39.216 39,38.25L39,34.75C39,33.784 39.784,33 40.75,33L71.25,33C72.216,33 73,33.784 73,34.75Z" style="fill:white;"/>
        </g>
    </g>
</svg>
