<svg clip-rule="evenodd" fill-rule="evenodd" stroke-linejoin="round" stroke-miterlimit="2" viewBox="0 0 489 489" xmlns="http://www.w3.org/2000/svg"><path d="m-9-9h511v511h-511z" fill="#ff3763"/><path d="m40.825736 98.771458h414.615487v304.437945h-414.615487z" fill="#efefef" stroke-width="2.899409"/><path d="m178.275 178.269c7.8-7.334 16.905-10.174 27.093-10.652 26.487-1.244 52.982-.373 79.472-.549 6.475-.043 12.98.221 19.381 1.49 17.517 3.475 29.144 16.045 29.947 33.793 1.469 32.463 1.561 64.965-.001 97.425-.927 19.265-15.111 33.438-34.431 34.403-32.455 1.62-64.956 1.657-97.41-.003-20.067-1.026-33.816-16.232-34.718-36.39-1.223-27.323-.432-54.648-.492-81.971-.013-6.114.226-12.293 1.399-18.39 1.394-7.247 4.379-13.588 9.76-19.156m111.959 32.915c-12.14-.048-19.397 5.015-23.328 16.383-2.449 7.081-4.812 14.192-7.183 21.301-2.458 7.37-3.429 7.845-10.218 4.615-7.67-3.649-15.221-7.564-23.004-10.95-3.495-1.521-4.777-3.766-4.764-7.282.022-6.165.078-12.333-.089-18.494-.134-4.953-2.384-6.828-7.352-6.473-8.914.636-16.342 3.506-20.782 12.162-2.666 5.199-3.07 7.894 1.091 12.087 17.836 17.969 35.719 35.893 53.739 53.677 5.344 5.273 10.847 5.011 16.286-.342 13.18-12.973 26.401-25.908 39.342-39.118 6.285-6.416 8.549-14.28 5.214-22.991-3.162-8.26-9.117-13.346-18.952-14.575z" fill="#ff3763" fill-rule="nonzero" transform="matrix(2.899409 0 0 2.899409 -483.967293 -484.009751)"/></svg>