<?xml version="1.0" encoding="UTF-8" standalone="no"?>
<!DOCTYPE svg PUBLIC "-//W3C//DTD SVG 1.1//EN" "http://www.w3.org/Graphics/SVG/1.1/DTD/svg11.dtd">
<svg width="100%" height="100%" viewBox="0 0 1200 1369" version="1.1" xmlns="http://www.w3.org/2000/svg" xmlns:xlink="http://www.w3.org/1999/xlink" xml:space="preserve" xmlns:serif="http://www.serif.com/" style="fill-rule:evenodd;clip-rule:evenodd;stroke-linejoin:round;stroke-miterlimit:2;">
    <g id="Master-Hero-Image-Health-App" serif:id="Master/Hero Image/Health App" transform="matrix(1.223035,0,0,1.223035,-246.837179,-353.90325)">
        <g id="Object" transform="matrix(0.79569,0,0,0.79569,216.274562,190.669623)">
            <g transform="matrix(1.140415,0,0,0.958036,-118.017705,214.357086)">
                <path d="M958,134.392L958,1288.608C958,1318.628 937.525,1343 912.306,1343L184.694,1343C159.475,1343 139,1318.628 139,1288.608L139,134.392C139,104.372 159.475,80 184.694,80L912.306,80C937.525,80 958,104.372 958,134.392Z" style="fill:rgb(237,242,255);"/>
            </g>
            <path id="Rectangle-" serif:id="Rectangle " d="M884.05,405.737L884.05,1383.077C884.05,1383.629 883.602,1384.077 883.05,1384.077L128.818,1384.077C128.266,1384.077 127.818,1383.629 127.818,1383.077L127.818,405.737C127.818,405.185 128.266,404.737 128.818,404.737L883.05,404.737C883.602,404.737 884.05,405.185 884.05,405.737Z" style="fill:white;"/>
            <path id="Combined-Shape" serif:id="Combined Shape" d="M598.372,252.34C598.372,265.68 595.546,278.36 590.46,289.814L533.417,289.814C544.93,281.357 552.403,267.721 552.403,252.34C552.403,226.676 531.598,205.871 505.934,205.871C480.27,205.871 459.466,226.676 459.466,252.34C459.466,267.721 466.939,281.357 478.452,289.814L421.408,289.814C416.323,278.36 413.497,265.68 413.497,252.34C413.497,201.288 454.882,159.902 505.934,159.902C556.986,159.902 598.372,201.288 598.372,252.34ZM421.408,289.814C435.785,322.195 468.223,344.777 505.934,344.777C543.646,344.777 576.083,322.195 590.46,289.814L693.308,289.814L693.308,474.69L318.561,474.69L318.561,289.814L421.408,289.814ZM478.452,289.814L533.417,289.814C525.72,295.468 516.217,298.808 505.934,298.808C495.652,298.808 486.149,295.468 478.452,289.814Z" style="fill:rgb(237,242,255);"/>
            <g id="Path-9" serif:id="Path 9" transform="matrix(0.966857,0,0,1,17.015762,0)">
                <rect x="211.684" y="616.798" width="535.23" height="19.987" style="fill:rgb(237,242,255);"/>
            </g>
            <g id="Path-9-" serif:id="Path 9 " transform="matrix(0.848293,0,0,1.034358,42.114007,-24.515089)">
                <rect x="211.684" y="703.536" width="535.23" height="19.986" style="fill:rgb(237,242,255);"/>
            </g>
            <g id="Path-9--" serif:id="Path 9  " transform="matrix(1.161783,0,0,1.0976,-24.246821,-79.003805)">
                <rect x="211.684" y="799.471" width="364.961" height="19.987" style="fill:rgb(237,242,255);"/>
            </g>
            <g id="Path-9--1" serif:id="Path 9  " transform="matrix(1.058476,0,0,1,-2.378316,87.973991)">
                <rect x="211.684" y="799.471" width="364.961" height="19.987" style="fill:rgb(237,242,255);"/>
            </g>
            <g id="Arrow" transform="matrix(0.705953,0,0,0.705953,59.076507,254.495362)">
                <path id="Path-9_3" serif:id="Path 9_3" d="M206.723,622.418C207.278,621.765 208.257,621.686 208.91,622.241C209.53,622.768 209.633,623.678 209.165,624.327L209.087,624.428L169.836,670.601C169.297,671.234 168.362,671.326 167.713,670.83L167.613,670.747L145.857,651.083C145.221,650.508 145.172,649.527 145.746,648.891C146.291,648.289 147.2,648.213 147.834,648.695L147.938,648.781L167.713,653.134L206.723,622.418Z" style="fill:rgb(48,48,48);fill-rule:nonzero;"/>
            </g>
            <g transform="matrix(0.557672,0,0,0.876982,103.633787,122.050756)">
                <g id="Path-9--_3" serif:id="Path 9  _3">
                    <rect x="211.684" y="982.144" width="590.214" height="19.986" style="fill:rgb(237,242,255);"/>
                </g>
            </g>
        </g>
        <g id="Arrow1" serif:id="Arrow" transform="matrix(0.56172,0,0,0.56172,263.281132,326.168965)">
            <path id="Path-9_31" serif:id="Path 9_3" d="M206.723,622.418C207.278,621.765 208.257,621.686 208.91,622.241C209.53,622.768 209.633,623.678 209.165,624.327L209.087,624.428L169.836,670.601C169.297,671.234 168.362,671.326 167.713,670.83L167.613,670.747L145.857,651.083C145.221,650.508 145.172,649.527 145.746,648.891C146.291,648.289 147.2,648.213 147.834,648.695L147.938,648.781L167.713,653.134L206.723,622.418Z" style="fill:rgb(48,48,48);fill-rule:nonzero;"/>
        </g>
        <g id="Arrow2" serif:id="Arrow" transform="matrix(0.56172,0,0,0.56172,263.281132,393.168965)">
            <path id="Path-9_32" serif:id="Path 9_3" d="M206.723,622.418C207.278,621.765 208.257,621.686 208.91,622.241C209.53,622.768 209.633,623.678 209.165,624.327L209.087,624.428L169.836,670.601C169.297,671.234 168.362,671.326 167.713,670.83L167.613,670.747L145.857,651.083C145.221,650.508 145.172,649.527 145.746,648.891C146.291,648.289 147.2,648.213 147.834,648.695L147.938,648.781L167.713,653.134L206.723,622.418Z" style="fill:rgb(48,48,48);fill-rule:nonzero;"/>
        </g>
        <g id="Arrow3" serif:id="Arrow" transform="matrix(0.56172,0,0,0.56172,263.281132,471.168965)">
            <path id="Path-9_33" serif:id="Path 9_3" d="M206.723,622.418C207.278,621.765 208.257,621.686 208.91,622.241C209.53,622.768 209.633,623.678 209.165,624.327L209.087,624.428L169.836,670.601C169.297,671.234 168.362,671.326 167.713,670.83L167.613,670.747L145.857,651.083C145.221,650.508 145.172,649.527 145.746,648.891C146.291,648.289 147.2,648.213 147.834,648.695L147.938,648.781L167.713,653.134L206.723,622.418Z" style="fill:rgb(48,48,48);fill-rule:nonzero;"/>
        </g>
    </g>
    <g id="Master-Pau-Barbaro-Happy-Flame" serif:id="Master/Pau Barbaro/Happy Flame" transform="matrix(1.223035,0,0,1.223035,232.592513,216.031027)">
        <path id="Vector" d="M617.412,695.099C613.112,690.399 607.612,686.399 602.212,683.099C586.912,673.699 570.312,665.799 552.612,662.699C534.912,659.599 515.912,661.299 500.212,669.999C484.512,678.699 472.512,694.899 471.112,712.899C469.612,733.499 484.312,756.699 506.312,756.899C507.512,756.899 508.412,757.399 509.012,758.099C509.712,758.199 510.412,758.299 511.112,758.399C512.612,758.699 514.212,758.799 515.712,758.999C514.212,759.299 512.712,759.499 511.212,759.699C512.012,762.299 512.212,765.699 512.212,770.299C511.812,801.399 511.212,832.599 510.712,863.699C510.712,865.299 510.612,866.999 510.112,868.499C509.012,871.399 506.312,873.3 503.612,874.9C495.012,880 485.612,883.999 478.112,890.799C470.712,897.499 465.512,907.999 468.512,917.599C488.112,915.599 507.212,909.099 524.012,898.799C525.512,897.899 527.112,896.799 528.112,895.299C529.212,893.499 529.412,891.299 529.512,889.099C530.912,862.099 531.712,788.899 531.012,760.399C539.212,760.899 547.512,760.899 555.812,760.399C558.712,760.199 561.612,759.999 564.512,759.699C563.112,763.699 563.212,767.999 563.312,772.299C564.112,811.499 564.812,850.7 565.612,889.9C565.612,891.3 565.712,892.7 566.312,893.9C567.112,895.3 568.512,896.2 569.912,896.9C576.012,900.4 618.012,924.499 622.912,916.199C625.312,912.099 615.412,895.699 612.612,892.599C606.312,885.599 598.012,880.399 588.812,878.199C586.312,877.599 583.312,876.899 582.212,874.599C581.712,873.599 581.712,872.399 581.712,871.199C581.912,848.799 582.112,826.499 582.312,804.099C582.412,790.499 577.012,754.899 587.012,743.699C591.012,739.299 597.112,744.999 602.312,742.099C614.012,735.599 625.512,724.899 624.812,711.599C624.612,705.299 621.612,699.799 617.412,695.099Z" style="fill:rgb(232,78,51);fill-rule:nonzero;"/>
        <path id="Vector_2" d="M589.212,735.8C587.412,731 585.212,726.4 581.812,722.6C574.312,714.2 560.812,713 550.312,712.9C538.812,712.8 526.312,714.5 516.412,720.6C511.012,724 507.712,728.5 507.412,735.1C507.312,737.5 507.512,739.9 507.712,742.4C508.212,742.6 508.712,742.9 509.012,743.3C509.712,743.4 510.412,743.5 511.112,743.6C512.612,743.9 514.212,743.999 515.712,744.199C514.212,744.499 512.712,744.7 511.212,744.9C512.012,747.5 512.212,750.899 512.212,755.499C512.012,769.599 511.812,783.7 511.512,797.8C518.012,796.3 524.612,794.999 531.212,793.699C531.312,774.499 531.312,756.699 531.012,745.699C539.212,746.199 547.512,746.199 555.812,745.699C558.712,745.499 561.612,745.299 564.512,744.999C563.112,748.999 563.212,753.3 563.312,757.6C563.512,767.7 563.712,777.7 563.912,787.8C570.012,786.7 576.112,785.499 582.212,784.199C581.512,769.699 578.812,747.2 587.712,737.3C588.212,736.7 588.712,736.3 589.212,735.8Z" style="fill:rgb(178,59,47);fill-rule:nonzero;"/>
        <path id="Vector_3" d="M760.713,583.4C756.913,552 742.413,523.1 728.113,494.9C721.113,504.1 712.513,512 702.713,518.1C704.913,449.4 683.413,380.1 642.613,324.8C635.113,341.1 623.313,355.3 608.613,365.6C609.313,297 584.513,228.4 540.113,176C545.913,182.8 535.213,219.1 533.213,227.5C529.013,245.4 522.913,262.9 515.113,279.6C510.513,289.3 465.413,366.2 456.113,357.8C453.513,355.4 453.312,351.5 452.912,347.9C451.412,336.2 444.613,326.6 437.813,317.4C436.813,316.1 416.913,294.8 416.513,298.2C414.113,322.8 396.113,342.6 382.313,363.1C363.913,390.5 351.813,422.1 347.213,454.8C346.113,462.9 350.413,487.8 337.313,485.3C330.213,483.9 325.612,470 326.612,463.9C317.212,516.8 315.013,572.8 331.013,623.7C333.613,632.1 336.813,640.4 340.513,648.4C355.213,680.7 380.513,708.3 410.813,727C467.613,762 555.813,763.3 582.213,761.9C633.413,759.2 686.812,736.6 721.912,698.7C750.412,668 765.713,624.9 760.713,583.4Z" style="fill:rgb(232,78,51);fill-rule:nonzero;"/>
        <path id="Vector_4" d="M708.112,574.3C692.312,580.5 689.612,593.1 679.912,604.2C673.612,597.4 681.212,586.9 682.312,579C688.012,539.1 670.312,499.6 649.112,465.3C640.012,450.6 628.012,429.5 635.512,411.5C625.612,411.4 619.312,421.7 613.412,428.2C604.112,438.4 594.412,446.8 581.312,451.9C553.912,462.5 563.012,442.2 563.412,424.5C563.912,401.9 551.612,373.9 530.312,363.8C525.112,391.3 516.912,409.9 498.112,430.5C481.012,449.1 460.712,474.9 455.412,500C452.312,493.5 449.912,486.3 448.912,479.2C447.012,466.8 446.712,454 445.012,441.5C439.012,475.8 404.712,501.6 403.812,536.5C403.512,550.7 410.312,567.5 408.012,580.9C391.312,575.5 387.212,552.6 368.412,548.5C370.412,563.1 372.412,577.6 374.412,592.2C376.612,608.4 379.012,625.2 385.712,640.2C401.812,676.1 426.612,708.5 461.812,726.8C510.312,752 562.912,760 613.712,738.2C644.112,725.2 667.812,699.3 682.812,669.8C697.812,640.3 704.812,607.2 708.112,574.3ZM371.612,548.8C371.712,549 371.812,549.2 371.612,548.8Z" style="fill:rgb(255,182,85);fill-rule:nonzero;"/>
        <g id="Group">
            <g id="Vector_8" transform="matrix(1.442613,0,0,1.442613,-267.986212,-283.983802)">
                <path d="M616.212,641.6C628.312,641.9 641.612,632.7 641.612,616.4C641.612,600.4 628.612,591.3 616.512,591.3C602.412,591.3 591.312,602.9 591.312,616.4C591.312,630.4 602.912,641.6 616.212,641.6Z" style="fill:rgb(242,233,221);fill-rule:nonzero;"/>
            </g>
            <g id="Vector_10" transform="matrix(1.442613,0,0,1.442613,-267.986212,-283.983802)">
                <path d="M616.212,641.6C602.912,641.6 591.312,630.5 591.312,616.3C591.312,602.8 602.512,591.2 616.512,591.2C628.612,591.2 641.612,600.3 641.612,616.3C641.712,632.7 628.412,641.8 616.212,641.6ZM609.712,610.6C609.712,616.5 614.212,622 621.212,622.3C627.512,622.6 633.212,616.8 633.012,610.5C632.812,604.2 627.512,599.1 621.312,599.1C616.312,599 610.012,602.7 609.712,610.6ZM605.012,617.4C603.812,617.8 602.812,617.9 601.912,618.4C598.212,620.4 597.612,624.1 598.912,627.3C600.012,630 603.212,631.6 606.012,631.1C608.812,630.6 611.112,628.4 611.512,625.7C612.012,622.7 610.712,619.7 608.012,618.4C607.212,617.9 606.212,617.7 605.012,617.4Z" style="fill:rgb(95,33,48);fill-rule:nonzero;"/>
            </g>
            <g id="Vector_9" transform="matrix(1.442613,0,0,1.442613,-197.986212,-283.983802)">
                <path d="M497.712,613C498.312,600.2 487.512,587.8 472.912,587.7C460.012,587.6 448.012,597.1 447.312,613C448.212,629.7 460.912,638.2 472.612,638.1C487.412,638 498.012,625.9 497.712,613Z" style="fill:rgb(242,233,221);fill-rule:nonzero;"/>
            </g>
            <g id="Vector_11" transform="matrix(1.442613,0,0,1.442613,-197.986212,-283.983802)">
                <path d="M497.712,613C498.012,625.9 487.412,638 472.612,638.1C460.912,638.2 448.212,629.7 447.312,613C448.012,597.2 460.012,587.6 472.912,587.7C487.512,587.8 498.212,600.1 497.712,613ZM488.912,607.2C489.312,601 483.712,595.5 477.512,595.5C472.312,595.5 465.912,599.7 465.912,607.1C465.912,613.5 471.012,618.8 477.412,618.9C483.612,618.9 488.912,613.6 488.912,607.2ZM451.612,620.6C451.912,623.1 452.812,625 454.712,626.3C456.012,627.2 457.512,627.7 459.212,627.5C462.512,627.1 465.112,624.3 465.212,621.1C465.312,617.7 462.912,614.7 459.412,614C457.712,613.7 456.212,614.2 454.912,615C453.012,616.3 452.012,618.2 451.612,620.6Z" style="fill:rgb(95,33,48);fill-rule:nonzero;"/>
            </g>
        </g>
        <path id="Vector_23" d="M560.312,632.899C559.912,632.899 559.312,633.099 558.612,633.499C557.912,633.999 557.612,634.999 557.412,635.899C556.512,639.799 555.412,643.699 555.112,647.599C554.812,651.199 553.812,654.799 552.012,657.899C550.212,661.099 548.712,663.999 544.212,663.099C541.712,662.599 539.612,660.799 538.112,658.799C536.612,656.699 535.712,654.299 534.812,651.899C533.512,648.399 532.112,644.999 530.812,641.499C530.012,639.299 530.612,635.999 528.712,634.499C524.112,630.799 526.212,640.399 526.512,641.999C528.412,651.299 532.612,668.899 544.912,669.499C551.912,668.399 555.812,662.399 558.012,656.199C559.212,652.899 560.312,649.799 561.012,646.499C561.412,645.199 563.512,633.199 560.312,632.899Z" style="fill:rgb(95,33,48);fill-rule:nonzero;"/>
    </g>
</svg>
