<?xml version="1.0" encoding="UTF-8" standalone="no"?>
<!DOCTYPE svg PUBLIC "-//W3C//DTD SVG 1.1//EN" "http://www.w3.org/Graphics/SVG/1.1/DTD/svg11.dtd">
<svg width="100%" height="100%" viewBox="0 0 2053 1500" version="1.1" xmlns="http://www.w3.org/2000/svg" xmlns:xlink="http://www.w3.org/1999/xlink" xml:space="preserve" xmlns:serif="http://www.serif.com/" style="fill-rule:evenodd;clip-rule:evenodd;stroke-linejoin:round;stroke-miterlimit:2;">
    <g id="Master-Character-Standing" serif:id="Master/Character/Standing" transform="matrix(1.160434,0,0,1.160434,308.637532,154.934661)">
        <g id="Master-Character-Standing1" serif:id="Master/Character/Standing">
            <g id="Full-Body" serif:id="Full Body">
                <g id="Full-Body-Big-Weights" serif:id="Full Body/Big Weights">
                    <path id="Body" d="M774.453,314.192C776.47,305.966 787.966,297.431 793.538,307.387C797.211,315.034 797.545,324.048 796.451,332.402C796.758,353.082 788.581,372.63 780.151,391.138C778.532,443.476 731.171,500.52 675.433,491.814C647.8,489.064 624.693,474.262 601.782,459.585C593.848,454.502 585.937,449.434 577.871,444.888C573.857,465.023 571.949,488.131 571.205,499.275L702.414,894.326L773.231,965.761L672,965.761L518.778,586.299L515.44,582.588L508.384,590.435L355,965.761L245.939,965.761L322.214,894.326L452.711,512.892L453.036,511.951L456.057,503.108L457.115,503.108C457.632,493.993 458.738,465.102 453.543,444.888C445.483,449.432 437.579,454.496 429.651,459.575C406.739,474.255 383.626,489.064 355.98,491.814C300.243,500.52 252.89,443.476 251.262,391.138C250.397,389.238 249.524,387.35 248.654,385.471C241.058,369.044 233.739,353.22 234.007,334.663C234.212,320.451 234.228,316.503 235.409,312.941C235.947,311.319 236.726,309.778 237.875,307.387C243.447,297.431 254.944,305.966 256.961,314.192C257.232,301.088 270.673,296.743 275.287,310.228C285.734,290.96 296.398,312.129 293.694,325.008C309.177,331.094 306.746,346.341 304.252,361.987C302.429,373.423 300.572,385.071 305.652,393.509C324.425,454.831 390.549,416.055 427.093,394.626L427.438,394.423C465.736,371.463 494.391,365.779 515.711,368.911C537.031,365.779 565.687,371.463 603.975,394.423L604.343,394.639C640.9,416.071 706.992,454.818 725.762,393.509C730.842,385.071 728.985,373.423 727.161,361.987C724.667,346.341 722.236,331.094 737.72,325.008C735.015,312.129 745.679,290.96 756.127,310.228C760.74,296.743 774.181,301.088 774.453,314.192Z" style="fill:rgb(159,232,235);"/>
                    <path id="Lines" d="M275.259,310.307C275.201,309.81 274.778,309.424 274.265,309.424C273.713,309.424 273.265,309.872 273.265,310.424L273.265,319.714L273.272,319.831C273.33,320.328 273.753,320.714 274.265,320.714C274.818,320.714 275.265,320.266 275.265,319.714L275.265,310.424L275.259,310.307ZM255.987,313.122C256.5,313.122 256.923,313.509 256.981,314.006L256.987,314.122L256.987,323.413C256.987,323.965 256.54,324.413 255.987,324.413C255.474,324.413 255.052,324.027 254.994,323.529L254.987,323.413L254.987,314.122C254.987,313.57 255.435,313.122 255.987,313.122Z" style="fill:rgb(48,48,48);"/>
                    <path id="pants" d="M672,781.964L601.675,804.25L514.408,604.358L426.229,811L355,791.061L454.483,508L514.399,510.383L574.315,508L672,781.964Z" style="fill:rgb(48,48,48);fill-rule:nonzero;"/>
                    <g id="Shoe">
                        <path id="Path" d="M222.263,956.579C222.263,960.525 226.46,973.804 226.46,973.804L246.193,973.826L254.224,971.239L260.632,973.842L276.898,973.86C276.898,973.86 281.569,971.978 283.88,971.981C286.192,971.983 289.561,973.874 289.561,973.874L305.42,973.892C305.42,973.892 309.799,971.236 312.263,971.239C314.726,971.242 317.568,973.905 317.568,973.905L331.287,973.92C331.287,973.92 336.245,971.978 338.724,971.981C341.203,971.984 345.335,973.936 345.335,973.936L357.795,973.95L367.797,971.981L374.221,973.968L385.763,973.981L385.198,945.981L223.124,946.281C222.95,947.222 222.263,952.632 222.263,956.579Z" style="fill:rgb(235,235,235);fill-rule:nonzero;"/>
                        <path id="Path-" serif:id="Path " d="M313.706,873.261C320.882,874.142 326.474,900.988 326.474,900.988C326.474,900.988 324.634,919.129 317.948,925.204C311.262,931.279 287.137,937.657 287.137,937.657L225.71,940.055L277.707,915.886C277.707,915.886 292.731,899.824 296.109,897.259C305.697,889.983 306.53,872.38 313.706,873.261Z" style="fill:rgb(250,250,250);"/>
                        <path id="Path_2" d="M222,949.319L385.763,952.012L388.193,920.481L385.763,890.849L324.158,890.849C324.158,890.849 316.583,907.957 312.263,916.47C307.943,924.984 282.544,930.309 282.544,930.309L285.013,936.289L225.71,940.055C225.507,940.353 225.312,940.659 225.12,940.972C223.734,943.261 222.658,945.922 222.053,949.029C222.034,949.127 222.015,949.221 222,949.319Z" style="fill:rgb(254,223,82);"/>
                        <path id="simbol" d="M322.76,912.981C322.76,912.981 317.562,933.127 336.177,927.098C354.793,921.07 373.559,912.981 373.559,912.981C373.559,912.981 346.168,933.308 339.023,936.648C331.877,939.989 313.455,943.033 312.103,934.117C310.752,925.202 322.76,912.981 322.76,912.981Z" style="fill:rgb(250,250,250);"/>
                        <path id="Laces" d="M290.751,903.24L290.647,903.187C290.19,902.984 289.642,903.153 289.382,903.595C289.102,904.071 289.261,904.684 289.737,904.964L304.833,913.843L304.937,913.896C305.394,914.098 305.942,913.93 306.202,913.488C306.482,913.012 306.323,912.399 305.847,912.119L290.751,903.24ZM284.33,909.818L284.433,909.872L296.854,917.33C297.328,917.614 297.481,918.229 297.197,918.702C296.933,919.142 296.384,919.306 295.928,919.099L295.825,919.045L283.404,911.587C282.93,911.303 282.777,910.688 283.061,910.215C283.305,909.809 283.791,909.638 284.223,909.777L284.33,909.818ZM278.366,914.99L278.467,915.048L289.544,922.255C290.007,922.556 290.138,923.175 289.837,923.638C289.557,924.068 289.003,924.212 288.555,923.989L288.453,923.931L277.377,916.725C276.914,916.423 276.783,915.804 277.084,915.341C277.363,914.911 277.918,914.767 278.366,914.99Z" style="fill:rgb(48,48,48);"/>
                        <g id="dots">
                            <circle id="Oval" cx="252.769" cy="931.551" r="1" style="fill:rgb(48,48,48);"/>
                            <circle id="Oval_2" cx="243.204" cy="935.664" r="1" style="fill:rgb(48,48,48);"/>
                            <circle id="Oval_3" cx="263.238" cy="932.551" r="1" style="fill:rgb(48,48,48);"/>
                            <circle id="Oval_4" cx="265.939" cy="925.093" r="1" style="fill:rgb(48,48,48);"/>
                            <circle id="Oval_5" cx="275.922" cy="931.551" r="1" style="fill:rgb(48,48,48);"/>
                        </g>
                    </g>
                    <g id="Shoe-Copy" serif:id="Shoe Copy">
                        <path id="Path_3" d="M803.737,956.579C803.737,960.525 799.54,973.804 799.54,973.804L779.807,973.826L771.776,971.239L765.368,973.842L749.102,973.86C749.102,973.86 744.431,971.978 742.12,971.981C739.808,971.983 736.439,973.874 736.439,973.874L720.58,973.892C720.58,973.892 716.201,971.236 713.737,971.239C711.274,971.242 708.432,973.905 708.432,973.905L694.713,973.92C694.713,973.92 689.755,971.978 687.276,971.981C684.797,971.984 680.665,973.936 680.665,973.936L668.205,973.95L658.203,971.981L651.779,973.968L640.237,973.981L640.802,945.981L802.876,946.281C803.05,947.222 803.737,952.632 803.737,956.579Z" style="fill:rgb(235,235,235);fill-rule:nonzero;"/>
                        <path id="Path-_2" serif:id="Path _2" d="M712.294,873.261C705.118,874.142 699.526,900.988 699.526,900.988C699.526,900.988 701.366,919.129 708.052,925.204C714.738,931.279 738.863,937.657 738.863,937.657L800.29,940.055L748.293,915.886C748.293,915.886 733.269,899.824 729.891,897.259C720.303,889.983 719.47,872.38 712.294,873.261Z" style="fill:rgb(250,250,250);"/>
                        <path id="Path_4" d="M804,949.319L640.237,952.012L637.807,920.481L640.237,890.849L701.842,890.849C701.842,890.849 709.417,907.957 713.737,916.47C718.057,924.984 743.456,930.309 743.456,930.309L740.987,936.289L800.29,940.055C800.493,940.353 800.688,940.659 800.88,940.972C802.266,943.261 803.342,945.922 803.947,949.029C803.966,949.127 803.985,949.221 804,949.319Z" style="fill:rgb(254,223,82);"/>
                        <path id="simbol_2" d="M703.24,912.981C703.24,912.981 708.438,933.127 689.823,927.098C671.207,921.07 652.441,912.981 652.441,912.981C652.441,912.981 679.832,933.308 686.977,936.648C694.123,939.989 712.545,943.033 713.897,934.117C715.248,925.202 703.24,912.981 703.24,912.981Z" style="fill:rgb(250,250,250);"/>
                        <path id="Laces_2" d="M735.249,903.24L735.353,903.187C735.81,902.984 736.358,903.153 736.618,903.595C736.898,904.071 736.739,904.684 736.263,904.964L721.167,913.843L721.063,913.896C720.606,914.098 720.058,913.93 719.798,913.488C719.518,913.012 719.677,912.399 720.153,912.119L735.249,903.24ZM741.67,909.818L741.567,909.872L729.146,917.33C728.672,917.614 728.519,918.229 728.803,918.702C729.067,919.142 729.616,919.306 730.072,919.099L730.175,919.045L742.596,911.587C743.07,911.303 743.223,910.688 742.939,910.215C742.695,909.809 742.209,909.638 741.777,909.777L741.67,909.818ZM747.634,914.99L747.533,915.048L736.456,922.255C735.993,922.556 735.862,923.175 736.163,923.638C736.443,924.068 736.997,924.212 737.445,923.989L737.547,923.931L748.623,916.725C749.086,916.423 749.217,915.804 748.916,915.341C748.637,914.911 748.082,914.767 747.634,914.99Z" style="fill:rgb(48,48,48);"/>
                        <g id="dots_2">
                            <g id="Oval_6" transform="matrix(-1,0,0,1,773.231,931.551)">
                                <circle cx="0" cy="0" r="1" style="fill:rgb(48,48,48);"/>
                            </g>
                            <g id="Oval_7" transform="matrix(-1,0,0,1,782.796,935.664)">
                                <circle cx="0" cy="0" r="1" style="fill:rgb(48,48,48);"/>
                            </g>
                            <g id="Oval_8" transform="matrix(-1,0,0,1,762.762,932.551)">
                                <circle cx="0" cy="0" r="1" style="fill:rgb(48,48,48);"/>
                            </g>
                            <g id="Oval_9" transform="matrix(-1,0,0,1,760.061,925.093)">
                                <circle cx="0" cy="0" r="1" style="fill:rgb(48,48,48);"/>
                            </g>
                            <g id="Oval_10" transform="matrix(-1,0,0,1,750.078,931.551)">
                                <circle cx="0" cy="0" r="1" style="fill:rgb(48,48,48);"/>
                            </g>
                        </g>
                    </g>
                    <path id="Tshirt" d="M582.578,515.674L444.584,521.914C444.584,521.914 444.584,378.343 466.577,373.705C488.571,369.066 468.452,431.803 511.048,431.803C553.645,431.803 539.673,368.93 555.313,373.209C571.769,377.696 582.578,515.674 582.578,515.674Z" style="fill:rgb(232,232,232);"/>
                    <g id="Group-4" serif:id="Group 4">
                        <path id="Mask" d="M753.147,361.025L810.655,361.025L810.655,383.125L846.163,383.125L846.163,314.37L810.655,314.37L810.655,336.47L776.375,336.47C776.375,336.47 774.248,344.829 770.973,344.829C763.934,344.829 755.856,342.728 755.856,342.728C755.856,342.728 758.063,346.118 757.318,351.145C756.574,356.172 753.147,361.025 753.147,361.025Z" style="fill:rgb(194,165,249);"/>
                        <g id="Rectangle" transform="matrix(-1,0,0,1,841.235,314.353)">
                            <rect x="0" y="0" width="6.265" height="69" style="fill:rgb(232,232,232);"/>
                        </g>
                        <g id="Rectangle_2" transform="matrix(-1,0,0,1,822.271,314.353)">
                            <rect x="0" y="0" width="6.265" height="69" style="fill:rgb(232,232,232);"/>
                        </g>
                    </g>
                    <g id="Group-3" serif:id="Group 3">
                        <path id="Mask_2" d="M727.819,361.271L709.671,361.271L709.671,383.37L674.163,383.37L674.163,314.616L709.671,314.616L709.671,336.715L727.819,336.715C727.819,336.715 726.359,346.03 726.571,348.993C727.448,361.22 727.819,361.271 727.819,361.271Z" style="fill:rgb(194,165,249);"/>
                        <g id="Rectangle_3" transform="matrix(-1,0,0,1,703.969,314.353)">
                            <rect x="0" y="0" width="6.265" height="69" style="fill:rgb(232,232,232);"/>
                        </g>
                        <g id="Rectangle_4" transform="matrix(-1,0,0,1,685.004,314.353)">
                            <rect x="0" y="0" width="6.265" height="69" style="fill:rgb(232,232,232);"/>
                        </g>
                    </g>
                    <g id="Group-2" serif:id="Group 2">
                        <path id="Mask_3" d="M276.016,359.412L218.508,359.412L218.508,381.512L183,381.512L183,312.757L218.508,312.757L218.508,334.857L252.788,334.857C252.788,334.857 254.915,343.216 258.19,343.216C265.229,343.216 273.307,341.115 273.307,341.115C273.307,341.115 271.1,344.505 271.845,349.532C272.589,354.559 276.016,359.412 276.016,359.412Z" style="fill:rgb(194,165,249);"/>
                        <rect id="Rectangle_5" x="187.928" y="312.74" width="6.265" height="69" style="fill:rgb(232,232,232);"/>
                        <rect id="Rectangle_6" x="206.893" y="312.74" width="6.265" height="69" style="fill:rgb(232,232,232);"/>
                    </g>
                    <g id="Group">
                        <path id="Mask_4" d="M301.344,359.658L319.492,359.658L319.492,381.757L355,381.757L355,313.003L319.492,313.003L319.492,335.102L301.344,335.102C301.344,335.102 302.804,344.417 302.592,347.38C301.715,359.607 301.344,359.658 301.344,359.658Z" style="fill:rgb(194,165,249);"/>
                        <rect id="Rectangle_7" x="325.195" y="312.74" width="6.265" height="69" style="fill:rgb(232,232,232);"/>
                        <rect id="Rectangle_8" x="344.159" y="312.74" width="6.265" height="69" style="fill:rgb(232,232,232);"/>
                    </g>
                </g>
            </g>
            <g id="Head" transform="matrix(1,0,0,1,440,252)">
                <g id="Head-Short-Messy" serif:id="Head/Short Messy">
                    <path id="Path1" serif:id="Path" d="M37.5,63.044C37.55,56.654 42.03,49.783 48.07,52.423C48.48,52.334 48.89,52.273 49.3,52.254C49.3,6.053 111.85,15.543 112.21,61.904C112.21,100.243 80.16,120.073 59.56,97.674C53.12,90.344 51.84,81.463 49.44,72.754C42.7,73.004 38.09,69.213 37.5,63.044Z" style="fill:rgb(159,232,235);fill-rule:nonzero;"/>
                    <path id="Shape" d="M95.562,41.089C96.402,41.149 97.252,41.249 98.132,41.359C98.097,41.294 98.065,41.229 98.032,41.164L98.032,41.164L98.032,41.163C97.999,41.099 97.967,41.034 97.932,40.969C98.272,41.119 98.592,41.269 98.932,41.429C98.922,41.439 98.922,41.449 98.922,41.459C98.932,41.459 98.942,41.461 98.952,41.464C98.962,41.466 98.972,41.469 98.982,41.469C102.222,41.879 105.402,41.409 108.552,40.559C112.812,39.409 116.642,37.829 119.062,34.699C119.372,31.829 119.192,28.889 118.562,26.079C117.642,21.929 115.712,17.909 112.792,14.789C110.002,11.819 105.682,8.999 101.442,9.249C98.39,9.43 95.947,11.287 93.534,13.122C90.475,15.447 87.464,17.736 83.322,16.529C81.969,16.137 80.694,15.535 79.418,14.932L79.418,14.932C78.448,14.474 77.478,14.016 76.472,13.649C73.772,12.659 71.062,12.589 68.232,12.959C62.972,13.639 58.232,15.879 54.392,19.539C52.092,21.739 50.042,24.299 48.482,27.119C48.398,27.009 48.316,26.898 48.233,26.786C48.058,26.55 47.882,26.312 47.692,26.089C46.052,24.089 43.592,21.709 40.762,22.309C39.032,22.679 37.932,24.189 37.132,25.649C36.762,26.319 37.062,27.339 37.882,27.499C39.222,27.769 40.432,28.119 41.532,28.969C42.652,29.829 43.442,30.999 44.032,32.269C44.202,32.639 44.602,32.819 45.012,32.839C43.732,34.319 42.632,35.909 41.712,37.629C41.602,37.709 41.492,37.809 41.392,37.949C40.022,39.919 38.912,42.129 39.042,44.589C39.073,45.234 39.183,45.873 39.292,46.512C39.465,47.516 39.636,48.518 39.502,49.539C39.342,50.799 38.872,52.019 38.312,53.189C37.992,53.499 37.692,53.839 37.422,54.229C36.732,55.229 36.292,56.389 36.052,57.619C35.312,59.179 34.682,60.789 34.392,62.509C33.032,70.519 37.152,83.309 47.152,82.749C48.482,82.679 49.782,82.379 51.022,81.899C51.104,81.867 51.193,81.833 51.289,81.796C52.415,81.365 54.37,80.615 54.702,79.509C54.975,78.594 54.694,77.285 54.475,76.269C54.438,76.096 54.403,75.931 54.372,75.779C54.102,74.409 53.682,73.079 53.082,71.809C53.002,71.639 52.852,71.489 52.672,71.369C52.792,70.909 52.632,70.359 52.162,70.029C51.532,69.589 50.632,69.429 49.882,69.319C48.962,69.179 48.052,69.079 47.122,68.999C45.969,68.89 44.806,68.821 43.653,68.752L43.602,68.749C40.292,66.349 38.052,62.469 38.772,58.379C38.772,58.367 38.776,58.355 38.778,58.346C38.78,58.339 38.782,58.333 38.782,58.329C39.024,57.844 39.273,57.362 39.522,56.879L39.522,56.879C39.808,56.325 40.094,55.77 40.372,55.209C41.292,54.329 42.512,53.849 43.852,53.529C44.112,53.639 44.402,53.659 44.692,53.609C47.072,55.889 50.212,57.459 53.472,56.859C55.152,57.929 57.012,58.489 58.852,57.659C61.362,56.519 62.182,53.219 62.552,50.709C62.792,50.069 62.922,49.349 62.952,48.579C68.332,37.089 83.452,36.119 94.882,39.829C95.087,40.179 95.277,40.543 95.465,40.904L95.562,41.089ZM40.862,24.959C40.912,24.929 40.992,24.889 41.042,24.869C41.059,24.863 41.085,24.855 41.114,24.845L41.115,24.845C41.186,24.822 41.277,24.793 41.312,24.779L41.462,24.749C41.507,24.749 41.552,24.746 41.597,24.744C41.642,24.741 41.687,24.739 41.732,24.739C41.782,24.739 41.852,24.749 41.892,24.759C42.002,24.779 42.102,24.799 42.212,24.839C42.262,24.854 42.312,24.871 42.362,24.889C42.412,24.906 42.462,24.924 42.512,24.939C42.542,24.954 42.569,24.966 42.597,24.979C42.624,24.991 42.652,25.004 42.682,25.019C42.912,25.139 43.142,25.279 43.362,25.429C43.415,25.469 43.478,25.518 43.54,25.567C43.571,25.591 43.602,25.616 43.632,25.639C42.752,25.299 41.832,25.069 40.862,24.959ZM61.012,27.619C60.102,28.719 59.252,29.889 58.482,31.109C59.432,29.879 60.422,28.679 61.432,27.509C61.362,27.529 61.292,27.546 61.222,27.564C61.152,27.581 61.082,27.599 61.012,27.619Z"/>
                    <path id="hear" d="M45.925,57.954C45.728,57.494 45.212,57.245 44.721,57.391C44.191,57.549 43.89,58.106 44.048,58.635L45.143,62.311C44.632,62.111 44.07,61.968 43.46,61.882L43.344,61.873C42.843,61.861 42.402,62.226 42.331,62.734C42.255,63.281 42.636,63.786 43.183,63.863C44.674,64.072 45.635,64.685 46.174,65.721C46.281,65.939 46.463,66.105 46.677,66.197C46.812,66.254 46.96,66.283 47.111,66.276C47.223,66.272 47.335,66.249 47.444,66.205C47.552,66.161 47.649,66.1 47.733,66.027C47.846,65.927 47.933,65.804 47.99,65.669C48.048,65.534 48.076,65.387 48.069,65.236C48.066,65.148 48.051,65.061 48.023,64.975L45.965,58.064L45.925,57.954Z" style="fill:rgb(48,48,48);"/>
                </g>
            </g>
            <g id="Expression" transform="matrix(1,0,0,1,488,295)">
                <g id="Expression-Smile-" serif:id="Expression/Smile ">
                    <path id="Mouth" d="M41.65,41.764C41.689,41.758 41.689,41.758 41.625,41.761C41.523,41.77 41.43,41.793 41.352,41.806C41.171,41.828 41.005,41.84 40.828,41.837C40.662,41.849 40.471,41.856 40.294,41.854C40.166,41.859 39.796,41.8 39.699,41.848C39.788,41.849 39.862,41.861 39.95,41.862C39.837,41.857 39.71,41.862 39.586,41.843L39.562,41.839L39.523,41.845C39.321,41.839 39.119,41.832 38.907,41.811C38.519,41.788 38.134,41.739 37.734,41.702C36.131,41.511 34.555,41.147 32.987,40.734C32.525,40.611 31.91,40.817 31.538,41.087C31.152,41.368 30.819,41.872 30.755,42.356C30.701,42.854 30.782,43.386 31.108,43.805C31.212,43.948 31.352,44.021 31.474,44.129C33.364,47.151 37.408,48.956 40.761,47.221C41.877,46.65 42.968,45.836 43.657,44.767C44.095,44.077 44.264,43.166 43.706,42.457C43.192,41.781 42.449,41.6 41.65,41.764Z" style="fill:rgb(48,48,48);fill-rule:nonzero;"/>
                    <path id="Nose" d="M47.073,34.35C46.953,33.85 46.783,33.37 46.663,32.87C46.543,32.37 46.413,31.87 46.273,31.37C46.003,30.41 45.713,29.46 45.433,28.5C44.863,26.57 44.303,24.62 44.083,22.62C44.023,22.1 43.673,21.65 43.113,21.65C42.633,21.65 42.083,22.1 42.143,22.62C42.563,26.39 43.993,29.91 44.853,33.58C44.033,33.58 43.223,33.56 42.403,33.53C41.303,33.5 40.013,33.42 38.993,33.88C38.293,34.2 38.473,35.38 39.213,35.54C39.753,35.65 40.313,35.62 40.853,35.66C41.443,35.7 42.023,35.73 42.613,35.76C43.853,35.82 45.103,35.83 46.343,35.65C46.913,35.56 47.193,34.84 47.073,34.35Z" style="fill:rgb(48,48,48);fill-rule:nonzero;"/>
                </g>
            </g>
            <g id="Beard">
            </g>
        </g>
    </g>
    <g id="Master-Character-Standing2" serif:id="Master/Character/Standing" transform="matrix(1.160434,0,0,1.160434,-286.664937,154.912763)">
        <g id="Master-Character-Standing3" serif:id="Master/Character/Standing">
            <g id="Full-Body1" serif:id="Full Body">
                <g id="Full-Body-Yoga" serif:id="Full Body/Yoga">
                    <path id="Shape1" serif:id="Shape" d="M623.376,972.069C618.68,964.713 577.195,925.117 566.102,914.586C564.383,912.953 563.505,910.636 563.708,908.273C567.184,867.884 597.632,513.812 597.577,509.41C599.185,472.546 603.354,405.104 604.482,390.955C604.51,390.651 604.547,390.355 604.602,390.06C619.845,311.441 671.462,246.362 553.475,118.733C552.893,118.105 552.403,117.385 552.061,116.601C542.614,95.29 538.861,71.643 533.047,49.113C532.732,47.913 532.178,46.769 531.318,45.873C528.203,42.615 523.877,44.369 520.161,47.867C516.519,51.291 510.538,50.544 508.024,46.224C499.187,31.023 487.031,73.83 481.356,86.244C473.933,100.929 455.982,120.394 444.399,131.627C354.587,209.729 368.98,328.627 413.729,382.658C414.782,383.922 415.429,385.463 415.55,387.106C417.361,411.344 421.392,468.467 422.584,485.468C422.797,488.421 421.308,491.236 418.748,492.732C391.904,508.459 245.881,597.784 281.589,660.251C311.012,711.716 469.32,712.289 481.467,730.167C481.614,730.388 505.334,801.965 504.585,807.761C498.974,851.252 503.799,939.544 504.409,964.962C504.511,969.106 507.83,972.448 511.989,972.568C538.297,973.343 625.641,975.613 623.376,972.069ZM399.013,632.627C437.448,611.657 466.834,577.239 503.272,553.205C504.28,593.908 504.067,626.286 504.604,666.998C468.645,651.64 433.279,651.483 399.013,632.627ZM568.524,316.13C514.217,447.017 375.838,286.447 479.793,159.722C492.605,141.272 508.939,124.455 512.618,101.353C514.901,137.571 541.939,164.217 554.011,197.066C567.258,234.649 578.59,276.497 568.524,316.13Z" style="fill:rgb(255,156,138);"/>
                    <path id="Combined-Shape" serif:id="Combined Shape" d="M510.606,50.61C508.683,49.337 505.743,50.26 504.06,51.524C502.054,53.038 500.713,55.29 499.705,57.551C497.237,63.052 496.109,69.106 495.147,75.022C495.016,75.831 494.897,76.644 494.778,77.456C494.553,78.99 494.327,80.526 494.019,82.046C493.696,83.671 496.183,84.363 496.506,82.729C496.927,80.624 497.255,78.502 497.582,76.38L497.582,76.38C497.952,73.981 498.322,71.583 498.827,69.208C499.437,66.356 500.159,63.504 501.157,60.763C501.952,58.585 502.951,56.296 504.541,54.551C505.216,53.813 506.048,53.139 506.917,52.844C507.614,52.612 508.218,52.66 508.866,52.711C509.225,52.739 509.597,52.768 510.005,52.752C511.198,52.724 511.568,51.247 510.606,50.61ZM523.68,86.846C523.421,82.083 522.978,76.555 520.296,72.447C519.15,70.694 517.014,68.626 514.73,68.82C514.749,65.876 514.813,62.932 514.998,59.987C515.1,58.326 512.52,58.335 512.419,59.987C512.224,63.061 512.16,66.153 512.151,69.245C511.901,68.986 511.522,68.839 511.069,68.931C509.741,69.214 508.486,70.384 507.51,71.294L507.481,71.321C506.575,72.161 505.78,73.121 505.087,74.136C503.7,76.185 502.821,78.567 502.304,80.975C501.492,84.803 501.46,88.727 501.429,92.634C501.418,94.022 501.407,95.407 501.36,96.786C501.305,98.447 503.894,98.447 503.94,96.786C503.985,95.421 503.991,94.048 503.997,92.672C504.012,89.18 504.027,85.672 504.671,82.249C505.087,80.025 505.78,77.856 506.982,75.927C507.574,74.986 508.267,74.127 509.072,73.352C509.48,72.956 509.962,72.613 510.444,72.27C511.063,71.829 511.683,71.388 512.151,70.832C512.153,72.942 512.177,75.055 512.201,77.167L512.201,77.167C512.334,88.986 512.468,100.801 508.914,112.218C507.694,116.149 506.02,120.072 503.413,123.302C502.378,124.585 504.199,126.422 505.244,125.13C509.164,120.275 511.337,114.248 512.678,108.157C513.288,111.212 513.963,114.257 514.702,117.294C515.248,119.555 515.821,121.816 516.422,124.068C516.557,124.581 516.681,125.113 516.807,125.653C517.218,127.415 517.648,129.257 518.512,130.769C519.02,131.664 520.481,131.277 520.463,130.243C520.436,128.574 519.918,126.85 519.417,125.184C519.234,124.575 519.054,123.974 518.9,123.385C518.308,121.133 517.735,118.872 517.19,116.611C516.089,112.033 515.1,107.437 514.296,102.794C514.231,102.407 514.037,102.148 513.778,102.01C514.943,93.842 514.906,85.6 514.795,77.358C514.767,75.336 514.749,73.324 514.739,71.303C514.854,71.344 514.968,71.382 515.081,71.421C515.61,71.601 516.127,71.776 516.607,72.134C517.217,72.586 517.717,73.186 518.123,73.823C519.242,75.576 519.825,77.616 520.25,79.637C521.239,84.372 521.295,89.282 521.239,94.1C521.232,94.929 521.213,95.756 521.194,96.583L521.194,96.584C521.168,97.764 521.141,98.944 521.147,100.127C521.147,101.788 523.736,101.788 523.726,100.127C523.72,98.631 523.741,97.136 523.763,95.641C523.804,92.71 523.846,89.78 523.68,86.846ZM530.311,66.548C530.907,69.023 531.504,71.503 531.955,74.007C531.999,74.252 532.044,74.502 532.091,74.759C532.534,77.182 533.063,80.076 532.344,82.388C531.928,83.689 529.884,83.477 529.912,82.055C529.917,81.658 529.93,81.265 529.942,80.872C529.974,79.861 530.005,78.859 529.912,77.828C529.755,76.195 529.468,74.579 529.135,72.974C528.794,71.316 528.395,69.671 527.996,68.026C527.648,66.593 527.3,65.16 526.99,63.716C526.849,63.057 526.725,62.38 526.601,61.697C526.212,59.568 525.814,57.382 524.827,55.502C523.569,53.102 520.379,52.964 519.316,55.631C518.715,57.163 516.219,56.489 516.829,54.948C517.948,52.133 520.777,50.241 523.828,51.33C526.435,52.262 527.508,54.764 528.211,57.237C528.645,58.776 528.962,60.342 529.278,61.906C529.488,62.94 529.697,63.974 529.94,64.999C530.063,65.515 530.187,66.032 530.311,66.548Z" style="fill:rgb(48,48,48);"/>
                    <path id="short" d="M569.313,865.921L502.572,865.921L496.771,567.81L418.611,623.591L471.683,636.486L442.117,716.366C442.117,716.366 269.309,706.725 265.985,644.531C262.661,582.337 426.408,487 426.408,487L604.06,477.535L569.313,865.921Z" style="fill:rgb(45,103,248);"/>
                    <path id="Path2" serif:id="Path" d="M621.113,521.059L386.438,508.5C386.438,508.5 408.081,474.737 408.081,426.694C408.081,378.651 375.577,316.79 375.577,316.79L450.5,300.184C450.5,300.184 479.572,375.694 531.431,359.086C546.411,354.289 567.595,293.306 567.595,293.306L629,316.79C629,316.79 615.483,383.23 614.133,416.05C612.783,448.87 621.113,521.059 621.113,521.059Z" style="fill:rgb(255,194,223);fill-rule:nonzero;"/>
                    <g id="shapes">
                        <path id="Path_21" serif:id="Path_2" d="M407.101,557.885L425.669,567.378L446.155,560.129L464.292,551.122L448.6,531.803L425.669,530.378L407.101,557.885Z" style="fill:rgb(255,194,223);"/>
                        <path id="Path_31" serif:id="Path_3" d="M540.65,609.17L543.006,623.59L558.51,618.105L572.235,611.289L560.36,596.669L543.006,595.59L540.65,609.17Z" style="fill:rgb(255,194,223);"/>
                        <path id="Path_41" serif:id="Path_4" d="M557.068,530.378L553.146,547.473L569.016,555.378L585.477,547.203L585.477,533.947L557.068,530.378Z" style="fill:rgb(124,180,255);"/>
                        <path id="Path_5" d="M549.519,716.737L549.519,730.491L563.367,723.614L563.367,712.462L549.519,716.737Z" style="fill:rgb(124,180,255);"/>
                        <path id="Path_6" d="M521.279,775.669L539.299,784.683L553.147,777.806L541.165,763.055L521.279,775.669Z" style="fill:rgb(48,48,48);"/>
                        <path id="Path_7" d="M343.71,586.576L361.729,595.591L375.578,588.713L363.596,573.962L343.71,586.576Z" style="fill:rgb(48,48,48);"/>
                        <path id="Path_8" d="M359.644,679.861L377.663,688.876L391.511,681.999L379.529,667.248L359.644,679.861Z" style="fill:rgb(48,48,48);"/>
                        <path id="Path_9" d="M508.782,665.11L526.802,674.125L540.65,667.248L528.668,652.497L508.782,665.11Z" style="fill:rgb(48,48,48);"/>
                        <path id="Path_10" d="M303,653.207L321.019,662.222L334.868,655.345L322.886,640.594L303,653.207Z" style="fill:rgb(255,194,223);"/>
                        <path id="Path_11" d="M419.055,659.575L421.432,674.125L437.074,668.59L450.923,661.713L438.941,646.962L421.432,645.874L419.055,659.575Z" style="fill:rgb(255,194,223);"/>
                        <path id="Path_12" d="M510.863,840.366L525.041,847.614L540.683,842.08L554.532,835.203L542.55,820.452L525.041,819.363L510.863,840.366Z" style="fill:rgb(255,194,223);"/>
                        <path id="Path_13" d="M305.086,602.713L305.086,616.468L318.934,609.591L312.01,607.453L305.086,602.713Z" style="fill:rgb(194,165,249);"/>
                        <path id="Path_14" d="M556.442,649.556L556.442,663.31L570.291,656.433L563.367,654.296L556.442,649.556Z" style="fill:rgb(194,165,249);"/>
                        <path id="Path_15" d="M549.518,796.29L543.241,803.167L549.518,810.044L556.443,801.029L549.518,796.29Z" style="fill:rgb(232,232,232);"/>
                        <path id="Path_16" d="M375.254,626.84L368.977,633.717L375.254,640.594L382.178,631.579L375.254,626.84Z" style="fill:rgb(232,232,232);"/>
                        <path id="Path_17" d="M514.355,547.025L508.078,553.902L514.355,560.779L521.279,551.764L514.355,547.025Z" style="fill:rgb(232,232,232);"/>
                        <path id="Path_18" d="M517.792,705.585L511.515,712.462L517.792,719.339L524.716,710.325L517.792,705.585Z" style="fill:rgb(232,232,232);"/>
                    </g>
                </g>
            </g>
            <g id="Head1" serif:id="Head" transform="matrix(1,0,0,1,440,252)">
                <g id="Head-Short-Messy1" serif:id="Head/Short Messy">
                    <path id="Path3" serif:id="Path" d="M37.5,63.044C37.55,56.654 42.03,49.783 48.07,52.423C48.48,52.334 48.89,52.273 49.3,52.254C49.3,6.053 111.85,15.543 112.21,61.904C112.21,100.243 80.16,120.073 59.56,97.674C53.12,90.344 51.84,81.463 49.44,72.754C42.7,73.004 38.09,69.213 37.5,63.044Z" style="fill:rgb(255,156,138);fill-rule:nonzero;"/>
                    <path id="Shape2" serif:id="Shape" d="M95.562,41.089C96.402,41.149 97.252,41.249 98.132,41.359C98.097,41.294 98.065,41.229 98.032,41.164L98.032,41.164L98.032,41.163C97.999,41.099 97.967,41.034 97.932,40.969C98.272,41.119 98.592,41.269 98.932,41.429C98.922,41.439 98.922,41.449 98.922,41.459C98.932,41.459 98.942,41.461 98.952,41.464C98.962,41.466 98.972,41.469 98.982,41.469C102.222,41.879 105.402,41.409 108.552,40.559C112.812,39.409 116.642,37.829 119.062,34.699C119.372,31.829 119.192,28.889 118.562,26.079C117.642,21.929 115.712,17.909 112.792,14.789C110.002,11.819 105.682,8.999 101.442,9.249C98.39,9.43 95.947,11.287 93.534,13.122C90.475,15.447 87.464,17.736 83.322,16.529C81.969,16.137 80.694,15.535 79.418,14.932L79.418,14.932C78.448,14.474 77.478,14.016 76.472,13.649C73.772,12.659 71.062,12.589 68.232,12.959C62.972,13.639 58.232,15.879 54.392,19.539C52.092,21.739 50.042,24.299 48.482,27.119C48.398,27.009 48.316,26.898 48.233,26.786C48.058,26.55 47.882,26.312 47.692,26.089C46.052,24.089 43.592,21.709 40.762,22.309C39.032,22.679 37.932,24.189 37.132,25.649C36.762,26.319 37.062,27.339 37.882,27.499C39.222,27.769 40.432,28.119 41.532,28.969C42.652,29.829 43.442,30.999 44.032,32.269C44.202,32.639 44.602,32.819 45.012,32.839C43.732,34.319 42.632,35.909 41.712,37.629C41.602,37.709 41.492,37.809 41.392,37.949C40.022,39.919 38.912,42.129 39.042,44.589C39.073,45.234 39.183,45.873 39.292,46.512C39.465,47.516 39.636,48.518 39.502,49.539C39.342,50.799 38.872,52.019 38.312,53.189C37.992,53.499 37.692,53.839 37.422,54.229C36.732,55.229 36.292,56.389 36.052,57.619C35.312,59.179 34.682,60.789 34.392,62.509C33.032,70.519 37.152,83.309 47.152,82.749C48.482,82.679 49.782,82.379 51.022,81.899C51.104,81.867 51.193,81.833 51.289,81.796C52.415,81.365 54.37,80.615 54.702,79.509C54.975,78.594 54.694,77.285 54.475,76.269C54.438,76.096 54.403,75.931 54.372,75.779C54.102,74.409 53.682,73.079 53.082,71.809C53.002,71.639 52.852,71.489 52.672,71.369C52.792,70.909 52.632,70.359 52.162,70.029C51.532,69.589 50.632,69.429 49.882,69.319C48.962,69.179 48.052,69.079 47.122,68.999C45.969,68.89 44.806,68.821 43.653,68.752L43.602,68.749C40.292,66.349 38.052,62.469 38.772,58.379C38.772,58.367 38.776,58.355 38.778,58.346C38.78,58.339 38.782,58.333 38.782,58.329C39.024,57.844 39.273,57.362 39.522,56.879L39.522,56.879C39.808,56.325 40.094,55.77 40.372,55.209C41.292,54.329 42.512,53.849 43.852,53.529C44.112,53.639 44.402,53.659 44.692,53.609C47.072,55.889 50.212,57.459 53.472,56.859C55.152,57.929 57.012,58.489 58.852,57.659C61.362,56.519 62.182,53.219 62.552,50.709C62.792,50.069 62.922,49.349 62.952,48.579C68.332,37.089 83.452,36.119 94.882,39.829C95.087,40.179 95.277,40.543 95.465,40.904L95.562,41.089ZM40.862,24.959C40.912,24.929 40.992,24.889 41.042,24.869C41.059,24.863 41.085,24.855 41.114,24.845L41.115,24.845C41.186,24.822 41.277,24.793 41.312,24.779L41.462,24.749C41.507,24.749 41.552,24.746 41.597,24.744C41.642,24.741 41.687,24.739 41.732,24.739C41.782,24.739 41.852,24.749 41.892,24.759C42.002,24.779 42.102,24.799 42.212,24.839C42.262,24.854 42.312,24.871 42.362,24.889C42.412,24.906 42.462,24.924 42.512,24.939C42.542,24.954 42.569,24.966 42.597,24.979C42.624,24.991 42.652,25.004 42.682,25.019C42.912,25.139 43.142,25.279 43.362,25.429C43.415,25.469 43.478,25.518 43.54,25.567C43.571,25.591 43.602,25.616 43.632,25.639C42.752,25.299 41.832,25.069 40.862,24.959ZM61.012,27.619C60.102,28.719 59.252,29.889 58.482,31.109C59.432,29.879 60.422,28.679 61.432,27.509C61.362,27.529 61.292,27.546 61.222,27.564C61.152,27.581 61.082,27.599 61.012,27.619Z"/>
                    <path id="hear1" serif:id="hear" d="M45.925,57.954C45.728,57.494 45.212,57.245 44.721,57.391C44.191,57.549 43.89,58.106 44.048,58.635L45.143,62.311C44.632,62.111 44.07,61.968 43.46,61.882L43.344,61.873C42.843,61.861 42.402,62.226 42.331,62.734C42.255,63.281 42.636,63.786 43.183,63.863C44.674,64.072 45.635,64.685 46.174,65.721C46.281,65.939 46.463,66.105 46.677,66.197C46.812,66.254 46.96,66.283 47.111,66.276C47.223,66.272 47.335,66.249 47.444,66.205C47.552,66.161 47.649,66.1 47.733,66.027C47.846,65.927 47.933,65.804 47.99,65.669C48.048,65.534 48.076,65.387 48.069,65.236C48.066,65.148 48.051,65.061 48.023,64.975L45.965,58.064L45.925,57.954Z" style="fill:rgb(48,48,48);"/>
                </g>
            </g>
            <g id="Expression1" serif:id="Expression" transform="matrix(1,0,0,1,488,295)">
                <g id="Expression-Happy" serif:id="Expression/Happy">
                    <path id="Mouth1" serif:id="Mouth" d="M45.804,42.793C45.634,41.853 37.094,40.993 31.724,39.543C31.064,39.363 30.124,39.763 30.004,40.523C29.304,45.143 31.974,49.303 37.214,50.203C41.674,50.973 46.184,44.893 45.804,42.793Z" style="fill:rgb(229,229,229);fill-rule:nonzero;"/>
                    <path id="Nose1" serif:id="Nose" d="M47.073,34.35C46.953,33.85 46.783,33.37 46.663,32.87C46.543,32.37 46.413,31.87 46.273,31.37C46.003,30.41 45.713,29.46 45.433,28.5C44.863,26.57 44.303,24.62 44.083,22.62C44.023,22.1 43.673,21.65 43.113,21.65C42.633,21.65 42.083,22.1 42.143,22.62C42.563,26.39 43.993,29.91 44.853,33.58C44.033,33.58 43.223,33.56 42.403,33.53C41.303,33.5 40.013,33.42 38.993,33.88C38.293,34.2 38.473,35.38 39.213,35.54C39.753,35.65 40.313,35.62 40.853,35.66C41.443,35.7 42.023,35.73 42.613,35.76C43.853,35.82 45.103,35.83 46.343,35.65C46.913,35.56 47.193,34.84 47.073,34.35Z" style="fill:rgb(48,48,48);fill-rule:nonzero;"/>
                </g>
            </g>
            <g id="Beard1" serif:id="Beard">
            </g>
        </g>
    </g>
    <g id="Master-Character-Standing4" serif:id="Master/Character/Standing" transform="matrix(-1.160434,0,0,1.160434,2267.77772,154.912612)">
        <g id="Master-Character-Standing5" serif:id="Master/Character/Standing">
            <g id="Full-Body2" serif:id="Full Body">
                <g id="Full-Body-Hoops" serif:id="Full Body/Hoops">
                    <path id="Body1" serif:id="Body" d="M774.413,313.211C776.433,304.972 787.95,296.424 793.532,306.395C797.211,314.054 797.546,323.081 796.45,331.447C796.758,352.158 788.566,371.736 780.121,390.272C778.499,442.689 731.054,499.819 675.217,491.099C647.535,488.346 624.387,473.521 601.435,458.822C593.487,453.731 585.563,448.656 577.481,444.103C578.188,449.409 579.6,455.345 581.036,461.381C585.651,480.773 590.514,501.206 573,505.181L702.246,894.217L747.458,974L670.678,974L518.283,585.726L514.94,582.01L507.872,589.869L353.092,974L272.09,974L321.37,894.217L452.099,512.209L452.425,511.266L454.773,504.396C440.435,499.004 445.017,479.735 449.379,461.394C450.815,455.353 452.228,449.413 452.933,444.103C444.859,448.653 436.941,453.725 428.999,458.812C406.046,473.514 382.892,488.345 355.197,491.099C299.36,499.819 251.924,442.689 250.293,390.272C249.426,388.369 248.551,386.479 247.68,384.596C240.07,368.145 232.739,352.297 233.007,333.712C233.213,319.479 233.228,315.525 234.412,311.957C234.951,310.334 235.731,308.79 236.882,306.395C242.464,296.424 253.981,304.972 256.002,313.211C256.273,300.086 269.739,295.736 274.36,309.241C284.826,289.944 295.509,311.144 292.8,324.042C308.311,330.137 305.876,345.408 303.377,361.077C301.55,372.53 299.69,384.196 304.779,392.647C323.585,454.061 389.827,415.226 426.436,393.765L426.781,393.562C465.147,370.567 493.854,364.875 515.212,368.011C536.569,364.875 565.276,370.567 603.633,393.562L604.001,393.778C640.623,415.242 706.832,454.048 725.635,392.647C730.724,384.196 728.864,372.53 727.037,361.077C724.538,345.408 722.103,330.137 737.614,324.042C734.905,311.144 745.588,289.944 756.054,309.241C760.675,295.736 774.141,300.086 774.413,313.211Z" style="fill:rgb(217,197,255);"/>
                    <path id="Lines1" serif:id="Lines" d="M275.259,310.307C275.201,309.81 274.778,309.424 274.266,309.424C273.713,309.424 273.266,309.872 273.266,310.424L273.266,319.714L273.272,319.831C273.324,320.278 273.671,320.635 274.113,320.702C269.898,321.489 265.534,322.733 261.935,325.137C258.61,327.355 256.155,330.755 256.427,334.919C256.572,337.183 257.269,339.501 258.918,341.128C260.377,342.573 262.334,343.246 264.336,343.492C268.168,343.955 272.036,343.019 275.76,342.001C274.682,346.055 275.669,350.446 277.363,354.264C279.356,358.746 282.708,363.473 287.057,365.928C288.461,366.701 289.611,364.664 288.307,363.783C284.583,361.255 281.748,357.601 279.827,353.546C277.997,349.673 276.847,344.746 278.93,340.737C279.429,339.773 278.604,338.573 277.499,338.873C277.12,338.977 276.712,339.093 276.278,339.216C270.478,340.858 260.267,343.749 259.045,335.637C257.822,327.464 268.249,324.437 274.346,323.237C278.296,322.464 282.382,322.073 286.413,322.237C288.044,322.301 288.035,319.764 286.413,319.701C282.526,319.54 278.586,319.912 274.756,320.586C275.06,320.414 275.266,320.088 275.266,319.714L275.266,310.424L275.259,310.307ZM755.619,312.307C755.677,311.81 756.099,311.424 756.612,311.424C757.165,311.424 757.612,311.872 757.612,312.424L757.612,321.714L757.606,321.831C757.554,322.278 757.207,322.635 756.765,322.702C760.98,323.489 765.344,324.733 768.943,327.137C772.268,329.355 774.723,332.755 774.451,336.919C774.306,339.183 773.609,341.501 771.96,343.128C770.501,344.573 768.544,345.246 766.542,345.492C762.71,345.955 758.842,345.019 755.118,344.001C756.196,348.055 755.209,352.446 753.515,356.264C751.522,360.746 748.17,365.473 743.821,367.928C742.417,368.701 741.267,366.664 742.571,365.783C746.294,363.255 749.13,359.601 751.051,355.546C752.881,351.673 754.031,346.746 751.948,342.737C751.449,341.773 752.274,340.573 753.379,340.873C753.758,340.977 754.166,341.093 754.6,341.216C760.4,342.858 770.611,345.749 771.833,337.637C773.056,329.464 762.629,326.437 756.532,325.237C752.582,324.464 748.496,324.073 744.464,324.237C742.834,324.301 742.843,321.764 744.464,321.701C748.352,321.54 752.292,321.912 756.122,322.586C755.818,322.414 755.612,322.088 755.612,321.714L755.612,312.424L755.619,312.307ZM782.052,338.901C780.675,340.101 779.135,340.192 777.404,340.173C776.027,340.155 775.692,342.337 777.069,342.619C779.479,343.092 782.016,342.328 783.837,340.701C787.18,337.71 788.058,332.601 788.52,328.364C788.967,324.343 788.896,320.305 788.826,316.267L788.826,316.265C788.821,315.959 788.815,315.652 788.81,315.346C788.792,313.71 786.255,313.71 786.283,315.346C786.291,315.967 786.303,316.588 786.315,317.209C786.341,318.606 786.368,320.004 786.355,321.401C786.328,325.746 786.129,330.246 784.743,334.401C784.19,336.064 783.384,337.737 782.052,338.901ZM774.89,315.122C774.378,315.122 773.955,315.508 773.897,316.006L773.89,316.122L773.89,325.413C773.89,325.965 774.338,326.413 774.89,326.413C775.403,326.413 775.826,326.027 775.884,325.529L775.89,325.413L775.89,316.122C775.89,315.57 775.443,315.122 774.89,315.122ZM248.826,336.901C250.203,338.101 251.743,338.192 253.473,338.173C254.85,338.155 255.186,340.337 253.809,340.619C251.399,341.092 248.862,340.328 247.041,338.701C243.698,335.71 242.82,330.601 242.358,326.364C241.911,322.342 241.982,318.304 242.052,314.265C242.057,313.959 242.063,313.652 242.068,313.346C242.086,311.71 244.622,311.71 244.595,313.346C244.587,313.967 244.575,314.588 244.563,315.209C244.537,316.606 244.51,318.004 244.523,319.401C244.55,323.746 244.749,328.246 246.135,332.401C246.688,334.064 247.494,335.737 248.826,336.901ZM255.988,313.122C256.5,313.122 256.923,313.508 256.981,314.006L256.988,314.122L256.988,323.413C256.988,323.965 256.54,324.413 255.988,324.413C255.475,324.413 255.052,324.027 254.994,323.529L254.988,323.413L254.988,314.122C254.988,313.57 255.435,313.122 255.988,313.122Z" style="fill:rgb(48,48,48);"/>
                    <path id="short1" serif:id="short" d="M446.623,525.535L379.329,706.84L462.356,718.479L509.774,600.526L559.699,718.479L648.701,706.84L586.623,525.535L446.623,525.535Z" style="fill:rgb(255,220,62);"/>
                    <path id="Combined-Shape1" serif:id="Combined Shape" d="M436.979,515.34L430.05,515.808C385.92,520.257 345.733,525.757 313.295,531.801L311.11,532.212C288.312,536.524 270.041,541.004 257.277,545.449C250.332,547.867 244.962,550.29 241.174,552.78C236.177,556.064 233.282,559.842 233.615,564.614C233.949,569.385 237.342,572.723 242.747,575.28C246.845,577.219 252.5,578.87 259.714,580.299L260.993,580.546C274.597,583.125 293.627,584.97 317.086,586.017L320.056,586.144C368.392,588.133 432.388,586.739 500.42,582.044L502.525,581.897C572.746,576.987 638.357,569.183 686.733,560.169L688.918,559.759C711.717,555.446 729.987,550.966 742.751,546.521C749.696,544.103 755.066,541.68 758.855,539.19C763.851,535.906 766.747,532.128 766.413,527.357C766.08,522.586 762.686,519.247 757.281,516.69C753.183,514.751 747.528,513.1 740.314,511.672L739.035,511.424C725.863,508.927 707.604,507.118 685.163,506.055L682.942,505.953C654.743,504.695 620.983,504.62 584.066,505.712L590.54,517.535C624.777,516.635 656.073,516.766 682.407,517.941L685.652,518.093C707.795,519.172 725.598,520.991 737.983,523.443L739.228,523.696C744.943,524.883 749.301,526.19 752.149,527.538L752.411,527.664C752.752,527.831 753.06,527.994 753.333,528.15L753.517,528.258L753.35,528.391C753.039,528.632 752.676,528.891 752.263,529.163C749.441,531.018 744.898,533.067 738.804,535.189C726.497,539.475 708.378,543.896 685.606,548.172L684.535,548.372C637.126,557.206 572.782,564.891 503.781,569.779L501.688,569.927C431.896,574.807 366.285,576.201 317.621,574.029L314.377,573.878C292.233,572.799 274.43,570.98 262.045,568.527L260.8,568.275C255.085,567.087 250.728,565.78 247.879,564.433L247.617,564.307C247.276,564.139 246.969,563.976 246.695,563.82L246.51,563.712L246.678,563.579C246.99,563.338 247.352,563.079 247.765,562.807C250.587,560.953 255.13,558.903 261.224,556.781C273.531,552.495 291.65,548.074 314.422,543.799L315.493,543.598C347.596,537.616 387.463,532.161 431.283,527.745L436.979,515.34Z" style="fill:rgb(127,203,206);"/>
                    <path id="tshirt" d="M425.751,555.975L601.492,546.492L595.619,466.876L618.414,477.148L635.775,403.436C635.775,403.436 574.698,359.182 515.439,359.182C456.18,359.182 382.605,403.436 382.605,403.436L419.698,477.148L438.991,466.876L425.751,555.975Z" style="fill:rgb(45,103,248);"/>
                    <g id="shoe">
                        <path id="Path-2" serif:id="Path 2" d="M394.147,868.463L326.453,866L301.995,894.768L237.594,921.223L210.275,934.516L205,945.885L402,954L398.293,898.719L394.147,868.463Z" style="fill:rgb(250,250,250);"/>
                        <g id="Shoe1" serif:id="Shoe">
                            <path id="Path4" serif:id="Path" d="M204.307,955.323C204.307,959.559 209.233,973.81 209.233,973.81L408.902,973.81L402.448,943.949L205.319,944.271C205.114,945.281 204.307,951.087 204.307,955.323Z" style="fill:rgb(235,235,235);fill-rule:nonzero;"/>
                            <path id="Combined" d="M372.323,868.023C362.952,876.194 364.456,887.195 367.988,892.222C375.595,903.056 389.111,900.724 389.111,900.724C389.279,901.041 398.544,898.087 398.544,898.087L398.804,897.994L396.626,866.211C396.599,865.832 396.286,865.532 395.902,865.536C393.278,865.545 383.4,865.691 372.931,867.124C372.695,867.158 372.636,867.35 372.57,867.562C372.519,867.725 372.465,867.9 372.323,868.023ZM205.441,945.228L336.984,944.054L330.099,936.313C321.991,925.865 298.184,932.015 298.184,932.015L289.202,918.331L275.96,923.049L278.837,930.026L209.762,934.42C209.526,934.767 209.299,935.124 209.076,935.49L209.076,935.494C207.461,938.16 206.208,941.264 205.503,944.89C205.481,945.004 205.459,945.114 205.441,945.228ZM364.795,944.271L364.575,942.931C363.985,935.132 377.749,924.904 388.86,916.648C393.115,913.485 396.982,910.612 399.503,908.276L401.767,941.238L402.513,943.949L364.795,944.271Z" style="fill:rgb(255,220,62);"/>
                            <path id="Path_22" serif:id="Path_2" d="M398.709,896.643C398.709,896.643 366.802,911.253 341.82,914.799C330.839,916.355 314.417,915.081 310.607,913.59C310.607,913.59 316.516,923.798 331.338,928.702C347.972,934.205 399.69,911.013 399.69,911.013L398.709,896.643Z" style="fill:rgb(45,103,248);"/>
                            <path id="Combined-Shape_2" serif:id="Combined Shape_2" d="M241.354,922.885C242.721,922.885 242.725,925.015 241.354,925.015C239.987,925.011 239.982,922.885 241.354,922.885ZM232.371,924.301C233.738,924.301 233.743,926.43 232.371,926.43C231.004,926.43 231,924.301 232.371,924.301ZM238.047,927.612C239.414,927.612 239.418,929.738 238.047,929.738C236.675,929.738 236.675,927.612 238.047,927.612ZM223.86,928.084C225.227,928.084 225.231,930.214 223.86,930.214C222.493,930.214 222.489,928.084 223.86,928.084Z" style="fill:rgb(48,48,48);"/>
                            <path id="Combined-Shape_3" serif:id="Combined Shape_3" d="M336.379,897.166C336.259,896.938 335.994,896.834 335.756,896.908L335.668,896.945L334.532,897.537L333.315,898.164L332.223,898.722C330.548,899.575 328.768,900.468 326.912,901.385C319.854,904.871 312.792,908.17 305.955,911.158C303.699,912.144 301.493,913.085 299.339,913.979L298.473,914.335L290.095,900.423C289.993,900.253 289.808,900.159 289.62,900.168L289.525,900.18L289.433,900.211L288.617,900.563C288.353,900.678 288.234,900.978 288.333,901.236L288.374,901.321L296.66,915.077L296.086,915.31L294.952,915.764L293.829,916.209L292.716,916.644C291.185,917.24 289.688,917.807 288.223,918.347L287.13,918.746L285.452,919.347L284.363,919.728L276.266,906.274C276.165,906.106 275.983,906.013 275.796,906.019L275.703,906.03L275.611,906.059L274.782,906.403C274.513,906.514 274.39,906.817 274.49,907.078L274.532,907.163L282.489,920.364L281.815,920.59C277.925,921.88 274.373,922.91 271.173,923.676L270.493,923.835L270.147,923.914L262.829,911.768C262.729,911.603 262.551,911.509 262.367,911.513L262.275,911.522L262.184,911.549L261.35,911.875C261.076,911.983 260.948,912.289 261.048,912.554L261.09,912.64L268.14,924.342L267.863,924.397C261.245,925.688 256.494,925.617 253.77,924.192L253.559,924.077L253.361,923.958L247.764,916.873C247.624,916.695 247.392,916.631 247.188,916.697L247.102,916.733L247.022,916.786L246.33,917.332C246.127,917.493 246.073,917.773 246.191,917.994L246.243,918.074L251.985,925.344L252.109,925.458L252.169,925.497C255.404,927.624 261.056,927.803 269.105,926.13C268.024,926.914 267.321,928.188 267.321,929.626C267.321,932.009 269.253,933.942 271.637,933.942C274.021,933.942 275.954,932.009 275.954,929.626C275.954,927.501 274.418,925.735 272.397,925.376C275.189,924.683 278.23,923.799 281.519,922.728L282.422,922.431L283.33,922.128C283.854,921.953 284.393,921.77 284.951,921.576L286.095,921.175L287.019,920.846C289.079,920.108 291.213,919.309 293.419,918.451C297.628,916.814 302.073,914.971 306.732,912.934C312.56,910.387 318.55,907.615 324.566,904.692L326.572,903.713L327.77,903.123L329.607,902.211C330.211,901.91 330.804,901.612 331.387,901.319L333.104,900.449L335.042,899.456L336.568,898.661C336.799,898.541 336.904,898.274 336.828,898.034L336.791,897.946L336.379,897.166ZM271.637,927.248C272.95,927.248 274.015,928.313 274.015,929.626C274.015,930.939 272.95,932.003 271.637,932.003C270.324,932.003 269.259,930.939 269.259,929.626C269.259,928.313 270.324,927.248 271.637,927.248ZM285.48,921.963C283.096,921.963 281.163,923.895 281.163,926.279C281.163,928.663 283.096,930.595 285.48,930.595C287.864,930.595 289.796,928.663 289.796,926.279C289.796,923.895 287.864,921.963 285.48,921.963ZM285.48,923.902C286.793,923.902 287.857,924.966 287.857,926.279C287.857,927.592 286.793,928.657 285.48,928.657C284.167,928.657 283.102,927.592 283.102,926.279C283.102,924.966 284.167,923.902 285.48,923.902ZM300.094,916.544C297.71,916.544 295.778,918.476 295.778,920.86C295.778,923.244 297.71,925.176 300.094,925.176C302.478,925.176 304.41,923.244 304.41,920.86C304.41,918.476 302.478,916.544 300.094,916.544ZM300.094,918.482C301.407,918.482 302.472,919.547 302.472,920.86C302.472,922.173 301.407,923.237 300.094,923.237C298.781,923.237 297.716,922.173 297.716,920.86C297.716,919.547 298.781,918.482 300.094,918.482ZM299.062,862.696L298.758,862.711L298.617,862.722C293.942,863.138 291.559,869.78 292.727,877.866C292.94,879.337 293.58,881.476 294.626,884.27L294.964,885.158L295.274,885.95L295.525,886.58L295.785,887.222L296.143,888.092L296.671,889.349C296.761,889.561 296.852,889.774 296.944,889.987C295.878,888.563 294.729,887.202 293.506,885.93C291.853,884.208 290.119,882.706 288.311,881.439L286.98,880.513C286.381,880.102 285.97,879.831 285.527,879.554L285.072,879.273L284.454,878.903C282.237,877.602 280.221,876.734 278.336,876.301C273.907,875.282 270.532,876.781 268.552,880.848C266.386,885.299 271.244,890.805 279.321,893.765C280.867,894.333 283.361,894.835 286.765,895.282L287.744,895.406L288.582,895.506C290.549,895.733 292.692,895.936 294.952,896.112L296.642,896.237L297.784,896.314L298.777,896.375L299.863,896.432L299.915,896.546C300.076,896.885 300.518,896.946 300.767,896.693L300.83,896.617L301.268,895.97L301.489,895.63L301.636,895.394L301.901,894.959L302.253,894.355C303.017,893.017 303.739,891.577 304.393,890.071C305.717,887.021 306.643,883.983 307.128,881.004L307.233,880.318L307.323,879.617L307.442,878.603L307.523,877.849C307.746,875.636 307.796,873.816 307.665,872.077C307.203,865.954 304.451,862.632 299.36,862.689L299.062,862.696ZM277.901,878.19C279.651,878.592 281.585,879.442 283.748,880.738L284.352,881.106C284.634,881.281 284.893,881.446 285.169,881.629L285.755,882.024L286.051,882.227L287.199,883.027C288.901,884.219 290.54,885.64 292.108,887.272C293.85,889.087 295.442,891.092 296.845,893.21C297.027,893.484 297.201,893.754 297.368,894.019L297.579,894.357L296.069,894.252C293.477,894.062 291.024,893.837 288.805,893.58L287.831,893.464C284.662,893.072 282.24,892.636 280.672,892.17L280.443,892.1L280.226,892.029L279.988,891.945C273.235,889.47 269.063,885.106 270.157,882.024L270.221,881.86L270.293,881.7L270.371,881.543C271.948,878.43 274.391,877.383 277.901,878.19ZM305.732,872.223C305.837,873.617 305.816,875.085 305.672,876.808L305.62,877.392L305.554,878.035L305.472,878.762L305.35,879.774C304.945,882.873 304.015,886.073 302.614,889.299C302.093,890.5 301.527,891.656 300.93,892.747L300.576,893.382L300.273,892.722C299.578,891.189 298.913,889.675 298.297,888.217L297.734,886.867L297.352,885.928L296.977,884.983L296.646,884.128C295.529,881.203 294.848,878.985 294.646,877.588C293.626,870.528 295.583,864.844 298.882,864.646C303.169,864.388 305.328,866.866 305.732,872.223Z" style="fill:rgb(48,48,48);"/>
                        </g>
                    </g>
                    <g id="shoe-copy" serif:id="shoe copy">
                        <path id="Path-2_2" serif:id="Path 2_2" d="M628.852,868.463L696.546,866L721.004,894.768L785.405,921.223L812.724,934.516L817.999,945.885L620.999,954L624.706,898.719L628.852,868.463Z" style="fill:rgb(250,250,250);"/>
                        <g id="Shoe_2">
                            <path id="Path_32" serif:id="Path_3" d="M818.692,955.323C818.692,959.559 813.766,973.81 813.766,973.81L614.097,973.81L620.552,943.949L817.68,944.271C817.885,945.281 818.692,951.087 818.692,955.323Z" style="fill:rgb(235,235,235);fill-rule:nonzero;"/>
                            <path id="Combined_2" d="M650.676,868.023C660.047,876.194 658.543,887.195 655.011,892.222C647.404,903.056 633.888,900.724 633.888,900.724C633.72,901.041 624.455,898.087 624.455,898.087L624.195,897.994L626.373,866.211C626.4,865.832 626.713,865.532 627.097,865.536C629.721,865.545 639.599,865.691 650.068,867.124C650.304,867.158 650.363,867.35 650.429,867.562C650.48,867.725 650.534,867.9 650.676,868.023ZM817.558,945.228L686.015,944.054L692.9,936.313C701.008,925.865 724.815,932.015 724.815,932.015L733.797,918.331L747.039,923.049L744.162,930.026L813.237,934.42C813.473,934.767 813.701,935.124 813.924,935.49L813.924,935.494C815.538,938.16 816.791,941.264 817.496,944.89C817.518,945.004 817.54,945.114 817.558,945.228ZM658.204,944.271L658.424,942.931C659.014,935.132 645.25,924.904 634.139,916.648C629.884,913.485 626.017,910.612 623.497,908.276L621.232,941.238L620.486,943.949L658.204,944.271Z" style="fill:rgb(255,220,62);"/>
                            <path id="Path_42" serif:id="Path_4" d="M624.29,896.643C624.29,896.643 656.197,911.253 681.179,914.799C692.16,916.355 708.582,915.081 712.392,913.59C712.392,913.59 706.483,923.798 691.661,928.702C675.027,934.205 623.309,911.013 623.309,911.013L624.29,896.643Z" style="fill:rgb(45,103,248);"/>
                            <path id="Combined-Shape_4" serif:id="Combined Shape_4" d="M781.645,922.885C780.278,922.885 780.274,925.015 781.645,925.015C783.012,925.011 783.017,922.885 781.645,922.885ZM790.628,924.301C789.261,924.301 789.257,926.43 790.628,926.43C791.995,926.43 791.999,924.301 790.628,924.301ZM784.953,927.612C783.585,927.612 783.581,929.738 784.953,929.738C786.324,929.738 786.324,927.612 784.953,927.612ZM799.139,928.084C797.772,928.084 797.768,930.214 799.139,930.214C800.506,930.214 800.51,928.084 799.139,928.084Z" style="fill:rgb(48,48,48);"/>
                            <path id="Combined-Shape_5" serif:id="Combined Shape_5" d="M686.62,897.166C686.741,896.938 687.005,896.834 687.244,896.908L687.331,896.945L688.467,897.537L689.684,898.164L690.776,898.722C692.451,899.575 694.231,900.468 696.087,901.385C703.145,904.871 710.207,908.17 717.044,911.158C719.3,912.144 721.506,913.085 723.66,913.979L724.526,914.335L732.904,900.423C733.006,900.253 733.191,900.159 733.379,900.168L733.474,900.18L733.566,900.211L734.382,900.563C734.646,900.678 734.765,900.978 734.666,901.236L734.625,901.321L726.339,915.077L726.913,915.31L728.047,915.764L729.17,916.209L730.283,916.644C731.814,917.24 733.311,917.807 734.776,918.347L735.869,918.746L737.547,919.347L738.636,919.728L746.733,906.274C746.834,906.106 747.016,906.013 747.203,906.019L747.296,906.03L747.388,906.059L748.217,906.403C748.486,906.514 748.609,906.817 748.509,907.078L748.467,907.163L740.51,920.364L741.184,920.59C745.074,921.88 748.626,922.91 751.826,923.676L752.506,923.835L752.852,923.914L760.17,911.768C760.27,911.603 760.448,911.509 760.632,911.513L760.724,911.522L760.815,911.549L761.649,911.875C761.923,911.983 762.051,912.289 761.951,912.554L761.909,912.64L754.859,924.342L755.136,924.397C761.754,925.688 766.505,925.617 769.229,924.192L769.44,924.077L769.638,923.958L775.235,916.873C775.375,916.695 775.607,916.631 775.812,916.697L775.897,916.733L775.977,916.786L776.669,917.332C776.872,917.493 776.926,917.773 776.808,917.994L776.756,918.074L771.014,925.344L770.89,925.458L770.83,925.497C767.595,927.624 761.943,927.803 753.894,926.13C754.975,926.914 755.678,928.188 755.678,929.626C755.678,932.009 753.746,933.942 751.362,933.942C748.978,933.942 747.045,932.009 747.045,929.626C747.045,927.501 748.581,925.735 750.602,925.376C747.81,924.683 744.769,923.799 741.48,922.728L740.577,922.431L739.669,922.128C739.145,921.953 738.606,921.77 738.048,921.576L736.904,921.175L735.98,920.846C733.92,920.108 731.786,919.309 729.58,918.451C725.371,916.814 720.926,914.971 716.267,912.934C710.439,910.387 704.449,907.615 698.433,904.692L696.427,903.713L695.229,903.123L693.392,902.211C692.788,901.91 692.195,901.612 691.612,901.319L689.895,900.449L687.957,899.456L686.431,898.661C686.2,898.541 686.095,898.274 686.171,898.034L686.208,897.946L686.62,897.166ZM751.362,927.248C750.049,927.248 748.984,928.313 748.984,929.626C748.984,930.939 750.049,932.003 751.362,932.003C752.675,932.003 753.74,930.939 753.74,929.626C753.74,928.313 752.675,927.248 751.362,927.248ZM737.519,921.963C739.903,921.963 741.836,923.895 741.836,926.279C741.836,928.663 739.903,930.595 737.519,930.595C735.135,930.595 733.203,928.663 733.203,926.279C733.203,923.895 735.135,921.963 737.519,921.963ZM737.519,923.902C736.206,923.902 735.142,924.966 735.142,926.279C735.142,927.592 736.206,928.657 737.519,928.657C738.832,928.657 739.897,927.592 739.897,926.279C739.897,924.966 738.832,923.902 737.519,923.902ZM722.905,916.544C725.289,916.544 727.221,918.476 727.221,920.86C727.221,923.244 725.289,925.176 722.905,925.176C720.521,925.176 718.589,923.244 718.589,920.86C718.589,918.476 720.521,916.544 722.905,916.544ZM722.905,918.482C721.592,918.482 720.527,919.547 720.527,920.86C720.527,922.173 721.592,923.237 722.905,923.237C724.218,923.237 725.283,922.173 725.283,920.86C725.283,919.547 724.218,918.482 722.905,918.482ZM723.937,862.696L724.241,862.711L724.382,862.722C729.057,863.138 731.44,869.78 730.272,877.866C730.059,879.337 729.419,881.476 728.373,884.27L728.035,885.158L727.725,885.95L727.474,886.58L727.214,887.222L726.856,888.092L726.328,889.349C726.238,889.561 726.147,889.774 726.055,889.987C727.121,888.563 728.27,887.202 729.493,885.93C731.146,884.208 732.88,882.706 734.688,881.439L736.019,880.513C736.618,880.102 737.029,879.831 737.472,879.554L737.927,879.273L738.545,878.903C740.762,877.602 742.778,876.734 744.663,876.301C749.092,875.282 752.467,876.781 754.447,880.848C756.613,885.299 751.755,890.805 743.678,893.765C742.132,894.333 739.638,894.835 736.234,895.282L735.255,895.406L734.417,895.506C732.45,895.733 730.307,895.936 728.047,896.112L726.357,896.237L725.215,896.314L724.222,896.375L723.136,896.432L723.084,896.546C722.923,896.885 722.481,896.946 722.232,896.693L722.169,896.617L721.731,895.97L721.51,895.63L721.363,895.394L721.098,894.959L720.746,894.355C719.982,893.017 719.26,891.577 718.606,890.071C717.282,887.021 716.356,883.983 715.871,881.004L715.766,880.318L715.676,879.617L715.557,878.603L715.476,877.849C715.253,875.636 715.203,873.816 715.334,872.077C715.796,865.954 718.548,862.632 723.639,862.689L723.937,862.696ZM745.098,878.19C743.348,878.592 741.414,879.442 739.251,880.738L738.647,881.106C738.365,881.281 738.106,881.446 737.83,881.629L737.244,882.024L736.948,882.227L735.8,883.027C734.098,884.219 732.459,885.64 730.891,887.272C729.149,889.087 727.557,891.092 726.154,893.21C725.972,893.484 725.798,893.754 725.631,894.019L725.42,894.357L726.93,894.252C729.522,894.062 731.975,893.837 734.194,893.58L735.168,893.464C738.337,893.072 740.759,892.636 742.328,892.17L742.556,892.1L742.773,892.029L743.011,891.945C749.764,889.47 753.936,885.106 752.842,882.024L752.778,881.86L752.706,881.7L752.628,881.543C751.051,878.43 748.608,877.383 745.098,878.19ZM717.267,872.223C717.162,873.617 717.183,875.085 717.327,876.808L717.379,877.392L717.445,878.035L717.527,878.762L717.649,879.774C718.054,882.873 718.984,886.073 720.385,889.299C720.906,890.5 721.472,891.656 722.069,892.747L722.423,893.382L722.726,892.722C723.421,891.189 724.086,889.675 724.702,888.217L725.265,886.867L725.647,885.928L726.022,884.983L726.353,884.128C727.47,881.203 728.151,878.985 728.353,877.588C729.373,870.528 727.416,864.844 724.117,864.646C719.83,864.388 717.671,866.866 717.267,872.223Z" style="fill:rgb(48,48,48);"/>
                        </g>
                    </g>
                </g>
            </g>
            <g id="Head2" serif:id="Head" transform="matrix(1,0,0,1,440,252)">
                <g id="Head-Short-Combed-" serif:id="Head/Short Combed ">
                    <path id="Path5" serif:id="Path" d="M37.5,63.044C37.55,56.654 42.03,49.783 48.07,52.423C48.48,52.334 48.89,52.273 49.3,52.254C49.3,6.053 111.85,15.543 112.21,61.904C112.21,100.243 80.16,120.073 59.56,97.674C53.12,90.344 51.84,81.463 49.44,72.754C42.7,73.004 38.09,69.213 37.5,63.044Z" style="fill:rgb(217,197,255);fill-rule:nonzero;"/>
                    <path id="hear2" serif:id="hear" d="M45.925,57.954C45.728,57.494 45.212,57.245 44.721,57.391C44.191,57.549 43.89,58.106 44.048,58.635L45.143,62.311C44.632,62.111 44.07,61.968 43.46,61.882L43.344,61.873C42.843,61.861 42.402,62.226 42.331,62.734C42.255,63.281 42.636,63.786 43.183,63.863C44.674,64.072 45.635,64.685 46.174,65.721C46.281,65.939 46.463,66.105 46.677,66.197C46.812,66.254 46.96,66.283 47.111,66.276C47.223,66.272 47.335,66.249 47.444,66.205C47.552,66.161 47.649,66.1 47.733,66.026C47.846,65.927 47.933,65.804 47.99,65.669C48.048,65.534 48.076,65.387 48.069,65.236C48.066,65.148 48.051,65.061 48.023,64.974L45.965,58.064L45.925,57.954Z" style="fill:rgb(48,48,48);"/>
                    <path id="Path-1" serif:id="Path " d="M46.038,51.754C46.038,51.754 49.057,53.674 49.892,55.781C50.727,57.889 50.753,64.075 50.753,64.075L56.169,64.075C56.169,64.075 56.427,59.411 56.169,54C55.91,48.589 59.391,46.542 59.391,46.542C59.391,46.542 98.575,57.031 109.528,51.754C120.48,46.477 111.826,23.01 100.02,16.826C88.215,10.643 75.489,16.994 63.495,19.861C51.502,22.728 54.472,24.244 49.278,32.426C44.084,40.608 46.038,51.754 46.038,51.754Z"/>
                </g>
            </g>
            <g id="Expression2" serif:id="Expression" transform="matrix(1,0,0,1,488,295)">
                <g id="Expression-Smile-1" serif:id="Expression/Smile ">
                    <path id="Mouth2" serif:id="Mouth" d="M41.65,41.764C41.689,41.758 41.689,41.758 41.625,41.761C41.523,41.77 41.43,41.793 41.352,41.806C41.171,41.828 41.005,41.84 40.828,41.837C40.662,41.849 40.471,41.856 40.294,41.854C40.166,41.859 39.796,41.8 39.699,41.848C39.788,41.849 39.862,41.861 39.95,41.862C39.837,41.857 39.71,41.862 39.586,41.843L39.562,41.839L39.523,41.845C39.321,41.839 39.119,41.832 38.907,41.811C38.519,41.788 38.134,41.739 37.734,41.702C36.131,41.511 34.555,41.147 32.987,40.734C32.525,40.611 31.91,40.817 31.538,41.087C31.152,41.368 30.819,41.872 30.755,42.356C30.701,42.854 30.782,43.386 31.108,43.805C31.212,43.948 31.352,44.021 31.474,44.129C33.364,47.151 37.408,48.956 40.761,47.221C41.877,46.65 42.968,45.836 43.657,44.767C44.095,44.077 44.264,43.166 43.706,42.457C43.192,41.781 42.449,41.6 41.65,41.764Z" style="fill:rgb(48,48,48);fill-rule:nonzero;"/>
                    <path id="Nose2" serif:id="Nose" d="M47.073,34.35C46.953,33.85 46.783,33.37 46.663,32.87C46.543,32.37 46.413,31.87 46.273,31.37C46.003,30.41 45.713,29.46 45.433,28.5C44.863,26.57 44.303,24.62 44.083,22.62C44.023,22.1 43.673,21.65 43.113,21.65C42.633,21.65 42.083,22.1 42.143,22.62C42.563,26.39 43.993,29.91 44.853,33.58C44.033,33.58 43.223,33.56 42.403,33.53C41.303,33.5 40.013,33.42 38.993,33.88C38.293,34.2 38.473,35.38 39.213,35.54C39.753,35.65 40.313,35.62 40.853,35.66C41.443,35.7 42.023,35.73 42.613,35.76C43.853,35.82 45.103,35.83 46.343,35.65C46.913,35.56 47.193,34.84 47.073,34.35Z" style="fill:rgb(48,48,48);fill-rule:nonzero;"/>
                </g>
            </g>
            <g id="Beard2" serif:id="Beard">
            </g>
        </g>
    </g>
</svg>
