<?xml version="1.0" encoding="UTF-8" standalone="no"?>
<!DOCTYPE svg PUBLIC "-//W3C//DTD SVG 1.1//EN" "http://www.w3.org/Graphics/SVG/1.1/DTD/svg11.dtd">
<svg width="100%" height="100%" viewBox="0 0 1000 800" version="1.1" xmlns="http://www.w3.org/2000/svg" xmlns:xlink="http://www.w3.org/1999/xlink" xml:space="preserve" xmlns:serif="http://www.serif.com/" style="fill-rule:evenodd;clip-rule:evenodd;stroke-linejoin:round;stroke-miterlimit:2;">
    <g transform="matrix(0.492218,0,0,0.492218,145.361863,572.73726)">
        <g transform="matrix(1,0,0,1,-256.5,-378)">
            <g id="Master-Pau-Barbaro-Happy-Flame" serif:id="Master/Pau Barbaro/Happy Flame" transform="matrix(1,0,0,1,-283.5,-162)">
                <path id="Vector" d="M617.412,695.099C613.112,690.399 607.612,686.399 602.212,683.099C586.912,673.699 570.312,665.799 552.612,662.699C534.912,659.599 515.912,661.299 500.212,669.999C484.512,678.699 472.512,694.899 471.112,712.899C469.612,733.499 484.312,756.699 506.312,756.899C507.512,756.899 508.412,757.399 509.012,758.099C509.712,758.199 510.412,758.299 511.112,758.399C512.612,758.699 514.212,758.799 515.712,758.999C514.212,759.299 512.712,759.499 511.212,759.699C512.012,762.299 512.212,765.699 512.212,770.299C511.812,801.399 511.212,832.599 510.712,863.699C510.712,865.299 510.612,866.999 510.112,868.499C509.012,871.399 506.312,873.3 503.612,874.9C495.012,880 485.612,883.999 478.112,890.799C470.712,897.499 465.512,907.999 468.512,917.599C488.112,915.599 507.212,909.099 524.012,898.799C525.512,897.899 527.112,896.799 528.112,895.299C529.212,893.499 529.412,891.299 529.512,889.099C530.912,862.099 531.712,788.899 531.012,760.399C539.212,760.899 547.512,760.899 555.812,760.399C558.712,760.199 561.612,759.999 564.512,759.699C563.112,763.699 563.212,767.999 563.312,772.299C564.112,811.499 564.812,850.7 565.612,889.9C565.612,891.3 565.712,892.7 566.312,893.9C567.112,895.3 568.512,896.2 569.912,896.9C576.012,900.4 618.012,924.499 622.912,916.199C625.312,912.099 615.412,895.699 612.612,892.599C606.312,885.599 598.012,880.399 588.812,878.199C586.312,877.599 583.312,876.899 582.212,874.599C581.712,873.599 581.712,872.399 581.712,871.199C581.912,848.799 582.112,826.499 582.312,804.099C582.412,790.499 577.012,754.899 587.012,743.699C591.012,739.299 597.112,744.999 602.312,742.099C614.012,735.599 625.512,724.899 624.812,711.599C624.612,705.299 621.612,699.799 617.412,695.099Z" style="fill:rgb(232,78,51);fill-rule:nonzero;"/>
                <path id="Vector_2" d="M589.212,735.8C587.412,731 585.212,726.4 581.812,722.6C574.312,714.2 560.812,713 550.312,712.9C538.812,712.8 526.312,714.5 516.412,720.6C511.012,724 507.712,728.5 507.412,735.1C507.312,737.5 507.512,739.9 507.712,742.4C508.212,742.6 508.712,742.9 509.012,743.3C509.712,743.4 510.412,743.5 511.112,743.6C512.612,743.9 514.212,743.999 515.712,744.199C514.212,744.499 512.712,744.7 511.212,744.9C512.012,747.5 512.212,750.899 512.212,755.499C512.012,769.599 511.812,783.7 511.512,797.8C518.012,796.3 524.612,794.999 531.212,793.699C531.312,774.499 531.312,756.699 531.012,745.699C539.212,746.199 547.512,746.199 555.812,745.699C558.712,745.499 561.612,745.299 564.512,744.999C563.112,748.999 563.212,753.3 563.312,757.6C563.512,767.7 563.712,777.7 563.912,787.8C570.012,786.7 576.112,785.499 582.212,784.199C581.512,769.699 578.812,747.2 587.712,737.3C588.212,736.7 588.712,736.3 589.212,735.8Z" style="fill:rgb(178,59,47);fill-rule:nonzero;"/>
                <path id="Vector_3" d="M760.713,583.4C756.913,552 742.413,523.1 728.113,494.9C721.113,504.1 712.513,512 702.713,518.1C704.913,449.4 683.413,380.1 642.613,324.8C635.113,341.1 623.313,355.3 608.613,365.6C609.313,297 584.513,228.4 540.113,176C545.913,182.8 535.213,219.1 533.213,227.5C529.013,245.4 522.913,262.9 515.113,279.6C510.513,289.3 465.413,366.2 456.113,357.8C453.513,355.4 453.312,351.5 452.912,347.9C451.412,336.2 444.613,326.6 437.813,317.4C436.813,316.1 416.913,294.8 416.513,298.2C414.113,322.8 396.113,342.6 382.313,363.1C363.913,390.5 351.813,422.1 347.213,454.8C346.113,462.9 350.413,487.8 337.313,485.3C330.213,483.9 325.612,470 326.612,463.9C317.212,516.8 315.013,572.8 331.013,623.7C333.613,632.1 336.813,640.4 340.513,648.4C355.213,680.7 380.513,708.3 410.813,727C467.613,762 555.813,763.3 582.213,761.9C633.413,759.2 686.812,736.6 721.912,698.7C750.412,668 765.713,624.9 760.713,583.4Z" style="fill:rgb(232,78,51);fill-rule:nonzero;"/>
                <path id="Vector_4" d="M708.112,574.3C692.312,580.5 689.612,593.1 679.912,604.2C673.612,597.4 681.212,586.9 682.312,579C688.012,539.1 670.312,499.6 649.112,465.3C640.012,450.6 628.012,429.5 635.512,411.5C625.612,411.4 619.312,421.7 613.412,428.2C604.112,438.4 594.412,446.8 581.312,451.9C553.912,462.5 563.012,442.2 563.412,424.5C563.912,401.9 551.612,373.9 530.312,363.8C525.112,391.3 516.912,409.9 498.112,430.5C481.012,449.1 460.712,474.9 455.412,500C452.312,493.5 449.912,486.3 448.912,479.2C447.012,466.8 446.712,454 445.012,441.5C439.012,475.8 404.712,501.6 403.812,536.5C403.512,550.7 410.312,567.5 408.012,580.9C391.312,575.5 387.212,552.6 368.412,548.5C370.412,563.1 372.412,577.6 374.412,592.2C376.612,608.4 379.012,625.2 385.712,640.2C401.812,676.1 426.612,708.5 461.812,726.8C510.312,752 562.912,760 613.712,738.2C644.112,725.2 667.812,699.3 682.812,669.8C697.812,640.3 704.812,607.2 708.112,574.3ZM371.612,548.8C371.712,549 371.812,549.2 371.612,548.8Z" style="fill:rgb(255,182,85);fill-rule:nonzero;"/>
                <g id="Group">
                    <path id="Vector_5" d="M639.112,677.5C656.399,677.5 670.412,663.486 670.412,646.2C670.412,628.913 656.399,614.9 639.112,614.9C621.826,614.9 607.812,628.913 607.812,646.2C607.812,663.486 621.826,677.5 639.112,677.5Z" style="fill:rgb(255,140,125);fill-rule:nonzero;"/>
                    <path id="Vector_6" d="M439.812,677.5C457.099,677.5 471.112,663.486 471.112,646.2C471.112,628.913 457.099,614.9 439.812,614.9C422.526,614.9 408.512,628.913 408.512,646.2C408.512,663.486 422.526,677.5 439.812,677.5Z" style="fill:rgb(255,140,125);fill-rule:nonzero;"/>
                    <path id="Vector_7" d="M616.812,183.5C616.912,180.2 616.012,177 614.812,174C613.412,170.5 612.012,166.7 608.812,164.3C608.512,164.1 608.412,163.7 608.112,163.5C607.812,163.3 607.512,163.2 607.012,163C605.712,167.9 607.312,173.1 606.112,178C604.912,182.9 604.012,188 602.612,192.9C601.912,195.3 601.212,197.8 600.812,200.2C600.312,203.2 599.712,206.1 598.912,209C598.712,209.7 598.612,210.4 598.612,211.1C598.412,214.6 599.512,217.8 600.612,220.9C601.912,224.6 604.212,227.8 606.412,230.9C607.012,231.8 607.712,232.7 608.812,233C608.912,233.4 609.112,233.7 609.512,233.9C610.012,233.9 610.512,233.8 610.912,233.8C611.012,232.7 610.112,231.8 610.212,230.6C610.512,225.9 609.612,221.2 610.812,216.5C610.912,216 610.912,215.5 610.812,215.1C610.612,212.4 611.312,209.8 611.812,207.2C612.612,202.6 614.112,198.1 615.112,193.6C616.012,190.4 617.312,187.1 616.812,183.5Z" style="fill:rgb(255,94,33);fill-rule:nonzero;"/>
                    <path id="Vector_8" d="M616.212,641.6C628.312,641.9 641.612,632.7 641.612,616.4C641.612,600.4 628.612,591.3 616.512,591.3C602.412,591.3 591.312,602.9 591.312,616.4C591.312,630.4 602.912,641.6 616.212,641.6Z" style="fill:rgb(242,233,221);fill-rule:nonzero;"/>
                    <path id="Vector_9" d="M497.712,613C498.312,600.2 487.512,587.8 472.912,587.7C460.012,587.6 448.012,597.1 447.312,613C448.212,629.7 460.912,638.2 472.612,638.1C487.412,638 498.012,625.9 497.712,613Z" style="fill:rgb(242,233,221);fill-rule:nonzero;"/>
                    <path id="Vector_10" d="M616.212,641.6C602.912,641.6 591.312,630.5 591.312,616.3C591.312,602.8 602.512,591.2 616.512,591.2C628.612,591.2 641.612,600.3 641.612,616.3C641.712,632.7 628.412,641.8 616.212,641.6ZM609.712,610.6C609.712,616.5 614.212,622 621.212,622.3C627.512,622.6 633.212,616.8 633.012,610.5C632.812,604.2 627.512,599.1 621.312,599.1C616.312,599 610.012,602.7 609.712,610.6ZM605.012,617.4C603.812,617.8 602.812,617.9 601.912,618.4C598.212,620.4 597.612,624.1 598.912,627.3C600.012,630 603.212,631.6 606.012,631.1C608.812,630.6 611.112,628.4 611.512,625.7C612.012,622.7 610.712,619.7 608.012,618.4C607.212,617.9 606.212,617.7 605.012,617.4Z" style="fill:rgb(95,33,48);fill-rule:nonzero;"/>
                    <path id="Vector_11" d="M497.712,613C498.012,625.9 487.412,638 472.612,638.1C460.912,638.2 448.212,629.7 447.312,613C448.012,597.2 460.012,587.6 472.912,587.7C487.512,587.8 498.212,600.1 497.712,613ZM488.912,607.2C489.312,601 483.712,595.5 477.512,595.5C472.312,595.5 465.912,599.7 465.912,607.1C465.912,613.5 471.012,618.8 477.412,618.9C483.612,618.9 488.912,613.6 488.912,607.2ZM451.612,620.6C451.912,623.1 452.812,625 454.712,626.3C456.012,627.2 457.512,627.7 459.212,627.5C462.512,627.1 465.112,624.3 465.212,621.1C465.312,617.7 462.912,614.7 459.412,614C457.712,613.7 456.212,614.2 454.912,615C453.012,616.3 452.012,618.2 451.612,620.6Z" style="fill:rgb(95,33,48);fill-rule:nonzero;"/>
                    <path id="Vector_12" d="M609.712,610.6C610.012,602.7 616.312,599 621.212,599C627.512,599 632.812,604.1 632.912,610.4C633.112,616.7 627.412,622.5 621.112,622.2C614.212,622 609.712,616.5 609.712,610.6Z" style="fill:rgb(242,233,221);fill-rule:nonzero;"/>
                    <path id="Vector_13" d="M605.012,617.4C606.212,617.8 607.212,618 608.112,618.4C610.712,619.7 612.112,622.6 611.612,625.7C611.212,628.3 608.812,630.6 606.112,631.1C603.312,631.6 600.112,630 599.012,627.3C597.712,624.1 598.312,620.4 602.012,618.4C602.812,617.9 603.812,617.7 605.012,617.4Z" style="fill:rgb(242,233,221);fill-rule:nonzero;"/>
                    <path id="Vector_14" d="M488.912,607.2C488.912,613.6 483.612,618.9 477.412,618.9C471.112,618.8 465.912,613.5 465.912,607.1C465.912,599.8 472.312,595.5 477.512,595.5C483.712,595.5 489.412,601 488.912,607.2Z" style="fill:rgb(242,233,221);fill-rule:nonzero;"/>
                    <path id="Vector_15" d="M451.612,620.6C452.012,618.2 452.912,616.2 454.912,615C456.312,614.2 457.812,613.7 459.412,614C462.912,614.7 465.312,617.7 465.212,621.1C465.112,624.3 462.412,627 459.212,627.5C457.512,627.7 456.012,627.2 454.712,626.3C452.812,625 451.912,623.1 451.612,620.6Z" style="fill:rgb(242,233,221);fill-rule:nonzero;"/>
                    <path id="Vector_16" d="M752.612,418.5C756.368,418.5 759.412,415.456 759.412,411.7C759.412,407.945 756.368,404.9 752.612,404.9C748.857,404.9 745.812,407.945 745.812,411.7C745.812,415.456 748.857,418.5 752.612,418.5Z" style="fill:rgb(255,150,26);fill-rule:nonzero;"/>
                </g>
                <path id="Vector_17" d="M771.312,552.1C771.212,548.8 772.112,545.6 773.312,542.6C774.712,539.1 776.112,535.3 779.312,532.9C779.612,532.7 779.712,532.3 780.012,532.1C780.312,531.9 780.612,531.8 781.112,531.6C782.412,536.5 780.812,541.7 782.012,546.6C783.212,551.5 784.112,556.6 785.512,561.5C786.212,563.9 786.912,566.4 787.312,568.8C787.812,571.8 788.412,574.7 789.212,577.6C789.412,578.3 789.512,579 789.512,579.7C789.712,583.2 788.612,586.4 787.512,589.5C786.212,593.2 783.912,596.4 781.712,599.5C781.112,600.4 780.412,601.3 779.312,601.6C779.212,602 779.012,602.3 778.612,602.5C778.112,602.5 777.612,602.4 777.212,602.4C777.112,601.3 778.012,600.4 777.912,599.2C777.612,594.5 778.512,589.8 777.312,585.1C777.212,584.6 777.212,584.1 777.312,583.7C777.512,581 776.812,578.4 776.312,575.8C775.512,571.2 774.012,566.7 773.012,562.2C772.212,559 770.912,555.7 771.312,552.1Z" style="fill:rgb(255,94,33);fill-rule:nonzero;"/>
                <path id="Vector_18" d="M371.712,320.9C375.468,320.9 378.512,317.855 378.512,314.1C378.512,310.344 375.468,307.3 371.712,307.3C367.957,307.3 364.912,310.344 364.912,314.1C364.912,317.855 367.957,320.9 371.712,320.9Z" style="fill:rgb(255,150,26);fill-rule:nonzero;"/>
                <path id="Vector_19" d="M441.412,256.199C440.812,252.999 441.112,249.699 441.712,246.499C442.512,242.799 443.212,238.899 446.012,235.899C446.212,235.599 446.312,235.199 446.512,234.999C446.712,234.799 447.112,234.599 447.512,234.399C449.612,238.999 448.912,244.399 450.912,248.999C452.912,253.599 454.712,258.499 456.912,263.099C458.012,265.399 459.112,267.699 460.012,269.999C461.012,272.799 462.112,275.599 463.412,278.299C463.712,278.999 463.912,279.599 464.112,280.299C464.912,283.699 464.312,286.999 463.812,290.299C463.212,294.099 461.512,297.699 459.812,301.199C459.412,302.199 458.812,303.199 457.812,303.699C457.812,304.099 457.612,304.399 457.312,304.699C456.812,304.699 456.312,304.799 455.912,304.799C455.712,303.699 456.312,302.699 456.012,301.599C454.912,296.999 455.012,292.199 452.912,287.799C452.712,287.399 452.712,286.899 452.612,286.399C452.412,283.699 451.212,281.299 450.312,278.799C448.712,274.399 446.512,270.299 444.712,265.999C443.512,262.799 441.612,259.799 441.412,256.199Z" style="fill:rgb(255,94,33);fill-rule:nonzero;"/>
                <g id="Group_2">
                    <path id="Vector_20" d="M667.512,268.7C665.912,267.7 663.912,268.1 663.012,267.5C660.112,265.2 660.812,262 659.012,259.7C657.412,260.9 657.312,262.5 657.312,264C657.312,266.3 656.112,267.7 654.012,268.4C653.512,268.6 653.012,268.8 652.512,269C651.412,269.2 649.712,268.9 650.412,271C650.812,271.1 651.212,271.2 651.512,271.3C651.712,271.3 652.012,271.2 652.212,271.1C652.712,271.1 653.112,271.2 653.512,271.4C653.812,271.5 654.212,271.6 654.612,271.7C656.112,272 657.112,272.8 657.412,274.4C657.712,276.2 658.212,277.9 659.612,279.5C660.712,278.3 660.712,277.1 660.712,275.9C661.412,274.8 661.412,273.4 662.512,272.3C663.512,272 664.712,271.6 665.912,271.3C667.212,270.8 668.812,271 669.612,269.5C668.912,268.6 668.212,268.6 667.512,268.7Z" style="fill:rgb(239,203,86);fill-rule:nonzero;"/>
                    <path id="Vector_21" d="M659.512,280.4C659.312,280.4 659.012,280.3 658.912,280.1C657.312,278.3 656.812,276.4 656.512,274.6C656.112,272 652.412,272.2 650.512,271.7C650.312,271.6 650.012,271.6 649.812,271.4C649.212,270.9 649.412,269.6 649.812,269.1C650.312,268.4 651.212,268.3 651.912,268.2C652.112,268.2 652.312,268.2 652.412,268.1L653.912,267.6C655.812,266.9 656.612,265.9 656.612,264C656.612,262.7 656.612,260.6 658.712,259C658.912,258.9 659.112,258.8 659.312,258.8C659.512,258.8 659.712,259 659.912,259.1C660.712,260.2 661.012,261.4 661.312,262.5C662.012,264.9 663.012,267 665.712,267.3C667.212,267.5 669.312,267.5 670.412,268.8C670.612,269.1 670.612,269.4 670.512,269.7C669.312,272.1 666.112,271.4 664.112,272.6C662.812,273.4 662.112,274.8 661.612,276.2C661.312,276.9 661.512,277.2 661.412,277.9C661.312,278.6 660.712,279.4 660.312,279.9C660.012,280.3 659.712,280.4 659.512,280.4ZM653.912,270.6C654.212,270.7 654.512,270.8 654.812,270.9C656.712,271.2 657.912,272.4 658.212,274.3C658.412,275.7 658.812,277 659.512,278.1C659.812,277.5 659.812,276.8 659.712,276C659.712,275.8 659.712,275.6 659.812,275.5C660.012,275.2 660.212,274.7 660.312,274.3C660.612,273.5 660.912,272.5 661.812,271.7C661.912,271.6 662.012,271.5 662.212,271.5L665.612,270.5C666.012,270.3 666.512,270.2 666.912,270.1C667.512,270 668.012,269.8 668.312,269.6C668.112,269.5 667.912,269.6 667.612,269.6C667.412,269.6 667.212,269.6 667.012,269.5C666.312,269 665.412,269 664.612,268.9C663.812,268.8 663.012,268.7 662.512,268.3C660.512,266.7 660.012,264.8 659.512,263.2C659.312,262.5 659.112,261.8 658.812,261.2C658.212,262 658.112,263 658.112,264.1C658.112,266.7 656.812,268.4 654.312,269.3L652.812,269.9L652.712,269.9C652.512,270 652.212,270 651.912,270C651.612,270 651.212,270.1 651.112,270.2L651.112,270.4C651.312,270.5 651.412,270.5 651.612,270.6C651.712,270.6 651.712,270.6 651.812,270.5C651.912,270.4 652.012,270.4 652.112,270.4C652.712,270.2 653.312,270.3 653.912,270.6Z" style="fill:rgb(239,203,86);fill-rule:nonzero;"/>
                </g>
                <path id="Vector_22" d="M708.112,324.5C710.984,324.5 713.312,322.171 713.312,319.3C713.312,316.428 710.984,314.1 708.112,314.1C705.24,314.1 702.912,316.428 702.912,319.3C702.912,322.171 705.24,324.5 708.112,324.5Z" style="fill:rgb(255,94,33);fill-rule:nonzero;"/>
                <path id="Vector_23" d="M560.312,632.899C559.912,632.899 559.312,633.099 558.612,633.499C557.912,633.999 557.612,634.999 557.412,635.899C556.512,639.799 555.412,643.699 555.112,647.599C554.812,651.199 553.812,654.799 552.012,657.899C550.212,661.099 548.712,663.999 544.212,663.099C541.712,662.599 539.612,660.799 538.112,658.799C536.612,656.699 535.712,654.299 534.812,651.899C533.512,648.399 532.112,644.999 530.812,641.499C530.012,639.299 530.612,635.999 528.712,634.499C524.112,630.799 526.212,640.399 526.512,641.999C528.412,651.299 532.612,668.899 544.912,669.499C551.912,668.399 555.812,662.399 558.012,656.199C559.212,652.899 560.312,649.799 561.012,646.499C561.412,645.199 563.512,633.199 560.312,632.899Z" style="fill:rgb(95,33,48);fill-rule:nonzero;"/>
                <path id="Vector_24" d="M322.712,385.6C323.512,389.4 320.412,389.6 318.812,390C315.112,390.9 313.212,393.6 310.912,396.1C309.712,397.4 309.812,398.8 309.612,400.3C309.312,402.6 307.812,403.7 305.112,403.2C303.212,400.2 303.512,396 300.312,393.1C297.212,390.3 293.012,390.5 290.012,388C289.812,385.3 292.112,384.8 293.812,384.3C299.412,382.5 303.012,378.9 304.312,373.2C304.612,371.8 305.512,370.9 307.212,370.3C310.112,372.9 309.412,377.6 312.212,380.3C315.212,383.1 318.912,384.2 322.712,385.6Z" style="fill:rgb(255,185,2);fill-rule:nonzero;"/>
                <path id="Vector--Stroke-" serif:id="Vector (Stroke)" d="M331.758,407.991C328.856,407.991 326.503,410.343 326.503,413.245C326.503,416.147 328.856,418.5 331.758,418.5C334.66,418.5 337.013,416.147 337.013,413.245C337.013,410.343 334.66,407.991 331.758,407.991ZM322.812,413.245C322.812,408.305 326.817,404.3 331.758,404.3C336.698,404.3 340.703,408.305 340.703,413.245C340.703,418.186 336.698,422.191 331.758,422.191C326.817,422.191 322.812,418.186 322.812,413.245Z" style="fill:rgb(255,185,2);"/>
                <path id="Vector--Stroke-_2" serif:id="Vector (Stroke)_2" d="M733.396,450.568C730.239,450.568 727.68,453.127 727.68,456.284C727.68,459.441 730.239,462 733.396,462C736.553,462 739.112,459.441 739.112,456.284C739.112,453.127 736.553,450.568 733.396,450.568ZM724.912,456.284C724.912,451.598 728.711,447.8 733.396,447.8C738.082,447.8 741.88,451.598 741.88,456.284C741.88,460.969 738.082,464.768 733.396,464.768C728.711,464.768 724.912,460.969 724.912,456.284Z" style="fill:rgb(255,185,2);"/>
            </g>
        </g>
    </g>
    <g transform="matrix(-1,0,0,1,1183,-55)">
        <g transform="matrix(0.951705,0,0,0.951705,22.797137,-105.323652)">
            <path d="M774.453,314.192C776.47,305.966 787.966,297.431 793.538,307.387C797.211,315.034 797.545,324.048 796.451,332.402C796.758,353.082 788.581,372.63 780.151,391.138C778.532,443.476 731.171,500.52 675.433,491.814C647.8,489.064 624.693,474.262 601.782,459.585C593.848,454.502 585.937,449.434 577.871,444.888C573.857,465.023 571.949,488.131 571.205,499.275L702.414,894.326L773.231,965.761L672,965.761L518.778,586.299L515.44,582.588L508.384,590.435L355,965.761L245.939,965.761L322.214,894.326L452.711,512.892L453.036,511.951L456.057,503.108L457.115,503.108C457.632,493.993 458.738,465.102 453.543,444.888C445.483,449.432 437.579,454.496 429.651,459.575C406.739,474.255 383.626,489.064 355.98,491.814C300.243,500.52 252.89,443.476 251.262,391.138C250.397,389.238 249.524,387.35 248.654,385.471C241.058,369.044 233.739,353.22 234.007,334.663C234.212,320.451 234.228,316.503 235.409,312.941C235.947,311.319 236.726,309.778 237.875,307.387C243.447,297.431 254.944,305.966 256.961,314.192C257.232,301.088 270.673,296.743 275.287,310.228C285.734,290.96 296.398,312.129 293.694,325.008C309.177,331.094 306.746,346.341 304.252,361.987C302.429,373.423 300.572,385.071 305.652,393.509C324.425,454.831 390.549,416.055 427.093,394.626L427.438,394.423C465.736,371.463 494.391,365.779 515.711,368.911C537.031,365.779 565.687,371.463 603.975,394.423L604.343,394.639C640.9,416.071 706.992,454.818 725.762,393.509C730.842,385.071 728.985,373.423 727.161,361.987C724.667,346.341 722.236,331.094 737.72,325.008C735.015,312.129 745.679,290.96 756.127,310.228C760.74,296.743 774.181,301.088 774.453,314.192Z" style="fill:rgb(255,156,138);"/>
        </g>
        <g transform="matrix(0.951705,0,0,0.951705,22.797137,-110.858343)">
            <path d="M275.259,310.307C275.201,309.81 274.778,309.424 274.265,309.424C273.713,309.424 273.265,309.872 273.265,310.424L273.265,319.714L273.272,319.831C273.33,320.328 273.753,320.714 274.265,320.714C274.818,320.714 275.265,320.266 275.265,319.714L275.265,310.424L275.259,310.307ZM255.987,313.122C256.5,313.122 256.923,313.509 256.981,314.006L256.987,314.122L256.987,323.413C256.987,323.965 256.54,324.413 255.987,324.413C255.474,324.413 255.052,324.027 254.994,323.529L254.987,323.413L254.987,314.122C254.987,313.57 255.435,313.122 255.987,313.122Z" style="fill:rgb(48,48,48);"/>
        </g>
        <g transform="matrix(0.951705,0,0,0.951705,22.797137,-110.858343)">
            <path d="M672,781.964L601.675,804.25L514.408,604.358L426.229,811L355,791.061L454.483,508L514.399,510.383L574.315,508L672,781.964Z" style="fill:rgb(48,48,48);fill-rule:nonzero;"/>
        </g>
        <g transform="matrix(0.951705,0,0,0.951705,22.797137,-110.858343)">
            <path d="M222.263,956.579C222.263,960.525 226.46,973.804 226.46,973.804L246.193,973.826L254.224,971.239L260.632,973.842L276.898,973.86C276.898,973.86 281.569,971.978 283.88,971.981C286.192,971.983 289.561,973.874 289.561,973.874L305.42,973.892C305.42,973.892 309.799,971.236 312.263,971.239C314.726,971.242 317.568,973.905 317.568,973.905L331.287,973.92C331.287,973.92 336.245,971.978 338.724,971.981C341.203,971.984 345.335,973.936 345.335,973.936L357.795,973.95L367.797,971.981L374.221,973.968L385.763,973.981L385.198,945.981L223.124,946.281C222.95,947.222 222.263,952.632 222.263,956.579Z" style="fill:rgb(235,235,235);fill-rule:nonzero;"/>
        </g>
        <g transform="matrix(0.951705,0,0,0.951705,22.797137,-110.858343)">
            <path d="M313.706,873.261C320.882,874.142 326.474,900.988 326.474,900.988C326.474,900.988 324.634,919.129 317.948,925.204C311.262,931.279 287.137,937.657 287.137,937.657L225.71,940.055L277.707,915.886C277.707,915.886 292.731,899.824 296.109,897.259C305.697,889.983 306.53,872.38 313.706,873.261Z" style="fill:rgb(250,250,250);"/>
        </g>
        <g transform="matrix(0.951705,0,0,0.951705,22.797137,-110.858343)">
            <path d="M222,949.319L385.763,952.012L388.193,920.481L385.763,890.849L324.158,890.849C324.158,890.849 316.583,907.957 312.263,916.47C307.943,924.984 282.544,930.309 282.544,930.309L285.013,936.289L225.71,940.055C225.507,940.353 225.312,940.659 225.12,940.972C223.734,943.261 222.658,945.922 222.053,949.029C222.034,949.127 222.015,949.221 222,949.319Z" style="fill:rgb(254,223,82);"/>
        </g>
        <g transform="matrix(0.951705,0,0,0.951705,22.797137,-110.858343)">
            <path d="M322.76,912.981C322.76,912.981 317.562,933.127 336.177,927.098C354.793,921.07 373.559,912.981 373.559,912.981C373.559,912.981 346.168,933.308 339.023,936.648C331.877,939.989 313.455,943.033 312.103,934.117C310.752,925.202 322.76,912.981 322.76,912.981Z" style="fill:rgb(250,250,250);"/>
        </g>
        <g transform="matrix(0.951705,0,0,0.951705,22.797137,-110.858343)">
            <path d="M290.751,903.24L290.647,903.187C290.19,902.984 289.642,903.153 289.382,903.595C289.102,904.071 289.261,904.684 289.737,904.964L304.833,913.843L304.937,913.896C305.394,914.098 305.942,913.93 306.202,913.488C306.482,913.012 306.323,912.399 305.847,912.119L290.751,903.24ZM284.33,909.818L284.433,909.872L296.854,917.33C297.328,917.614 297.481,918.229 297.197,918.702C296.933,919.142 296.384,919.306 295.928,919.099L295.825,919.045L283.404,911.587C282.93,911.303 282.777,910.688 283.061,910.215C283.305,909.809 283.791,909.638 284.223,909.777L284.33,909.818ZM278.366,914.99L278.467,915.048L289.544,922.255C290.007,922.556 290.138,923.175 289.837,923.638C289.557,924.068 289.003,924.212 288.555,923.989L288.453,923.931L277.377,916.725C276.914,916.423 276.783,915.804 277.084,915.341C277.363,914.911 277.918,914.767 278.366,914.99Z" style="fill:rgb(48,48,48);"/>
            <circle cx="252.769" cy="931.551" r="1" style="fill:rgb(48,48,48);"/>
            <circle cx="243.204" cy="935.664" r="1" style="fill:rgb(48,48,48);"/>
            <circle cx="263.238" cy="932.551" r="1" style="fill:rgb(48,48,48);"/>
            <circle cx="265.939" cy="925.093" r="1" style="fill:rgb(48,48,48);"/>
            <circle cx="275.922" cy="931.551" r="1" style="fill:rgb(48,48,48);"/>
        </g>
        <g transform="matrix(0.951705,0,0,0.951705,22.797137,-110.858343)">
            <path d="M803.737,956.579C803.737,960.525 799.54,973.804 799.54,973.804L779.807,973.826L771.776,971.239L765.368,973.842L749.102,973.86C749.102,973.86 744.431,971.978 742.12,971.981C739.808,971.983 736.439,973.874 736.439,973.874L720.58,973.892C720.58,973.892 716.201,971.236 713.737,971.239C711.274,971.242 708.432,973.905 708.432,973.905L694.713,973.92C694.713,973.92 689.755,971.978 687.276,971.981C684.797,971.984 680.665,973.936 680.665,973.936L668.205,973.95L658.203,971.981L651.779,973.968L640.237,973.981L640.802,945.981L802.876,946.281C803.05,947.222 803.737,952.632 803.737,956.579Z" style="fill:rgb(235,235,235);fill-rule:nonzero;"/>
        </g>
        <g transform="matrix(0.951705,0,0,0.951705,22.797137,-110.858343)">
            <path d="M712.294,873.261C705.118,874.142 699.526,900.988 699.526,900.988C699.526,900.988 701.366,919.129 708.052,925.204C714.738,931.279 738.863,937.657 738.863,937.657L800.29,940.055L748.293,915.886C748.293,915.886 733.269,899.824 729.891,897.259C720.303,889.983 719.47,872.38 712.294,873.261Z" style="fill:rgb(250,250,250);"/>
        </g>
        <g transform="matrix(0.951705,0,0,0.951705,22.797137,-110.858343)">
            <path d="M804,949.319L640.237,952.012L637.807,920.481L640.237,890.849L701.842,890.849C701.842,890.849 709.417,907.957 713.737,916.47C718.057,924.984 743.456,930.309 743.456,930.309L740.987,936.289L800.29,940.055C800.493,940.353 800.688,940.659 800.88,940.972C802.266,943.261 803.342,945.922 803.947,949.029C803.966,949.127 803.985,949.221 804,949.319Z" style="fill:rgb(254,223,82);"/>
        </g>
        <g transform="matrix(0.951705,0,0,0.951705,22.797137,-110.858343)">
            <path d="M703.24,912.981C703.24,912.981 708.438,933.127 689.823,927.098C671.207,921.07 652.441,912.981 652.441,912.981C652.441,912.981 679.832,933.308 686.977,936.648C694.123,939.989 712.545,943.033 713.897,934.117C715.248,925.202 703.24,912.981 703.24,912.981Z" style="fill:rgb(250,250,250);"/>
        </g>
        <g transform="matrix(0.951705,0,0,0.951705,22.797137,-110.858343)">
            <path d="M735.249,903.24L735.353,903.187C735.81,902.984 736.358,903.153 736.618,903.595C736.898,904.071 736.739,904.684 736.263,904.964L721.167,913.843L721.063,913.896C720.606,914.098 720.058,913.93 719.798,913.488C719.518,913.012 719.677,912.399 720.153,912.119L735.249,903.24ZM741.67,909.818L741.567,909.872L729.146,917.33C728.672,917.614 728.519,918.229 728.803,918.702C729.067,919.142 729.616,919.306 730.072,919.099L730.175,919.045L742.596,911.587C743.07,911.303 743.223,910.688 742.939,910.215C742.695,909.809 742.209,909.638 741.777,909.777L741.67,909.818ZM747.634,914.99L747.533,915.048L736.456,922.255C735.993,922.556 735.862,923.175 736.163,923.638C736.443,924.068 736.997,924.212 737.445,923.989L737.547,923.931L748.623,916.725C749.086,916.423 749.217,915.804 748.916,915.341C748.637,914.911 748.082,914.767 747.634,914.99Z" style="fill:rgb(48,48,48);"/>
        </g>
        <g transform="matrix(-0.951705,0,0,0.951705,758.684611,775.702998)">
            <circle cx="0" cy="0" r="1" style="fill:rgb(48,48,48);"/>
        </g>
        <g transform="matrix(-0.951705,0,0,0.951705,767.787666,779.617359)">
            <circle cx="0" cy="0" r="1" style="fill:rgb(48,48,48);"/>
        </g>
        <g transform="matrix(-0.951705,0,0,0.951705,748.721216,776.654703)">
            <circle cx="0" cy="0" r="1" style="fill:rgb(48,48,48);"/>
        </g>
        <g transform="matrix(-0.951705,0,0,0.951705,746.150662,769.55689)">
            <circle cx="0" cy="0" r="1" style="fill:rgb(48,48,48);"/>
        </g>
        <g transform="matrix(-0.951705,0,0,0.951705,736.649796,775.702998)">
            <circle cx="0" cy="0" r="1" style="fill:rgb(48,48,48);"/>
        </g>
        <g transform="matrix(0.951705,0,0,0.951705,22.797137,-110.858343)">
            <path d="M582.578,515.674L444.584,521.914C444.584,521.914 444.584,378.343 466.577,373.705C488.571,369.066 468.452,431.803 511.048,431.803C553.645,431.803 539.673,368.93 555.313,373.209C571.769,377.696 582.578,515.674 582.578,515.674Z" style="fill:rgb(232,232,232);"/>
        </g>
        <g transform="matrix(0.951705,0,0,0.951705,22.797137,-110.858343)">
            <path d="M753.147,361.025L810.655,361.025L810.655,383.125L846.163,383.125L846.163,314.37L810.655,314.37L810.655,336.47L776.375,336.47C776.375,336.47 774.248,344.829 770.973,344.829C763.934,344.829 755.856,342.728 755.856,342.728C755.856,342.728 758.063,346.118 757.318,351.145C756.574,356.172 753.147,361.025 753.147,361.025Z" style="fill:rgb(194,165,249);"/>
        </g>
        <g transform="matrix(-0.951705,0,0,0.951705,823.404329,188.312843)">
            <rect x="0" y="0" width="6.265" height="69" style="fill:rgb(232,232,232);fill-rule:nonzero;"/>
        </g>
        <g transform="matrix(-0.951705,0,0,0.951705,805.356203,188.312843)">
            <rect x="0" y="0" width="6.265" height="69" style="fill:rgb(232,232,232);fill-rule:nonzero;"/>
        </g>
        <g transform="matrix(0.951705,0,0,0.951705,22.797137,-110.858343)">
            <path d="M727.819,361.271L709.671,361.271L709.671,383.37L674.163,383.37L674.163,314.616L709.671,314.616L709.671,336.715L727.819,336.715C727.819,336.715 726.359,346.03 726.571,348.993C727.448,361.22 727.819,361.271 727.819,361.271Z" style="fill:rgb(194,165,249);"/>
        </g>
        <g transform="matrix(-0.951705,0,0,0.951705,692.76765,188.312843)">
            <rect x="0" y="0" width="6.265" height="69" style="fill:rgb(232,232,232);fill-rule:nonzero;"/>
        </g>
        <g transform="matrix(-0.951705,0,0,0.951705,674.718573,188.312843)">
            <rect x="0" y="0" width="6.265" height="69" style="fill:rgb(232,232,232);fill-rule:nonzero;"/>
        </g>
        <g transform="matrix(0.951705,0,0,0.951705,22.797137,-110.858343)">
            <path d="M276.016,359.412L218.508,359.412L218.508,381.512L183,381.512L183,312.757L218.508,312.757L218.508,334.857L252.788,334.857C252.788,334.857 254.915,343.216 258.19,343.216C265.229,343.216 273.307,341.115 273.307,341.115C273.307,341.115 271.1,344.505 271.845,349.532C272.589,354.559 276.016,359.412 276.016,359.412Z" style="fill:rgb(194,165,249);"/>
        </g>
        <g transform="matrix(0.951705,0,0,0.951705,22.797137,-110.858343)">
            <rect x="187.928" y="312.74" width="6.265" height="69" style="fill:rgb(232,232,232);fill-rule:nonzero;"/>
        </g>
        <g transform="matrix(0.951705,0,0,0.951705,22.797137,-110.858343)">
            <rect x="206.893" y="312.74" width="6.265" height="69" style="fill:rgb(232,232,232);fill-rule:nonzero;"/>
        </g>
        <g transform="matrix(0.951705,0,0,0.951705,22.797137,-110.858343)">
            <path d="M301.344,359.658L319.492,359.658L319.492,381.757L355,381.757L355,313.003L319.492,313.003L319.492,335.102L301.344,335.102C301.344,335.102 302.804,344.417 302.592,347.38C301.715,359.607 301.344,359.658 301.344,359.658Z" style="fill:rgb(194,165,249);"/>
        </g>
        <g transform="matrix(0.951705,0,0,0.951705,22.797137,-110.858343)">
            <rect x="325.195" y="312.74" width="6.265" height="69" style="fill:rgb(232,232,232);fill-rule:nonzero;"/>
        </g>
        <g transform="matrix(0.951705,0,0,0.951705,22.797137,-110.858343)">
            <rect x="344.159" y="312.74" width="6.265" height="69" style="fill:rgb(232,232,232);fill-rule:nonzero;"/>
        </g>
        <g transform="matrix(0.951705,0,0,0.951705,441.547147,128.971208)">
            <path d="M37.5,63.044C37.55,56.654 42.03,49.784 48.07,52.424C48.48,52.334 48.89,52.274 49.3,52.254C49.3,6.053 111.85,15.544 112.21,61.904C112.21,100.243 80.16,120.073 59.56,97.674C53.12,90.344 51.84,81.464 49.44,72.754C42.7,73.004 38.09,69.213 37.5,63.044Z" style="fill:rgb(255,156,138);fill-rule:nonzero;"/>
            <g>
                <path d="M45.925,57.954C45.728,57.494 45.212,57.245 44.721,57.391C44.192,57.549 43.89,58.106 44.048,58.635L45.143,62.311C44.632,62.111 44.07,61.968 43.46,61.882L43.344,61.873C42.843,61.861 42.402,62.226 42.331,62.734C42.255,63.281 42.636,63.786 43.183,63.863C44.674,64.072 45.635,64.685 46.174,65.721C46.281,65.939 46.463,66.105 46.677,66.197C46.812,66.254 46.96,66.283 47.111,66.276C47.223,66.272 47.335,66.248 47.444,66.205C47.552,66.161 47.649,66.1 47.733,66.027C47.846,65.927 47.933,65.804 47.99,65.669C48.048,65.534 48.076,65.387 48.07,65.236C48.066,65.148 48.051,65.06 48.023,64.974L45.965,58.064L45.925,57.954Z" style="fill:rgb(48,48,48);"/>
                <path d="M-63,-3.903L-63,40.705L-53.854,44.017L-63,44.017L-63,75.392C-63,75.392 -32.637,74.116 -27.634,60.017C-22.63,45.917 0.95,67.417 0.95,75.392C0.95,83.367 39.588,84.731 39.588,67.059C39.588,60.397 33.591,60.332 48.07,54.473C53.249,52.378 74.855,64.075 83.973,38.513C84.725,36.407 105.307,61.359 112.21,54C114.527,51.529 117.809,34.45 103.15,22C88.49,9.55 74.966,2.339 42.17,13.022C9.374,23.705 17.192,-2.988 -1.778,-3.903C-20.748,-4.817 -26.601,0.784 -33.947,9.354C-41.292,17.924 -63,-3.903 -63,-3.903Z"/>
            </g>
        </g>
        <g transform="matrix(0.951705,0,0,0.951705,487.228966,169.894504)">
            <path d="M41.65,41.764C41.689,41.758 41.689,41.758 41.625,41.761C41.523,41.77 41.43,41.793 41.352,41.806C41.171,41.828 41.005,41.84 40.828,41.837C40.662,41.848 40.471,41.856 40.294,41.854C40.166,41.859 39.796,41.8 39.699,41.848C39.788,41.849 39.862,41.861 39.95,41.862C39.837,41.857 39.71,41.862 39.586,41.843L39.561,41.839L39.522,41.845C39.321,41.839 39.119,41.832 38.907,41.811C38.519,41.788 38.134,41.739 37.734,41.701C36.131,41.511 34.555,41.147 32.987,40.734C32.525,40.61 31.91,40.817 31.538,41.087C31.152,41.368 30.819,41.872 30.755,42.356C30.701,42.854 30.781,43.386 31.108,43.805C31.212,43.948 31.352,44.021 31.474,44.129C33.364,47.151 37.408,48.956 40.76,47.221C41.877,46.65 42.968,45.836 43.656,44.767C44.095,44.077 44.264,43.166 43.706,42.457C43.192,41.781 42.449,41.6 41.65,41.765Z" style="fill:rgb(48,48,48);fill-rule:nonzero;"/>
            <path d="M47.073,34.35C46.953,33.85 46.783,33.37 46.663,32.87C46.543,32.37 46.413,31.87 46.273,31.37C46.003,30.41 45.713,29.46 45.433,28.5C44.863,26.57 44.303,24.62 44.083,22.62C44.023,22.1 43.673,21.65 43.113,21.65C42.633,21.65 42.083,22.1 42.143,22.62C42.563,26.39 43.993,29.91 44.853,33.58C44.033,33.58 43.223,33.56 42.403,33.53C41.303,33.5 40.013,33.42 38.993,33.88C38.293,34.2 38.473,35.38 39.213,35.54C39.753,35.65 40.313,35.62 40.853,35.66C41.443,35.7 42.023,35.73 42.613,35.76C43.853,35.82 45.103,35.83 46.343,35.65C46.913,35.56 47.193,34.84 47.073,34.35Z" style="fill:rgb(48,48,48);fill-rule:nonzero;"/>
        </g>
    </g>
</svg>
