<?xml version="1.0" encoding="UTF-8" standalone="no"?>
<!DOCTYPE svg PUBLIC "-//W3C//DTD SVG 1.1//EN" "http://www.w3.org/Graphics/SVG/1.1/DTD/svg11.dtd">
<svg width="100%" height="100%" viewBox="0 0 2053 1955" version="1.1" xmlns="http://www.w3.org/2000/svg" xmlns:xlink="http://www.w3.org/1999/xlink" xml:space="preserve" xmlns:serif="http://www.serif.com/" style="fill-rule:evenodd;clip-rule:evenodd;stroke-linejoin:round;stroke-miterlimit:2;">
    <g id="Master-Spot-Ilustrations-UI-Windows" serif:id="Master/Spot Ilustrations/UI Windows" transform="matrix(1,0,0,1,10.262626,-128.5625)">
        <g id="Chair" transform="matrix(1,0,0,1,76.125,1255)">
            <g id="Chair-Tall-Chair-2" serif:id="Chair/Tall Chair 2">
                <g id="Group">
                    <path id="Fill-4" serif:id="Fill 4" d="M472.778,418.881C472.347,417.021 470.684,415.63 468.692,415.622L468.658,415.622L306.34,415.001L306.326,415C304.123,414.99 302.128,416.502 301.615,418.738L224.07,796.631C223.735,798.096 224.639,799.564 226.105,799.918C227.583,800.274 229.07,799.368 229.428,797.892L310.164,424.683L465.326,424.088L545.57,797.892C545.923,799.357 547.394,800.27 548.867,799.929C550.348,799.587 551.271,798.111 550.929,796.631L472.778,418.881Z" style="fill:rgb(104,114,177);"/>
                    <path id="Fill-4-Copy" serif:id="Fill 4 Copy" d="M415.778,418.881C415.347,417.021 413.684,415.63 411.692,415.622L411.658,415.622L249.34,415.001L249.326,415C247.123,414.99 245.128,416.502 244.615,418.738L167.07,796.631C166.735,798.096 167.639,799.564 169.105,799.918C170.583,800.274 172.07,799.368 172.428,797.892L253.164,424.683L408.326,424.088L488.57,797.892C488.923,799.357 490.394,800.27 491.867,799.929C493.348,799.587 494.271,798.111 493.929,796.631L415.778,418.881Z" style="fill:rgb(104,114,177);"/>
                    <path id="Fill-1" serif:id="Fill 1" d="M208.192,210.22C216.309,250.419 262.03,375.924 286.698,390.043C311.365,404.16 455.424,401.41 472.322,402.82C489.221,404.231 507.528,414.105 504.711,432.441C501.895,450.778 494.854,445.135 445.566,445.135C396.278,445.135 280.806,445.955 280.806,445.955C280.806,445.955 221.008,449.665 196.395,389.787C173.853,334.946 153.909,233.748 151.092,215.41C148.277,197.073 150.312,174.585 164.264,170.02C174.828,166.565 200.076,170.02 208.192,210.22Z" style="fill:rgb(255,0,87);"/>
                </g>
            </g>
        </g>
        <g id="UI-Elements" serif:id="UI Elements" transform="matrix(1.178759,0,0,1.168571,192.771819,84.897143)">
            <g id="UI-Elements-Graph-1" serif:id="UI Elements/Graph 1">
                <g id="Interfae-Box-2" serif:id="Interfae Box 2">
                    <path id="Rectangle-Copy-5" serif:id="Rectangle Copy 5" d="M1025,144.768L1025,699.232C1025,729.459 1000.672,754 970.706,754L176.294,754C146.328,754 122,729.459 122,699.232L122,144.768C122,114.541 146.328,90 176.294,90L970.706,90C1000.672,90 1025,114.541 1025,144.768Z" style="fill:rgb(9,14,43);"/>
                    <path id="Rectangle-Copy" serif:id="Rectangle Copy" d="M980,111.768L980,666.232C980,696.459 955.672,721 925.706,721L131.294,721C101.328,721 77,696.459 77,666.232L77,111.768C77,81.541 101.328,57 131.294,57L925.706,57C955.672,57 980,81.541 980,111.768Z" style="fill:white;"/>
                    <path id="Rectangle-Copy-2" serif:id="Rectangle Copy 2" d="M141,54L916,54C953.003,54 983,83.997 983,121L983,657C983,694.003 953.003,724 916,724L141,724C103.997,724 74,694.003 74,657L74,121C74,83.997 103.997,54 141,54ZM916,60L141,60C107.311,60 80,87.311 80,121L80,657C80,690.689 107.311,718 141,718L916,718C949.689,718 977,690.689 977,657L977,121C977,87.311 949.689,60 916,60Z" style="fill:rgb(9,14,43);"/>
                    <g transform="matrix(0.84835,0,0,0.551048,-127.281675,238.914009)">
                        <path d="M497,285.706L497,596.294C497,619.864 484.678,639 469.5,639L414.5,639C399.322,639 387,619.864 387,596.294L387,285.706C387,262.136 399.322,243 414.5,243L469.5,243C484.678,243 497,262.136 497,285.706Z" style="fill:rgb(255,178,1);"/>
                    </g>
                    <g transform="matrix(0.84835,0,0,0.678546,13.544373,157.443126)">
                        <path d="M497,277.682L497,604.318C497,623.46 484.678,639 469.5,639L414.5,639C399.322,639 387,623.46 387,604.318L387,277.682C387,258.54 399.322,243 414.5,243L469.5,243C484.678,243 497,258.54 497,277.682Z" style="fill:rgb(255,178,1);"/>
                    </g>
                    <g transform="matrix(0.84835,0,0,0.855746,154.370421,44.212408)">
                        <path d="M497,270.5L497,611.5C497,626.678 484.678,639 469.5,639L414.5,639C399.322,639 387,626.678 387,611.5L387,270.5C387,255.322 399.322,243 414.5,243L469.5,243C484.678,243 497,255.322 497,270.5Z" style="fill:rgb(255,178,1);"/>
                    </g>
                    <g transform="matrix(0.84835,0,0,0.99837,295.19647,-46.924511)">
                        <path d="M497,266.571L497,615.429C497,628.438 484.678,639 469.5,639L414.5,639C399.322,639 387,628.438 387,615.429L387,266.571C387,253.562 399.322,243 414.5,243L469.5,243C484.678,243 497,253.562 497,266.571Z" style="fill:rgb(255,178,1);"/>
                    </g>
                    <g transform="matrix(0.84835,0,0,0.855746,436.022518,44.212408)">
                        <path d="M497,270.5L497,611.5C497,626.678 484.678,639 469.5,639L414.5,639C399.322,639 387,626.678 387,611.5L387,270.5C387,255.322 399.322,243 414.5,243L469.5,243C484.678,243 497,255.322 497,270.5Z" style="fill:rgb(255,178,1);"/>
                    </g>
                    <rect id="Rectangle" x="167" y="600" width="709" height="2" style="fill:rgb(199,210,242);"/>
                </g>
            </g>
        </g>
        <g id="UI-Elements1" serif:id="UI Elements" transform="matrix(1,0,0,1,833,623)">
            <g id="UI-Elements-Graph-11" serif:id="UI Elements/Graph 1">
                <g id="Interfae-Box-21" serif:id="Interfae Box 2">
                    <path id="Rectangle-Copy-51" serif:id="Rectangle Copy 5" d="M1025,154L1025,690C1025,725.323 996.323,754 961,754L186,754C150.677,754 122,725.323 122,690L122,154C122,118.677 150.677,90 186,90L961,90C996.323,90 1025,118.677 1025,154Z" style="fill:rgb(9,14,43);"/>
                    <path id="Rectangle-Copy1" serif:id="Rectangle Copy" d="M980,121L980,657C980,692.323 951.323,721 916,721L141,721C105.677,721 77,692.323 77,657L77,121C77,85.677 105.677,57 141,57L916,57C951.323,57 980,85.677 980,121Z" style="fill:white;"/>
                    <path id="Rectangle-Copy-21" serif:id="Rectangle Copy 2" d="M141,54L916,54C953.003,54 983,83.997 983,121L983,657C983,694.003 953.003,724 916,724L141,724C103.997,724 74,694.003 74,657L74,121C74,83.997 103.997,54 141,54ZM916,60L141,60C107.311,60 80,87.311 80,121L80,657C80,690.689 107.311,718 141,718L916,718C949.689,718 977,690.689 977,657L977,121C977,87.311 949.689,60 916,60Z" style="fill:rgb(9,14,43);"/>
                    <path id="Path-9" serif:id="Path 9" d="M747.653,250.062C799.008,237.451 846.649,294.932 892.393,419.938C893.531,423.05 891.932,426.496 888.82,427.635C885.708,428.773 882.262,427.174 881.123,424.062C837.367,304.486 793.225,251.227 750.515,261.716C727.031,267.483 707.546,282.317 689.503,306.517L688.258,308.2C675.507,325.58 666.039,342.909 647.75,380.317L641.519,393.08C622.885,431.093 613.19,448.511 599.294,466.958C579.416,493.348 557.312,509.718 530.238,515.729C510.923,520.017 495.179,512.232 481.893,494.305L481.491,493.759C471.833,480.53 464.903,465.491 452.695,434.143L448.913,424.412C437.261,394.542 430.423,379.666 421.33,366.632C409.855,350.183 397.481,342.462 382.327,343.379C326.588,346.748 266.548,409.572 203.338,532.62C201.824,535.568 198.207,536.73 195.26,535.216C192.312,533.701 191.15,530.085 192.664,527.137C257.66,400.612 320.261,335.109 381.603,331.4C401.298,330.21 417.197,339.995 430.762,359.182L431.172,359.767C440.789,373.553 447.79,388.631 459.348,418.146L464.578,431.584C475.839,460.397 482.401,474.547 490.916,486.316L491.183,486.683C501.978,501.47 513.339,507.188 527.637,504.014C551.608,498.692 571.418,484.021 589.709,459.738L590.971,458.049C603.763,440.786 613.266,423.501 631.38,386.501L637.598,373.761C656.204,335.753 665.842,318.271 679.447,299.93L679.883,299.344C699.461,273.085 721.154,256.569 747.653,250.062Z" style="fill:rgb(255,178,1);fill-rule:nonzero;"/>
                    <path id="Path-9-Copy" serif:id="Path 9 Copy" d="M855.461,262.363C856.299,259.157 859.578,257.238 862.784,258.076C865.99,258.915 867.909,262.194 867.07,265.399C829.866,407.628 782.055,474.407 721.873,462.893C695.818,457.908 677.611,458.83 664.083,464.799C653.666,469.395 646.384,476.268 636.161,489.881L634.978,491.468L628.885,499.787C626.262,503.356 624.157,506.139 622,508.857C613.001,520.193 604.125,528.884 593.015,536.394C579.577,545.476 563.492,552.228 543.679,556.626C525.421,560.68 509.764,558.613 495.299,551.083C484.531,545.477 475.982,538.235 462.563,524.523L456.286,518.055C442.762,504.11 434.925,497.125 425.082,491.229C412.568,483.734 399.247,480.295 383.426,481.252C326.304,484.705 265.765,512.91 201.838,566.097C199.29,568.217 195.507,567.87 193.388,565.322C191.268,562.775 191.615,558.992 194.163,556.873C259.906,502.175 322.744,472.898 382.702,469.273C400.993,468.168 416.704,472.224 431.248,480.934L432.227,481.527C442.435,487.781 450.591,495.018 463.643,508.406L469.932,514.893L471.091,516.081C483.692,528.959 491.495,535.574 500.841,540.439C512.803,546.666 525.578,548.353 541.078,544.911C559.453,540.832 574.139,534.668 586.296,526.452C596.284,519.701 604.309,511.842 612.602,501.396L613.687,500.016C615.139,498.156 616.625,496.188 618.339,493.87L625.137,484.594L625.571,484.007C637.436,468.013 646.148,459.596 659.239,453.82C675.277,446.744 695.873,445.701 724.128,451.107C775.368,460.91 819.734,398.943 855.461,262.363Z" style="fill:rgb(0,155,160);fill-rule:nonzero;"/>
                    <circle id="Oval" cx="763.5" cy="254.5" r="25.5" style="fill:rgb(255,0,87);"/>
                    <rect id="Rectangle1" serif:id="Rectangle" x="167" y="600" width="709" height="2" style="fill:rgb(199,210,242);"/>
                </g>
            </g>
        </g>
        <g id="Master-Character-Sitting--colors-" serif:id="Master/Character/Sitting [colors]" transform="matrix(1,0,0,1,-67,557)">
            <g id="Master-Character-Sitting--colors-1" serif:id="Master/Character/Sitting [colors]">
                <g id="Lower-Body-Sitting" serif:id="Lower Body/Sitting" transform="matrix(1,0,0,1,179,940)">
                    <g id="Lower-Body-Sitting-On-Chair-1" serif:id="Lower Body/Sitting/On Chair 1">
                        <path id="Fill-3" serif:id="Fill 3" d="M410.615,399.5C410.615,399.5 400.358,471.95 396.172,502.906C391.95,534.126 467.049,503.737 467.049,503.737C467.049,503.737 453.51,484.443 453.305,479.158C453.101,473.871 476.219,412 476.219,412L410.615,399.5Z" style="fill:rgb(9,185,198);"/>
                        <path id="Fill-5" serif:id="Fill 5" d="M561.036,0C597.898,16.848 635.154,59.389 602.589,139.129C570.025,218.869 493.394,411.872 481.35,420.555C469.306,429.239 405.785,412 405.785,412C405.785,412 412.733,330.944 426.535,251.243C436.642,192.88 457.953,150.326 457.953,150.326C457.953,150.326 286.541,174.784 243.983,146.076C188.125,108.397 229.481,6.861 261.586,-5.711C302.859,-21.871 490.855,-32.076 561.036,0Z" style="fill:rgb(9,14,43);"/>
                        <path id="Fill-17" serif:id="Fill 17" d="M559.105,537.55C553.719,520.869 514.662,509.853 486.46,501.514C476.967,498.706 463.703,484.835 457.546,485.001C448.582,485.245 457.367,503.898 427.363,502.274C419.419,501.845 418.852,493.484 401.592,491.581C398.787,491.273 394.499,490.728 390.796,497.394C388.732,501.111 380.282,534.664 388.578,548.345C446.664,549.846 506.413,548.363 558.02,547.882C563.06,547.834 560.482,541.819 559.105,537.55" style="fill:rgb(255,0,87);"/>
                        <path id="Fill-11" serif:id="Fill 1" d="M654.971,412C654.971,412 665.531,466.51 672.596,475.378C679.663,484.243 716.329,494.221 717.975,499.698C719.619,505.175 639.821,518 639.821,518L591,416.698L654.971,412Z" style="fill:rgb(9,185,198);"/>
                        <path id="Fill-10" serif:id="Fill 10" d="M790.105,534.55C784.719,517.87 745.662,506.853 717.46,498.513C707.967,495.706 694.703,481.834 688.546,482.001C679.582,482.244 688.367,500.898 658.363,499.274C650.42,498.845 649.853,490.483 632.592,488.581C629.787,488.272 625.499,487.728 621.796,494.393C619.732,498.11 611.282,531.663 619.578,545.346C677.664,546.846 737.413,545.362 789.02,544.881C794.06,544.833 791.482,538.818 790.105,534.55" style="fill:rgb(255,0,87);"/>
                        <path id="Fill-15" serif:id="Fill 15" d="M722.705,510.43C726.392,503.004 728.005,501.713 726.433,500.544C722.673,497.748 703.571,506.385 702.07,511.523C700.945,515.374 713.664,504.229 723.821,502.566C719.659,506.366 715.779,518.02 719.874,515.696C739.827,504.382 742.974,507.006 742.999,506.586C743.117,504.585 735.566,502.967 722.705,510.43" style="fill:rgb(255,178,1);"/>
                        <path id="Fill-7" serif:id="Fill 7" d="M180.128,77C192.092,138.955 247.292,161.212 295.191,159.362C368.357,156.536 442.941,124.042 468.153,113.183C465.932,129.164 477.806,220.025 497.63,262.074C517.453,304.124 582.01,430.62 582.01,430.62C582.01,430.62 654.852,431.05 657.967,413.369C660.016,401.738 591.632,76.85 569.01,20.596C556.02,-11.708 513.977,-25.649 427.502,-33C340.648,-40.383 214.032,-26.772 214.032,-26.772C214.032,-26.772 168.163,15.045 180.128,77Z" style="fill:rgb(0,19,134);"/>
                        <path id="Fill-22" serif:id="Fill 22" d="M491.705,514.43C495.392,507.005 497.005,505.714 495.432,504.544C491.672,501.749 472.571,510.385 471.07,515.522C469.945,519.373 482.664,508.228 492.821,506.566C488.659,510.367 484.778,522.019 488.874,519.697C508.827,508.381 511.974,511.006 511.999,510.585C512.117,508.585 504.566,506.966 491.705,514.43" style="fill:rgb(255,178,1);"/>
                        <path id="Fill-19" serif:id="Fill 19" d="M546.831,554.391L407.016,556.857C397.662,557.231 383.67,554.014 382.317,546.243C381.306,540.437 383.554,527.795 384.02,526.954C387.277,521.094 415.032,526.038 423.117,545.827C474.131,549.649 561.008,545.912 561.008,545.912C561.008,545.912 562.312,553.593 546.831,554.391" style="fill:rgb(9,14,43);"/>
                        <path id="Fill-12" serif:id="Fill 12" d="M777.721,550.785L637.906,553.251C628.553,553.625 614.56,550.409 613.207,542.638C612.197,536.832 614.444,524.19 614.911,523.349C618.167,517.489 645.922,522.433 654.007,542.222C705.021,546.044 791.899,542.307 791.899,542.307C791.899,542.307 793.202,549.988 777.721,550.785" style="fill:rgb(9,14,43);"/>
                    </g>
                </g>
                <g id="Upper-Body-Sitting" serif:id="Upper Body/Sitting" transform="matrix(1,0,0,1.001053,243,170)">
                    <g id="Upper-Body-Sitting-With-Laptop-2" serif:id="Upper Body/Sitting/With Laptop 2">
                        <path id="Fill-13" serif:id="Fill 1" d="M286,448C299.898,455.921 321.105,472.381 333.718,510.851C344.32,543.182 368.57,589.863 369.354,594.557C381.886,599.248 432,624.25 432,624.25C432,624.25 397.463,680 394.618,680C391.772,680 374.926,679.132 358.612,677.849C305.347,673.659 302.615,637.159 299.973,622.271C291.424,574.088 289.989,453.179 286,448" style="fill:rgb(54,21,246);"/>
                        <path id="Fill-31" serif:id="Fill 3" d="M203.679,373C203.679,373 215.229,430.304 207.464,436.256C203.587,439.228 187,443.605 187,443.605C187,443.605 227.845,476.13 252.813,476.967C277.781,477.805 294.466,462.609 291.701,457.101C287.564,448.858 258.313,441.498 257.221,434.162C255.975,425.794 256.521,389.174 256.521,389.174L203.679,373Z" style="fill:rgb(9,185,198);"/>
                        <path id="Fill-8" serif:id="Fill 8" d="M126.185,468.342C125.002,478.894 113.436,610.159 129.055,629.825C147.759,653.375 120.262,728.83 108.36,748.037C87.654,781.45 64.317,841.503 140.314,792.468C209.312,747.949 301.723,743.109 319.79,737.775C325.933,735.961 321.714,730.278 321.315,726.364C316.68,680.826 327.91,585.791 327.999,553.732C328.056,533.119 305.18,458.994 287.181,448.378C283.594,446.262 265.901,438.729 265.901,441.674C265.901,456.144 264.743,476.667 257.864,476.667C240.342,476.667 195.014,444.859 187.991,441.674C171.889,444.931 127.536,456.296 126.185,468.342Z" style="fill:rgb(54,21,246);"/>
                        <path id="Fill-131" serif:id="Fill 13" d="M306.705,490.535C316.375,509.147 326.774,528.76 327.724,549.894C328.925,576.556 325.874,607.021 324.942,633.743C324.667,640.722 324.411,647.704 324.397,654.681C324.409,655.088 323.712,655.123 323.717,654.687C323.052,622.182 327.108,582.533 325.629,549.984C324.683,529.179 314.437,509.034 306.02,490.085C305.875,489.817 306.555,490.243 306.705,490.535" style="fill:rgb(9,14,43);"/>
                        <g id="macbook">
                            <path id="Fill-151" serif:id="Fill 15" d="M400.37,639.886L280.737,650.015C278.696,650.184 272.283,652.863 272.062,654.898C272.062,654.898 271.115,660.144 276.637,660.144L400.37,660.144L400.37,639.886Z" style="fill:white;"/>
                            <path id="Fill-171" serif:id="Fill 17" d="M563.427,660.144L376.125,660.144L427.804,522.887C430.941,515.138 437.583,507.392 448.064,507.392L604.657,507.51C621.488,507.388 623.6,513.634 619.981,523.475C609.556,551.816 582.743,631.168 573.525,653.402C571.831,657.485 567.848,660.144 563.427,660.144" style="fill:white;"/>
                            <path id="Fill-191" serif:id="Fill 19" d="M603.827,506.473C560.59,506.369 500.598,506.281 457.252,506.172C442.145,505.233 432.769,507.791 426.51,522.715C412.548,559.913 396.395,603.339 382.858,640.832L286.824,649.499C295.941,648.768 383.381,642.467 383.636,641.663C399.014,603.32 415.175,558.328 430.532,520.106C436.818,508.519 445.502,508.153 457.252,508.625L489.825,508.608C511.135,508.713 566.973,508.405 587.547,508.555C594.947,509.416 618.268,505.31 620.298,514.788C620.673,523.795 615.155,532.789 612.527,541.408C610.152,549.198 601.801,572.167 601.801,572.167C593.258,596.261 583.657,625.225 574.573,648.878C571.156,659.683 566.623,659.789 556.463,659.532C551.324,659.571 537.941,660.132 532.655,660.178C532.019,660.187 531.382,660.621 532.033,660.639C541.388,660.518 555.456,661.018 564.672,660.717C570.836,660.37 574.239,654.677 575.893,649.397C585.713,624.075 594.543,598.387 603.56,572.781C607.053,562.195 615.919,536.707 619.855,526.734C626.164,510.754 618.738,505.986 603.827,506.473" style="fill:rgb(9,14,43);"/>
                        </g>
                        <path id="Fill-21" serif:id="Fill 21" d="M258.796,651.475C258.431,651.503 258.215,651.522 258.204,651.525L258.796,651.475Z"/>
                        <path id="Fill-23" serif:id="Fill 23" d="M471,659.775L504.342,659.775C516.167,659.993 509.981,635.809 522.9,638.161C533.929,640.169 533.431,646.637 532.286,659.68C534.519,656.887 538.763,655.968 540.216,656.917C542.293,658.274 539.968,658.675 536.461,664.296C532.406,670.794 520.879,676.871 507.14,678.026C503.005,678.373 479.248,682 479.248,682L471,659.775Z" style="fill:rgb(9,185,198);"/>
                        <path id="Fill-25" serif:id="Fill 25" d="M276.485,647.783C276.485,647.783 285.752,641.18 293.7,642.114C304.303,643.357 305.148,638.575 307.86,642.743C308.456,643.658 306.585,646.596 301.674,647.688C295.046,649.16 297.823,653.25 297.823,653.25C297.823,653.25 320.846,658.74 324.083,659.319C325.871,659.638 326.353,664.727 312.835,668.738C305.784,670.831 295.707,670.886 283.83,671.285C280.526,671.398 242.53,683 242.53,683L240.188,664.067L239,644.394L276.485,647.783Z" style="fill:rgb(9,185,198);"/>
                        <path id="Fill-27" serif:id="Fill 27" d="M395,680.025C395,680.025 490.409,683.881 496.352,682.813C502.295,681.745 490.252,660 490.252,660L404.046,660L395,680.025Z" style="fill:rgb(54,21,246);"/>
                        <g id="blush">
                            <g id="Fill-29" serif:id="Fill 29" transform="matrix(1.590712,0,0,1.590712,-298.535501,-343.169161)">
                                <path d="M506.171,586.015L506.156,586.015C501.892,586.015 500.019,584.223 499.282,583.154C498.734,582.358 498.934,581.268 499.73,580.72C500.525,580.171 501.616,580.373 502.163,581.167C502.754,582.024 504.21,582.515 506.157,582.515L506.17,582.515C509.16,582.515 511.246,581.389 512.225,580.718C513.023,580.169 514.111,580.374 514.657,581.17C515.204,581.967 515.002,583.056 514.205,583.603C511.941,585.159 509.087,586.015 506.171,586.015" style="fill:rgb(9,14,43);"/>
                            </g>
                            <g id="Fill-35" serif:id="Fill 35" transform="matrix(1.590712,0,0,1.590712,-298.535501,-343.169161)">
                                <path d="M497.923,573.951C497.298,575.582 495.477,576.903 493.856,576.903C492.234,576.903 491.426,575.582 492.051,573.951C492.676,572.321 494.497,571 496.118,571C497.739,571 498.548,572.321 497.923,573.951" style="fill:rgb(9,14,43);"/>
                            </g>
                            <g id="Fill-37" serif:id="Fill 37" transform="matrix(1.590712,0,0,1.590712,-298.535501,-343.169161)">
                                <path d="M528.872,573.951C528.247,575.582 526.426,576.903 524.805,576.903C523.183,576.903 522.375,575.582 523,573.951C523.625,572.321 525.445,571 527.067,571C528.688,571 529.496,572.321 528.872,573.951" style="fill:rgb(9,14,43);"/>
                            </g>
                        </g>
                        <path id="Fill-39" serif:id="Fill 39" d="M187.02,561.172C178.53,583.552 131.375,633.529 131.375,633.529C131.375,633.529 241.684,644.975 257.979,644.973C258.357,650.702 253.559,694.183 253.559,694.183C205.553,700.984 53.153,720.653 41.084,680.373C15.939,596.452 114.605,481.936 127.273,466.451C145.018,444.759 198.374,531.239 187.02,561.172" style="fill:rgb(54,21,246);"/>
                        <path id="Fill-42" serif:id="Fill 42" d="M257.714,644.434C215.359,642.423 176.769,635.397 134.316,631.665C149.27,615.655 163.802,599.173 176.277,581.151C180.554,574.793 184.438,568.478 186.983,561.201C187.061,560.969 187.671,559.084 187.438,559C177.527,579.201 161.244,598.575 145.832,615.386C140.656,620.974 135.381,626.497 130.006,631.865C129.117,632.701 127.894,634.197 130.974,634.403C163.524,636.573 196.118,640.633 228.598,643.662C239.483,644.455 245.187,644.96 256.136,645C257.896,645.007 258.379,644.419 257.714,644.434" style="fill:rgb(9,14,43);"/>
                        <path id="Fill-44" serif:id="Fill 44" d="M254.944,679C254.426,679 250.565,694.199 249.377,694.362C209.234,699.899 166.001,705.665 125.324,704.408C124.561,704.331 125.277,705.06 126.114,705.142C155.99,708.395 220.894,701.486 230.656,699.596C248.855,696.071 250.414,696.345 251.194,695.113C251.194,695.113 255.462,679 254.944,679Z" style="fill:rgb(9,14,43);"/>
                    </g>
                </g>
                <g id="Head" transform="matrix(1,0,0,1,341,346)">
                    <g id="Head-Ponytail-Blue" serif:id="Head/Ponytail Blue">
                        <path id="Combined-Shape" serif:id="Combined Shape" d="M229.121,243.28C221.151,261.083 203.032,276.491 190.894,276.491C159.515,276.491 114.599,224.968 114.599,224.968C111.679,222.114 109.231,218.09 107.213,213.593C99.231,214.61 84.289,210.476 79.728,197.758C76.433,188.57 78.643,175.661 85.501,173.735C91.613,172.016 96.505,174.281 100.299,177.502C107.539,158.524 158.931,66.373 186.996,62.836C205.836,60.462 205.754,67.898 205.659,76.494C205.601,81.694 205.538,87.319 209.658,91.454C211.634,93.437 213.825,95.101 216.084,96.818C225.908,104.282 237.037,112.737 237.507,152.723C237.576,158.574 238.32,164.337 239.099,170.372C241.471,188.756 244.17,209.666 229.121,243.28Z" style="fill:rgb(9,185,198);"/>
                        <path id="Fill-101" serif:id="Fill 10" d="M102.498,192.494C99.625,186.726 92.704,183.152 86.726,187.188C85.373,188.101 87.241,188.141 87.811,188.078C94.913,187.149 97.688,189.673 100.021,193.711C97.79,194.258 95.561,196.243 95.275,198.485C95.102,199.861 95.806,204.266 96.273,202.674C96.526,201.81 95.912,195.527 101.201,196.08C101.281,196.098 103.13,199.285 103.65,199.515C104.539,199.908 103.81,195.131 102.498,192.494" style="fill:rgb(9,14,43);"/>
                        <path id="Fill-121" serif:id="Fill 12" d="M138.08,248.002C138.793,248.108 144.27,252.072 145.939,253.386C152.268,258.363 157.596,262.085 165.385,267.257C166.885,268.253 170.414,270.174 170.322,270.65C170.189,271.322 165.46,270.219 164.07,269.515C155.809,265.328 147.738,257.416 141.986,252.274C140.105,250.593 137.509,247.917 138.08,248.002Z" style="fill:rgb(9,14,43);"/>
                        <path id="Fill-32" serif:id="Fill 3" d="M150.644,159.429C163.985,146.458 179.262,130.034 179.262,124.313C176.551,140.205 176.447,144.561 170.556,158.079C179.521,154.171 199.725,124.313 201.335,106.378C213.965,132.78 228.479,120.307 237.144,152.928C246.632,140.849 240.439,89.828 220.334,70.923C211.618,62.727 205.104,63.803 201.335,64.98C195.935,37.944 157.375,41.337 147.927,45.129C149.283,21.608 130.467,-22.985 111.491,-23.62C92.516,-24.256 52.256,-29.693 26.603,33.883C16.23,59.589 16.257,72.572 39.107,138.355C48.949,166.694 7.882,175.944 11.19,178.958C18.854,185.938 59.672,185.044 65.509,154.381C71.485,122.984 70.132,121.373 71.585,111.854C70.314,128.921 72.127,151.126 90.373,171.901C97.223,177.556 100.615,174.055 110.034,188.145C111.843,190.85 117.602,205.724 119.838,200.829C122.532,194.93 115.593,174.709 117.461,174.533C124.238,173.897 140.348,169.439 150.644,159.429Z" style="fill:rgb(0,19,134);"/>
                        <path id="Fill-6" serif:id="Fill 6" d="M122.037,49.634C130.508,45.667 140.94,43.663 147.927,45.129C151.018,37.623 147.891,35.654 147.891,35.654C147.891,35.654 140.519,28.615 126.102,34.797C111.684,40.979 106.435,52.096 106.661,54.609C106.812,56.279 107.625,57.581 109.917,57.758C109.917,57.758 115.598,52.649 122.037,49.634Z" style="fill:rgb(255,0,164);"/>
                    </g>
                </g>
                <g id="Expressions" transform="matrix(1,0,0,1,462,479)">
                    <g id="Expressions-Closed-Eyes" serif:id="Expressions/Closed Eyes">
                        <path id="Fill-14" serif:id="Fill 1" d="M25.292,30.642C24.514,22.501 45.879,12.618 57.57,15.318C61.605,16.229 69.68,19.709 65.096,24.521C63.835,25.637 62.195,25.445 60.735,25.059C44.393,20.125 25.834,36.317 25.292,30.642Z" style="fill:rgb(9,14,43);"/>
                        <path id="Fill-41" serif:id="Fill 4" d="M104.848,17.971C107.995,19.856 111.825,25.302 108.136,24.849C104.446,24.396 96.584,22.368 90.956,23.921C89.026,24.169 87.494,24.91 85.588,24.903C81.21,25.211 79.515,19.804 82.919,17.079C86.764,14.001 98.498,13.758 104.848,17.971Z" style="fill:rgb(9,14,43);"/>
                        <path id="nose" d="M85.988,71.339C85.013,76.257 78.969,76.736 75.032,75.621C71.833,74.715 71.004,72.851 72.085,72.254C73.849,71.28 79.5,73.989 81.586,71.403C85.306,66.791 73.892,49.835 77.518,52.559C82.31,56.16 86.639,68.056 85.988,71.339Z" style="fill:rgb(9,14,43);"/>
                        <path id="Fill-18" serif:id="Fill 18" d="M94.257,87.96C93.554,88.615 92.01,91.177 90.356,92.874C86.634,96.692 80.083,98.168 76.092,97.8C68.59,97.108 64.908,92.65 62.828,91.541C60.748,90.433 64.216,88.364 67.032,88.319C69.848,88.273 71.805,88.886 77.369,90.617C80.96,91.734 88.51,88.842 90.568,87.299C94.492,84.355 95.972,86.361 94.257,87.96Z" style="fill:rgb(9,14,43);"/>
                        <path id="Fill-51" serif:id="Fill 5" d="M62.935,45.113C63.554,52.759 53.929,57.626 45.764,53.806C41.558,51.84 39.415,48.879 40.44,47.642C41.096,46.85 42.967,47.976 43.59,48.346C51.866,53.267 58.422,48.825 60.423,44.418C61.205,42.698 62.736,42.656 62.935,45.113" style="fill:rgb(9,14,43);"/>
                        <path id="Fill-71" serif:id="Fill 7" d="M105.17,42.811C104.522,45.915 103.316,47.485 101.796,48.589C97.365,51.806 90.136,48.586 88.754,45.621C87.72,43.404 89.161,43.35 90.849,44.401C93.526,46.071 96.073,46.413 97.758,46.094C100.996,45.483 102.535,42.225 103.701,40.883C104.335,40.154 105.675,40.395 105.17,42.811" style="fill:rgb(9,14,43);"/>
                    </g>
                </g>
            </g>
        </g>
        <g id="Vector_3" transform="matrix(0.167271,0,0,0.167271,892.129542,299.031259)">
            <path d="M760.713,583.4C756.913,552 742.413,523.1 728.113,494.9C721.113,504.1 712.513,512 702.713,518.1C704.913,449.4 683.413,380.1 642.613,324.8C635.113,341.1 623.313,355.3 608.613,365.6C609.313,297 584.513,228.4 540.113,176C545.913,182.8 535.213,219.1 533.213,227.5C529.013,245.4 522.913,262.9 515.113,279.6C510.513,289.3 465.413,366.2 456.113,357.8C453.513,355.4 453.312,351.5 452.912,347.9C451.412,336.2 444.613,326.6 437.813,317.4C436.813,316.1 416.913,294.8 416.513,298.2C414.113,322.8 396.113,342.6 382.313,363.1C363.913,390.5 351.813,422.1 347.213,454.8C346.113,462.9 350.413,487.8 337.313,485.3C330.213,483.9 325.612,470 326.612,463.9C317.212,516.8 315.013,572.8 331.013,623.7C333.613,632.1 336.813,640.4 340.513,648.4C355.213,680.7 380.513,708.3 410.813,727C467.613,762 555.813,763.3 582.213,761.9C633.413,759.2 686.812,736.6 721.912,698.7C750.412,668 765.713,624.9 760.713,583.4Z" style="fill:rgb(232,78,51);fill-rule:nonzero;"/>
        </g>
        <g id="Vector_4" transform="matrix(0.167271,0,0,0.167271,892.129542,299.031259)">
            <path d="M708.112,574.3C692.312,580.5 689.612,593.1 679.912,604.2C673.612,597.4 681.212,586.9 682.312,579C688.012,539.1 670.312,499.6 649.112,465.3C640.012,450.6 628.012,429.5 635.512,411.5C625.612,411.4 619.312,421.7 613.412,428.2C604.112,438.4 594.412,446.8 581.312,451.9C553.912,462.5 563.012,442.2 563.412,424.5C563.912,401.9 551.612,373.9 530.312,363.8C525.112,391.3 516.912,409.9 498.112,430.5C481.012,449.1 460.712,474.9 455.412,500C452.312,493.5 449.912,486.3 448.912,479.2C447.012,466.8 446.712,454 445.012,441.5C439.012,475.8 404.712,501.6 403.812,536.5C403.512,550.7 410.312,567.5 408.012,580.9C391.312,575.5 387.212,552.6 368.412,548.5C370.412,563.1 372.412,577.6 374.412,592.2C376.612,608.4 379.012,625.2 385.712,640.2C401.812,676.1 426.612,708.5 461.812,726.8C510.312,752 562.912,760 613.712,738.2C644.112,725.2 667.812,699.3 682.812,669.8C697.812,640.3 704.812,607.2 708.112,574.3ZM371.612,548.8C371.712,549 371.812,549.2 371.612,548.8Z" style="fill:rgb(255,182,85);fill-rule:nonzero;"/>
        </g>
        <g id="Group1" serif:id="Group" transform="matrix(0.167271,0,0,0.167271,892.129542,299.031259)">
            <path id="Vector_5" d="M639.112,677.5C656.399,677.5 670.412,663.486 670.412,646.2C670.412,628.913 656.399,614.9 639.112,614.9C621.826,614.9 607.812,628.913 607.812,646.2C607.812,663.486 621.826,677.5 639.112,677.5Z" style="fill:rgb(255,140,125);fill-rule:nonzero;"/>
            <g id="Vector_8" transform="matrix(1.430757,0,0,1.430757,-258.444326,-276.376918)">
                <path d="M616.212,641.6C628.312,641.9 641.612,632.7 641.612,616.4C641.612,600.4 628.612,591.3 616.512,591.3C602.412,591.3 591.312,602.9 591.312,616.4C591.312,630.4 602.912,641.6 616.212,641.6Z" style="fill:rgb(242,233,221);fill-rule:nonzero;"/>
            </g>
            <g id="Vector_12" transform="matrix(1.430757,0,0,1.430757,-258.444326,-276.376918)">
                <path d="M609.712,610.6C610.012,602.7 616.312,599 621.212,599C627.512,599 632.812,604.1 632.912,610.4C633.112,616.7 627.412,622.5 621.112,622.2C614.212,622 609.712,616.5 609.712,610.6Z" style="fill:rgb(242,233,221);fill-rule:nonzero;"/>
            </g>
            <g id="Vector_10" transform="matrix(1.430757,0,0,1.430757,-258.444326,-276.376918)">
                <path d="M616.212,641.6C602.912,641.6 591.312,630.5 591.312,616.3C591.312,602.8 602.512,591.2 616.512,591.2C628.612,591.2 641.612,600.3 641.612,616.3C641.712,632.7 628.412,641.8 616.212,641.6ZM609.712,610.6C609.712,616.5 614.212,622 621.212,622.3C627.512,622.6 633.212,616.8 633.012,610.5C632.812,604.2 627.512,599.1 621.312,599.1C616.312,599 610.012,602.7 609.712,610.6ZM605.012,617.4C603.812,617.8 602.812,617.9 601.912,618.4C598.212,620.4 597.612,624.1 598.912,627.3C600.012,630 603.212,631.6 606.012,631.1C608.812,630.6 611.112,628.4 611.512,625.7C612.012,622.7 610.712,619.7 608.012,618.4C607.212,617.9 606.212,617.7 605.012,617.4Z" style="fill:rgb(95,33,48);fill-rule:nonzero;"/>
            </g>
            <g id="Vector_6" transform="matrix(1,0,0,1,23.91325,-5.978313)">
                <path d="M439.812,677.5C457.099,677.5 471.112,663.486 471.112,646.2C471.112,628.913 457.099,614.9 439.812,614.9C422.526,614.9 408.512,628.913 408.512,646.2C408.512,663.486 422.526,677.5 439.812,677.5Z" style="fill:rgb(255,140,125);fill-rule:nonzero;"/>
            </g>
            <g id="Vector_14" transform="matrix(1.430757,0,0,1.430757,-192.682888,-276.376918)">
                <path d="M488.912,607.2C488.912,613.6 483.612,618.9 477.412,618.9C471.112,618.8 465.912,613.5 465.912,607.1C465.912,599.8 472.312,595.5 477.512,595.5C483.712,595.5 489.412,601 488.912,607.2Z" style="fill:rgb(242,233,221);fill-rule:nonzero;"/>
            </g>
            <g id="Vector_9" transform="matrix(1.430757,0,0,1.430757,-192.682888,-276.376918)">
                <path d="M497.712,613C498.312,600.2 487.512,587.8 472.912,587.7C460.012,587.6 448.012,597.1 447.312,613C448.212,629.7 460.912,638.2 472.612,638.1C487.412,638 498.012,625.9 497.712,613Z" style="fill:rgb(242,233,221);fill-rule:nonzero;"/>
                <g>
                    <clipPath id="_clip1">
                        <path d="M497.712,613C498.312,600.2 487.512,587.8 472.912,587.7C460.012,587.6 448.012,597.1 447.312,613C448.212,629.7 460.912,638.2 472.612,638.1C487.412,638 498.012,625.9 497.712,613Z"/>
                    </clipPath>
                    <g clip-path="url(#_clip1)">
                        <path id="Vector_11" d="M497.712,613C498.012,625.9 487.412,638 472.612,638.1C460.912,638.2 448.212,629.7 447.312,613C448.012,597.2 460.012,587.6 472.912,587.7C487.512,587.8 498.212,600.1 497.712,613ZM488.912,607.2C489.312,601 483.712,595.5 477.512,595.5C472.312,595.5 465.912,599.7 465.912,607.1C465.912,613.5 471.012,618.8 477.412,618.9C483.612,618.9 488.912,613.6 488.912,607.2ZM451.612,620.6C451.912,623.1 452.812,625 454.712,626.3C456.012,627.2 457.512,627.7 459.212,627.5C462.512,627.1 465.112,624.3 465.212,621.1C465.312,617.7 462.912,614.7 459.412,614C457.712,613.7 456.212,614.2 454.912,615C453.012,616.3 452.012,618.2 451.612,620.6Z" style="fill:rgb(95,33,48);fill-rule:nonzero;"/>
                    </g>
                </g>
            </g>
        </g>
        <g id="Vector_23" transform="matrix(0.17434,0,0,0.17434,887.818483,298.793848)">
            <path d="M560.312,632.899C559.912,632.899 559.312,633.099 558.612,633.499C557.912,633.999 557.612,634.999 557.412,635.899C556.512,639.799 555.412,643.699 555.112,647.599C554.812,651.199 553.812,654.799 552.012,657.899C550.212,661.099 548.712,663.999 544.212,663.099C541.712,662.599 539.612,660.799 538.112,658.799C536.612,656.699 535.712,654.299 534.812,651.899C533.512,648.399 532.112,644.999 530.812,641.499C530.012,639.299 530.612,635.999 528.712,634.499C524.112,630.799 526.212,640.399 526.512,641.999C528.412,651.299 532.612,668.899 544.912,669.499C551.912,668.399 555.812,662.399 558.012,656.199C559.212,652.899 560.312,649.799 561.012,646.499C561.412,645.199 563.512,633.199 560.312,632.899Z" style="fill:rgb(95,33,48);fill-rule:nonzero;"/>
        </g>
        <g id="Vector_31" serif:id="Vector_3" transform="matrix(0.167271,0,0,0.167271,727.129542,369.031259)">
            <path d="M760.713,583.4C756.913,552 742.413,523.1 728.113,494.9C721.113,504.1 712.513,512 702.713,518.1C704.913,449.4 683.413,380.1 642.613,324.8C635.113,341.1 623.313,355.3 608.613,365.6C609.313,297 584.513,228.4 540.113,176C545.913,182.8 535.213,219.1 533.213,227.5C529.013,245.4 522.913,262.9 515.113,279.6C510.513,289.3 465.413,366.2 456.113,357.8C453.513,355.4 453.312,351.5 452.912,347.9C451.412,336.2 444.613,326.6 437.813,317.4C436.813,316.1 416.913,294.8 416.513,298.2C414.113,322.8 396.113,342.6 382.313,363.1C363.913,390.5 351.813,422.1 347.213,454.8C346.113,462.9 350.413,487.8 337.313,485.3C330.213,483.9 325.612,470 326.612,463.9C317.212,516.8 315.013,572.8 331.013,623.7C333.613,632.1 336.813,640.4 340.513,648.4C355.213,680.7 380.513,708.3 410.813,727C467.613,762 555.813,763.3 582.213,761.9C633.413,759.2 686.812,736.6 721.912,698.7C750.412,668 765.713,624.9 760.713,583.4Z" style="fill:rgb(232,78,51);fill-rule:nonzero;"/>
        </g>
        <g id="Vector_41" serif:id="Vector_4" transform="matrix(0.167271,0,0,0.167271,727.129542,369.031259)">
            <path d="M708.112,574.3C692.312,580.5 689.612,593.1 679.912,604.2C673.612,597.4 681.212,586.9 682.312,579C688.012,539.1 670.312,499.6 649.112,465.3C640.012,450.6 628.012,429.5 635.512,411.5C625.612,411.4 619.312,421.7 613.412,428.2C604.112,438.4 594.412,446.8 581.312,451.9C553.912,462.5 563.012,442.2 563.412,424.5C563.912,401.9 551.612,373.9 530.312,363.8C525.112,391.3 516.912,409.9 498.112,430.5C481.012,449.1 460.712,474.9 455.412,500C452.312,493.5 449.912,486.3 448.912,479.2C447.012,466.8 446.712,454 445.012,441.5C439.012,475.8 404.712,501.6 403.812,536.5C403.512,550.7 410.312,567.5 408.012,580.9C391.312,575.5 387.212,552.6 368.412,548.5C370.412,563.1 372.412,577.6 374.412,592.2C376.612,608.4 379.012,625.2 385.712,640.2C401.812,676.1 426.612,708.5 461.812,726.8C510.312,752 562.912,760 613.712,738.2C644.112,725.2 667.812,699.3 682.812,669.8C697.812,640.3 704.812,607.2 708.112,574.3ZM371.612,548.8C371.712,549 371.812,549.2 371.612,548.8Z" style="fill:rgb(255,182,85);fill-rule:nonzero;"/>
        </g>
        <g id="Group2" serif:id="Group" transform="matrix(0.167271,0,0,0.167271,727.129542,369.031259)">
            <path id="Vector_51" serif:id="Vector_5" d="M639.112,677.5C656.399,677.5 670.412,663.486 670.412,646.2C670.412,628.913 656.399,614.9 639.112,614.9C621.826,614.9 607.812,628.913 607.812,646.2C607.812,663.486 621.826,677.5 639.112,677.5Z" style="fill:rgb(255,140,125);fill-rule:nonzero;"/>
            <g id="Vector_81" serif:id="Vector_8" transform="matrix(1.430757,0,0,1.430757,-258.444326,-276.376918)">
                <path d="M616.212,641.6C628.312,641.9 641.612,632.7 641.612,616.4C641.612,600.4 628.612,591.3 616.512,591.3C602.412,591.3 591.312,602.9 591.312,616.4C591.312,630.4 602.912,641.6 616.212,641.6Z" style="fill:rgb(242,233,221);fill-rule:nonzero;"/>
            </g>
            <g id="Vector_121" serif:id="Vector_12" transform="matrix(1.430757,0,0,1.430757,-258.444326,-276.376918)">
                <path d="M609.712,610.6C610.012,602.7 616.312,599 621.212,599C627.512,599 632.812,604.1 632.912,610.4C633.112,616.7 627.412,622.5 621.112,622.2C614.212,622 609.712,616.5 609.712,610.6Z" style="fill:rgb(242,233,221);fill-rule:nonzero;"/>
            </g>
            <g id="Vector_101" serif:id="Vector_10" transform="matrix(1.430757,0,0,1.430757,-258.444326,-276.376918)">
                <path d="M616.212,641.6C602.912,641.6 591.312,630.5 591.312,616.3C591.312,602.8 602.512,591.2 616.512,591.2C628.612,591.2 641.612,600.3 641.612,616.3C641.712,632.7 628.412,641.8 616.212,641.6ZM609.712,610.6C609.712,616.5 614.212,622 621.212,622.3C627.512,622.6 633.212,616.8 633.012,610.5C632.812,604.2 627.512,599.1 621.312,599.1C616.312,599 610.012,602.7 609.712,610.6ZM605.012,617.4C603.812,617.8 602.812,617.9 601.912,618.4C598.212,620.4 597.612,624.1 598.912,627.3C600.012,630 603.212,631.6 606.012,631.1C608.812,630.6 611.112,628.4 611.512,625.7C612.012,622.7 610.712,619.7 608.012,618.4C607.212,617.9 606.212,617.7 605.012,617.4Z" style="fill:rgb(95,33,48);fill-rule:nonzero;"/>
            </g>
            <g id="Vector_61" serif:id="Vector_6" transform="matrix(1,0,0,1,23.91325,-5.978313)">
                <path d="M439.812,677.5C457.099,677.5 471.112,663.486 471.112,646.2C471.112,628.913 457.099,614.9 439.812,614.9C422.526,614.9 408.512,628.913 408.512,646.2C408.512,663.486 422.526,677.5 439.812,677.5Z" style="fill:rgb(255,140,125);fill-rule:nonzero;"/>
            </g>
            <g id="Vector_141" serif:id="Vector_14" transform="matrix(1.430757,0,0,1.430757,-192.682888,-276.376918)">
                <path d="M488.912,607.2C488.912,613.6 483.612,618.9 477.412,618.9C471.112,618.8 465.912,613.5 465.912,607.1C465.912,599.8 472.312,595.5 477.512,595.5C483.712,595.5 489.412,601 488.912,607.2Z" style="fill:rgb(242,233,221);fill-rule:nonzero;"/>
            </g>
            <g id="Vector_91" serif:id="Vector_9" transform="matrix(1.430757,0,0,1.430757,-192.682888,-276.376918)">
                <path d="M497.712,613C498.312,600.2 487.512,587.8 472.912,587.7C460.012,587.6 448.012,597.1 447.312,613C448.212,629.7 460.912,638.2 472.612,638.1C487.412,638 498.012,625.9 497.712,613Z" style="fill:rgb(242,233,221);fill-rule:nonzero;"/>
                <g>
                    <clipPath id="_clip2">
                        <path d="M497.712,613C498.312,600.2 487.512,587.8 472.912,587.7C460.012,587.6 448.012,597.1 447.312,613C448.212,629.7 460.912,638.2 472.612,638.1C487.412,638 498.012,625.9 497.712,613Z"/>
                    </clipPath>
                    <g clip-path="url(#_clip2)">
                        <path id="Vector_111" serif:id="Vector_11" d="M497.712,613C498.012,625.9 487.412,638 472.612,638.1C460.912,638.2 448.212,629.7 447.312,613C448.012,597.2 460.012,587.6 472.912,587.7C487.512,587.8 498.212,600.1 497.712,613ZM488.912,607.2C489.312,601 483.712,595.5 477.512,595.5C472.312,595.5 465.912,599.7 465.912,607.1C465.912,613.5 471.012,618.8 477.412,618.9C483.612,618.9 488.912,613.6 488.912,607.2ZM451.612,620.6C451.912,623.1 452.812,625 454.712,626.3C456.012,627.2 457.512,627.7 459.212,627.5C462.512,627.1 465.112,624.3 465.212,621.1C465.312,617.7 462.912,614.7 459.412,614C457.712,613.7 456.212,614.2 454.912,615C453.012,616.3 452.012,618.2 451.612,620.6Z" style="fill:rgb(95,33,48);fill-rule:nonzero;"/>
                    </g>
                </g>
            </g>
        </g>
        <g id="Vector_231" serif:id="Vector_23" transform="matrix(0.17434,0,0,0.17434,722.818483,368.793848)">
            <path d="M560.312,632.899C559.912,632.899 559.312,633.099 558.612,633.499C557.912,633.999 557.612,634.999 557.412,635.899C556.512,639.799 555.412,643.699 555.112,647.599C554.812,651.199 553.812,654.799 552.012,657.899C550.212,661.099 548.712,663.999 544.212,663.099C541.712,662.599 539.612,660.799 538.112,658.799C536.612,656.699 535.712,654.299 534.812,651.899C533.512,648.399 532.112,644.999 530.812,641.499C530.012,639.299 530.612,635.999 528.712,634.499C524.112,630.799 526.212,640.399 526.512,641.999C528.412,651.299 532.612,668.899 544.912,669.499C551.912,668.399 555.812,662.399 558.012,656.199C559.212,652.899 560.312,649.799 561.012,646.499C561.412,645.199 563.512,633.199 560.312,632.899Z" style="fill:rgb(95,33,48);fill-rule:nonzero;"/>
        </g>
        <g id="Vector_32" serif:id="Vector_3" transform="matrix(0.167271,0,0,0.167271,561.129542,449.031259)">
            <path d="M760.713,583.4C756.913,552 742.413,523.1 728.113,494.9C721.113,504.1 712.513,512 702.713,518.1C704.913,449.4 683.413,380.1 642.613,324.8C635.113,341.1 623.313,355.3 608.613,365.6C609.313,297 584.513,228.4 540.113,176C545.913,182.8 535.213,219.1 533.213,227.5C529.013,245.4 522.913,262.9 515.113,279.6C510.513,289.3 465.413,366.2 456.113,357.8C453.513,355.4 453.312,351.5 452.912,347.9C451.412,336.2 444.613,326.6 437.813,317.4C436.813,316.1 416.913,294.8 416.513,298.2C414.113,322.8 396.113,342.6 382.313,363.1C363.913,390.5 351.813,422.1 347.213,454.8C346.113,462.9 350.413,487.8 337.313,485.3C330.213,483.9 325.612,470 326.612,463.9C317.212,516.8 315.013,572.8 331.013,623.7C333.613,632.1 336.813,640.4 340.513,648.4C355.213,680.7 380.513,708.3 410.813,727C467.613,762 555.813,763.3 582.213,761.9C633.413,759.2 686.812,736.6 721.912,698.7C750.412,668 765.713,624.9 760.713,583.4Z" style="fill:rgb(232,78,51);fill-rule:nonzero;"/>
        </g>
        <g id="Vector_42" serif:id="Vector_4" transform="matrix(0.167271,0,0,0.167271,561.129542,449.031259)">
            <path d="M708.112,574.3C692.312,580.5 689.612,593.1 679.912,604.2C673.612,597.4 681.212,586.9 682.312,579C688.012,539.1 670.312,499.6 649.112,465.3C640.012,450.6 628.012,429.5 635.512,411.5C625.612,411.4 619.312,421.7 613.412,428.2C604.112,438.4 594.412,446.8 581.312,451.9C553.912,462.5 563.012,442.2 563.412,424.5C563.912,401.9 551.612,373.9 530.312,363.8C525.112,391.3 516.912,409.9 498.112,430.5C481.012,449.1 460.712,474.9 455.412,500C452.312,493.5 449.912,486.3 448.912,479.2C447.012,466.8 446.712,454 445.012,441.5C439.012,475.8 404.712,501.6 403.812,536.5C403.512,550.7 410.312,567.5 408.012,580.9C391.312,575.5 387.212,552.6 368.412,548.5C370.412,563.1 372.412,577.6 374.412,592.2C376.612,608.4 379.012,625.2 385.712,640.2C401.812,676.1 426.612,708.5 461.812,726.8C510.312,752 562.912,760 613.712,738.2C644.112,725.2 667.812,699.3 682.812,669.8C697.812,640.3 704.812,607.2 708.112,574.3ZM371.612,548.8C371.712,549 371.812,549.2 371.612,548.8Z" style="fill:rgb(255,182,85);fill-rule:nonzero;"/>
        </g>
        <g id="Group3" serif:id="Group" transform="matrix(0.167271,0,0,0.167271,561.129542,449.031259)">
            <path id="Vector_52" serif:id="Vector_5" d="M639.112,677.5C656.399,677.5 670.412,663.486 670.412,646.2C670.412,628.913 656.399,614.9 639.112,614.9C621.826,614.9 607.812,628.913 607.812,646.2C607.812,663.486 621.826,677.5 639.112,677.5Z" style="fill:rgb(255,140,125);fill-rule:nonzero;"/>
            <g id="Vector_82" serif:id="Vector_8" transform="matrix(1.430757,0,0,1.430757,-258.444326,-276.376918)">
                <path d="M616.212,641.6C628.312,641.9 641.612,632.7 641.612,616.4C641.612,600.4 628.612,591.3 616.512,591.3C602.412,591.3 591.312,602.9 591.312,616.4C591.312,630.4 602.912,641.6 616.212,641.6Z" style="fill:rgb(242,233,221);fill-rule:nonzero;"/>
            </g>
            <g id="Vector_122" serif:id="Vector_12" transform="matrix(1.430757,0,0,1.430757,-258.444326,-276.376918)">
                <path d="M609.712,610.6C610.012,602.7 616.312,599 621.212,599C627.512,599 632.812,604.1 632.912,610.4C633.112,616.7 627.412,622.5 621.112,622.2C614.212,622 609.712,616.5 609.712,610.6Z" style="fill:rgb(242,233,221);fill-rule:nonzero;"/>
            </g>
            <g id="Vector_102" serif:id="Vector_10" transform="matrix(1.430757,0,0,1.430757,-258.444326,-276.376918)">
                <path d="M616.212,641.6C602.912,641.6 591.312,630.5 591.312,616.3C591.312,602.8 602.512,591.2 616.512,591.2C628.612,591.2 641.612,600.3 641.612,616.3C641.712,632.7 628.412,641.8 616.212,641.6ZM609.712,610.6C609.712,616.5 614.212,622 621.212,622.3C627.512,622.6 633.212,616.8 633.012,610.5C632.812,604.2 627.512,599.1 621.312,599.1C616.312,599 610.012,602.7 609.712,610.6ZM605.012,617.4C603.812,617.8 602.812,617.9 601.912,618.4C598.212,620.4 597.612,624.1 598.912,627.3C600.012,630 603.212,631.6 606.012,631.1C608.812,630.6 611.112,628.4 611.512,625.7C612.012,622.7 610.712,619.7 608.012,618.4C607.212,617.9 606.212,617.7 605.012,617.4Z" style="fill:rgb(95,33,48);fill-rule:nonzero;"/>
            </g>
            <g id="Vector_62" serif:id="Vector_6" transform="matrix(1,0,0,1,23.91325,-5.978313)">
                <path d="M439.812,677.5C457.099,677.5 471.112,663.486 471.112,646.2C471.112,628.913 457.099,614.9 439.812,614.9C422.526,614.9 408.512,628.913 408.512,646.2C408.512,663.486 422.526,677.5 439.812,677.5Z" style="fill:rgb(255,140,125);fill-rule:nonzero;"/>
            </g>
            <g id="Vector_142" serif:id="Vector_14" transform="matrix(1.430757,0,0,1.430757,-192.682888,-276.376918)">
                <path d="M488.912,607.2C488.912,613.6 483.612,618.9 477.412,618.9C471.112,618.8 465.912,613.5 465.912,607.1C465.912,599.8 472.312,595.5 477.512,595.5C483.712,595.5 489.412,601 488.912,607.2Z" style="fill:rgb(242,233,221);fill-rule:nonzero;"/>
            </g>
            <g id="Vector_92" serif:id="Vector_9" transform="matrix(1.430757,0,0,1.430757,-192.682888,-276.376918)">
                <path d="M497.712,613C498.312,600.2 487.512,587.8 472.912,587.7C460.012,587.6 448.012,597.1 447.312,613C448.212,629.7 460.912,638.2 472.612,638.1C487.412,638 498.012,625.9 497.712,613Z" style="fill:rgb(242,233,221);fill-rule:nonzero;"/>
                <g>
                    <clipPath id="_clip3">
                        <path d="M497.712,613C498.312,600.2 487.512,587.8 472.912,587.7C460.012,587.6 448.012,597.1 447.312,613C448.212,629.7 460.912,638.2 472.612,638.1C487.412,638 498.012,625.9 497.712,613Z"/>
                    </clipPath>
                    <g clip-path="url(#_clip3)">
                        <path id="Vector_112" serif:id="Vector_11" d="M497.712,613C498.012,625.9 487.412,638 472.612,638.1C460.912,638.2 448.212,629.7 447.312,613C448.012,597.2 460.012,587.6 472.912,587.7C487.512,587.8 498.212,600.1 497.712,613ZM488.912,607.2C489.312,601 483.712,595.5 477.512,595.5C472.312,595.5 465.912,599.7 465.912,607.1C465.912,613.5 471.012,618.8 477.412,618.9C483.612,618.9 488.912,613.6 488.912,607.2ZM451.612,620.6C451.912,623.1 452.812,625 454.712,626.3C456.012,627.2 457.512,627.7 459.212,627.5C462.512,627.1 465.112,624.3 465.212,621.1C465.312,617.7 462.912,614.7 459.412,614C457.712,613.7 456.212,614.2 454.912,615C453.012,616.3 452.012,618.2 451.612,620.6Z" style="fill:rgb(95,33,48);fill-rule:nonzero;"/>
                    </g>
                </g>
            </g>
        </g>
        <g id="Vector_232" serif:id="Vector_23" transform="matrix(0.17434,0,0,0.17434,556.818483,448.793848)">
            <path d="M560.312,632.899C559.912,632.899 559.312,633.099 558.612,633.499C557.912,633.999 557.612,634.999 557.412,635.899C556.512,639.799 555.412,643.699 555.112,647.599C554.812,651.199 553.812,654.799 552.012,657.899C550.212,661.099 548.712,663.999 544.212,663.099C541.712,662.599 539.612,660.799 538.112,658.799C536.612,656.699 535.712,654.299 534.812,651.899C533.512,648.399 532.112,644.999 530.812,641.499C530.012,639.299 530.612,635.999 528.712,634.499C524.112,630.799 526.212,640.399 526.512,641.999C528.412,651.299 532.612,668.899 544.912,669.499C551.912,668.399 555.812,662.399 558.012,656.199C559.212,652.899 560.312,649.799 561.012,646.499C561.412,645.199 563.512,633.199 560.312,632.899Z" style="fill:rgb(95,33,48);fill-rule:nonzero;"/>
        </g>
        <g id="Vector_33" serif:id="Vector_3" transform="matrix(0.167271,0,0,0.167271,391.129542,507.031259)">
            <path d="M760.713,583.4C756.913,552 742.413,523.1 728.113,494.9C721.113,504.1 712.513,512 702.713,518.1C704.913,449.4 683.413,380.1 642.613,324.8C635.113,341.1 623.313,355.3 608.613,365.6C609.313,297 584.513,228.4 540.113,176C545.913,182.8 535.213,219.1 533.213,227.5C529.013,245.4 522.913,262.9 515.113,279.6C510.513,289.3 465.413,366.2 456.113,357.8C453.513,355.4 453.312,351.5 452.912,347.9C451.412,336.2 444.613,326.6 437.813,317.4C436.813,316.1 416.913,294.8 416.513,298.2C414.113,322.8 396.113,342.6 382.313,363.1C363.913,390.5 351.813,422.1 347.213,454.8C346.113,462.9 350.413,487.8 337.313,485.3C330.213,483.9 325.612,470 326.612,463.9C317.212,516.8 315.013,572.8 331.013,623.7C333.613,632.1 336.813,640.4 340.513,648.4C355.213,680.7 380.513,708.3 410.813,727C467.613,762 555.813,763.3 582.213,761.9C633.413,759.2 686.812,736.6 721.912,698.7C750.412,668 765.713,624.9 760.713,583.4Z" style="fill:rgb(232,78,51);fill-rule:nonzero;"/>
        </g>
        <g id="Vector_43" serif:id="Vector_4" transform="matrix(0.167271,0,0,0.167271,391.129542,507.031259)">
            <path d="M708.112,574.3C692.312,580.5 689.612,593.1 679.912,604.2C673.612,597.4 681.212,586.9 682.312,579C688.012,539.1 670.312,499.6 649.112,465.3C640.012,450.6 628.012,429.5 635.512,411.5C625.612,411.4 619.312,421.7 613.412,428.2C604.112,438.4 594.412,446.8 581.312,451.9C553.912,462.5 563.012,442.2 563.412,424.5C563.912,401.9 551.612,373.9 530.312,363.8C525.112,391.3 516.912,409.9 498.112,430.5C481.012,449.1 460.712,474.9 455.412,500C452.312,493.5 449.912,486.3 448.912,479.2C447.012,466.8 446.712,454 445.012,441.5C439.012,475.8 404.712,501.6 403.812,536.5C403.512,550.7 410.312,567.5 408.012,580.9C391.312,575.5 387.212,552.6 368.412,548.5C370.412,563.1 372.412,577.6 374.412,592.2C376.612,608.4 379.012,625.2 385.712,640.2C401.812,676.1 426.612,708.5 461.812,726.8C510.312,752 562.912,760 613.712,738.2C644.112,725.2 667.812,699.3 682.812,669.8C697.812,640.3 704.812,607.2 708.112,574.3ZM371.612,548.8C371.712,549 371.812,549.2 371.612,548.8Z" style="fill:rgb(255,182,85);fill-rule:nonzero;"/>
        </g>
        <g id="Group4" serif:id="Group" transform="matrix(0.167271,0,0,0.167271,391.129542,507.031259)">
            <path id="Vector_53" serif:id="Vector_5" d="M639.112,677.5C656.399,677.5 670.412,663.486 670.412,646.2C670.412,628.913 656.399,614.9 639.112,614.9C621.826,614.9 607.812,628.913 607.812,646.2C607.812,663.486 621.826,677.5 639.112,677.5Z" style="fill:rgb(255,140,125);fill-rule:nonzero;"/>
            <g id="Vector_83" serif:id="Vector_8" transform="matrix(1.430757,0,0,1.430757,-258.444326,-276.376918)">
                <path d="M616.212,641.6C628.312,641.9 641.612,632.7 641.612,616.4C641.612,600.4 628.612,591.3 616.512,591.3C602.412,591.3 591.312,602.9 591.312,616.4C591.312,630.4 602.912,641.6 616.212,641.6Z" style="fill:rgb(242,233,221);fill-rule:nonzero;"/>
            </g>
            <g id="Vector_123" serif:id="Vector_12" transform="matrix(1.430757,0,0,1.430757,-258.444326,-276.376918)">
                <path d="M609.712,610.6C610.012,602.7 616.312,599 621.212,599C627.512,599 632.812,604.1 632.912,610.4C633.112,616.7 627.412,622.5 621.112,622.2C614.212,622 609.712,616.5 609.712,610.6Z" style="fill:rgb(242,233,221);fill-rule:nonzero;"/>
            </g>
            <g id="Vector_103" serif:id="Vector_10" transform="matrix(1.430757,0,0,1.430757,-258.444326,-276.376918)">
                <path d="M616.212,641.6C602.912,641.6 591.312,630.5 591.312,616.3C591.312,602.8 602.512,591.2 616.512,591.2C628.612,591.2 641.612,600.3 641.612,616.3C641.712,632.7 628.412,641.8 616.212,641.6ZM609.712,610.6C609.712,616.5 614.212,622 621.212,622.3C627.512,622.6 633.212,616.8 633.012,610.5C632.812,604.2 627.512,599.1 621.312,599.1C616.312,599 610.012,602.7 609.712,610.6ZM605.012,617.4C603.812,617.8 602.812,617.9 601.912,618.4C598.212,620.4 597.612,624.1 598.912,627.3C600.012,630 603.212,631.6 606.012,631.1C608.812,630.6 611.112,628.4 611.512,625.7C612.012,622.7 610.712,619.7 608.012,618.4C607.212,617.9 606.212,617.7 605.012,617.4Z" style="fill:rgb(95,33,48);fill-rule:nonzero;"/>
            </g>
            <g id="Vector_63" serif:id="Vector_6" transform="matrix(1,0,0,1,23.91325,-5.978313)">
                <path d="M439.812,677.5C457.099,677.5 471.112,663.486 471.112,646.2C471.112,628.913 457.099,614.9 439.812,614.9C422.526,614.9 408.512,628.913 408.512,646.2C408.512,663.486 422.526,677.5 439.812,677.5Z" style="fill:rgb(255,140,125);fill-rule:nonzero;"/>
            </g>
            <g id="Vector_143" serif:id="Vector_14" transform="matrix(1.430757,0,0,1.430757,-192.682888,-276.376918)">
                <path d="M488.912,607.2C488.912,613.6 483.612,618.9 477.412,618.9C471.112,618.8 465.912,613.5 465.912,607.1C465.912,599.8 472.312,595.5 477.512,595.5C483.712,595.5 489.412,601 488.912,607.2Z" style="fill:rgb(242,233,221);fill-rule:nonzero;"/>
            </g>
            <g id="Vector_93" serif:id="Vector_9" transform="matrix(1.430757,0,0,1.430757,-192.682888,-276.376918)">
                <path d="M497.712,613C498.312,600.2 487.512,587.8 472.912,587.7C460.012,587.6 448.012,597.1 447.312,613C448.212,629.7 460.912,638.2 472.612,638.1C487.412,638 498.012,625.9 497.712,613Z" style="fill:rgb(242,233,221);fill-rule:nonzero;"/>
                <g>
                    <clipPath id="_clip4">
                        <path d="M497.712,613C498.312,600.2 487.512,587.8 472.912,587.7C460.012,587.6 448.012,597.1 447.312,613C448.212,629.7 460.912,638.2 472.612,638.1C487.412,638 498.012,625.9 497.712,613Z"/>
                    </clipPath>
                    <g clip-path="url(#_clip4)">
                        <path id="Vector_113" serif:id="Vector_11" d="M497.712,613C498.012,625.9 487.412,638 472.612,638.1C460.912,638.2 448.212,629.7 447.312,613C448.012,597.2 460.012,587.6 472.912,587.7C487.512,587.8 498.212,600.1 497.712,613ZM488.912,607.2C489.312,601 483.712,595.5 477.512,595.5C472.312,595.5 465.912,599.7 465.912,607.1C465.912,613.5 471.012,618.8 477.412,618.9C483.612,618.9 488.912,613.6 488.912,607.2ZM451.612,620.6C451.912,623.1 452.812,625 454.712,626.3C456.012,627.2 457.512,627.7 459.212,627.5C462.512,627.1 465.112,624.3 465.212,621.1C465.312,617.7 462.912,614.7 459.412,614C457.712,613.7 456.212,614.2 454.912,615C453.012,616.3 452.012,618.2 451.612,620.6Z" style="fill:rgb(95,33,48);fill-rule:nonzero;"/>
                    </g>
                </g>
            </g>
        </g>
        <g id="Vector_233" serif:id="Vector_23" transform="matrix(0.17434,0,0,0.17434,386.818483,506.793848)">
            <path d="M560.312,632.899C559.912,632.899 559.312,633.099 558.612,633.499C557.912,633.999 557.612,634.999 557.412,635.899C556.512,639.799 555.412,643.699 555.112,647.599C554.812,651.199 553.812,654.799 552.012,657.899C550.212,661.099 548.712,663.999 544.212,663.099C541.712,662.599 539.612,660.799 538.112,658.799C536.612,656.699 535.712,654.299 534.812,651.899C533.512,648.399 532.112,644.999 530.812,641.499C530.012,639.299 530.612,635.999 528.712,634.499C524.112,630.799 526.212,640.399 526.512,641.999C528.412,651.299 532.612,668.899 544.912,669.499C551.912,668.399 555.812,662.399 558.012,656.199C559.212,652.899 560.312,649.799 561.012,646.499C561.412,645.199 563.512,633.199 560.312,632.899Z" style="fill:rgb(95,33,48);fill-rule:nonzero;"/>
        </g>
    </g>
    <g id="Master-Pau-Barbaro-Happy-Flame" serif:id="Master/Pau Barbaro/Happy Flame">
    </g>
    <g id="Master-Pau-Barbaro-Happy-Flame1" serif:id="Master/Pau Barbaro/Happy Flame" transform="matrix(0.167271,0,0,0.167271,1070.59658,231.468759)">
        <path id="Vector_34" serif:id="Vector_3" d="M760.713,583.4C756.913,552 742.413,523.1 728.113,494.9C721.113,504.1 712.513,512 702.713,518.1C704.913,449.4 683.413,380.1 642.613,324.8C635.113,341.1 623.313,355.3 608.613,365.6C609.313,297 584.513,228.4 540.113,176C545.913,182.8 535.213,219.1 533.213,227.5C529.013,245.4 522.913,262.9 515.113,279.6C510.513,289.3 465.413,366.2 456.113,357.8C453.513,355.4 453.312,351.5 452.912,347.9C451.412,336.2 444.613,326.6 437.813,317.4C436.813,316.1 416.913,294.8 416.513,298.2C414.113,322.8 396.113,342.6 382.313,363.1C363.913,390.5 351.813,422.1 347.213,454.8C346.113,462.9 350.413,487.8 337.313,485.3C330.213,483.9 325.612,470 326.612,463.9C317.212,516.8 315.013,572.8 331.013,623.7C333.613,632.1 336.813,640.4 340.513,648.4C355.213,680.7 380.513,708.3 410.813,727C467.613,762 555.813,763.3 582.213,761.9C633.413,759.2 686.812,736.6 721.912,698.7C750.412,668 765.713,624.9 760.713,583.4Z" style="fill:rgb(36,77,190);fill-rule:nonzero;"/>
        <path id="Vector_44" serif:id="Vector_4" d="M708.112,574.3C692.312,580.5 689.612,593.1 679.912,604.2C673.612,597.4 681.212,586.9 682.312,579C688.012,539.1 670.312,499.6 649.112,465.3C640.012,450.6 628.012,429.5 635.512,411.5C625.612,411.4 619.312,421.7 613.412,428.2C604.112,438.4 594.412,446.8 581.312,451.9C553.912,462.5 563.012,442.2 563.412,424.5C563.912,401.9 551.612,373.9 530.312,363.8C525.112,391.3 516.912,409.9 498.112,430.5C481.012,449.1 460.712,474.9 455.412,500C452.312,493.5 449.912,486.3 448.912,479.2C447.012,466.8 446.712,454 445.012,441.5C439.012,475.8 404.712,501.6 403.812,536.5C403.512,550.7 410.312,567.5 408.012,580.9C391.312,575.5 387.212,552.6 368.412,548.5C370.412,563.1 372.412,577.6 374.412,592.2C376.612,608.4 379.012,625.2 385.712,640.2C401.812,676.1 426.612,708.5 461.812,726.8C510.312,752 562.912,760 613.712,738.2C644.112,725.2 667.812,699.3 682.812,669.8C697.812,640.3 704.812,607.2 708.112,574.3ZM371.612,548.8C371.712,549 371.812,549.2 371.612,548.8Z" style="fill:rgb(84,163,247);fill-rule:nonzero;"/>
        <g id="Group5" serif:id="Group" transform="matrix(1.492294,0,0,1.492294,-220.209015,-315.859335)">
            <g id="Vector_84" serif:id="Vector_8" transform="matrix(1,0,0,1,-60.091837,0)">
                <path d="M616.212,641.6C628.312,641.9 641.612,632.7 641.612,616.4C641.612,600.4 628.612,591.3 616.512,591.3C602.412,591.3 591.312,602.9 591.312,616.4C591.312,630.4 602.912,641.6 616.212,641.6Z" style="fill:rgb(242,233,221);fill-rule:nonzero;"/>
            </g>
            <g id="Vector_104" serif:id="Vector_10" transform="matrix(1,0,0,1,-60.091837,0)">
                <path d="M616.212,641.6C602.912,641.6 591.312,630.5 591.312,616.3C591.312,602.8 602.512,591.2 616.512,591.2C628.612,591.2 641.612,600.3 641.612,616.3C641.712,632.7 628.412,641.8 616.212,641.6ZM609.712,610.6C609.712,616.5 614.212,622 621.212,622.3C627.512,622.6 633.212,616.8 633.012,610.5C632.812,604.2 627.512,599.1 621.312,599.1C616.312,599 610.012,602.7 609.712,610.6ZM605.012,617.4C603.812,617.8 602.812,617.9 601.912,618.4C598.212,620.4 597.612,624.1 598.912,627.3C600.012,630 603.212,631.6 606.012,631.1C608.812,630.6 611.112,628.4 611.512,625.7C612.012,622.7 610.712,619.7 608.012,618.4C607.212,617.9 606.212,617.7 605.012,617.4Z" style="fill:rgb(95,33,48);fill-rule:nonzero;"/>
            </g>
            <path id="Vector_94" serif:id="Vector_9" d="M497.712,613C498.312,600.2 487.512,587.8 472.912,587.7C460.012,587.6 448.012,597.1 447.312,613C448.212,629.7 460.912,638.2 472.612,638.1C487.412,638 498.012,625.9 497.712,613Z" style="fill:rgb(242,233,221);fill-rule:nonzero;"/>
            <path id="Vector_114" serif:id="Vector_11" d="M497.712,613C498.012,625.9 487.412,638 472.612,638.1C460.912,638.2 448.212,629.7 447.312,613C448.012,597.2 460.012,587.6 472.912,587.7C487.512,587.8 498.212,600.1 497.712,613ZM488.912,607.2C489.312,601 483.712,595.5 477.512,595.5C472.312,595.5 465.912,599.7 465.912,607.1C465.912,613.5 471.012,618.8 477.412,618.9C483.612,618.9 488.912,613.6 488.912,607.2ZM451.612,620.6C451.912,623.1 452.812,625 454.712,626.3C456.012,627.2 457.512,627.7 459.212,627.5C462.512,627.1 465.112,624.3 465.212,621.1C465.312,617.7 462.912,614.7 459.412,614C457.712,613.7 456.212,614.2 454.912,615C453.012,616.3 452.012,618.2 451.612,620.6Z" style="fill:rgb(95,33,48);fill-rule:nonzero;"/>
        </g>
        <g id="Vector_234" serif:id="Vector_23" transform="matrix(-1.042261,0,0,-1.042261,1108.032016,1356.019062)">
            <path d="M560.312,632.899C559.912,632.899 559.312,633.099 558.612,633.499C557.912,633.999 557.612,634.999 557.412,635.899C556.512,639.799 555.412,643.699 555.112,647.599C554.812,651.199 553.812,654.799 552.012,657.899C550.212,661.099 548.712,663.999 544.212,663.099C541.712,662.599 539.612,660.799 538.112,658.799C536.612,656.699 535.712,654.299 534.812,651.899C533.512,648.399 532.112,644.999 530.812,641.499C530.012,639.299 530.612,635.999 528.712,634.499C524.112,630.799 526.212,640.399 526.512,641.999C528.412,651.299 532.612,668.899 544.912,669.499C551.912,668.399 555.812,662.399 558.012,656.199C559.212,652.899 560.312,649.799 561.012,646.499C561.412,645.199 563.512,633.199 560.312,632.899Z" style="fill:rgb(95,33,48);fill-rule:nonzero;"/>
        </g>
    </g>
</svg>
