<?xml version="1.0" encoding="UTF-8" standalone="no"?>
<!DOCTYPE svg PUBLIC "-//W3C//DTD SVG 1.1//EN" "http://www.w3.org/Graphics/SVG/1.1/DTD/svg11.dtd">
<svg width="100%" height="100%" viewBox="0 0 1388 1407" version="1.1" xmlns="http://www.w3.org/2000/svg" xmlns:xlink="http://www.w3.org/1999/xlink" xml:space="preserve" xmlns:serif="http://www.serif.com/" style="fill-rule:evenodd;clip-rule:evenodd;stroke-linejoin:round;stroke-miterlimit:2;">
    <g id="Master-Hero-Image-Running" serif:id="Master/Hero Image/Running" transform="matrix(1,0,0,1,-17.69385,-91.336745)">
        <g id="lace" transform="matrix(1,0,0,1,80,20)">
            <path d="M97.061,746.812L603.416,715.131L858.5,713.004L836.301,775.747L486.418,797.552L83.259,825.087L121.069,785.604L97.061,746.812Z" style="fill:rgb(255,95,105);"/>
        </g>
        <g id="Character-Copy" serif:id="Character Copy" transform="matrix(1,0,0,1,80,20)">
            <g id="Head">
                <path id="Path" d="M547.529,402.449C547.609,392.245 554.763,381.274 564.409,385.49C565.064,385.346 565.718,385.25 566.373,385.218C566.373,311.44 666.261,326.595 666.835,400.629C666.835,461.855 615.654,493.522 582.757,457.751C572.473,446.045 570.429,431.864 566.597,417.955C555.833,418.354 548.471,412.302 547.529,402.449Z" style="fill:rgb(255,216,234);fill-rule:nonzero;"/>
                <path id="hear" d="M560.983,394.322C560.668,393.587 559.845,393.189 559.06,393.423C558.215,393.674 557.734,394.564 557.986,395.409L559.735,401.279C558.918,400.959 558.021,400.731 557.047,400.595L556.861,400.579C556.062,400.561 555.358,401.143 555.244,401.955C555.122,402.828 555.731,403.635 556.604,403.758C558.985,404.091 560.52,405.07 561.381,406.724C561.552,407.073 561.842,407.338 562.184,407.484C562.4,407.577 562.636,407.622 562.878,407.612C563.056,407.605 563.235,407.567 563.408,407.498C563.581,407.428 563.736,407.331 563.87,407.213C564.051,407.053 564.19,406.857 564.281,406.642C564.373,406.427 564.418,406.191 564.408,405.95C564.402,405.81 564.378,405.67 564.334,405.533L561.047,394.497L560.983,394.322Z" style="fill:rgb(48,48,48);"/>
                <path id="band" d="M564.41,385.49L666.836,388.89C666.836,388.89 662.414,366.66 659.625,366.66L566.483,366.66C566.483,366.66 564.855,372.622 564.41,375.939C563.965,379.256 564.41,385.49 564.41,385.49Z" style="fill:rgb(45,103,248);"/>
            </g>
            <g id="Expression">
                <path id="Mouth" d="M626.146,443.886C626.203,443.914 626.203,443.914 626.118,443.858C625.977,443.773 625.835,443.716 625.722,443.66C625.468,443.519 625.242,443.378 625.016,443.208C624.79,443.067 624.536,442.897 624.31,442.728C624.141,442.615 623.717,442.191 623.548,442.163C623.661,442.248 623.745,442.332 623.858,442.417C623.717,442.304 623.548,442.191 623.406,442.05L623.378,442.022L623.322,441.993C623.067,441.796 622.813,441.598 622.559,441.372C622.079,440.977 621.627,440.553 621.147,440.129C619.254,438.378 617.559,436.429 615.921,434.423C615.441,433.83 614.452,433.52 613.718,433.52C612.955,433.52 612.051,433.859 611.515,434.423C610.978,435.017 610.583,435.779 610.611,436.627C610.611,436.909 610.724,437.135 610.78,437.389C610.385,443.067 613.916,449.196 619.876,450.1C621.853,450.411 624.028,450.383 625.92,449.648C627.135,449.168 628.208,448.151 628.152,446.711C628.123,445.355 627.332,444.423 626.146,443.886Z" style="fill:rgb(48,48,48);fill-rule:nonzero;"/>
                <path id="Nose" d="M639.47,425.296C639.278,424.497 639.006,423.731 638.815,422.932C638.623,422.134 638.416,421.336 638.192,420.537C637.761,419.004 637.298,417.487 636.851,415.954C635.94,412.872 635.046,409.758 634.695,406.564C634.599,405.734 634.04,405.015 633.146,405.015C632.379,405.015 631.501,405.734 631.597,406.564C632.267,412.584 634.551,418.206 635.924,424.066C634.615,424.066 633.321,424.034 632.012,423.986C630.255,423.938 628.195,423.811 626.566,424.545C625.449,425.056 625.736,426.941 626.918,427.196C627.78,427.372 628.674,427.324 629.537,427.388C630.479,427.452 631.405,427.5 632.347,427.548C634.327,427.643 636.324,427.659 638.304,427.372C639.214,427.228 639.661,426.078 639.47,425.296Z" style="fill:rgb(48,48,48);fill-rule:nonzero;"/>
            </g>
            <g id="Full-Body" serif:id="Full Body">
                <path id="Shape" d="M1102.05,1225.35L1057.12,1058.95C1057.12,1058.95 1029.1,971.458 1007.4,893.225C1003.38,878.714 865.458,812.198 865.458,812.198L728.754,752.548L727.295,751.328L726.359,751.229L726.558,749.725L726.614,749.215L743.38,620.411C743.38,620.411 744.117,620.071 745.506,619.39C762.838,610.85 880.877,548.292 899.442,420.524C907.69,363.754 886.149,301.139 860.356,247.547C858.046,242.752 855.722,238.043 853.369,233.418C852.816,232.326 852.249,231.234 851.711,230.156C850.081,226.992 848.451,223.871 846.807,220.793C846.198,219.616 845.574,218.453 844.951,217.289C844.256,215.999 843.562,214.708 842.867,213.431C830.41,190.365 818.251,170.038 809.096,154.022C802.435,142.376 769.102,88.883 754.349,94.6C742.94,99.011 762.101,144.305 766.211,153.724C761.449,143.596 736.421,91.805 724.049,98.387C711.89,104.856 739.582,153.597 745.633,163.924C739.185,153.341 707.695,103.082 695.124,111.934C680.683,122.119 723.667,183.244 724.814,184.89C723.794,184.138 696.314,164.165 689.724,180.45C684.297,193.841 753.399,249.136 753.399,249.136C753.399,249.136 756.092,254.157 760.004,262.754C760.996,264.896 762.044,267.279 763.15,269.846C763.646,271.01 764.156,272.201 764.68,273.45C765.729,275.946 766.806,278.613 767.912,281.408C768.365,282.571 768.833,283.748 769.286,284.954C770.137,287.181 770.987,289.479 771.851,291.848C792.061,347.994 811.264,443.207 725.636,474.741C717.558,477.72 709.962,479.266 702.508,479.975C687.712,481.394 673.427,479.465 656.888,478.727C639.173,477.918 618.98,479.485 592.518,485.891C568.083,491.806 572.805,491.806 561.397,495.991C557.995,497.239 554.523,498.558 550.966,499.963C539.558,504.488 527.398,509.85 514.771,516.205C513.679,516.758 512.588,517.311 511.497,517.879C433.593,557.91 339.066,635.816 294.169,785.416C293.163,788.75 292.185,792.126 291.235,795.53C290.867,796.821 290.512,798.126 290.158,799.431C289.124,803.219 288.132,807.063 287.168,810.95C286.842,812.241 286.53,813.532 286.218,814.822C285.198,818.993 284.234,823.22 283.313,827.504C277.701,853.18 273.492,880.714 270.927,910.234C270.927,910.234 267.086,960.081 281.556,957.102C286.006,956.194 288.954,947.144 290.725,938.86C288.826,953.414 287.579,974.21 295.671,975.16C305.223,976.281 309.815,953.797 311.941,935.767C311.955,935.342 311.969,934.93 311.983,934.519C312.026,933.654 312.054,932.803 312.111,931.966C312.096,931.937 312.111,931.923 312.111,931.909C312.295,928.235 312.564,924.83 312.819,921.993C312.833,921.937 312.833,921.894 312.833,921.852C313.287,917.057 313.712,913.922 313.712,913.922C313.712,913.922 313.372,923.284 312.068,934.689C312.026,935.044 311.983,935.399 311.941,935.767C311.402,951.712 312.72,970.749 321.833,971.898C336.302,973.713 338.003,905.368 338.003,905.368C338.003,905.368 353.351,957.897 365.312,952.889C378.733,947.272 368.643,885.48 369.465,865.394C369.607,861.932 369.989,858.372 370.613,854.712C370.91,852.839 371.279,850.953 371.704,849.024C371.987,847.775 372.285,846.499 372.611,845.222C373.532,841.619 374.638,837.945 375.913,834.228C376.296,833.079 376.707,831.916 377.132,830.767C378.521,826.923 380.094,823.022 381.809,819.078C416.53,739.356 512.135,642.569 512.135,642.569L511.724,649.903L506.834,737.824L509.343,738.037L507.444,780.735L507.359,782.707L507.019,790.31L526.959,836.569L536.567,858.882L535.915,860.372L504.666,932.278L388.002,1200.71L316.35,1354.7L436.641,1454.75L404.753,1354.7L537.711,1147.38L681.682,890.686L817.5,927.582C817.5,927.582 890.741,947.002 908.101,963.599C930.649,985.161 950.589,1072.97 950.589,1072.97L1055.78,1328.47L1201.47,1325.08L1102.05,1225.35ZM292.893,925.455C292.837,926.036 292.723,927.029 292.553,928.292C292.497,928.646 292.454,929.015 292.397,929.412C292.369,929.554 292.355,929.71 292.326,929.866C292.284,930.178 292.241,930.505 292.185,930.831C291.986,932.164 291.745,933.64 291.462,935.214C291.334,935.881 291.193,936.576 291.051,937.285C291.051,937.328 291.037,937.356 291.023,937.399C290.938,937.881 290.824,938.363 290.725,938.846C290.782,938.392 290.853,937.938 290.909,937.484L290.909,937.399C290.966,937.016 291.023,936.633 291.079,936.25C291.079,936.221 291.093,936.193 291.093,936.165C291.207,935.356 291.32,934.576 291.434,933.824C291.618,932.576 291.802,931.412 291.972,930.363C292.057,929.866 292.142,929.384 292.213,928.944C292.213,928.887 292.227,928.831 292.241,928.774C292.298,928.391 292.369,928.036 292.426,927.71C292.497,927.313 292.567,926.944 292.624,926.632C292.652,926.433 292.695,926.263 292.723,926.107C292.822,925.596 292.893,925.213 292.936,925.015C292.922,925.114 292.908,925.27 292.893,925.455ZM725.58,749.867L725.551,749.371L725.509,748.52L725.594,749.371L725.636,749.853L725.764,751.172L725.636,751.158L725.58,749.867Z" style="fill:rgb(255,216,234);"/>
                <path id="Path_3" d="M495.631,923.91L647.241,1017.2L747.945,764.881L548.639,777.157L495.631,923.91Z" style="fill:rgb(0,72,255);fill-rule:nonzero;"/>
                <path id="Path_4" d="M785.195,971.334L815.066,901.978L798.388,869.401L833.107,864.858L877.294,795.035L732.788,745.718L501.139,778.933C458.215,886.643 785.195,971.334 785.195,971.334Z" style="fill:rgb(45,103,248);fill-rule:nonzero;"/>
                <path id="Path_5" d="M406.572,587.638L513.486,641.913L495.631,782.447L738.556,746.087L747.945,620.798C747.945,620.798 775.851,613.056 793.276,600.86C810.701,588.663 845.243,552.694 845.243,552.694L770.624,436.471L703.641,477.902L607.416,477.902C607.416,477.902 510.954,501.205 484.101,515.77C451.482,533.463 406.572,587.638 406.572,587.638Z" style="fill:rgb(250,250,250);fill-rule:nonzero;"/>
                <path id="Combined-Shape" serif:id="Combined Shape" d="M776.707,151.812L776.707,151.813C776.408,151.901 776.038,152.01 775.865,152.076C775.822,152.09 774.928,152.36 774.616,152.445C773.268,152.8 771.891,153.055 770.515,153.311C769.674,153.467 768.83,153.614 767.986,153.76C765.54,154.184 763.093,154.608 760.708,155.284C752.661,157.569 746.261,163.019 740.244,168.569C738.37,170.3 741.166,173.096 743.054,171.379C749.014,165.886 755.301,160.578 763.405,158.704C765.374,158.248 767.358,157.897 769.343,157.545C770.634,157.317 771.925,157.088 773.211,156.831C773.447,156.783 773.707,156.736 773.984,156.686C776.087,156.308 779.114,155.763 779.214,153.368C779.257,152.204 778.164,151.551 777.142,151.679C777.168,151.665 777.146,151.664 777.04,151.687C777.031,151.688 777.023,151.69 777.014,151.693C777.023,151.691 777.032,151.689 777.04,151.687C777.052,151.686 777.065,151.686 777.078,151.686C777.099,151.686 777.121,151.686 777.142,151.679C777.1,151.696 776.922,151.749 776.707,151.812ZM787.632,214.16L787.633,214.16C788.442,214.988 789.252,215.817 790.028,216.684C791.348,218.16 789.645,220.63 787.857,219.48C784.33,217.271 781.627,213.69 779.076,210.309L779.074,210.307L779.072,210.304C778.576,209.647 778.086,208.997 777.596,208.367C774.517,204.392 771.309,200.418 767.222,197.424C758.253,190.866 747.098,187.531 736,188.439C733.46,188.652 733.474,184.692 736,184.479C747.453,183.542 759.09,186.949 768.485,193.492C772.899,196.572 776.432,200.489 779.725,204.719C780.164,205.281 780.599,205.846 781.034,206.41C782.147,207.854 783.259,209.296 784.422,210.694C785.436,211.912 786.534,213.036 787.632,214.16ZM313.69,920.295C313.755,919.199 313.822,918.104 313.898,917.01L313.903,916.934C314.242,912.003 314.601,906.781 316.14,902.05C316.921,899.651 320.483,900.631 319.915,903.086C318.808,907.884 318.156,912.624 317.829,917.535C317.745,918.798 317.672,920.063 317.599,921.328C317.386,924.997 317.172,928.669 316.708,932.31C316.566,933.375 315.899,934.312 314.721,934.297C314.036,934.287 313.267,933.839 312.916,933.206C312.875,933.558 312.834,933.913 312.791,934.269C312.805,933.857 312.819,933.447 312.835,933.039C312.741,932.812 312.7,932.566 312.734,932.31C312.813,931.696 312.885,931.081 312.951,930.466C313.144,926.678 313.42,923.182 313.69,920.295ZM291.546,937.349C291.609,936.861 291.672,936.38 291.736,935.907C290.569,935.898 289.339,934.919 289.687,933.432C291.081,927.484 291.951,921.428 292.82,915.383L292.894,914.867C293.007,914.088 293.117,913.307 293.227,912.525C293.997,907.071 294.777,901.536 296.329,896.273C297.038,893.846 300.615,894.868 300.075,897.31C298.756,903.498 297.606,909.658 296.712,915.917L296.638,916.433C295.769,922.479 294.898,928.534 293.505,934.482C293.283,935.435 292.589,935.87 291.849,935.904C291.752,936.382 291.651,936.864 291.546,937.349Z" style="fill:rgb(48,48,48);"/>
                <g id="Shoe-Copy" serif:id="Shoe Copy">
                    <path id="Path-" serif:id="Path " d="M355.234,1248.75C355.234,1248.75 388.274,1299.7 418.076,1299.7C447.877,1299.7 469.791,1280.53 469.791,1280.53L455.141,1334.92L469.791,1368.09L543.623,1408.17L543.623,1435.32L373.868,1435.32L279.393,1334.92L355.234,1248.75Z" style="fill:rgb(250,250,250);"/>
                    <path id="Path-_2" serif:id="Path _2" d="M307.021,1308.59C307.021,1308.59 363.769,1386.63 386.719,1391.12C401.572,1394.02 418.935,1392.37 426.753,1377.17C434.571,1361.98 418.159,1334.74 418.159,1334.74C418.159,1334.74 418.245,1374 380.694,1361.98C343.143,1349.96 307.021,1308.59 307.021,1308.59Z" style="fill:rgb(45,103,248);"/>
                    <path id="Path-_3" serif:id="Path _3" d="M279.393,1334.92L373.868,1435.32L543.623,1435.32C543.623,1435.32 517.573,1453.48 496.734,1453.48L368.148,1453.48L268.438,1350.45L279.393,1334.92Z" style="fill:rgb(237,239,242);"/>
                    <path id="Path-_4" serif:id="Path _4" d="M452.131,1327.11C452.709,1326.44 453.718,1326.37 454.384,1326.95C454.998,1327.49 455.106,1328.39 454.664,1329.05L454.542,1329.21L440.192,1345.72L453.336,1345.72C454.363,1345.72 455.106,1346.67 454.9,1347.64L454.85,1347.83L447.975,1368.32L463.567,1358.28C464.701,1357.55 466.143,1358.46 466.024,1359.75L465.999,1359.92L461.025,1385.39L482.913,1370.8C483.595,1370.34 484.498,1370.48 485.016,1371.09L485.128,1371.24C485.582,1371.92 485.444,1372.83 484.834,1373.34L484.685,1373.46L459.609,1390.17C458.478,1390.92 457.012,1390.01 457.132,1388.71L457.156,1388.53L462.145,1362.99L445.878,1373.47C444.66,1374.25 443.146,1373.15 443.451,1371.79L443.499,1371.62L451.115,1348.91L436.69,1348.91C435.38,1348.91 434.651,1347.44 435.376,1346.41L435.484,1346.27L452.131,1327.11Z" style="fill:rgb(48,48,48);fill-rule:nonzero;"/>
                </g>
                <g id="Shoe-Copy_2" serif:id="Shoe Copy_2">
                    <path id="Path_6" d="M1022.27,1242.59C1022.27,1242.59 1059.72,1258.42 1076.56,1243.26C1093.4,1228.1 1096.03,1206.12 1096.03,1206.12L1115.42,1244.3L1140.58,1255.6L1216.5,1283.88C1216.5,1283.88 1238.56,1301.97 1216.5,1321.83C1208.16,1329.33 1171.81,1333.55 1130,1333.72C1098.05,1333.84 1016.7,1329.66 1016.7,1329.66C1016.7,1329.66 1014.6,1316.75 1014.83,1312.73C1015.45,1301.6 1022.31,1281.9 1022.27,1278.49C1022.2,1271.99 1018.33,1261.77 1018.34,1255.6C1018.34,1249.83 1022.27,1242.59 1022.27,1242.59Z" style="fill:rgb(250,250,250);"/>
                    <path id="Path-_5" serif:id="Path _5" d="M1019.62,1288.7C1019.62,1288.7 1090.49,1307.66 1106.2,1299.32C1116.36,1293.93 1125.83,1284.65 1123.18,1271.93C1120.53,1259.21 1097.8,1250.97 1097.8,1250.97C1097.8,1250.97 1116.63,1274.12 1088.7,1284.99C1060.76,1295.86 1019.62,1288.7 1019.62,1288.7Z" style="fill:rgb(45,103,248);"/>
                    <path id="Path-_6" serif:id="Path _6" d="M1014.83,1312.73C1014.83,1312.73 1139.94,1320.37 1175.65,1318.13C1211.36,1315.89 1226.96,1294.99 1226.96,1294.99C1226.96,1294.99 1225.87,1324.26 1198.5,1331.78C1171.12,1339.31 1013.86,1331.07 1013.86,1331.07L1014.83,1312.73Z" style="fill:rgb(237,239,242);"/>
                    <path id="Path_7" d="M1160.48,1263.36C1160.9,1262.84 1160.82,1262.08 1160.3,1261.66C1159.82,1261.27 1159.13,1261.3 1158.69,1261.72L1158.59,1261.83L1148.12,1274.76L1146.38,1264.92C1146.25,1264.15 1145.44,1263.72 1144.74,1264L1144.61,1264.06L1130.17,1271.92L1135.63,1258.91C1136.03,1257.97 1135.15,1257.01 1134.2,1257.27L1134.08,1257.31L1115.67,1264.4L1123.7,1246.08C1123.95,1245.51 1123.73,1244.85 1123.2,1244.55L1123.08,1244.48C1122.51,1244.23 1121.85,1244.46 1121.54,1244.98L1121.48,1245.11L1112.27,1266.09C1111.86,1267.04 1112.73,1268.01 1113.69,1267.75L1113.82,1267.71L1132.29,1260.6L1126.59,1274.17C1126.16,1275.18 1127.19,1276.17 1128.17,1275.76L1128.29,1275.7L1144.29,1267L1146.19,1277.8C1146.36,1278.78 1147.56,1279.14 1148.24,1278.46L1148.33,1278.36L1160.48,1263.36Z" style="fill:rgb(48,48,48);fill-rule:nonzero;"/>
                </g>
            </g>
        </g>
        <g id="Number" transform="matrix(1,0,0,1,80,20)">
            <path id="Rectangle" d="M586,592.349L694.418,592.349L703.957,677.349L596.526,677.349L586,592.349Z" style="fill:rgb(237,239,242);"/>
            <path id="Rectangle-" serif:id="Rectangle " d="M586,592.349L694.418,592.349L698.173,621.849L589.749,621.849L586,592.349Z" style="fill:rgb(255,95,105);"/>
            <path id="_22" serif:id="22" d="M649.425,659.681L649.425,664.849L628.979,664.849C629.033,662.707 629.493,660.751 630.358,658.981C631.195,656.99 633.172,654.883 636.288,652.659C638.992,650.724 640.742,649.338 641.539,648.5C642.76,647.196 643.371,645.769 643.371,644.217C643.371,642.955 643.021,641.904 642.321,641.067C641.621,640.23 640.619,639.811 639.315,639.811C637.53,639.811 636.316,640.477 635.67,641.808C635.3,642.577 635.08,643.799 635.011,645.473L629.308,645.473C629.404,642.934 629.864,640.882 630.688,639.317C632.252,636.338 635.032,634.849 639.027,634.849C642.184,634.849 644.696,635.724 646.563,637.474C648.429,639.224 649.363,641.541 649.363,644.423C649.363,646.633 648.704,648.596 647.386,650.312C646.521,651.451 645.101,652.721 643.124,654.121L640.777,655.789C639.308,656.832 638.302,657.587 637.76,658.054C637.218,658.521 636.762,659.063 636.391,659.681L649.425,659.681ZM672.877,659.681L672.877,664.849L652.431,664.849C652.486,662.707 652.946,660.751 653.81,658.981C654.648,656.99 656.624,654.883 659.74,652.659C662.445,650.724 664.195,649.338 664.991,648.5C666.213,647.196 666.823,645.769 666.823,644.217C666.823,642.955 666.473,641.904 665.773,641.067C665.073,640.23 664.071,639.811 662.767,639.811C660.983,639.811 659.768,640.477 659.123,641.808C658.752,642.577 658.532,643.799 658.464,645.473L652.76,645.473C652.856,642.934 653.316,640.882 654.14,639.317C655.705,636.338 658.484,634.849 662.479,634.849C665.636,634.849 668.148,635.724 670.015,637.474C671.882,639.224 672.815,641.541 672.815,644.423C672.815,646.633 672.156,648.596 670.839,650.312C669.974,651.451 668.553,652.721 666.576,654.121L664.229,655.789C662.76,656.832 661.755,657.587 661.213,658.054C660.67,658.521 660.214,659.063 659.843,659.681L672.877,659.681Z" style="fill:rgb(45,103,248);"/>
        </g>
        <g id="lace_2" transform="matrix(1,0,0,1,80,20)">
            <path d="M35.928,966.725L577.156,797.329L852.443,731.364L840.408,824.709L466.412,941.639L35.928,1079.75L69.268,1015.12L35.928,966.725Z" style="fill:rgb(253,120,95);"/>
        </g>
    </g>
    <g id="Master-Pau-Barbaro-Happy-Flame" serif:id="Master/Pau Barbaro/Happy Flame" transform="matrix(0.302004,-0.111204,0.111204,0.302004,48.938368,131.363871)">
        <g id="Vector_3" transform="matrix(1,0,0,1,-4.430612,110.949952)">
            <path d="M760.713,583.4C756.913,552 742.413,523.1 728.113,494.9C721.113,504.1 712.513,512 702.713,518.1C704.913,449.4 683.413,380.1 642.613,324.8C635.113,341.1 623.313,355.3 608.613,365.6C609.313,297 584.513,228.4 540.113,176C545.913,182.8 535.213,219.1 533.213,227.5C529.013,245.4 522.913,262.9 515.113,279.6C510.513,289.3 465.413,366.2 456.113,357.8C453.513,355.4 453.312,351.5 452.912,347.9C451.412,336.2 444.613,326.6 437.813,317.4C436.813,316.1 416.913,294.8 416.513,298.2C414.113,322.8 396.113,342.6 382.313,363.1C363.913,390.5 351.813,422.1 347.213,454.8C346.113,462.9 350.413,487.8 337.313,485.3C330.213,483.9 325.612,470 326.612,463.9C317.212,516.8 315.013,572.8 331.013,623.7C333.613,632.1 336.813,640.4 340.513,648.4C355.213,680.7 380.513,708.3 410.813,727C467.613,762 555.813,763.3 582.213,761.9C633.413,759.2 686.812,736.6 721.912,698.7C750.412,668 765.713,624.9 760.713,583.4Z" style="fill:rgb(232,78,51);fill-rule:nonzero;"/>
        </g>
        <g id="Vector_4" transform="matrix(1,0,0,1,-4.430612,110.949952)">
            <path d="M708.112,574.3C692.312,580.5 689.612,593.1 679.912,604.2C673.612,597.4 681.212,586.9 682.312,579C688.012,539.1 670.312,499.6 649.112,465.3C640.012,450.6 628.012,429.5 635.512,411.5C625.612,411.4 619.312,421.7 613.412,428.2C604.112,438.4 594.412,446.8 581.312,451.9C553.912,462.5 563.012,442.2 563.412,424.5C563.912,401.9 551.612,373.9 530.312,363.8C525.112,391.3 516.912,409.9 498.112,430.5C481.012,449.1 460.712,474.9 455.412,500C452.312,493.5 449.912,486.3 448.912,479.2C447.012,466.8 446.712,454 445.012,441.5C439.012,475.8 404.712,501.6 403.812,536.5C403.512,550.7 410.312,567.5 408.012,580.9C391.312,575.5 387.212,552.6 368.412,548.5C370.412,563.1 372.412,577.6 374.412,592.2C376.612,608.4 379.012,625.2 385.712,640.2C401.812,676.1 426.612,708.5 461.812,726.8C510.312,752 562.912,760 613.712,738.2C644.112,725.2 667.812,699.3 682.812,669.8C697.812,640.3 704.812,607.2 708.112,574.3ZM371.612,548.8C371.712,549 371.812,549.2 371.612,548.8Z" style="fill:rgb(255,182,85);fill-rule:nonzero;"/>
        </g>
        <g id="Group" transform="matrix(1,0,0,1,-4.430612,110.949952)">
            <path id="Vector_5" d="M639.112,677.5C656.399,677.5 670.412,663.486 670.412,646.2C670.412,628.913 656.399,614.9 639.112,614.9C621.826,614.9 607.812,628.913 607.812,646.2C607.812,663.486 621.826,677.5 639.112,677.5Z" style="fill:rgb(255,140,125);fill-rule:nonzero;"/>
            <g id="Vector_8" transform="matrix(1.430757,0,0,1.430757,-258.444326,-276.376918)">
                <path d="M616.212,641.6C628.312,641.9 641.612,632.7 641.612,616.4C641.612,600.4 628.612,591.3 616.512,591.3C602.412,591.3 591.312,602.9 591.312,616.4C591.312,630.4 602.912,641.6 616.212,641.6Z" style="fill:rgb(242,233,221);fill-rule:nonzero;"/>
            </g>
            <g id="Vector_12" transform="matrix(1.430757,0,0,1.430757,-258.444326,-276.376918)">
                <path d="M609.712,610.6C610.012,602.7 616.312,599 621.212,599C627.512,599 632.812,604.1 632.912,610.4C633.112,616.7 627.412,622.5 621.112,622.2C614.212,622 609.712,616.5 609.712,610.6Z" style="fill:rgb(242,233,221);fill-rule:nonzero;"/>
            </g>
            <g id="Vector_10" transform="matrix(1.430757,0,0,1.430757,-258.444326,-276.376918)">
                <path d="M616.212,641.6C602.912,641.6 591.312,630.5 591.312,616.3C591.312,602.8 602.512,591.2 616.512,591.2C628.612,591.2 641.612,600.3 641.612,616.3C641.712,632.7 628.412,641.8 616.212,641.6ZM609.712,610.6C609.712,616.5 614.212,622 621.212,622.3C627.512,622.6 633.212,616.8 633.012,610.5C632.812,604.2 627.512,599.1 621.312,599.1C616.312,599 610.012,602.7 609.712,610.6ZM605.012,617.4C603.812,617.8 602.812,617.9 601.912,618.4C598.212,620.4 597.612,624.1 598.912,627.3C600.012,630 603.212,631.6 606.012,631.1C608.812,630.6 611.112,628.4 611.512,625.7C612.012,622.7 610.712,619.7 608.012,618.4C607.212,617.9 606.212,617.7 605.012,617.4Z" style="fill:rgb(95,33,48);fill-rule:nonzero;"/>
            </g>
            <g id="Vector_6" transform="matrix(1,0,0,1,23.91325,-5.978313)">
                <path d="M439.812,677.5C457.099,677.5 471.112,663.486 471.112,646.2C471.112,628.913 457.099,614.9 439.812,614.9C422.526,614.9 408.512,628.913 408.512,646.2C408.512,663.486 422.526,677.5 439.812,677.5Z" style="fill:rgb(255,140,125);fill-rule:nonzero;"/>
            </g>
            <g id="Vector_14" transform="matrix(1.430757,0,0,1.430757,-192.682888,-276.376918)">
                <path d="M488.912,607.2C488.912,613.6 483.612,618.9 477.412,618.9C471.112,618.8 465.912,613.5 465.912,607.1C465.912,599.8 472.312,595.5 477.512,595.5C483.712,595.5 489.412,601 488.912,607.2Z" style="fill:rgb(242,233,221);fill-rule:nonzero;"/>
            </g>
            <g id="Vector_9" transform="matrix(1.430757,0,0,1.430757,-192.682888,-276.376918)">
                <path d="M497.712,613C498.312,600.2 487.512,587.8 472.912,587.7C460.012,587.6 448.012,597.1 447.312,613C448.212,629.7 460.912,638.2 472.612,638.1C487.412,638 498.012,625.9 497.712,613Z" style="fill:rgb(242,233,221);fill-rule:nonzero;"/>
                <g>
                    <clipPath id="_clip1">
                        <path d="M497.712,613C498.312,600.2 487.512,587.8 472.912,587.7C460.012,587.6 448.012,597.1 447.312,613C448.212,629.7 460.912,638.2 472.612,638.1C487.412,638 498.012,625.9 497.712,613Z"/>
                    </clipPath>
                    <g clip-path="url(#_clip1)">
                        <path id="Vector_11" d="M497.712,613C498.012,625.9 487.412,638 472.612,638.1C460.912,638.2 448.212,629.7 447.312,613C448.012,597.2 460.012,587.6 472.912,587.7C487.512,587.8 498.212,600.1 497.712,613ZM488.912,607.2C489.312,601 483.712,595.5 477.512,595.5C472.312,595.5 465.912,599.7 465.912,607.1C465.912,613.5 471.012,618.8 477.412,618.9C483.612,618.9 488.912,613.6 488.912,607.2ZM451.612,620.6C451.912,623.1 452.812,625 454.712,626.3C456.012,627.2 457.512,627.7 459.212,627.5C462.512,627.1 465.112,624.3 465.212,621.1C465.312,617.7 462.912,614.7 459.412,614C457.712,613.7 456.212,614.2 454.912,615C453.012,616.3 452.012,618.2 451.612,620.6Z" style="fill:rgb(95,33,48);fill-rule:nonzero;"/>
                    </g>
                </g>
            </g>
        </g>
        <g id="Vector_23" transform="matrix(1.042261,0,0,1.042261,-30.203516,109.53063)">
            <path d="M560.312,632.899C559.912,632.899 559.312,633.099 558.612,633.499C557.912,633.999 557.612,634.999 557.412,635.899C556.512,639.799 555.412,643.699 555.112,647.599C554.812,651.199 553.812,654.799 552.012,657.899C550.212,661.099 548.712,663.999 544.212,663.099C541.712,662.599 539.612,660.799 538.112,658.799C536.612,656.699 535.712,654.299 534.812,651.899C533.512,648.399 532.112,644.999 530.812,641.499C530.012,639.299 530.612,635.999 528.712,634.499C524.112,630.799 526.212,640.399 526.512,641.999C528.412,651.299 532.612,668.899 544.912,669.499C551.912,668.399 555.812,662.399 558.012,656.199C559.212,652.899 560.312,649.799 561.012,646.499C561.412,645.199 563.512,633.199 560.312,632.899Z" style="fill:rgb(95,33,48);fill-rule:nonzero;"/>
        </g>
    </g>
    <g id="Master-Pau-Barbaro-Happy-Flame1" serif:id="Master/Pau Barbaro/Happy Flame" transform="matrix(0.20852,-0.036491,0.036491,0.20852,333.080316,99.839727)">
        <path id="Vector_31" serif:id="Vector_3" d="M760.713,583.4C756.913,552 742.413,523.1 728.113,494.9C721.113,504.1 712.513,512 702.713,518.1C704.913,449.4 683.413,380.1 642.613,324.8C635.113,341.1 623.313,355.3 608.613,365.6C609.313,297 584.513,228.4 540.113,176C545.913,182.8 535.213,219.1 533.213,227.5C529.013,245.4 522.913,262.9 515.113,279.6C510.513,289.3 465.413,366.2 456.113,357.8C453.513,355.4 453.312,351.5 452.912,347.9C451.412,336.2 444.613,326.6 437.813,317.4C436.813,316.1 416.913,294.8 416.513,298.2C414.113,322.8 396.113,342.6 382.313,363.1C363.913,390.5 351.813,422.1 347.213,454.8C346.113,462.9 350.413,487.8 337.313,485.3C330.213,483.9 325.612,470 326.612,463.9C317.212,516.8 315.013,572.8 331.013,623.7C333.613,632.1 336.813,640.4 340.513,648.4C355.213,680.7 380.513,708.3 410.813,727C467.613,762 555.813,763.3 582.213,761.9C633.413,759.2 686.812,736.6 721.912,698.7C750.412,668 765.713,624.9 760.713,583.4Z" style="fill:rgb(232,78,51);fill-rule:nonzero;"/>
        <path id="Vector_41" serif:id="Vector_4" d="M708.112,574.3C692.312,580.5 689.612,593.1 679.912,604.2C673.612,597.4 681.212,586.9 682.312,579C688.012,539.1 670.312,499.6 649.112,465.3C640.012,450.6 628.012,429.5 635.512,411.5C625.612,411.4 619.312,421.7 613.412,428.2C604.112,438.4 594.412,446.8 581.312,451.9C553.912,462.5 563.012,442.2 563.412,424.5C563.912,401.9 551.612,373.9 530.312,363.8C525.112,391.3 516.912,409.9 498.112,430.5C481.012,449.1 460.712,474.9 455.412,500C452.312,493.5 449.912,486.3 448.912,479.2C447.012,466.8 446.712,454 445.012,441.5C439.012,475.8 404.712,501.6 403.812,536.5C403.512,550.7 410.312,567.5 408.012,580.9C391.312,575.5 387.212,552.6 368.412,548.5C370.412,563.1 372.412,577.6 374.412,592.2C376.612,608.4 379.012,625.2 385.712,640.2C401.812,676.1 426.612,708.5 461.812,726.8C510.312,752 562.912,760 613.712,738.2C644.112,725.2 667.812,699.3 682.812,669.8C697.812,640.3 704.812,607.2 708.112,574.3ZM371.612,548.8C371.712,549 371.812,549.2 371.612,548.8Z" style="fill:rgb(255,182,85);fill-rule:nonzero;"/>
        <g id="Group1" serif:id="Group">
            <path id="Vector_51" serif:id="Vector_5" d="M639.112,677.5C656.399,677.5 670.412,663.486 670.412,646.2C670.412,628.913 656.399,614.9 639.112,614.9C621.826,614.9 607.812,628.913 607.812,646.2C607.812,663.486 621.826,677.5 639.112,677.5Z" style="fill:rgb(255,140,125);fill-rule:nonzero;"/>
            <g id="Vector_81" serif:id="Vector_8" transform="matrix(1.430757,0,0,1.430757,-258.444326,-276.376918)">
                <path d="M616.212,641.6C628.312,641.9 641.612,632.7 641.612,616.4C641.612,600.4 628.612,591.3 616.512,591.3C602.412,591.3 591.312,602.9 591.312,616.4C591.312,630.4 602.912,641.6 616.212,641.6Z" style="fill:rgb(242,233,221);fill-rule:nonzero;"/>
            </g>
            <g id="Vector_121" serif:id="Vector_12" transform="matrix(1.430757,0,0,1.430757,-258.444326,-276.376918)">
                <path d="M609.712,610.6C610.012,602.7 616.312,599 621.212,599C627.512,599 632.812,604.1 632.912,610.4C633.112,616.7 627.412,622.5 621.112,622.2C614.212,622 609.712,616.5 609.712,610.6Z" style="fill:rgb(242,233,221);fill-rule:nonzero;"/>
            </g>
            <g id="Vector_101" serif:id="Vector_10" transform="matrix(1.430757,0,0,1.430757,-258.444326,-276.376918)">
                <path d="M616.212,641.6C602.912,641.6 591.312,630.5 591.312,616.3C591.312,602.8 602.512,591.2 616.512,591.2C628.612,591.2 641.612,600.3 641.612,616.3C641.712,632.7 628.412,641.8 616.212,641.6ZM609.712,610.6C609.712,616.5 614.212,622 621.212,622.3C627.512,622.6 633.212,616.8 633.012,610.5C632.812,604.2 627.512,599.1 621.312,599.1C616.312,599 610.012,602.7 609.712,610.6ZM605.012,617.4C603.812,617.8 602.812,617.9 601.912,618.4C598.212,620.4 597.612,624.1 598.912,627.3C600.012,630 603.212,631.6 606.012,631.1C608.812,630.6 611.112,628.4 611.512,625.7C612.012,622.7 610.712,619.7 608.012,618.4C607.212,617.9 606.212,617.7 605.012,617.4Z" style="fill:rgb(95,33,48);fill-rule:nonzero;"/>
            </g>
            <g id="Vector_61" serif:id="Vector_6" transform="matrix(1,0,0,1,23.91325,-5.978313)">
                <path d="M439.812,677.5C457.099,677.5 471.112,663.486 471.112,646.2C471.112,628.913 457.099,614.9 439.812,614.9C422.526,614.9 408.512,628.913 408.512,646.2C408.512,663.486 422.526,677.5 439.812,677.5Z" style="fill:rgb(255,140,125);fill-rule:nonzero;"/>
            </g>
            <g id="Vector_141" serif:id="Vector_14" transform="matrix(1.430757,0,0,1.430757,-192.682888,-276.376918)">
                <path d="M488.912,607.2C488.912,613.6 483.612,618.9 477.412,618.9C471.112,618.8 465.912,613.5 465.912,607.1C465.912,599.8 472.312,595.5 477.512,595.5C483.712,595.5 489.412,601 488.912,607.2Z" style="fill:rgb(242,233,221);fill-rule:nonzero;"/>
            </g>
            <g id="Vector_91" serif:id="Vector_9" transform="matrix(1.430757,0,0,1.430757,-192.682888,-276.376918)">
                <path d="M497.712,613C498.312,600.2 487.512,587.8 472.912,587.7C460.012,587.6 448.012,597.1 447.312,613C448.212,629.7 460.912,638.2 472.612,638.1C487.412,638 498.012,625.9 497.712,613Z" style="fill:rgb(242,233,221);fill-rule:nonzero;"/>
                <g>
                    <clipPath id="_clip2">
                        <path d="M497.712,613C498.312,600.2 487.512,587.8 472.912,587.7C460.012,587.6 448.012,597.1 447.312,613C448.212,629.7 460.912,638.2 472.612,638.1C487.412,638 498.012,625.9 497.712,613Z"/>
                    </clipPath>
                    <g clip-path="url(#_clip2)">
                        <path id="Vector_111" serif:id="Vector_11" d="M497.712,613C498.012,625.9 487.412,638 472.612,638.1C460.912,638.2 448.212,629.7 447.312,613C448.012,597.2 460.012,587.6 472.912,587.7C487.512,587.8 498.212,600.1 497.712,613ZM488.912,607.2C489.312,601 483.712,595.5 477.512,595.5C472.312,595.5 465.912,599.7 465.912,607.1C465.912,613.5 471.012,618.8 477.412,618.9C483.612,618.9 488.912,613.6 488.912,607.2ZM451.612,620.6C451.912,623.1 452.812,625 454.712,626.3C456.012,627.2 457.512,627.7 459.212,627.5C462.512,627.1 465.112,624.3 465.212,621.1C465.312,617.7 462.912,614.7 459.412,614C457.712,613.7 456.212,614.2 454.912,615C453.012,616.3 452.012,618.2 451.612,620.6Z" style="fill:rgb(95,33,48);fill-rule:nonzero;"/>
                    </g>
                </g>
            </g>
        </g>
        <g id="Vector_231" serif:id="Vector_23" transform="matrix(1.042261,0,0,1.042261,-25.772904,-1.419322)">
            <path d="M560.312,632.899C559.912,632.899 559.312,633.099 558.612,633.499C557.912,633.999 557.612,634.999 557.412,635.899C556.512,639.799 555.412,643.699 555.112,647.599C554.812,651.199 553.812,654.799 552.012,657.899C550.212,661.099 548.712,663.999 544.212,663.099C541.712,662.599 539.612,660.799 538.112,658.799C536.612,656.699 535.712,654.299 534.812,651.899C533.512,648.399 532.112,644.999 530.812,641.499C530.012,639.299 530.612,635.999 528.712,634.499C524.112,630.799 526.212,640.399 526.512,641.999C528.412,651.299 532.612,668.899 544.912,669.499C551.912,668.399 555.812,662.399 558.012,656.199C559.212,652.899 560.312,649.799 561.012,646.499C561.412,645.199 563.512,633.199 560.312,632.899Z" style="fill:rgb(95,33,48);fill-rule:nonzero;"/>
        </g>
    </g>
    <g id="Master-Pau-Barbaro-Happy-Flame2" serif:id="Master/Pau Barbaro/Happy Flame" transform="matrix(0.099709,-0.110683,0.110683,0.099709,171.587527,487.483023)">
        <path id="Vector_32" serif:id="Vector_3" d="M760.713,583.4C756.913,552 742.413,523.1 728.113,494.9C721.113,504.1 712.513,512 702.713,518.1C704.913,449.4 683.413,380.1 642.613,324.8C635.113,341.1 623.313,355.3 608.613,365.6C609.313,297 584.513,228.4 540.113,176C545.913,182.8 535.213,219.1 533.213,227.5C529.013,245.4 522.913,262.9 515.113,279.6C510.513,289.3 465.413,366.2 456.113,357.8C453.513,355.4 453.312,351.5 452.912,347.9C451.412,336.2 444.613,326.6 437.813,317.4C436.813,316.1 416.913,294.8 416.513,298.2C414.113,322.8 396.113,342.6 382.313,363.1C363.913,390.5 351.813,422.1 347.213,454.8C346.113,462.9 350.413,487.8 337.313,485.3C330.213,483.9 325.612,470 326.612,463.9C317.212,516.8 315.013,572.8 331.013,623.7C333.613,632.1 336.813,640.4 340.513,648.4C355.213,680.7 380.513,708.3 410.813,727C467.613,762 555.813,763.3 582.213,761.9C633.413,759.2 686.812,736.6 721.912,698.7C750.412,668 765.713,624.9 760.713,583.4Z" style="fill:rgb(232,78,51);fill-rule:nonzero;"/>
        <path id="Vector_42" serif:id="Vector_4" d="M708.112,574.3C692.312,580.5 689.612,593.1 679.912,604.2C673.612,597.4 681.212,586.9 682.312,579C688.012,539.1 670.312,499.6 649.112,465.3C640.012,450.6 628.012,429.5 635.512,411.5C625.612,411.4 619.312,421.7 613.412,428.2C604.112,438.4 594.412,446.8 581.312,451.9C553.912,462.5 563.012,442.2 563.412,424.5C563.912,401.9 551.612,373.9 530.312,363.8C525.112,391.3 516.912,409.9 498.112,430.5C481.012,449.1 460.712,474.9 455.412,500C452.312,493.5 449.912,486.3 448.912,479.2C447.012,466.8 446.712,454 445.012,441.5C439.012,475.8 404.712,501.6 403.812,536.5C403.512,550.7 410.312,567.5 408.012,580.9C391.312,575.5 387.212,552.6 368.412,548.5C370.412,563.1 372.412,577.6 374.412,592.2C376.612,608.4 379.012,625.2 385.712,640.2C401.812,676.1 426.612,708.5 461.812,726.8C510.312,752 562.912,760 613.712,738.2C644.112,725.2 667.812,699.3 682.812,669.8C697.812,640.3 704.812,607.2 708.112,574.3ZM371.612,548.8C371.712,549 371.812,549.2 371.612,548.8Z" style="fill:rgb(255,182,85);fill-rule:nonzero;"/>
        <g id="Group2" serif:id="Group">
            <path id="Vector_52" serif:id="Vector_5" d="M639.112,677.5C656.399,677.5 670.412,663.486 670.412,646.2C670.412,628.913 656.399,614.9 639.112,614.9C621.826,614.9 607.812,628.913 607.812,646.2C607.812,663.486 621.826,677.5 639.112,677.5Z" style="fill:rgb(255,140,125);fill-rule:nonzero;"/>
            <g id="Vector_82" serif:id="Vector_8" transform="matrix(1.430757,0,0,1.430757,-258.444326,-276.376918)">
                <path d="M616.212,641.6C628.312,641.9 641.612,632.7 641.612,616.4C641.612,600.4 628.612,591.3 616.512,591.3C602.412,591.3 591.312,602.9 591.312,616.4C591.312,630.4 602.912,641.6 616.212,641.6Z" style="fill:rgb(242,233,221);fill-rule:nonzero;"/>
            </g>
            <g id="Vector_122" serif:id="Vector_12" transform="matrix(1.430757,0,0,1.430757,-258.444326,-276.376918)">
                <path d="M609.712,610.6C610.012,602.7 616.312,599 621.212,599C627.512,599 632.812,604.1 632.912,610.4C633.112,616.7 627.412,622.5 621.112,622.2C614.212,622 609.712,616.5 609.712,610.6Z" style="fill:rgb(242,233,221);fill-rule:nonzero;"/>
            </g>
            <g id="Vector_102" serif:id="Vector_10" transform="matrix(1.430757,0,0,1.430757,-258.444326,-276.376918)">
                <path d="M616.212,641.6C602.912,641.6 591.312,630.5 591.312,616.3C591.312,602.8 602.512,591.2 616.512,591.2C628.612,591.2 641.612,600.3 641.612,616.3C641.712,632.7 628.412,641.8 616.212,641.6ZM609.712,610.6C609.712,616.5 614.212,622 621.212,622.3C627.512,622.6 633.212,616.8 633.012,610.5C632.812,604.2 627.512,599.1 621.312,599.1C616.312,599 610.012,602.7 609.712,610.6ZM605.012,617.4C603.812,617.8 602.812,617.9 601.912,618.4C598.212,620.4 597.612,624.1 598.912,627.3C600.012,630 603.212,631.6 606.012,631.1C608.812,630.6 611.112,628.4 611.512,625.7C612.012,622.7 610.712,619.7 608.012,618.4C607.212,617.9 606.212,617.7 605.012,617.4Z" style="fill:rgb(95,33,48);fill-rule:nonzero;"/>
            </g>
            <g id="Vector_62" serif:id="Vector_6" transform="matrix(1,0,0,1,23.91325,-5.978313)">
                <path d="M439.812,677.5C457.099,677.5 471.112,663.486 471.112,646.2C471.112,628.913 457.099,614.9 439.812,614.9C422.526,614.9 408.512,628.913 408.512,646.2C408.512,663.486 422.526,677.5 439.812,677.5Z" style="fill:rgb(255,140,125);fill-rule:nonzero;"/>
            </g>
            <g id="Vector_142" serif:id="Vector_14" transform="matrix(1.430757,0,0,1.430757,-192.682888,-276.376918)">
                <path d="M488.912,607.2C488.912,613.6 483.612,618.9 477.412,618.9C471.112,618.8 465.912,613.5 465.912,607.1C465.912,599.8 472.312,595.5 477.512,595.5C483.712,595.5 489.412,601 488.912,607.2Z" style="fill:rgb(242,233,221);fill-rule:nonzero;"/>
            </g>
            <g id="Vector_92" serif:id="Vector_9" transform="matrix(1.430757,0,0,1.430757,-192.682888,-276.376918)">
                <path d="M497.712,613C498.312,600.2 487.512,587.8 472.912,587.7C460.012,587.6 448.012,597.1 447.312,613C448.212,629.7 460.912,638.2 472.612,638.1C487.412,638 498.012,625.9 497.712,613Z" style="fill:rgb(242,233,221);fill-rule:nonzero;"/>
                <g>
                    <clipPath id="_clip3">
                        <path d="M497.712,613C498.312,600.2 487.512,587.8 472.912,587.7C460.012,587.6 448.012,597.1 447.312,613C448.212,629.7 460.912,638.2 472.612,638.1C487.412,638 498.012,625.9 497.712,613Z"/>
                    </clipPath>
                    <g clip-path="url(#_clip3)">
                        <path id="Vector_112" serif:id="Vector_11" d="M497.712,613C498.012,625.9 487.412,638 472.612,638.1C460.912,638.2 448.212,629.7 447.312,613C448.012,597.2 460.012,587.6 472.912,587.7C487.512,587.8 498.212,600.1 497.712,613ZM488.912,607.2C489.312,601 483.712,595.5 477.512,595.5C472.312,595.5 465.912,599.7 465.912,607.1C465.912,613.5 471.012,618.8 477.412,618.9C483.612,618.9 488.912,613.6 488.912,607.2ZM451.612,620.6C451.912,623.1 452.812,625 454.712,626.3C456.012,627.2 457.512,627.7 459.212,627.5C462.512,627.1 465.112,624.3 465.212,621.1C465.312,617.7 462.912,614.7 459.412,614C457.712,613.7 456.212,614.2 454.912,615C453.012,616.3 452.012,618.2 451.612,620.6Z" style="fill:rgb(95,33,48);fill-rule:nonzero;"/>
                    </g>
                </g>
            </g>
        </g>
        <g id="Vector_232" serif:id="Vector_23" transform="matrix(1.042261,0,0,1.042261,-25.772904,-1.419322)">
            <path d="M560.312,632.899C559.912,632.899 559.312,633.099 558.612,633.499C557.912,633.999 557.612,634.999 557.412,635.899C556.512,639.799 555.412,643.699 555.112,647.599C554.812,651.199 553.812,654.799 552.012,657.899C550.212,661.099 548.712,663.999 544.212,663.099C541.712,662.599 539.612,660.799 538.112,658.799C536.612,656.699 535.712,654.299 534.812,651.899C533.512,648.399 532.112,644.999 530.812,641.499C530.012,639.299 530.612,635.999 528.712,634.499C524.112,630.799 526.212,640.399 526.512,641.999C528.412,651.299 532.612,668.899 544.912,669.499C551.912,668.399 555.812,662.399 558.012,656.199C559.212,652.899 560.312,649.799 561.012,646.499C561.412,645.199 563.512,633.199 560.312,632.899Z" style="fill:rgb(95,33,48);fill-rule:nonzero;"/>
        </g>
    </g>
</svg>
