<?xml version="1.0" encoding="UTF-8" standalone="no"?>
<!DOCTYPE svg PUBLIC "-//W3C//DTD SVG 1.1//EN" "http://www.w3.org/Graphics/SVG/1.1/DTD/svg11.dtd">
<svg width="100%" height="100%" viewBox="0 0 1482 1369" version="1.1" xmlns="http://www.w3.org/2000/svg" xmlns:xlink="http://www.w3.org/1999/xlink" xml:space="preserve" xmlns:serif="http://www.serif.com/" style="fill-rule:evenodd;clip-rule:evenodd;stroke-linejoin:round;stroke-miterlimit:2;">
    <g id="Master-Hero-Image-Health-App" serif:id="Master/Hero Image/Health App" transform="matrix(1,0,0,1,-37.5,-150)">
        <g id="Object" transform="matrix(1,0,0,1,178,0)">
            <g transform="matrix(1.140415,0,0,0.958036,-118.017705,214.357086)">
                <path d="M958,134.392L958,1288.608C958,1318.628 937.525,1343 912.306,1343L184.694,1343C159.475,1343 139,1318.628 139,1288.608L139,134.392C139,104.372 159.475,80 184.694,80L912.306,80C937.525,80 958,104.372 958,134.392Z" style="fill:rgb(237,242,255);"/>
            </g>
            <path id="Rectangle-" serif:id="Rectangle " d="M884.05,405.737L884.05,1383.077C884.05,1383.629 883.602,1384.077 883.05,1384.077L128.818,1384.077C128.266,1384.077 127.818,1383.629 127.818,1383.077L127.818,405.737C127.818,405.185 128.266,404.737 128.818,404.737L883.05,404.737C883.602,404.737 884.05,405.185 884.05,405.737Z" style="fill:white;"/>
            <path id="Combined-Shape" serif:id="Combined Shape" d="M598.372,252.34C598.372,265.68 595.546,278.36 590.46,289.814L533.417,289.814C544.93,281.357 552.403,267.721 552.403,252.34C552.403,226.676 531.598,205.871 505.934,205.871C480.27,205.871 459.466,226.676 459.466,252.34C459.466,267.721 466.939,281.357 478.452,289.814L421.408,289.814C416.323,278.36 413.497,265.68 413.497,252.34C413.497,201.288 454.882,159.902 505.934,159.902C556.986,159.902 598.372,201.288 598.372,252.34ZM421.408,289.814C435.785,322.195 468.223,344.777 505.934,344.777C543.646,344.777 576.083,322.195 590.46,289.814L693.308,289.814L693.308,474.69L318.561,474.69L318.561,289.814L421.408,289.814ZM478.452,289.814L533.417,289.814C525.72,295.468 516.217,298.808 505.934,298.808C495.652,298.808 486.149,295.468 478.452,289.814Z" style="fill:rgb(237,242,255);"/>
            <g id="Path-9" serif:id="Path 9" transform="matrix(0.269473,0,0,1,164.640891,0)">
                <rect x="211.684" y="616.798" width="535.23" height="19.987" style="fill:rgb(237,242,255);fill-rule:nonzero;"/>
            </g>
            <g id="Path-9-" serif:id="Path 9 " transform="matrix(0.13682,0,0,1,192.721462,0)">
                <rect x="211.684" y="703.536" width="535.23" height="19.986" style="fill:rgb(237,242,255);fill-rule:nonzero;"/>
            </g>
            <g id="Path-9--" serif:id="Path 9  " transform="matrix(0.249235,0,0,1,168.92497,0)">
                <rect x="211.684" y="799.471" width="364.961" height="19.987" style="fill:rgb(237,242,255);fill-rule:nonzero;"/>
            </g>
            <g id="Path-9--_2" serif:id="Path 9  _2" transform="matrix(0.536347,0,0,1,108.148004,0)">
                <rect x="211.684" y="895.406" width="498.217" height="19.987" style="fill:rgb(237,242,255);fill-rule:nonzero;"/>
            </g>
            <g id="Path-9--_3" serif:id="Path 9  _3" transform="matrix(0.657751,0,0,1,82.448583,0)">
                <rect x="211.684" y="982.144" width="590.214" height="19.986" style="fill:rgb(237,242,255);fill-rule:nonzero;"/>
            </g>
        </g>
        <g id="Arrow" transform="matrix(1,0,0,1,178,0)">
            <path id="Path-9_3" serif:id="Path 9_3" d="M206.723,622.418C207.278,621.765 208.257,621.686 208.91,622.241C209.53,622.768 209.633,623.678 209.165,624.327L209.087,624.428L169.836,670.601C169.297,671.234 168.362,671.326 167.713,670.83L167.613,670.747L145.857,651.083C145.221,650.508 145.172,649.527 145.746,648.891C146.291,648.289 147.2,648.213 147.834,648.695L147.938,648.781L167.713,653.134L206.723,622.418Z" style="fill:rgb(48,48,48);fill-rule:nonzero;"/>
        </g>
        <g id="Arrow_2" transform="matrix(1,0,0,1,178,0)">
            <path id="Path-9_4" serif:id="Path 9_4" d="M206.723,701.175C207.278,700.522 208.257,700.443 208.91,700.998C209.53,701.525 209.633,702.435 209.165,703.085L209.087,703.185L169.836,749.358C169.297,749.992 168.362,750.083 167.713,749.587L167.613,749.504L145.857,729.84C145.221,729.265 145.172,728.284 145.746,727.649C146.291,727.046 147.2,726.97 147.834,727.452L147.938,727.538L167.713,731.892L206.723,701.175Z" style="fill:rgb(48,48,48);fill-rule:nonzero;"/>
        </g>
        <g id="Arrow_3" transform="matrix(1,0,0,1,178,0)">
            <path id="Path-9_5" serif:id="Path 9_5" d="M206.723,780.437C207.278,779.784 208.257,779.705 208.91,780.26C209.53,780.787 209.633,781.697 209.165,782.347L209.087,782.447L169.836,828.62C169.297,829.254 168.362,829.345 167.713,828.85L167.613,828.766L145.857,809.102C145.221,808.528 145.172,807.546 145.746,806.911C146.291,806.309 147.2,806.232 147.834,806.715L147.938,806.8L167.713,811.154L206.723,780.437Z" style="fill:rgb(48,48,48);fill-rule:nonzero;"/>
        </g>
        <g id="Full-Body" serif:id="Full Body" transform="matrix(0.842987,0,0,0.842987,370.197965,212.549822)">
            <path id="Leggins" d="M833.194,860.668L845.55,921.39L1013.05,1124.65L983.826,1394.74L1030.19,1474.46L909.966,1474.46L909.966,1171L741.141,1003.18L499.364,1271.44L336.92,1498.6L206.838,1474.46L315.938,1400.48L645.52,880.896" style="fill:rgb(217,197,255);fill-rule:nonzero;"/>
            <path id="Body-Copy" serif:id="Body Copy" d="M1141.06,561.829C1133.25,547.901 1117.14,559.841 1114.31,571.35C1113.93,553.016 1095.09,546.939 1088.63,565.804C1073.98,538.849 1059.04,568.463 1062.83,586.48C1025.27,601.217 1062.93,654.356 1046.07,682.312C1019.68,768.37 926.517,713.509 875.392,683.591C821.732,651.47 781.572,643.518 751.693,647.899C721.815,643.518 681.655,651.47 627.982,683.591C576.87,713.509 483.696,768.37 457.304,682.312C440.444,654.356 478.106,601.217 440.545,586.48C444.335,568.463 429.39,538.849 414.748,565.804C408.283,546.939 389.446,553.016 389.065,571.35C386.238,559.841 370.126,547.901 362.318,561.829C357.171,572.527 357.315,571.057 356.897,599.988C356.478,628.919 369.264,653.103 381.079,678.995C383.361,752.214 449.723,832.017 527.837,819.837C579.988,814.659 620.63,778.917 664.567,754.189C673.314,788.162 669.315,839.652 669.315,839.652C669.315,839.652 735.556,838.652 751.693,839.652C767.831,838.652 828.912,839.652 828.912,839.652C828.912,839.652 831.062,792.977 838.807,754.189C882.757,778.917 923.399,814.659 975.538,819.837C1053.65,832.017 1120.03,752.214 1122.3,678.995C1134.11,653.103 1145.57,625.755 1145.14,596.824C1146.67,585.138 1146.2,572.527 1141.06,561.829Z" style="fill:rgb(217,197,255);"/>
            <g id="Weight">
                <path id="Rectangle" d="M452.086,594.985C451.677,594.3 452.169,593.406 452.967,593.406L1050.34,593.406C1051.08,593.406 1051.57,594.183 1051.26,594.855C1049.78,598.069 1046.4,605.813 1046.4,609.618L1046.4,622.91C1046.4,623.461 1045.95,623.904 1045.4,623.906L457.621,625.827C457.068,625.829 456.618,625.385 456.618,624.831L456.618,606.755C456.618,603.064 453.672,597.639 452.086,594.985Z" style="fill:rgb(48,48,48);"/>
                <path id="Rectangle--" serif:id="Rectangle  " d="M173.221,624.834C173.221,625.386 173.668,625.831 174.221,625.831L417.51,625.831C418.168,625.831 418.646,625.206 418.476,624.571L414.807,610.913C414.807,610.913 397.197,614.415 391.242,609.697L388.405,604.23C388.331,604.088 388.292,603.93 388.292,603.77L388.292,595.334L174.23,593.415C173.674,593.41 173.221,593.855 173.221,594.41L173.221,624.834Z" style="fill:rgb(48,48,48);"/>
                <path id="Rectangle--_2" serif:id="Rectangle  _2" d="M1332.36,624.834C1332.36,625.386 1331.91,625.831 1331.36,625.831L1088.07,625.831C1087.41,625.831 1086.93,625.206 1087.1,624.571L1090.77,610.913C1090.77,610.913 1108.38,614.415 1114.34,609.697L1117.17,604.23C1117.25,604.088 1117.29,603.93 1117.29,603.77L1117.29,595.334L1331.35,593.415C1331.9,593.41 1332.36,593.855 1332.36,594.41L1332.36,624.834Z" style="fill:rgb(48,48,48);"/>
                <g id="Group-" serif:id="Group ">
                    <path id="Rectangle_2" d="M238.773,554.228L238.773,664.606C238.773,665.26 238.242,665.792 237.587,665.792L209.536,665.792C208.882,665.792 208.35,665.26 208.35,664.606L208.35,554.228C208.35,553.574 208.882,553.042 209.536,553.042L237.587,553.042C238.242,553.042 238.773,553.574 238.773,554.228Z" style="fill:rgb(255,220,62);"/>
                    <path id="Rectangle-1" serif:id="Rectangle " d="M269.196,517.948L269.196,698.002C269.196,698.656 268.665,699.188 268.01,699.188L239.959,699.188C239.305,699.188 238.773,698.656 238.773,698.002L238.773,517.948C238.773,517.294 239.305,516.762 239.959,516.762L268.01,516.762C268.665,516.762 269.196,517.294 269.196,517.948Z" style="fill:rgb(255,220,62);"/>
                    <path id="Rectangle--_3" serif:id="Rectangle  _3" d="M311.209,498.311L311.209,718.904C311.209,719.558 310.677,720.09 310.022,720.09L266.76,720.09C266.106,720.09 265.574,719.558 265.574,718.904L265.574,498.311C265.574,497.657 266.106,497.125 266.76,497.125L310.022,497.125C310.677,497.125 311.209,497.657 311.209,498.311Z" style="fill:rgb(255,220,62);"/>
                </g>
                <g id="Group--" serif:id="Group  ">
                    <g id="Rectangle_3" transform="matrix(-1,0,0,1,1280.77,548.655)">
                        <path d="M30.423,1.186L30.423,111.564C30.423,112.218 29.892,112.75 29.237,112.75L1.186,112.75C0.532,112.75 0,112.218 0,111.564L0,1.186C0,0.532 0.532,0 1.186,0L29.237,0C29.892,0 30.423,0.532 30.423,1.186Z" style="fill:rgb(255,220,62);"/>
                    </g>
                    <g id="Rectangle-_2" serif:id="Rectangle _2" transform="matrix(-1,0,0,1,1250.34,512.375)">
                        <path d="M30.423,1.186L30.423,181.24C30.423,181.894 29.892,182.426 29.237,182.426L1.186,182.426C0.532,182.426 0,181.894 0,181.24L0,1.186C0,0.532 0.532,0 1.186,0L29.237,0C29.892,0 30.423,0.532 30.423,1.186Z" style="fill:rgb(255,220,62);"/>
                    </g>
                    <g id="Rectangle--_4" serif:id="Rectangle  _4" transform="matrix(-1,0,0,1,1223.54,492.738)">
                        <path d="M45.635,1.186L45.635,221.779C45.635,222.433 45.103,222.965 44.448,222.965L1.186,222.965C0.532,222.965 0,222.433 0,221.779L0,1.186C0,0.532 0.532,0 1.186,0L44.448,0C45.103,0 45.635,0.532 45.635,1.186Z" style="fill:rgb(255,220,62);"/>
                    </g>
                </g>
            </g>
            <path id="Lines" d="M413.908,565.322C413.827,564.626 413.236,564.086 412.518,564.086C411.746,564.086 411.119,564.712 411.119,565.485L411.119,578.482L411.129,578.645C411.21,579.341 411.801,579.881 412.518,579.881C413.291,579.881 413.917,579.254 413.917,578.482L413.917,565.485L413.908,565.322ZM386.948,569.26C387.665,569.26 388.257,569.8 388.337,570.496L388.347,570.659L388.347,583.656C388.347,584.428 387.72,585.055 386.948,585.055C386.23,585.055 385.639,584.515 385.558,583.819L385.549,583.656L385.549,570.659C385.549,569.886 386.175,569.26 386.948,569.26Z" style="fill:rgb(48,48,48);"/>
            <g id="shoe">
                <path id="Path-" serif:id="Path " d="M416.937,1379.75C416.937,1379.75 374.108,1398.75 354.405,1381.62C334.701,1364.49 337.34,1359.92 326.184,1360.41C315.028,1360.91 309.659,1383.6 309.659,1383.6L280.905,1397.11L194.012,1431.23C194.012,1431.23 168.964,1452.5 194.775,1474.94C204.529,1483.42 246.491,1487.55 294.662,1486.9C331.469,1486.4 425.856,1484.61 425.856,1484.61C425.856,1484.61 423.64,1453.78 422.531,1440.58C422.119,1435.68 417.684,1425.04 417.659,1421.11C417.613,1413.62 421.856,1401.77 421.729,1394.65C421.61,1388.01 416.937,1379.75 416.937,1379.75Z" style="fill:rgb(250,250,250);"/>
                <path id="Path-_2" serif:id="Path _2" d="M316.879,1379.29C316.627,1378.56 315.831,1378.17 315.101,1378.43C314.426,1378.66 314.043,1379.35 314.186,1380.03L314.233,1380.2L320.469,1398.33L309.792,1394.01C308.958,1393.68 308.044,1394.2 307.891,1395.06L307.872,1395.23L306.731,1414.13L297.362,1400.85C296.68,1399.89 295.209,1400.16 294.881,1401.25L294.845,1401.39L290.529,1423.71L277.538,1404.68C277.134,1404.08 276.354,1403.9 275.734,1404.23L275.594,1404.31C275.001,1404.71 274.817,1405.49 275.143,1406.11L275.227,1406.25L290.11,1428.06C290.781,1429.04 292.272,1428.78 292.602,1427.68L292.639,1427.54L296.97,1405.15L306.744,1419C307.476,1420.04 309.069,1419.63 309.266,1418.43L309.283,1418.28L310.548,1397.34L322.265,1402.07C323.329,1402.5 324.404,1401.54 324.154,1400.47L324.112,1400.32L316.879,1379.29Z" style="fill:rgb(48,48,48);fill-rule:nonzero;"/>
                <path id="Combined-Shape1" serif:id="Combined Shape" d="M319.275,1415.42L312.924,1421.73L322.669,1432.9C318.965,1433.87 315.54,1434.99 312.486,1436.28C310.047,1437.32 307.508,1438.5 304.896,1439.8L292.029,1426.84L285.799,1432.85L296.199,1444.41C263.845,1462.47 225.323,1493.31 225.323,1493.31L263.492,1492.65C263.492,1492.65 283.197,1471.43 305.59,1454.84L313.738,1463.9C291.823,1479.49 271.535,1496.6 271.535,1496.6L302.53,1496.06C302.53,1496.06 310.74,1485.07 322.022,1473.1L341.937,1495.23L359.641,1494.92L329.975,1465.05C333.764,1461.41 337.734,1457.88 341.737,1454.76L370.226,1487.42L388.286,1487.1L351.005,1448.37C351.96,1447.81 352.91,1447.29 353.854,1446.8C377.421,1434.69 430.584,1430.26 430.584,1430.26C430.584,1430.26 427.059,1430.25 421.357,1430.43C423.835,1429.85 425.744,1429.23 425.744,1429.23C425.744,1429.23 371.784,1424.26 333.859,1430.56L319.275,1415.42ZM322.672,1457.7L313.986,1448.95C317.734,1446.48 321.498,1444.22 325.202,1442.28C326.465,1441.62 327.805,1441 329.218,1440.41L336.584,1448.85C332.113,1451.49 327.413,1454.5 322.672,1457.7ZM403.792,1431.39C377.883,1431.55 356.014,1432.91 339.987,1436.93L346.354,1443.54C347.85,1442.81 349.295,1442.16 350.678,1441.58C365.229,1435.51 386.75,1432.69 403.792,1431.39Z" style="fill:rgb(255,194,223);"/>
                <path id="Path-_3" serif:id="Path _3" d="M424.64,1469.12C424.64,1469.12 276.355,1474.37 235.053,1472.43C193.752,1470.49 181.598,1451.55 181.598,1451.55C181.598,1451.55 182.106,1480.68 210.027,1490.21C237.947,1499.74 426.935,1497.38 426.935,1497.38L424.64,1469.12Z" style="fill:rgb(235,235,235);"/>
            </g>
            <g id="shoe_2">
                <path id="Path-_4" serif:id="Path _4" d="M905.391,1379.75C905.391,1379.75 948.22,1398.75 967.923,1381.62C987.627,1364.49 984.988,1359.92 996.144,1360.41C1007.3,1360.91 1012.67,1383.6 1012.67,1383.6L1041.42,1397.11L1128.32,1431.23C1128.32,1431.23 1153.36,1452.5 1127.55,1474.94C1117.8,1483.42 1075.84,1487.55 1027.67,1486.9C990.859,1486.4 896.472,1484.61 896.472,1484.61C896.472,1484.61 898.688,1453.78 899.797,1440.58C900.209,1435.68 904.645,1425.04 904.669,1421.11C904.715,1413.62 900.472,1401.77 900.599,1394.65C900.718,1388.01 905.391,1379.75 905.391,1379.75Z" style="fill:rgb(250,250,250);"/>
                <path id="Path-_5" serif:id="Path _5" d="M1005.45,1379.29C1005.7,1378.56 1006.5,1378.17 1007.23,1378.43C1007.9,1378.66 1008.28,1379.35 1008.14,1380.03L1008.1,1380.2L1001.86,1398.33L1012.54,1394.01C1013.37,1393.68 1014.28,1394.2 1014.44,1395.06L1014.46,1395.23L1015.6,1414.13L1024.97,1400.85C1025.65,1399.89 1027.12,1400.16 1027.45,1401.25L1027.48,1401.39L1031.8,1423.71L1044.79,1404.68C1045.19,1404.08 1045.97,1403.9 1046.59,1404.23L1046.73,1404.31C1047.33,1404.71 1047.51,1405.49 1047.19,1406.11L1047.1,1406.25L1032.22,1428.06C1031.55,1429.04 1030.06,1428.78 1029.73,1427.68L1029.69,1427.54L1025.36,1405.15L1015.58,1419C1014.85,1420.04 1013.26,1419.63 1013.06,1418.43L1013.04,1418.28L1011.78,1397.34L1000.06,1402.07C998.999,1402.5 997.924,1401.54 998.174,1400.47L998.216,1400.32L1005.45,1379.29Z" style="fill:rgb(48,48,48);fill-rule:nonzero;"/>
                <path id="Combined-Shape_2" serif:id="Combined Shape_2" d="M1003.05,1415.42L1009.4,1421.73L999.66,1432.9C1003.36,1433.87 1006.79,1434.99 1009.84,1436.28C1012.28,1437.32 1014.82,1438.5 1017.43,1439.8L1030.3,1426.84L1036.53,1432.85L1026.13,1444.41C1058.48,1462.47 1097.01,1493.31 1097.01,1493.31L1058.84,1492.65C1058.84,1492.65 1039.13,1471.43 1016.74,1454.84L1008.59,1463.9C1030.51,1479.49 1050.79,1496.6 1050.79,1496.6L1019.8,1496.06C1019.8,1496.06 1011.59,1485.07 1000.31,1473.1L980.391,1495.23L962.688,1494.92L992.353,1465.05C988.564,1461.41 984.594,1457.88 980.592,1454.76L952.102,1487.42L934.042,1487.1L971.323,1448.37C970.368,1447.81 969.418,1447.29 968.474,1446.8C944.907,1434.69 891.744,1430.26 891.744,1430.26C891.744,1430.26 895.27,1430.25 900.971,1430.43C898.493,1429.85 896.584,1429.23 896.584,1429.23C896.584,1429.23 950.544,1424.26 988.469,1430.56L1003.05,1415.42ZM999.656,1457.7L1008.34,1448.95C1004.59,1446.48 1000.83,1444.22 997.126,1442.28C995.863,1441.62 994.524,1441 993.11,1440.41L985.744,1448.85C990.216,1451.49 994.915,1454.5 999.656,1457.7ZM918.536,1431.39C944.445,1431.55 966.314,1432.91 982.341,1436.93L975.974,1443.54C974.478,1442.81 973.033,1442.16 971.65,1441.58C957.099,1435.51 935.578,1432.69 918.536,1431.39Z" style="fill:rgb(255,194,223);"/>
                <path id="Path-_6" serif:id="Path _6" d="M897.689,1469.12C897.689,1469.12 1045.97,1474.37 1087.27,1472.43C1128.58,1470.49 1140.73,1451.55 1140.73,1451.55C1140.73,1451.55 1140.22,1480.68 1112.3,1490.21C1084.38,1499.74 895.393,1497.38 895.393,1497.38L897.689,1469.12Z" style="fill:rgb(235,235,235);"/>
            </g>
            <path id="Shorts" d="M463.879,1137.14L592.524,1190.83L732.97,1034.52L876.093,1179.63L1009.51,1088.15L823.402,893.155L645.519,880.896L463.879,1137.14Z" style="fill:rgb(255,95,105);"/>
            <path id="Small-Top-Copy" serif:id="Small Top Copy" d="M854.923,929.52L611.016,929.52C611.016,929.52 663.913,652.603 686.272,648.711C708.631,644.818 688.921,705.295 749.128,705.295C809.335,705.295 789.587,644.061 811.693,648.228C834.952,652.598 854.923,929.52 854.923,929.52Z" style="fill:rgb(255,194,223);fill-rule:nonzero;"/>
        </g>
        <g id="Head" transform="matrix(0.842987,0,0,0.842987,370.197965,212.549822)">
            <path id="Path" d="M700.336,576.738C700.406,567.798 706.673,558.187 715.123,561.881C715.697,561.755 716.27,561.671 716.844,561.643C716.844,497.01 804.35,510.286 804.853,575.143C804.853,628.779 760.016,656.521 731.197,625.184C722.188,614.93 720.397,602.507 717.04,590.322C707.611,590.671 701.161,585.369 700.336,576.738Z" style="fill:rgb(217,197,255);fill-rule:nonzero;"/>
            <path id="Path-_7" serif:id="Path _7" d="M717.04,590.322C717.04,590.322 719.654,597.622 719.84,602.32C720.078,608.309 709.8,593.982 707.834,593.264C697.052,589.325 694.882,572.363 695.275,553.962C695.303,552.609 663.874,530.999 666.018,514.581C669.049,491.379 695.717,511.942 702.763,505.53C713.065,496.154 720.092,484.234 733.127,481.961C747.501,479.454 753.659,494.344 765.347,505.53C771.636,511.549 778.939,488.541 792.349,505.53C805.759,522.518 800.676,551.495 800.676,551.495C800.676,551.495 731.719,559.55 717.928,562.439C714.431,563.171 711.332,561.12 708.985,562.439C701.7,566.531 698.484,578.152 702.763,583.999C705.301,587.466 717.04,590.322 717.04,590.322Z"/>
            <g id="Accesories">
                <path id="Hair-band" serif:id="Hair band" d="M801.062,553.05C801.062,553.05 695.115,571.156 695.115,567.132C695.115,563.108 691.922,555.151 692.901,551.388C693.881,547.625 797.733,530.273 801.062,529.112C803.636,531.84 801.062,553.05 801.062,553.05Z" style="fill:rgb(45,103,248);fill-rule:nonzero;"/>
            </g>
            <path id="hear" d="M712.121,569.618C711.845,568.974 711.124,568.625 710.437,568.83C709.696,569.051 709.275,569.83 709.496,570.57L711.028,575.713C710.312,575.433 709.526,575.232 708.673,575.113L708.51,575.1C707.81,575.083 707.193,575.594 707.094,576.304C706.987,577.07 707.52,577.777 708.285,577.884C710.371,578.176 711.715,579.034 712.47,580.483C712.62,580.788 712.874,581.02 713.174,581.149C713.362,581.23 713.57,581.269 713.781,581.26C713.937,581.254 714.094,581.221 714.246,581.16C714.397,581.099 714.533,581.014 714.65,580.911C714.809,580.771 714.93,580.599 715.011,580.411C715.091,580.222 715.131,580.016 715.122,579.805C715.117,579.682 715.096,579.559 715.057,579.439L712.177,569.771L712.121,569.618Z" style="fill:rgb(48,48,48);"/>
        </g>
        <g id="Expression" transform="matrix(0.842987,0,0,0.842987,370.197965,212.549822)">
            <g id="Group">
                <path id="Path_2" d="M780.879,596.752C780.711,596.053 780.473,595.381 780.305,594.682C780.137,593.982 779.955,593.283 779.76,592.583C779.382,591.24 778.976,589.911 778.584,588.568C777.787,585.868 777.004,583.14 776.696,580.342C776.612,579.615 776.122,578.985 775.339,578.985C774.667,578.985 773.898,579.615 773.982,580.342C774.569,585.616 776.57,590.541 777.773,595.675C776.626,595.675 775.493,595.647 774.345,595.605C772.807,595.563 771.002,595.451 769.575,596.095C768.596,596.542 768.848,598.193 769.883,598.417C770.638,598.571 771.422,598.529 772.177,598.585C773.002,598.641 773.814,598.683 774.639,598.725C776.374,598.809 778.123,598.823 779.857,598.571C780.655,598.445 781.047,597.438 780.879,596.752Z" style="fill:rgb(48,48,48);fill-rule:nonzero;"/>
                <path id="Path_3" d="M775.241,611.371C774.555,611.288 773.884,611.651 773.38,612.071C773.282,612.155 773.198,612.225 773.101,612.309C772.933,612.435 772.751,612.561 772.569,612.687C771.883,613.148 771.17,613.54 770.415,613.876C770.303,613.932 770.177,613.974 770.065,614.03C770.233,613.96 770.219,613.96 770.009,614.044C769.827,614.113 769.659,614.169 769.477,614.239C769.072,614.379 768.652,614.491 768.218,614.589C768.036,614.631 767.854,614.673 767.673,614.701C767.575,614.715 767.477,614.729 767.379,614.743C767.351,614.743 767.323,614.743 767.281,614.757C766.889,614.799 766.497,614.827 766.106,614.841C764.637,614.883 763.546,614.589 762.231,613.764C761.881,613.54 761.181,612.826 760.902,612.407C760.356,611.595 760.048,610.868 759.796,609.959C759.167,607.762 755.753,608.699 756.369,610.896C756.97,613.036 758.09,615.023 759.852,616.422C761.573,617.793 763.574,618.45 765.756,618.618C767.826,618.772 769.897,618.268 771.8,617.471C772.751,617.065 773.66,616.576 774.486,615.96C775.479,615.233 776.906,614.281 776.752,612.868C776.654,611.987 776.122,611.469 775.241,611.371Z" style="fill:rgb(48,48,48);fill-rule:nonzero;"/>
            </g>
        </g>
    </g>
</svg>
