<?xml version="1.0" encoding="UTF-8" standalone="no"?>
<!DOCTYPE svg PUBLIC "-//W3C//DTD SVG 1.1//EN" "http://www.w3.org/Graphics/SVG/1.1/DTD/svg11.dtd">
<svg width="100%" height="100%" viewBox="0 0 1500 1000" version="1.1" xmlns="http://www.w3.org/2000/svg" xmlns:xlink="http://www.w3.org/1999/xlink" xml:space="preserve" xmlns:serif="http://www.serif.com/" style="fill-rule:evenodd;clip-rule:evenodd;stroke-linejoin:round;stroke-miterlimit:2;">
    <g id="Master-Character-Standing" serif:id="Master/Character/Standing">
    </g>
    <g id="Master-Character-Standing1" serif:id="Master/Character/Standing">
    </g>
    <g id="Master-Hero-Image-Strength-Training-" serif:id="Master/Hero Image/Strength Training " transform="matrix(0.930983,0,0,0.930983,-116.544851,-411.321507)">
        <g id="Full-Body" serif:id="Full Body">
            <path id="Leggins" d="M833.194,860.668L845.55,921.39L1013.05,1124.65L983.826,1394.74L1030.19,1474.46L909.966,1474.46L909.966,1171L741.141,1003.18L499.364,1271.44L336.92,1498.6L206.838,1474.46L315.938,1400.48L645.52,880.896" style="fill:rgb(217,197,255);fill-rule:nonzero;"/>
            <path id="Body-Copy" serif:id="Body Copy" d="M1141.06,561.829C1133.25,547.901 1117.14,559.841 1114.31,571.35C1113.93,553.016 1095.09,546.939 1088.63,565.804C1073.98,538.849 1059.04,568.463 1062.83,586.48C1025.27,601.217 1062.93,654.356 1046.07,682.312C1019.68,768.37 926.517,713.509 875.392,683.591C821.732,651.47 781.572,643.518 751.693,647.899C721.815,643.518 681.655,651.47 627.982,683.591C576.87,713.509 483.696,768.37 457.304,682.312C440.444,654.356 478.106,601.217 440.545,586.48C444.335,568.463 429.39,538.849 414.748,565.804C408.283,546.939 389.446,553.016 389.065,571.35C386.238,559.841 370.126,547.901 362.318,561.829C357.171,572.527 357.315,571.057 356.897,599.988C356.478,628.919 369.264,653.103 381.079,678.995C383.361,752.214 449.723,832.017 527.837,819.837C579.988,814.659 620.63,778.917 664.567,754.189C673.314,788.162 669.315,839.652 669.315,839.652C669.315,839.652 735.556,838.652 751.693,839.652C767.831,838.652 828.912,839.652 828.912,839.652C828.912,839.652 831.062,792.977 838.807,754.189C882.757,778.917 923.399,814.659 975.538,819.837C1053.65,832.017 1120.03,752.214 1122.3,678.995C1134.11,653.103 1145.57,625.755 1145.14,596.824C1146.67,585.138 1146.2,572.527 1141.06,561.829Z" style="fill:rgb(217,197,255);"/>
            <g id="Weight">
                <path id="Rectangle" d="M452.086,594.985C451.677,594.3 452.169,593.406 452.967,593.406L1050.34,593.406C1051.08,593.406 1051.57,594.183 1051.26,594.855C1049.78,598.069 1046.4,605.813 1046.4,609.618L1046.4,622.91C1046.4,623.461 1045.95,623.904 1045.4,623.906L457.621,625.827C457.068,625.829 456.618,625.385 456.618,624.831L456.618,606.755C456.618,603.064 453.672,597.639 452.086,594.985Z" style="fill:rgb(48,48,48);"/>
                <path id="Rectangle--" serif:id="Rectangle  " d="M173.221,624.834C173.221,625.386 173.668,625.831 174.221,625.831L417.51,625.831C418.168,625.831 418.646,625.206 418.476,624.571L414.807,610.913C414.807,610.913 397.197,614.415 391.242,609.697L388.405,604.23C388.331,604.088 388.292,603.93 388.292,603.77L388.292,595.334L174.23,593.415C173.674,593.41 173.221,593.855 173.221,594.41L173.221,624.834Z" style="fill:rgb(48,48,48);"/>
                <path id="Rectangle--_2" serif:id="Rectangle  _2" d="M1332.36,624.834C1332.36,625.386 1331.91,625.831 1331.36,625.831L1088.07,625.831C1087.41,625.831 1086.93,625.206 1087.1,624.571L1090.77,610.913C1090.77,610.913 1108.38,614.415 1114.34,609.697L1117.17,604.23C1117.25,604.088 1117.29,603.93 1117.29,603.77L1117.29,595.334L1331.35,593.415C1331.9,593.41 1332.36,593.855 1332.36,594.41L1332.36,624.834Z" style="fill:rgb(48,48,48);"/>
                <g id="Group-" serif:id="Group ">
                    <path id="Rectangle_2" d="M238.773,554.116L238.773,664.718C238.773,665.311 238.292,665.792 237.699,665.792L209.424,665.792C208.831,665.792 208.35,665.311 208.35,664.718L208.35,554.116C208.35,553.523 208.831,553.042 209.424,553.042L237.699,553.042C238.292,553.042 238.773,553.523 238.773,554.116Z" style="fill:rgb(255,220,62);"/>
                    <path id="Rectangle-" serif:id="Rectangle " d="M269.196,517.836L269.196,698.114C269.196,698.707 268.715,699.188 268.122,699.188L239.847,699.188C239.254,699.188 238.773,698.707 238.773,698.114L238.773,517.836C238.773,517.243 239.254,516.762 239.847,516.762L268.122,516.762C268.715,516.762 269.196,517.243 269.196,517.836Z" style="fill:rgb(255,220,62);"/>
                    <path id="Rectangle--_3" serif:id="Rectangle  _3" d="M311.209,498.199L311.209,719.016C311.209,719.609 310.727,720.09 310.135,720.09L266.648,720.09C266.055,720.09 265.574,719.609 265.574,719.016L265.574,498.199C265.574,497.606 266.055,497.125 266.648,497.125L310.135,497.125C310.727,497.125 311.209,497.606 311.209,498.199Z" style="fill:rgb(255,220,62);"/>
                </g>
                <g id="Group--" serif:id="Group  ">
                    <g id="Rectangle_3" transform="matrix(-1,0,0,1,1280.77,548.655)">
                        <path d="M30.423,1.074L30.423,111.676C30.423,112.269 29.942,112.75 29.349,112.75L1.074,112.75C0.481,112.75 0,112.269 0,111.676L0,1.074C0,0.481 0.481,0 1.074,0L29.349,0C29.942,0 30.423,0.481 30.423,1.074Z" style="fill:rgb(255,220,62);"/>
                    </g>
                    <g id="Rectangle-_2" serif:id="Rectangle _2" transform="matrix(-1,0,0,1,1250.34,512.375)">
                        <path d="M30.423,1.074L30.423,181.352C30.423,181.945 29.942,182.426 29.349,182.426L1.074,182.426C0.481,182.426 0,181.945 0,181.352L0,1.074C0,0.481 0.481,0 1.074,0L29.349,0C29.942,0 30.423,0.481 30.423,1.074Z" style="fill:rgb(255,220,62);"/>
                    </g>
                    <g id="Rectangle--_4" serif:id="Rectangle  _4" transform="matrix(-1,0,0,1,1223.54,492.738)">
                        <path d="M45.635,1.074L45.635,221.891C45.635,222.484 45.153,222.965 44.561,222.965L1.074,222.965C0.481,222.965 0,222.484 0,221.891L0,1.074C0,0.481 0.481,0 1.074,0L44.561,0C45.153,0 45.635,0.481 45.635,1.074Z" style="fill:rgb(255,220,62);"/>
                    </g>
                </g>
            </g>
            <path id="Lines" d="M413.908,565.322C413.827,564.626 413.236,564.086 412.518,564.086C411.746,564.086 411.119,564.712 411.119,565.485L411.119,578.482L411.129,578.645C411.21,579.341 411.801,579.881 412.518,579.881C413.291,579.881 413.917,579.254 413.917,578.482L413.917,565.485L413.908,565.322ZM386.948,569.26C387.665,569.26 388.257,569.8 388.337,570.496L388.347,570.659L388.347,583.656C388.347,584.428 387.72,585.055 386.948,585.055C386.23,585.055 385.639,584.515 385.558,583.819L385.549,583.656L385.549,570.659C385.549,569.886 386.175,569.26 386.948,569.26Z" style="fill:rgb(48,48,48);"/>
            <g id="shoe">
                <path id="Path-" serif:id="Path " d="M416.937,1379.75C416.937,1379.75 374.108,1398.75 354.405,1381.62C334.701,1364.49 337.34,1359.92 326.184,1360.41C315.028,1360.91 309.659,1383.6 309.659,1383.6L280.905,1397.11L194.012,1431.23C194.012,1431.23 168.964,1452.5 194.775,1474.94C204.529,1483.42 246.491,1487.55 294.662,1486.9C331.469,1486.4 425.856,1484.61 425.856,1484.61C425.856,1484.61 423.64,1453.78 422.531,1440.58C422.119,1435.68 417.684,1425.04 417.659,1421.11C417.613,1413.62 421.856,1401.77 421.729,1394.65C421.61,1388.01 416.937,1379.75 416.937,1379.75Z" style="fill:rgb(250,250,250);"/>
                <path id="Path-_2" serif:id="Path _2" d="M316.879,1379.29C316.627,1378.56 315.831,1378.17 315.101,1378.43C314.426,1378.66 314.043,1379.35 314.186,1380.03L314.233,1380.2L320.469,1398.33L309.792,1394.01C308.958,1393.68 308.044,1394.2 307.891,1395.06L307.872,1395.23L306.731,1414.13L297.362,1400.85C296.68,1399.89 295.209,1400.16 294.881,1401.25L294.845,1401.39L290.529,1423.71L277.538,1404.68C277.134,1404.08 276.354,1403.9 275.734,1404.23L275.594,1404.31C275.001,1404.71 274.817,1405.49 275.143,1406.11L275.227,1406.25L290.11,1428.06C290.781,1429.04 292.272,1428.78 292.602,1427.68L292.639,1427.54L296.97,1405.15L306.744,1419C307.476,1420.04 309.069,1419.63 309.266,1418.43L309.283,1418.28L310.548,1397.34L322.265,1402.07C323.329,1402.5 324.404,1401.54 324.154,1400.47L324.112,1400.32L316.879,1379.29Z" style="fill:rgb(48,48,48);fill-rule:nonzero;"/>
                <path id="Combined-Shape" serif:id="Combined Shape" d="M319.275,1415.42L312.924,1421.73L322.669,1432.9C318.965,1433.87 315.54,1434.99 312.486,1436.28C310.047,1437.32 307.508,1438.5 304.896,1439.8L292.029,1426.84L285.799,1432.85L296.199,1444.41C263.845,1462.47 225.323,1493.31 225.323,1493.31L263.492,1492.65C263.492,1492.65 283.197,1471.43 305.59,1454.84L313.738,1463.9C291.823,1479.49 271.535,1496.6 271.535,1496.6L302.53,1496.06C302.53,1496.06 310.74,1485.07 322.022,1473.1L341.937,1495.23L359.641,1494.92L329.975,1465.05C333.764,1461.41 337.734,1457.88 341.737,1454.76L370.226,1487.42L388.286,1487.1L351.005,1448.37C351.96,1447.81 352.91,1447.29 353.854,1446.8C377.421,1434.69 430.584,1430.26 430.584,1430.26C430.584,1430.26 427.059,1430.25 421.357,1430.43C423.835,1429.85 425.744,1429.23 425.744,1429.23C425.744,1429.23 371.784,1424.26 333.859,1430.56L319.275,1415.42ZM322.672,1457.7L313.986,1448.95C317.734,1446.48 321.498,1444.22 325.202,1442.28C326.465,1441.62 327.805,1441 329.218,1440.41L336.584,1448.85C332.113,1451.49 327.413,1454.5 322.672,1457.7ZM403.792,1431.39C377.883,1431.55 356.014,1432.91 339.987,1436.93L346.354,1443.54C347.85,1442.81 349.295,1442.16 350.678,1441.58C365.229,1435.51 386.75,1432.69 403.792,1431.39Z" style="fill:rgb(255,194,223);"/>
                <path id="Path-_3" serif:id="Path _3" d="M424.64,1469.12C424.64,1469.12 276.355,1474.37 235.053,1472.43C193.752,1470.49 181.598,1451.55 181.598,1451.55C181.598,1451.55 182.106,1480.68 210.027,1490.21C237.947,1499.74 426.935,1497.38 426.935,1497.38L424.64,1469.12Z" style="fill:rgb(235,235,235);"/>
            </g>
            <g id="shoe_2">
                <path id="Path-_4" serif:id="Path _4" d="M905.391,1379.75C905.391,1379.75 948.22,1398.75 967.923,1381.62C987.627,1364.49 984.988,1359.92 996.144,1360.41C1007.3,1360.91 1012.67,1383.6 1012.67,1383.6L1041.42,1397.11L1128.32,1431.23C1128.32,1431.23 1153.36,1452.5 1127.55,1474.94C1117.8,1483.42 1075.84,1487.55 1027.67,1486.9C990.859,1486.4 896.472,1484.61 896.472,1484.61C896.472,1484.61 898.688,1453.78 899.797,1440.58C900.209,1435.68 904.645,1425.04 904.669,1421.11C904.715,1413.62 900.472,1401.77 900.599,1394.65C900.718,1388.01 905.391,1379.75 905.391,1379.75Z" style="fill:rgb(250,250,250);"/>
                <path id="Path-_5" serif:id="Path _5" d="M1005.45,1379.29C1005.7,1378.56 1006.5,1378.17 1007.23,1378.43C1007.9,1378.66 1008.28,1379.35 1008.14,1380.03L1008.1,1380.2L1001.86,1398.33L1012.54,1394.01C1013.37,1393.68 1014.28,1394.2 1014.44,1395.06L1014.46,1395.23L1015.6,1414.13L1024.97,1400.85C1025.65,1399.89 1027.12,1400.16 1027.45,1401.25L1027.48,1401.39L1031.8,1423.71L1044.79,1404.68C1045.19,1404.08 1045.97,1403.9 1046.59,1404.23L1046.73,1404.31C1047.33,1404.71 1047.51,1405.49 1047.19,1406.11L1047.1,1406.25L1032.22,1428.06C1031.55,1429.04 1030.06,1428.78 1029.73,1427.68L1029.69,1427.54L1025.36,1405.15L1015.58,1419C1014.85,1420.04 1013.26,1419.63 1013.06,1418.43L1013.04,1418.28L1011.78,1397.34L1000.06,1402.07C998.999,1402.5 997.924,1401.54 998.174,1400.47L998.216,1400.32L1005.45,1379.29Z" style="fill:rgb(48,48,48);fill-rule:nonzero;"/>
                <path id="Combined-Shape_2" serif:id="Combined Shape_2" d="M1003.05,1415.42L1009.4,1421.73L999.66,1432.9C1003.36,1433.87 1006.79,1434.99 1009.84,1436.28C1012.28,1437.32 1014.82,1438.5 1017.43,1439.8L1030.3,1426.84L1036.53,1432.85L1026.13,1444.41C1058.48,1462.47 1097.01,1493.31 1097.01,1493.31L1058.84,1492.65C1058.84,1492.65 1039.13,1471.43 1016.74,1454.84L1008.59,1463.9C1030.51,1479.49 1050.79,1496.6 1050.79,1496.6L1019.8,1496.06C1019.8,1496.06 1011.59,1485.07 1000.31,1473.1L980.391,1495.23L962.688,1494.92L992.353,1465.05C988.564,1461.41 984.594,1457.88 980.592,1454.76L952.102,1487.42L934.042,1487.1L971.323,1448.37C970.368,1447.81 969.418,1447.29 968.474,1446.8C944.907,1434.69 891.744,1430.26 891.744,1430.26C891.744,1430.26 895.27,1430.25 900.971,1430.43C898.493,1429.85 896.584,1429.23 896.584,1429.23C896.584,1429.23 950.544,1424.26 988.469,1430.56L1003.05,1415.42ZM999.656,1457.7L1008.34,1448.95C1004.59,1446.48 1000.83,1444.22 997.126,1442.28C995.863,1441.62 994.524,1441 993.11,1440.41L985.744,1448.85C990.216,1451.49 994.915,1454.5 999.656,1457.7ZM918.536,1431.39C944.445,1431.55 966.314,1432.91 982.341,1436.93L975.974,1443.54C974.478,1442.81 973.033,1442.16 971.65,1441.58C957.099,1435.51 935.578,1432.69 918.536,1431.39Z" style="fill:rgb(255,194,223);"/>
                <path id="Path-_6" serif:id="Path _6" d="M897.689,1469.12C897.689,1469.12 1045.97,1474.37 1087.27,1472.43C1128.58,1470.49 1140.73,1451.55 1140.73,1451.55C1140.73,1451.55 1140.22,1480.68 1112.3,1490.21C1084.38,1499.74 895.393,1497.38 895.393,1497.38L897.689,1469.12Z" style="fill:rgb(235,235,235);"/>
            </g>
            <path id="Shorts" d="M463.879,1137.14L592.524,1190.83L732.97,1034.52L876.093,1179.63L1009.51,1088.15L823.402,893.155L645.519,880.896L463.879,1137.14Z" style="fill:rgb(255,95,105);"/>
            <path id="Small-Top-Copy" serif:id="Small Top Copy" d="M854.923,929.52L611.016,929.52C611.016,929.52 663.913,652.603 686.272,648.711C708.631,644.818 688.921,705.295 749.128,705.295C809.335,705.295 789.587,644.061 811.693,648.228C834.952,652.598 854.923,929.52 854.923,929.52Z" style="fill:rgb(255,194,223);fill-rule:nonzero;"/>
        </g>
        <g id="Head">
            <path id="Path" d="M700.336,576.738C700.406,567.798 706.673,558.187 715.123,561.881C715.697,561.755 716.27,561.671 716.844,561.643C716.844,497.01 804.35,510.286 804.853,575.143C804.853,628.779 760.016,656.521 731.197,625.184C722.188,614.93 720.397,602.507 717.04,590.322C707.611,590.671 701.161,585.369 700.336,576.738Z" style="fill:rgb(217,197,255);fill-rule:nonzero;"/>
            <path id="Path-_7" serif:id="Path _7" d="M717.04,590.322C717.04,590.322 719.654,597.622 719.84,602.32C720.078,608.309 709.8,593.982 707.834,593.264C697.052,589.325 694.882,572.363 695.275,553.962C695.303,552.609 663.874,530.999 666.018,514.581C669.049,491.379 695.717,511.942 702.763,505.53C713.065,496.154 720.092,484.234 733.127,481.961C747.501,479.454 753.659,494.344 765.347,505.53C771.636,511.549 778.939,488.541 792.349,505.53C805.759,522.518 800.676,551.495 800.676,551.495C800.676,551.495 731.719,559.55 717.928,562.439C714.431,563.171 711.332,561.12 708.985,562.439C701.7,566.531 698.484,578.152 702.763,583.999C705.301,587.466 717.04,590.322 717.04,590.322Z"/>
            <g id="Accesories">
                <path id="Hair-band" serif:id="Hair band" d="M801.062,553.05C801.062,553.05 695.115,571.156 695.115,567.132C695.115,563.108 691.922,555.151 692.901,551.388C693.881,547.625 797.733,530.273 801.062,529.112C803.636,531.84 801.062,553.05 801.062,553.05Z" style="fill:rgb(45,103,248);fill-rule:nonzero;"/>
            </g>
            <path id="hear" d="M712.121,569.618C711.845,568.974 711.124,568.625 710.437,568.83C709.696,569.051 709.275,569.83 709.496,570.57L711.028,575.713C710.312,575.433 709.526,575.232 708.673,575.113L708.51,575.1C707.81,575.083 707.193,575.594 707.094,576.304C706.987,577.07 707.52,577.777 708.285,577.884C710.371,578.176 711.715,579.034 712.47,580.483C712.62,580.788 712.874,581.02 713.174,581.149C713.362,581.23 713.57,581.269 713.781,581.26C713.937,581.254 714.094,581.221 714.246,581.16C714.397,581.099 714.533,581.014 714.65,580.911C714.809,580.771 714.93,580.599 715.011,580.411C715.091,580.222 715.131,580.016 715.122,579.805C715.117,579.682 715.096,579.559 715.057,579.439L712.177,569.771L712.121,569.618Z" style="fill:rgb(48,48,48);"/>
        </g>
        <g id="Expression">
            <g id="Group">
                <path id="Path_2" d="M780.879,596.752C780.711,596.053 780.473,595.381 780.305,594.682C780.137,593.982 779.955,593.283 779.76,592.583C779.382,591.24 778.976,589.911 778.584,588.568C777.787,585.868 777.004,583.14 776.696,580.342C776.612,579.615 776.122,578.985 775.339,578.985C774.667,578.985 773.898,579.615 773.982,580.342C774.569,585.616 776.57,590.541 777.773,595.675C776.626,595.675 775.493,595.647 774.345,595.605C772.807,595.563 771.002,595.451 769.575,596.095C768.596,596.542 768.848,598.193 769.883,598.417C770.638,598.571 771.422,598.529 772.177,598.585C773.002,598.641 773.814,598.683 774.639,598.725C776.374,598.809 778.123,598.823 779.857,598.571C780.655,598.445 781.047,597.438 780.879,596.752Z" style="fill:rgb(48,48,48);fill-rule:nonzero;"/>
                <path id="Path_3" d="M775.241,611.371C774.555,611.288 773.884,611.651 773.38,612.071C773.282,612.155 773.198,612.225 773.101,612.309C772.933,612.435 772.751,612.561 772.569,612.687C771.883,613.148 771.17,613.54 770.415,613.876C770.303,613.932 770.177,613.974 770.065,614.03C770.233,613.96 770.219,613.96 770.009,614.044C769.827,614.113 769.659,614.169 769.477,614.239C769.072,614.379 768.652,614.491 768.218,614.589C768.036,614.631 767.854,614.673 767.673,614.701C767.575,614.715 767.477,614.729 767.379,614.743C767.351,614.743 767.323,614.743 767.281,614.757C766.889,614.799 766.497,614.827 766.106,614.841C764.637,614.883 763.546,614.589 762.231,613.764C761.881,613.54 761.181,612.826 760.902,612.407C760.356,611.595 760.048,610.868 759.796,609.959C759.167,607.762 755.753,608.699 756.369,610.896C756.97,613.036 758.09,615.023 759.852,616.422C761.573,617.793 763.574,618.45 765.756,618.618C767.826,618.772 769.897,618.268 771.8,617.471C772.751,617.065 773.66,616.576 774.486,615.96C775.479,615.233 776.906,614.281 776.752,612.868C776.654,611.987 776.122,611.469 775.241,611.371Z" style="fill:rgb(48,48,48);fill-rule:nonzero;"/>
            </g>
        </g>
    </g>
    <g transform="matrix(1.057974,0,0,1.057974,762.825945,434.978889)">
        <g id="Vector" transform="matrix(0.861747,0,0,0.861747,2.727374,-273.098481)">
            <path d="M617.412,695.099C613.112,690.399 607.612,686.399 602.212,683.099C586.912,673.699 570.312,665.799 552.612,662.699C534.912,659.599 515.912,661.299 500.212,669.999C484.512,678.699 472.512,694.899 471.112,712.899C469.612,733.499 484.312,756.699 506.312,756.899C507.512,756.899 508.412,757.399 509.012,758.099C509.712,758.199 510.412,758.299 511.112,758.399C512.612,758.699 514.212,758.799 515.712,758.999C514.212,759.299 512.712,759.499 511.212,759.699C512.012,762.299 512.212,765.699 512.212,770.299C511.812,801.399 511.212,832.599 510.712,863.699C510.712,865.299 510.612,866.999 510.112,868.499C509.012,871.399 506.312,873.3 503.612,874.9C495.012,880 485.612,883.999 478.112,890.799C470.712,897.499 465.512,907.999 468.512,917.599C488.112,915.599 507.212,909.099 524.012,898.799C525.512,897.899 527.112,896.799 528.112,895.299C529.212,893.499 529.412,891.299 529.512,889.099C530.912,862.099 531.712,788.899 531.012,760.399C539.212,760.899 547.512,760.899 555.812,760.399C558.712,760.199 561.612,759.999 564.512,759.699C563.112,763.699 563.212,767.999 563.312,772.299C564.112,811.499 564.812,850.7 565.612,889.9C565.612,891.3 565.712,892.7 566.312,893.9C567.112,895.3 568.512,896.2 569.912,896.9C576.012,900.4 618.012,924.499 622.912,916.199C625.312,912.099 615.412,895.699 612.612,892.599C606.312,885.599 598.012,880.399 588.812,878.199C586.312,877.599 583.312,876.899 582.212,874.599C581.712,873.599 581.712,872.399 581.712,871.199C581.912,848.799 582.112,826.499 582.312,804.099C582.412,790.499 577.012,754.899 587.012,743.699C591.012,739.299 597.112,744.999 602.312,742.099C614.012,735.599 625.512,724.899 624.812,711.599C624.612,705.299 621.612,699.799 617.412,695.099Z" style="fill:rgb(232,78,51);fill-rule:nonzero;"/>
        </g>
        <g id="Vector_2" transform="matrix(0.861747,0,0,0.861747,2.727374,-273.098481)">
            <path d="M589.212,735.8C587.412,731 585.212,726.4 581.812,722.6C574.312,714.2 560.812,713 550.312,712.9C538.812,712.8 526.312,714.5 516.412,720.6C511.012,724 507.712,728.5 507.412,735.1C507.312,737.5 507.512,739.9 507.712,742.4C508.212,742.6 508.712,742.9 509.012,743.3C509.712,743.4 510.412,743.5 511.112,743.6C512.612,743.9 514.212,743.999 515.712,744.199C514.212,744.499 512.712,744.7 511.212,744.9C512.012,747.5 512.212,750.899 512.212,755.499C512.012,769.599 511.812,783.7 511.512,797.8C518.012,796.3 524.612,794.999 531.212,793.699C531.312,774.499 531.312,756.699 531.012,745.699C539.212,746.199 547.512,746.199 555.812,745.699C558.712,745.499 561.612,745.299 564.512,744.999C563.112,748.999 563.212,753.3 563.312,757.6C563.512,767.7 563.712,777.7 563.912,787.8C570.012,786.7 576.112,785.499 582.212,784.199C581.512,769.699 578.812,747.2 587.712,737.3C588.212,736.7 588.712,736.3 589.212,735.8Z" style="fill:rgb(178,59,47);fill-rule:nonzero;"/>
        </g>
        <g id="Vector_3" transform="matrix(0.861747,0,0,0.861747,2.727374,-273.098481)">
            <path d="M760.713,583.4C756.913,552 742.413,523.1 728.113,494.9C721.113,504.1 712.513,512 702.713,518.1C704.913,449.4 683.413,380.1 642.613,324.8C635.113,341.1 623.313,355.3 608.613,365.6C609.313,297 584.513,228.4 540.113,176C545.913,182.8 535.213,219.1 533.213,227.5C529.013,245.4 522.913,262.9 515.113,279.6C510.513,289.3 465.413,366.2 456.113,357.8C453.513,355.4 453.312,351.5 452.912,347.9C451.412,336.2 444.613,326.6 437.813,317.4C436.813,316.1 416.913,294.8 416.513,298.2C414.113,322.8 396.113,342.6 382.313,363.1C363.913,390.5 351.813,422.1 347.213,454.8C346.113,462.9 350.413,487.8 337.313,485.3C330.213,483.9 325.612,470 326.612,463.9C317.212,516.8 315.013,572.8 331.013,623.7C333.613,632.1 336.813,640.4 340.513,648.4C355.213,680.7 380.513,708.3 410.813,727C467.613,762 555.813,763.3 582.213,761.9C633.413,759.2 686.812,736.6 721.912,698.7C750.412,668 765.713,624.9 760.713,583.4Z" style="fill:rgb(232,78,51);fill-rule:nonzero;"/>
        </g>
        <g id="Vector_4" transform="matrix(0.861747,0,0,0.861747,2.727374,-273.098481)">
            <path d="M708.112,574.3C692.312,580.5 689.612,593.1 679.912,604.2C673.612,597.4 681.212,586.9 682.312,579C688.012,539.1 670.312,499.6 649.112,465.3C640.012,450.6 628.012,429.5 635.512,411.5C625.612,411.4 619.312,421.7 613.412,428.2C604.112,438.4 594.412,446.8 581.312,451.9C553.912,462.5 563.012,442.2 563.412,424.5C563.912,401.9 551.612,373.9 530.312,363.8C525.112,391.3 516.912,409.9 498.112,430.5C481.012,449.1 460.712,474.9 455.412,500C452.312,493.5 449.912,486.3 448.912,479.2C447.012,466.8 446.712,454 445.012,441.5C439.012,475.8 404.712,501.6 403.812,536.5C403.512,550.7 410.312,567.5 408.012,580.9C391.312,575.5 387.212,552.6 368.412,548.5C370.412,563.1 372.412,577.6 374.412,592.2C376.612,608.4 379.012,625.2 385.712,640.2C401.812,676.1 426.612,708.5 461.812,726.8C510.312,752 562.912,760 613.712,738.2C644.112,725.2 667.812,699.3 682.812,669.8C697.812,640.3 704.812,607.2 708.112,574.3ZM371.612,548.8C371.712,549 371.812,549.2 371.612,548.8Z" style="fill:rgb(255,182,85);fill-rule:nonzero;"/>
        </g>
        <g id="Group1" serif:id="Group" transform="matrix(0.861747,0,0,0.861747,2.727374,-273.098481)">
            <path id="Vector_5" d="M639.112,677.5C656.399,677.5 670.412,663.486 670.412,646.2C670.412,628.913 656.399,614.9 639.112,614.9C621.826,614.9 607.812,628.913 607.812,646.2C607.812,663.486 621.826,677.5 639.112,677.5Z" style="fill:rgb(255,140,125);fill-rule:nonzero;"/>
            <g id="Vector_6" transform="matrix(1,0,0,1,20,0)">
                <path d="M439.812,677.5C457.099,677.5 471.112,663.486 471.112,646.2C471.112,628.913 457.099,614.9 439.812,614.9C422.526,614.9 408.512,628.913 408.512,646.2C408.512,663.486 422.526,677.5 439.812,677.5Z" style="fill:rgb(255,140,125);fill-rule:nonzero;"/>
            </g>
            <g id="Vector_8" transform="matrix(1.442613,0,0,1.442613,-267.986212,-283.983802)">
                <path d="M616.212,641.6C628.312,641.9 641.612,632.7 641.612,616.4C641.612,600.4 628.612,591.3 616.512,591.3C602.412,591.3 591.312,602.9 591.312,616.4C591.312,630.4 602.912,641.6 616.212,641.6Z" style="fill:rgb(242,233,221);fill-rule:nonzero;"/>
            </g>
            <g id="Vector_10" transform="matrix(1.442613,0,0,1.442613,-267.986212,-283.983802)">
                <path d="M616.212,641.6C602.912,641.6 591.312,630.5 591.312,616.3C591.312,602.8 602.512,591.2 616.512,591.2C628.612,591.2 641.612,600.3 641.612,616.3C641.712,632.7 628.412,641.8 616.212,641.6ZM609.712,610.6C609.712,616.5 614.212,622 621.212,622.3C627.512,622.6 633.212,616.8 633.012,610.5C632.812,604.2 627.512,599.1 621.312,599.1C616.312,599 610.012,602.7 609.712,610.6ZM605.012,617.4C603.812,617.8 602.812,617.9 601.912,618.4C598.212,620.4 597.612,624.1 598.912,627.3C600.012,630 603.212,631.6 606.012,631.1C608.812,630.6 611.112,628.4 611.512,625.7C612.012,622.7 610.712,619.7 608.012,618.4C607.212,617.9 606.212,617.7 605.012,617.4Z" style="fill:rgb(95,33,48);fill-rule:nonzero;"/>
            </g>
            <g id="Vector_9" transform="matrix(1.442613,0,0,1.442613,-197.986212,-283.983802)">
                <path d="M497.712,613C498.312,600.2 487.512,587.8 472.912,587.7C460.012,587.6 448.012,597.1 447.312,613C448.212,629.7 460.912,638.2 472.612,638.1C487.412,638 498.012,625.9 497.712,613Z" style="fill:rgb(242,233,221);fill-rule:nonzero;"/>
            </g>
            <g id="Vector_11" transform="matrix(1.442613,0,0,1.442613,-197.986212,-283.983802)">
                <path d="M497.712,613C498.012,625.9 487.412,638 472.612,638.1C460.912,638.2 448.212,629.7 447.312,613C448.012,597.2 460.012,587.6 472.912,587.7C487.512,587.8 498.212,600.1 497.712,613ZM488.912,607.2C489.312,601 483.712,595.5 477.512,595.5C472.312,595.5 465.912,599.7 465.912,607.1C465.912,613.5 471.012,618.8 477.412,618.9C483.612,618.9 488.912,613.6 488.912,607.2ZM451.612,620.6C451.912,623.1 452.812,625 454.712,626.3C456.012,627.2 457.512,627.7 459.212,627.5C462.512,627.1 465.112,624.3 465.212,621.1C465.312,617.7 462.912,614.7 459.412,614C457.712,613.7 456.212,614.2 454.912,615C453.012,616.3 452.012,618.2 451.612,620.6Z" style="fill:rgb(95,33,48);fill-rule:nonzero;"/>
            </g>
        </g>
        <g id="Vector_23" transform="matrix(0.861747,0,0,0.861747,2.727374,-273.098481)">
            <path d="M560.312,632.899C559.912,632.899 559.312,633.099 558.612,633.499C557.912,633.999 557.612,634.999 557.412,635.899C556.512,639.799 555.412,643.699 555.112,647.599C554.812,651.199 553.812,654.799 552.012,657.899C550.212,661.099 548.712,663.999 544.212,663.099C541.712,662.599 539.612,660.799 538.112,658.799C536.612,656.699 535.712,654.299 534.812,651.899C533.512,648.399 532.112,644.999 530.812,641.499C530.012,639.299 530.612,635.999 528.712,634.499C524.112,630.799 526.212,640.399 526.512,641.999C528.412,651.299 532.612,668.899 544.912,669.499C551.912,668.399 555.812,662.399 558.012,656.199C559.212,652.899 560.312,649.799 561.012,646.499C561.412,645.199 563.512,633.199 560.312,632.899Z" style="fill:rgb(95,33,48);fill-rule:nonzero;"/>
        </g>
    </g>
</svg>
