<?xml version="1.0" encoding="UTF-8" standalone="no"?>
<!DOCTYPE svg PUBLIC "-//W3C//DTD SVG 1.1//EN" "http://www.w3.org/Graphics/SVG/1.1/DTD/svg11.dtd">
<svg width="100%" height="100%" viewBox="0 0 80 100" version="1.1" xmlns="http://www.w3.org/2000/svg" xmlns:xlink="http://www.w3.org/1999/xlink" xml:space="preserve" xmlns:serif="http://www.serif.com/" style="fill-rule:evenodd;clip-rule:evenodd;stroke-linejoin:round;stroke-miterlimit:2;">
    <g id="Master-Pau-Barbaro-Happy-Flame" serif:id="Master/Pau Barbaro/Happy Flame" transform="matrix(0.167271,0,0,0.167271,-50.607832,-28.531241)">
        <path id="Vector_3" d="M760.713,583.4C756.913,552 742.413,523.1 728.113,494.9C721.113,504.1 712.513,512 702.713,518.1C704.913,449.4 683.413,380.1 642.613,324.8C635.113,341.1 623.313,355.3 608.613,365.6C609.313,297 584.513,228.4 540.113,176C545.913,182.8 535.213,219.1 533.213,227.5C529.013,245.4 522.913,262.9 515.113,279.6C510.513,289.3 465.413,366.2 456.113,357.8C453.513,355.4 453.312,351.5 452.912,347.9C451.412,336.2 444.613,326.6 437.813,317.4C436.813,316.1 416.913,294.8 416.513,298.2C414.113,322.8 396.113,342.6 382.313,363.1C363.913,390.5 351.813,422.1 347.213,454.8C346.113,462.9 350.413,487.8 337.313,485.3C330.213,483.9 325.612,470 326.612,463.9C317.212,516.8 315.013,572.8 331.013,623.7C333.613,632.1 336.813,640.4 340.513,648.4C355.213,680.7 380.513,708.3 410.813,727C467.613,762 555.813,763.3 582.213,761.9C633.413,759.2 686.812,736.6 721.912,698.7C750.412,668 765.713,624.9 760.713,583.4Z" style="fill:rgb(232,78,51);fill-rule:nonzero;"/>
        <path id="Vector_4" d="M708.112,574.3C692.312,580.5 689.612,593.1 679.912,604.2C673.612,597.4 681.212,586.9 682.312,579C688.012,539.1 670.312,499.6 649.112,465.3C640.012,450.6 628.012,429.5 635.512,411.5C625.612,411.4 619.312,421.7 613.412,428.2C604.112,438.4 594.412,446.8 581.312,451.9C553.912,462.5 563.012,442.2 563.412,424.5C563.912,401.9 551.612,373.9 530.312,363.8C525.112,391.3 516.912,409.9 498.112,430.5C481.012,449.1 460.712,474.9 455.412,500C452.312,493.5 449.912,486.3 448.912,479.2C447.012,466.8 446.712,454 445.012,441.5C439.012,475.8 404.712,501.6 403.812,536.5C403.512,550.7 410.312,567.5 408.012,580.9C391.312,575.5 387.212,552.6 368.412,548.5C370.412,563.1 372.412,577.6 374.412,592.2C376.612,608.4 379.012,625.2 385.712,640.2C401.812,676.1 426.612,708.5 461.812,726.8C510.312,752 562.912,760 613.712,738.2C644.112,725.2 667.812,699.3 682.812,669.8C697.812,640.3 704.812,607.2 708.112,574.3ZM371.612,548.8C371.712,549 371.812,549.2 371.612,548.8Z" style="fill:rgb(255,182,85);fill-rule:nonzero;"/>
        <g id="Group">
            <path id="Vector_5" d="M639.112,677.5C656.399,677.5 670.412,663.486 670.412,646.2C670.412,628.913 656.399,614.9 639.112,614.9C621.826,614.9 607.812,628.913 607.812,646.2C607.812,663.486 621.826,677.5 639.112,677.5Z" style="fill:rgb(255,140,125);fill-rule:nonzero;"/>
            <path id="Vector_6" d="M439.812,677.5C457.099,677.5 471.112,663.486 471.112,646.2C471.112,628.913 457.099,614.9 439.812,614.9C422.526,614.9 408.512,628.913 408.512,646.2C408.512,663.486 422.526,677.5 439.812,677.5Z" style="fill:rgb(255,140,125);fill-rule:nonzero;"/>
            <path id="Vector_8" d="M616.212,641.6C628.312,641.9 641.612,632.7 641.612,616.4C641.612,600.4 628.612,591.3 616.512,591.3C602.412,591.3 591.312,602.9 591.312,616.4C591.312,630.4 602.912,641.6 616.212,641.6Z" style="fill:rgb(242,233,221);fill-rule:nonzero;"/>
            <path id="Vector_9" d="M497.712,613C498.312,600.2 487.512,587.8 472.912,587.7C460.012,587.6 448.012,597.1 447.312,613C448.212,629.7 460.912,638.2 472.612,638.1C487.412,638 498.012,625.9 497.712,613Z" style="fill:rgb(242,233,221);fill-rule:nonzero;"/>
            <path id="Vector_10" d="M616.212,641.6C602.912,641.6 591.312,630.5 591.312,616.3C591.312,602.8 602.512,591.2 616.512,591.2C628.612,591.2 641.612,600.3 641.612,616.3C641.712,632.7 628.412,641.8 616.212,641.6ZM609.712,610.6C609.712,616.5 614.212,622 621.212,622.3C627.512,622.6 633.212,616.8 633.012,610.5C632.812,604.2 627.512,599.1 621.312,599.1C616.312,599 610.012,602.7 609.712,610.6ZM605.012,617.4C603.812,617.8 602.812,617.9 601.912,618.4C598.212,620.4 597.612,624.1 598.912,627.3C600.012,630 603.212,631.6 606.012,631.1C608.812,630.6 611.112,628.4 611.512,625.7C612.012,622.7 610.712,619.7 608.012,618.4C607.212,617.9 606.212,617.7 605.012,617.4Z" style="fill:rgb(95,33,48);fill-rule:nonzero;"/>
            <path id="Vector_11" d="M497.712,613C498.012,625.9 487.412,638 472.612,638.1C460.912,638.2 448.212,629.7 447.312,613C448.012,597.2 460.012,587.6 472.912,587.7C487.512,587.8 498.212,600.1 497.712,613ZM488.912,607.2C489.312,601 483.712,595.5 477.512,595.5C472.312,595.5 465.912,599.7 465.912,607.1C465.912,613.5 471.012,618.8 477.412,618.9C483.612,618.9 488.912,613.6 488.912,607.2ZM451.612,620.6C451.912,623.1 452.812,625 454.712,626.3C456.012,627.2 457.512,627.7 459.212,627.5C462.512,627.1 465.112,624.3 465.212,621.1C465.312,617.7 462.912,614.7 459.412,614C457.712,613.7 456.212,614.2 454.912,615C453.012,616.3 452.012,618.2 451.612,620.6Z" style="fill:rgb(95,33,48);fill-rule:nonzero;"/>
            <path id="Vector_12" d="M609.712,610.6C610.012,602.7 616.312,599 621.212,599C627.512,599 632.812,604.1 632.912,610.4C633.112,616.7 627.412,622.5 621.112,622.2C614.212,622 609.712,616.5 609.712,610.6Z" style="fill:rgb(242,233,221);fill-rule:nonzero;"/>
            <path id="Vector_13" d="M605.012,617.4C606.212,617.8 607.212,618 608.112,618.4C610.712,619.7 612.112,622.6 611.612,625.7C611.212,628.3 608.812,630.6 606.112,631.1C603.312,631.6 600.112,630 599.012,627.3C597.712,624.1 598.312,620.4 602.012,618.4C602.812,617.9 603.812,617.7 605.012,617.4Z" style="fill:rgb(242,233,221);fill-rule:nonzero;"/>
            <path id="Vector_14" d="M488.912,607.2C488.912,613.6 483.612,618.9 477.412,618.9C471.112,618.8 465.912,613.5 465.912,607.1C465.912,599.8 472.312,595.5 477.512,595.5C483.712,595.5 489.412,601 488.912,607.2Z" style="fill:rgb(242,233,221);fill-rule:nonzero;"/>
            <path id="Vector_15" d="M451.612,620.6C452.012,618.2 452.912,616.2 454.912,615C456.312,614.2 457.812,613.7 459.412,614C462.912,614.7 465.312,617.7 465.212,621.1C465.112,624.3 462.412,627 459.212,627.5C457.512,627.7 456.012,627.2 454.712,626.3C452.812,625 451.912,623.1 451.612,620.6Z" style="fill:rgb(242,233,221);fill-rule:nonzero;"/>
        </g>
        <g id="Vector_23" transform="matrix(1.042261,0,0,1.042261,-25.772904,-1.419322)">
            <path d="M560.312,632.899C559.912,632.899 559.312,633.099 558.612,633.499C557.912,633.999 557.612,634.999 557.412,635.899C556.512,639.799 555.412,643.699 555.112,647.599C554.812,651.199 553.812,654.799 552.012,657.899C550.212,661.099 548.712,663.999 544.212,663.099C541.712,662.599 539.612,660.799 538.112,658.799C536.612,656.699 535.712,654.299 534.812,651.899C533.512,648.399 532.112,644.999 530.812,641.499C530.012,639.299 530.612,635.999 528.712,634.499C524.112,630.799 526.212,640.399 526.512,641.999C528.412,651.299 532.612,668.899 544.912,669.499C551.912,668.399 555.812,662.399 558.012,656.199C559.212,652.899 560.312,649.799 561.012,646.499C561.412,645.199 563.512,633.199 560.312,632.899Z" style="fill:rgb(95,33,48);fill-rule:nonzero;"/>
        </g>
    </g>
</svg>
