<?xml version="1.0" encoding="UTF-8" standalone="no"?>
<!DOCTYPE svg PUBLIC "-//W3C//DTD SVG 1.1//EN" "http://www.w3.org/Graphics/SVG/1.1/DTD/svg11.dtd">
<svg width="100%" height="100%" viewBox="0 0 513 756" version="1.1" xmlns="http://www.w3.org/2000/svg" xmlns:xlink="http://www.w3.org/1999/xlink" xml:space="preserve" xmlns:serif="http://www.serif.com/" style="fill-rule:evenodd;clip-rule:evenodd;stroke-linejoin:round;stroke-miterlimit:2;">
    <g id="Master-Pau-Barbaro-Happy-Flame" serif:id="Master/Pau Barbaro/Happy Flame" transform="matrix(1,0,0,1,-283.5,-162)">
        <path id="Vector" d="M617.412,695.099C613.112,690.399 607.612,686.399 602.212,683.099C586.912,673.699 570.312,665.799 552.612,662.699C534.912,659.599 515.912,661.299 500.212,669.999C484.512,678.699 472.512,694.899 471.112,712.899C469.612,733.499 484.312,756.699 506.312,756.899C507.512,756.899 508.412,757.399 509.012,758.099C509.712,758.199 510.412,758.299 511.112,758.399C512.612,758.699 514.212,758.799 515.712,758.999C514.212,759.299 512.712,759.499 511.212,759.699C512.012,762.299 512.212,765.699 512.212,770.299C511.812,801.399 511.212,832.599 510.712,863.699C510.712,865.299 510.612,866.999 510.112,868.499C509.012,871.399 506.312,873.3 503.612,874.9C495.012,880 485.612,883.999 478.112,890.799C470.712,897.499 465.512,907.999 468.512,917.599C488.112,915.599 507.212,909.099 524.012,898.799C525.512,897.899 527.112,896.799 528.112,895.299C529.212,893.499 529.412,891.299 529.512,889.099C530.912,862.099 531.712,788.899 531.012,760.399C539.212,760.899 547.512,760.899 555.812,760.399C558.712,760.199 561.612,759.999 564.512,759.699C563.112,763.699 563.212,767.999 563.312,772.299C564.112,811.499 564.812,850.7 565.612,889.9C565.612,891.3 565.712,892.7 566.312,893.9C567.112,895.3 568.512,896.2 569.912,896.9C576.012,900.4 618.012,924.499 622.912,916.199C625.312,912.099 615.412,895.699 612.612,892.599C606.312,885.599 598.012,880.399 588.812,878.199C586.312,877.599 583.312,876.899 582.212,874.599C581.712,873.599 581.712,872.399 581.712,871.199C581.912,848.799 582.112,826.499 582.312,804.099C582.412,790.499 577.012,754.899 587.012,743.699C591.012,739.299 597.112,744.999 602.312,742.099C614.012,735.599 625.512,724.899 624.812,711.599C624.612,705.299 621.612,699.799 617.412,695.099Z" style="fill:rgb(232,78,51);fill-rule:nonzero;"/>
        <path id="Vector_2" d="M589.212,735.8C587.412,731 585.212,726.4 581.812,722.6C574.312,714.2 560.812,713 550.312,712.9C538.812,712.8 526.312,714.5 516.412,720.6C511.012,724 507.712,728.5 507.412,735.1C507.312,737.5 507.512,739.9 507.712,742.4C508.212,742.6 508.712,742.9 509.012,743.3C509.712,743.4 510.412,743.5 511.112,743.6C512.612,743.9 514.212,743.999 515.712,744.199C514.212,744.499 512.712,744.7 511.212,744.9C512.012,747.5 512.212,750.899 512.212,755.499C512.012,769.599 511.812,783.7 511.512,797.8C518.012,796.3 524.612,794.999 531.212,793.699C531.312,774.499 531.312,756.699 531.012,745.699C539.212,746.199 547.512,746.199 555.812,745.699C558.712,745.499 561.612,745.299 564.512,744.999C563.112,748.999 563.212,753.3 563.312,757.6C563.512,767.7 563.712,777.7 563.912,787.8C570.012,786.7 576.112,785.499 582.212,784.199C581.512,769.699 578.812,747.2 587.712,737.3C588.212,736.7 588.712,736.3 589.212,735.8Z" style="fill:rgb(178,59,47);fill-rule:nonzero;"/>
        <path id="Vector_3" d="M760.713,583.4C756.913,552 742.413,523.1 728.113,494.9C721.113,504.1 712.513,512 702.713,518.1C704.913,449.4 683.413,380.1 642.613,324.8C635.113,341.1 623.313,355.3 608.613,365.6C609.313,297 584.513,228.4 540.113,176C545.913,182.8 535.213,219.1 533.213,227.5C529.013,245.4 522.913,262.9 515.113,279.6C510.513,289.3 465.413,366.2 456.113,357.8C453.513,355.4 453.312,351.5 452.912,347.9C451.412,336.2 444.613,326.6 437.813,317.4C436.813,316.1 416.913,294.8 416.513,298.2C414.113,322.8 396.113,342.6 382.313,363.1C363.913,390.5 351.813,422.1 347.213,454.8C346.113,462.9 350.413,487.8 337.313,485.3C330.213,483.9 325.612,470 326.612,463.9C317.212,516.8 315.013,572.8 331.013,623.7C333.613,632.1 336.813,640.4 340.513,648.4C355.213,680.7 380.513,708.3 410.813,727C467.613,762 555.813,763.3 582.213,761.9C633.413,759.2 686.812,736.6 721.912,698.7C750.412,668 765.713,624.9 760.713,583.4Z" style="fill:rgb(232,78,51);fill-rule:nonzero;"/>
        <path id="Vector_4" d="M708.112,574.3C692.312,580.5 689.612,593.1 679.912,604.2C673.612,597.4 681.212,586.9 682.312,579C688.012,539.1 670.312,499.6 649.112,465.3C640.012,450.6 628.012,429.5 635.512,411.5C625.612,411.4 619.312,421.7 613.412,428.2C604.112,438.4 594.412,446.8 581.312,451.9C553.912,462.5 563.012,442.2 563.412,424.5C563.912,401.9 551.612,373.9 530.312,363.8C525.112,391.3 516.912,409.9 498.112,430.5C481.012,449.1 460.712,474.9 455.412,500C452.312,493.5 449.912,486.3 448.912,479.2C447.012,466.8 446.712,454 445.012,441.5C439.012,475.8 404.712,501.6 403.812,536.5C403.512,550.7 410.312,567.5 408.012,580.9C391.312,575.5 387.212,552.6 368.412,548.5C370.412,563.1 372.412,577.6 374.412,592.2C376.612,608.4 379.012,625.2 385.712,640.2C401.812,676.1 426.612,708.5 461.812,726.8C510.312,752 562.912,760 613.712,738.2C644.112,725.2 667.812,699.3 682.812,669.8C697.812,640.3 704.812,607.2 708.112,574.3ZM371.612,548.8C371.712,549 371.812,549.2 371.612,548.8Z" style="fill:rgb(255,182,85);fill-rule:nonzero;"/>
        <g id="Group">
            <path id="Vector_5" d="M639.112,677.5C656.399,677.5 670.412,663.486 670.412,646.2C670.412,628.913 656.399,614.9 639.112,614.9C621.826,614.9 607.812,628.913 607.812,646.2C607.812,663.486 621.826,677.5 639.112,677.5Z" style="fill:rgb(255,140,125);fill-rule:nonzero;"/>
            <g id="Vector_6" transform="matrix(1,0,0,1,20,0)">
                <path d="M439.812,677.5C457.099,677.5 471.112,663.486 471.112,646.2C471.112,628.913 457.099,614.9 439.812,614.9C422.526,614.9 408.512,628.913 408.512,646.2C408.512,663.486 422.526,677.5 439.812,677.5Z" style="fill:rgb(255,140,125);fill-rule:nonzero;"/>
            </g>
            <g id="Vector_8" transform="matrix(1.442613,0,0,1.442613,-267.986212,-283.983802)">
                <path d="M616.212,641.6C628.312,641.9 641.612,632.7 641.612,616.4C641.612,600.4 628.612,591.3 616.512,591.3C602.412,591.3 591.312,602.9 591.312,616.4C591.312,630.4 602.912,641.6 616.212,641.6Z" style="fill:rgb(242,233,221);fill-rule:nonzero;"/>
            </g>
            <g id="Vector_10" transform="matrix(1.442613,0,0,1.442613,-267.986212,-283.983802)">
                <path d="M616.212,641.6C602.912,641.6 591.312,630.5 591.312,616.3C591.312,602.8 602.512,591.2 616.512,591.2C628.612,591.2 641.612,600.3 641.612,616.3C641.712,632.7 628.412,641.8 616.212,641.6ZM609.712,610.6C609.712,616.5 614.212,622 621.212,622.3C627.512,622.6 633.212,616.8 633.012,610.5C632.812,604.2 627.512,599.1 621.312,599.1C616.312,599 610.012,602.7 609.712,610.6ZM605.012,617.4C603.812,617.8 602.812,617.9 601.912,618.4C598.212,620.4 597.612,624.1 598.912,627.3C600.012,630 603.212,631.6 606.012,631.1C608.812,630.6 611.112,628.4 611.512,625.7C612.012,622.7 610.712,619.7 608.012,618.4C607.212,617.9 606.212,617.7 605.012,617.4Z" style="fill:rgb(95,33,48);fill-rule:nonzero;"/>
            </g>
            <g id="Vector_9" transform="matrix(1.442613,0,0,1.442613,-197.986212,-283.983802)">
                <path d="M497.712,613C498.312,600.2 487.512,587.8 472.912,587.7C460.012,587.6 448.012,597.1 447.312,613C448.212,629.7 460.912,638.2 472.612,638.1C487.412,638 498.012,625.9 497.712,613Z" style="fill:rgb(242,233,221);fill-rule:nonzero;"/>
            </g>
            <g id="Vector_11" transform="matrix(1.442613,0,0,1.442613,-197.986212,-283.983802)">
                <path d="M497.712,613C498.012,625.9 487.412,638 472.612,638.1C460.912,638.2 448.212,629.7 447.312,613C448.012,597.2 460.012,587.6 472.912,587.7C487.512,587.8 498.212,600.1 497.712,613ZM488.912,607.2C489.312,601 483.712,595.5 477.512,595.5C472.312,595.5 465.912,599.7 465.912,607.1C465.912,613.5 471.012,618.8 477.412,618.9C483.612,618.9 488.912,613.6 488.912,607.2ZM451.612,620.6C451.912,623.1 452.812,625 454.712,626.3C456.012,627.2 457.512,627.7 459.212,627.5C462.512,627.1 465.112,624.3 465.212,621.1C465.312,617.7 462.912,614.7 459.412,614C457.712,613.7 456.212,614.2 454.912,615C453.012,616.3 452.012,618.2 451.612,620.6Z" style="fill:rgb(95,33,48);fill-rule:nonzero;"/>
            </g>
        </g>
        <path id="Vector_7" d="M616.812,183.5C616.912,180.2 616.012,177 614.812,174C613.412,170.5 612.012,166.7 608.812,164.3C608.512,164.1 608.412,163.7 608.112,163.5C607.812,163.3 607.512,163.2 607.012,163C605.712,167.9 607.312,173.1 606.112,178C604.912,182.9 604.012,188 602.612,192.9C601.912,195.3 601.212,197.8 600.812,200.2C600.312,203.2 599.712,206.1 598.912,209C598.712,209.7 598.612,210.4 598.612,211.1C598.412,214.6 599.512,217.8 600.612,220.9C601.912,224.6 604.212,227.8 606.412,230.9C607.012,231.8 607.712,232.7 608.812,233C608.912,233.4 609.112,233.7 609.512,233.9C610.012,233.9 610.512,233.8 610.912,233.8C611.012,232.7 610.112,231.8 610.212,230.6C610.512,225.9 609.612,221.2 610.812,216.5C610.912,216 610.912,215.5 610.812,215.1C610.612,212.4 611.312,209.8 611.812,207.2C612.612,202.6 614.112,198.1 615.112,193.6C616.012,190.4 617.312,187.1 616.812,183.5Z" style="fill:rgb(255,94,33);fill-rule:nonzero;"/>
        <path id="Vector_16" d="M752.612,418.5C756.368,418.5 759.412,415.456 759.412,411.7C759.412,407.945 756.368,404.9 752.612,404.9C748.857,404.9 745.812,407.945 745.812,411.7C745.812,415.456 748.857,418.5 752.612,418.5Z" style="fill:rgb(255,150,26);fill-rule:nonzero;"/>
        <path id="Vector_17" d="M771.312,552.1C771.212,548.8 772.112,545.6 773.312,542.6C774.712,539.1 776.112,535.3 779.312,532.9C779.612,532.7 779.712,532.3 780.012,532.1C780.312,531.9 780.612,531.8 781.112,531.6C782.412,536.5 780.812,541.7 782.012,546.6C783.212,551.5 784.112,556.6 785.512,561.5C786.212,563.9 786.912,566.4 787.312,568.8C787.812,571.8 788.412,574.7 789.212,577.6C789.412,578.3 789.512,579 789.512,579.7C789.712,583.2 788.612,586.4 787.512,589.5C786.212,593.2 783.912,596.4 781.712,599.5C781.112,600.4 780.412,601.3 779.312,601.6C779.212,602 779.012,602.3 778.612,602.5C778.112,602.5 777.612,602.4 777.212,602.4C777.112,601.3 778.012,600.4 777.912,599.2C777.612,594.5 778.512,589.8 777.312,585.1C777.212,584.6 777.212,584.1 777.312,583.7C777.512,581 776.812,578.4 776.312,575.8C775.512,571.2 774.012,566.7 773.012,562.2C772.212,559 770.912,555.7 771.312,552.1Z" style="fill:rgb(255,94,33);fill-rule:nonzero;"/>
        <path id="Vector_18" d="M371.712,320.9C375.468,320.9 378.512,317.855 378.512,314.1C378.512,310.344 375.468,307.3 371.712,307.3C367.957,307.3 364.912,310.344 364.912,314.1C364.912,317.855 367.957,320.9 371.712,320.9Z" style="fill:rgb(255,150,26);fill-rule:nonzero;"/>
        <path id="Vector_19" d="M441.412,256.199C440.812,252.999 441.112,249.699 441.712,246.499C442.512,242.799 443.212,238.899 446.012,235.899C446.212,235.599 446.312,235.199 446.512,234.999C446.712,234.799 447.112,234.599 447.512,234.399C449.612,238.999 448.912,244.399 450.912,248.999C452.912,253.599 454.712,258.499 456.912,263.099C458.012,265.399 459.112,267.699 460.012,269.999C461.012,272.799 462.112,275.599 463.412,278.299C463.712,278.999 463.912,279.599 464.112,280.299C464.912,283.699 464.312,286.999 463.812,290.299C463.212,294.099 461.512,297.699 459.812,301.199C459.412,302.199 458.812,303.199 457.812,303.699C457.812,304.099 457.612,304.399 457.312,304.699C456.812,304.699 456.312,304.799 455.912,304.799C455.712,303.699 456.312,302.699 456.012,301.599C454.912,296.999 455.012,292.199 452.912,287.799C452.712,287.399 452.712,286.899 452.612,286.399C452.412,283.699 451.212,281.299 450.312,278.799C448.712,274.399 446.512,270.299 444.712,265.999C443.512,262.799 441.612,259.799 441.412,256.199Z" style="fill:rgb(255,94,33);fill-rule:nonzero;"/>
        <g id="Group_2">
            <path id="Vector_20" d="M667.512,268.7C665.912,267.7 663.912,268.1 663.012,267.5C660.112,265.2 660.812,262 659.012,259.7C657.412,260.9 657.312,262.5 657.312,264C657.312,266.3 656.112,267.7 654.012,268.4C653.512,268.6 653.012,268.8 652.512,269C651.412,269.2 649.712,268.9 650.412,271C650.812,271.1 651.212,271.2 651.512,271.3C651.712,271.3 652.012,271.2 652.212,271.1C652.712,271.1 653.112,271.2 653.512,271.4C653.812,271.5 654.212,271.6 654.612,271.7C656.112,272 657.112,272.8 657.412,274.4C657.712,276.2 658.212,277.9 659.612,279.5C660.712,278.3 660.712,277.1 660.712,275.9C661.412,274.8 661.412,273.4 662.512,272.3C663.512,272 664.712,271.6 665.912,271.3C667.212,270.8 668.812,271 669.612,269.5C668.912,268.6 668.212,268.6 667.512,268.7Z" style="fill:rgb(239,203,86);fill-rule:nonzero;"/>
            <path id="Vector_21" d="M659.512,280.4C659.312,280.4 659.012,280.3 658.912,280.1C657.312,278.3 656.812,276.4 656.512,274.6C656.112,272 652.412,272.2 650.512,271.7C650.312,271.6 650.012,271.6 649.812,271.4C649.212,270.9 649.412,269.6 649.812,269.1C650.312,268.4 651.212,268.3 651.912,268.2C652.112,268.2 652.312,268.2 652.412,268.1L653.912,267.6C655.812,266.9 656.612,265.9 656.612,264C656.612,262.7 656.612,260.6 658.712,259C658.912,258.9 659.112,258.8 659.312,258.8C659.512,258.8 659.712,259 659.912,259.1C660.712,260.2 661.012,261.4 661.312,262.5C662.012,264.9 663.012,267 665.712,267.3C667.212,267.5 669.312,267.5 670.412,268.8C670.612,269.1 670.612,269.4 670.512,269.7C669.312,272.1 666.112,271.4 664.112,272.6C662.812,273.4 662.112,274.8 661.612,276.2C661.312,276.9 661.512,277.2 661.412,277.9C661.312,278.6 660.712,279.4 660.312,279.9C660.012,280.3 659.712,280.4 659.512,280.4ZM653.912,270.6C654.212,270.7 654.512,270.8 654.812,270.9C656.712,271.2 657.912,272.4 658.212,274.3C658.412,275.7 658.812,277 659.512,278.1C659.812,277.5 659.812,276.8 659.712,276C659.712,275.8 659.712,275.6 659.812,275.5C660.012,275.2 660.212,274.7 660.312,274.3C660.612,273.5 660.912,272.5 661.812,271.7C661.912,271.6 662.012,271.5 662.212,271.5L665.612,270.5C666.012,270.3 666.512,270.2 666.912,270.1C667.512,270 668.012,269.8 668.312,269.6C668.112,269.5 667.912,269.6 667.612,269.6C667.412,269.6 667.212,269.6 667.012,269.5C666.312,269 665.412,269 664.612,268.9C663.812,268.8 663.012,268.7 662.512,268.3C660.512,266.7 660.012,264.8 659.512,263.2C659.312,262.5 659.112,261.8 658.812,261.2C658.212,262 658.112,263 658.112,264.1C658.112,266.7 656.812,268.4 654.312,269.3L652.812,269.9L652.712,269.9C652.512,270 652.212,270 651.912,270C651.612,270 651.212,270.1 651.112,270.2L651.112,270.4C651.312,270.5 651.412,270.5 651.612,270.6C651.712,270.6 651.712,270.6 651.812,270.5C651.912,270.4 652.012,270.4 652.112,270.4C652.712,270.2 653.312,270.3 653.912,270.6Z" style="fill:rgb(239,203,86);fill-rule:nonzero;"/>
        </g>
        <path id="Vector_22" d="M708.112,324.5C710.984,324.5 713.312,322.171 713.312,319.3C713.312,316.428 710.984,314.1 708.112,314.1C705.24,314.1 702.912,316.428 702.912,319.3C702.912,322.171 705.24,324.5 708.112,324.5Z" style="fill:rgb(255,94,33);fill-rule:nonzero;"/>
        <path id="Vector_23" d="M560.312,632.899C559.912,632.899 559.312,633.099 558.612,633.499C557.912,633.999 557.612,634.999 557.412,635.899C556.512,639.799 555.412,643.699 555.112,647.599C554.812,651.199 553.812,654.799 552.012,657.899C550.212,661.099 548.712,663.999 544.212,663.099C541.712,662.599 539.612,660.799 538.112,658.799C536.612,656.699 535.712,654.299 534.812,651.899C533.512,648.399 532.112,644.999 530.812,641.499C530.012,639.299 530.612,635.999 528.712,634.499C524.112,630.799 526.212,640.399 526.512,641.999C528.412,651.299 532.612,668.899 544.912,669.499C551.912,668.399 555.812,662.399 558.012,656.199C559.212,652.899 560.312,649.799 561.012,646.499C561.412,645.199 563.512,633.199 560.312,632.899Z" style="fill:rgb(95,33,48);fill-rule:nonzero;"/>
        <path id="Vector_24" d="M322.712,385.6C323.512,389.4 320.412,389.6 318.812,390C315.112,390.9 313.212,393.6 310.912,396.1C309.712,397.4 309.812,398.8 309.612,400.3C309.312,402.6 307.812,403.7 305.112,403.2C303.212,400.2 303.512,396 300.312,393.1C297.212,390.3 293.012,390.5 290.012,388C289.812,385.3 292.112,384.8 293.812,384.3C299.412,382.5 303.012,378.9 304.312,373.2C304.612,371.8 305.512,370.9 307.212,370.3C310.112,372.9 309.412,377.6 312.212,380.3C315.212,383.1 318.912,384.2 322.712,385.6Z" style="fill:rgb(255,185,2);fill-rule:nonzero;"/>
        <path id="Vector--Stroke-" serif:id="Vector (Stroke)" d="M331.758,407.991C328.856,407.991 326.503,410.343 326.503,413.245C326.503,416.147 328.856,418.5 331.758,418.5C334.66,418.5 337.013,416.147 337.013,413.245C337.013,410.343 334.66,407.991 331.758,407.991ZM322.812,413.245C322.812,408.305 326.817,404.3 331.758,404.3C336.698,404.3 340.703,408.305 340.703,413.245C340.703,418.186 336.698,422.191 331.758,422.191C326.817,422.191 322.812,418.186 322.812,413.245Z" style="fill:rgb(255,185,2);"/>
        <path id="Vector--Stroke-_2" serif:id="Vector (Stroke)_2" d="M733.396,450.568C730.239,450.568 727.68,453.127 727.68,456.284C727.68,459.441 730.239,462 733.396,462C736.553,462 739.112,459.441 739.112,456.284C739.112,453.127 736.553,450.568 733.396,450.568ZM724.912,456.284C724.912,451.598 728.711,447.8 733.396,447.8C738.082,447.8 741.88,451.598 741.88,456.284C741.88,460.969 738.082,464.768 733.396,464.768C728.711,464.768 724.912,460.969 724.912,456.284Z" style="fill:rgb(255,185,2);"/>
    </g>
</svg>
